<svg width="16" height="16" viewBox="0 0 16 16" fill="none" xmlns="http://www.w3.org/2000/svg">
<g clip-path="url(#clip0_1896_34345)">
<path d="M5.7139 0.489051C5.7577 0.488924 5.8015 0.488756 5.8453 0.488553C5.96255 0.488132 6.07979 0.488289 6.19703 0.488589C6.32064 0.488829 6.44425 0.488605 6.56786 0.488459C6.77515 0.488289 6.98244 0.488511 7.18973 0.48896C7.42845 0.489471 7.66717 0.489304 7.90589 0.488788C8.11206 0.488361 8.31823 0.488304 8.52441 0.488548C8.64702 0.488693 8.76964 0.488717 8.89226 0.488404C9.00748 0.488131 9.1227 0.488325 9.23793 0.488863C9.29973 0.489044 9.36153 0.48877 9.42332 0.488476C10.2368 0.494187 10.7183 0.937021 11.2765 1.46859C11.3778 1.56472 11.4799 1.65994 11.582 1.75509C11.6205 1.79098 11.659 1.82686 11.6975 1.86275C11.7165 1.88041 11.7354 1.89806 11.7549 1.91625C11.8523 2.00701 11.9496 2.09785 12.0469 2.18868C12.0859 2.22514 12.125 2.2616 12.1641 2.29806C12.3984 2.51681 12.6328 2.73556 12.8672 2.95431C12.8865 2.97237 12.9059 2.99043 12.9258 3.00904C12.9647 3.04533 13.0036 3.08164 13.0424 3.11796C13.1428 3.21182 13.2435 3.30536 13.3447 3.3984C13.8138 3.83058 14.219 4.27008 14.2644 4.94142C14.2719 5.12491 14.2708 5.30833 14.2697 5.49194C14.2699 5.56211 14.2701 5.63229 14.2704 5.70247C14.271 5.89173 14.2706 6.08097 14.27 6.27022C14.2694 6.46925 14.2697 6.66827 14.2699 6.86729C14.27 7.20153 14.2695 7.53576 14.2687 7.87C14.2678 8.21244 14.2675 8.55487 14.268 8.89732C14.2686 9.31185 14.2685 9.72638 14.2679 10.1409C14.2677 10.2984 14.2678 10.456 14.268 10.6135C14.2682 10.7995 14.2678 10.9855 14.267 11.1716C14.2668 11.2393 14.2668 11.3071 14.267 11.3749C14.2686 11.9063 14.2216 12.4315 14.0254 12.9309C14.0162 12.9549 14.007 12.979 13.9975 13.0038C13.689 13.7816 13.1212 14.4711 12.4063 14.9074C12.3727 14.9288 12.3392 14.9501 12.3047 14.9721C12.1051 15.0937 11.9019 15.1911 11.6836 15.2746C11.6622 15.283 11.6408 15.2915 11.6188 15.3001C11.5384 15.3293 11.4573 15.3528 11.375 15.3762C11.3386 15.3867 11.3023 15.3971 11.2648 15.4079C10.7197 15.5471 10.1548 15.5195 9.5966 15.518C9.44609 15.5177 9.29557 15.518 9.14505 15.5181C8.89248 15.5184 8.63991 15.5181 8.38733 15.5175C8.09699 15.5168 7.80666 15.517 7.51632 15.5177C7.26523 15.5183 7.01415 15.5184 6.76307 15.518C6.6139 15.5178 6.46473 15.5178 6.31556 15.5182C5.54552 15.5201 4.84205 15.5038 4.125 15.1887C4.10456 15.1798 4.08412 15.171 4.06305 15.1619C3.12258 14.7467 2.38175 13.9474 2.00403 12.995C1.97745 12.9245 1.95224 12.8537 1.92774 12.7824C1.91693 12.7514 1.91693 12.7514 1.90591 12.7197C1.74523 12.223 1.7363 11.7369 1.73738 11.22C1.7372 11.1421 1.73698 11.0642 1.73673 10.9863C1.73623 10.7979 1.73616 10.6094 1.73633 10.4209C1.73645 10.2675 1.73641 10.1141 1.73624 9.96062C1.73622 9.93867 1.73619 9.91671 1.73617 9.89409C1.73612 9.84947 1.73607 9.80485 1.73603 9.76023C1.7356 9.34305 1.73577 8.92586 1.73613 8.50868C1.73644 8.12841 1.73603 7.74816 1.73528 7.36789C1.73452 6.9759 1.73422 6.58391 1.73443 6.19192C1.73454 5.97246 1.73447 5.75301 1.73392 5.53355C1.73341 5.32701 1.73357 5.12048 1.73415 4.91394C1.73426 4.83861 1.73417 4.76329 1.73384 4.68796C1.73161 4.13451 1.77001 3.59209 1.97461 3.07149C1.98383 3.04742 1.99304 3.02335 2.00253 2.99854C2.3893 2.02345 3.16505 1.2336 4.12204 0.809898C4.2362 0.761999 4.35169 0.719159 4.46875 0.678916C4.4998 0.668112 4.4998 0.668112 4.53148 0.657089C4.91891 0.531768 5.30861 0.487113 5.7139 0.489051ZM3.75 2.28243C3.71018 2.31851 3.71018 2.31851 3.66956 2.35531C3.06945 2.92417 2.78256 3.68524 2.75 4.50118C2.74458 4.72957 2.74572 4.95805 2.74596 5.18648C2.74592 5.2548 2.74586 5.32312 2.74579 5.39144C2.74565 5.57584 2.74571 5.76024 2.74581 5.94464C2.74589 6.13829 2.74581 6.33193 2.74576 6.52558C2.74571 6.85068 2.74578 7.17578 2.74593 7.50088C2.7461 7.87589 2.74604 8.2509 2.74587 8.62591C2.74573 8.9488 2.74571 9.27169 2.74579 9.59458C2.74584 9.78703 2.74585 9.97948 2.74574 10.1719C2.74565 10.3529 2.74572 10.5339 2.7459 10.7149C2.74594 10.781 2.74593 10.8472 2.74586 10.9133C2.74522 11.5834 2.76793 12.197 3.0625 12.8137C3.07628 12.8425 3.09006 12.8714 3.10425 12.9011C3.44772 13.5728 4.07658 14.1004 4.7909 14.3376C4.86679 14.361 4.94292 14.3827 5.01953 14.4035C5.04262 14.4099 5.06571 14.4162 5.0895 14.4228C5.44332 14.5119 5.81221 14.5058 6.17477 14.5057C6.21887 14.5058 6.26296 14.5059 6.30706 14.506C6.42562 14.5063 6.54417 14.5064 6.66272 14.5064C6.73714 14.5064 6.81156 14.5065 6.88597 14.5066C7.14659 14.5069 7.4072 14.507 7.66781 14.507C7.90914 14.507 8.15046 14.5073 8.39178 14.5078C8.60032 14.5082 8.80885 14.5084 9.01739 14.5083C9.14134 14.5083 9.26529 14.5084 9.38924 14.5087C10.4442 14.5114 11.4358 14.4766 12.25 13.7199C12.2909 13.6822 12.2909 13.6822 12.3326 13.6438C12.8398 13.1572 13.1514 12.5202 13.2225 11.8225C13.2251 11.7969 13.2277 11.7714 13.2304 11.7451C13.2588 11.4426 13.2583 11.1407 13.2571 10.8371C13.2571 10.773 13.2571 10.7088 13.2571 10.6447C13.2571 10.4726 13.2568 10.3005 13.2563 10.1284C13.2559 9.94785 13.2559 9.76726 13.2558 9.58667C13.2556 9.24559 13.2551 8.90451 13.2545 8.56343C13.2538 8.17475 13.2535 7.78606 13.2531 7.39738C13.2525 6.59865 13.2514 5.79991 13.25 5.00118C13.2215 5.001 13.1929 5.00082 13.1635 5.00063C12.8933 4.99881 12.623 4.99655 12.3527 4.99382C12.2137 4.99242 12.0748 4.9912 11.9359 4.99036C11.8016 4.98954 11.6672 4.98827 11.5329 4.98671C11.4819 4.98619 11.4309 4.98583 11.38 4.98563C10.7626 4.98301 10.2459 4.8374 9.7948 4.39767C9.49628 4.06799 9.28147 3.64122 9.27484 3.18987C9.27421 3.15234 9.27359 3.11481 9.27295 3.07615C9.27216 3.01559 9.27216 3.01559 9.27137 2.95382C9.27072 2.91196 9.27007 2.8701 9.2694 2.82824C9.26768 2.7183 9.26613 2.60836 9.26462 2.49842C9.26305 2.38614 9.26131 2.27386 9.25959 2.16158C9.25623 1.94145 9.25306 1.72132 9.25 1.50118C8.7993 1.49971 8.3486 1.49862 7.89789 1.49794C7.68856 1.49762 7.47923 1.49718 7.2699 1.49647C7.06748 1.49578 6.86506 1.49541 6.66264 1.49525C6.58583 1.49514 6.50901 1.49491 6.4322 1.49457C5.43439 1.49034 4.51504 1.57282 3.75 2.28243ZM10.25 1.96993C10.2484 2.1105 10.2473 2.25107 10.2466 2.39165C10.2463 2.43932 10.2458 2.48698 10.2453 2.53465C10.2404 2.97679 10.2438 3.36615 10.5499 3.71419C10.822 3.97079 11.1736 4.00655 11.5311 4.00423C11.5572 4.00419 11.5832 4.00415 11.6101 4.0041C11.6925 4.00393 11.775 4.00353 11.8574 4.00313C11.9136 4.00298 11.9699 4.00284 12.0261 4.00271C12.1632 4.00236 12.3004 4.00183 12.4375 4.00118C12.413 3.97145 12.3885 3.94172 12.3633 3.91109C12.3495 3.89436 12.3357 3.87764 12.3215 3.86041C12.2721 3.80303 12.2183 3.75466 12.1602 3.70626C12.0772 3.63554 11.9982 3.56344 11.9219 3.48556C11.8465 3.40885 11.769 3.33698 11.6875 3.26681C11.5866 3.17986 11.4927 3.08836 11.3994 2.99337C11.3411 2.93611 11.2807 2.88263 11.2188 2.82931C11.1178 2.74236 11.024 2.65086 10.9307 2.55587C10.8527 2.47924 10.7698 2.40882 10.6869 2.33761C10.6073 2.26661 10.5337 2.19065 10.4606 2.113C10.3958 2.05417 10.3254 2.01409 10.25 1.96993Z" fill="black"/>
<path d="M8.1875 5.75122C8.33225 5.81842 8.44128 5.91327 8.5 6.06372C8.51746 6.21099 8.51456 6.35782 8.51221 6.50586C8.51197 6.54903 8.5118 6.5922 8.51167 6.63537C8.5112 6.7485 8.50997 6.86162 8.50858 6.97474C8.5073 7.09038 8.50673 7.20601 8.5061 7.32165C8.50477 7.54818 8.50264 7.7747 8.5 8.00122C8.52386 8.00094 8.54771 8.00066 8.57229 8.00038C8.79757 7.99787 9.02285 7.99597 9.24814 7.99474C9.36396 7.99409 9.47976 7.99321 9.59557 7.99179C9.70741 7.99043 9.81925 7.98968 9.93111 7.98936C9.97369 7.98913 10.0163 7.98868 10.0589 7.988C10.4715 7.98171 10.4715 7.98171 10.625 8.12622C10.7384 8.24557 10.7597 8.34131 10.7656 8.50122C10.7581 8.70509 10.7021 8.80363 10.5542 8.94284C10.3908 9.04823 10.1822 9.01639 9.99536 9.01343C9.95219 9.01319 9.90902 9.01301 9.86585 9.01289C9.75271 9.01241 9.6396 9.01119 9.52647 9.0098C9.41084 9.00852 9.2952 9.00795 9.17957 9.00732C8.95303 9.00599 8.72652 9.00385 8.5 9.00122C8.50028 9.02508 8.50056 9.04893 8.50084 9.07351C8.50335 9.29879 8.50525 9.52407 8.50648 9.74936C8.50713 9.86517 8.50801 9.98098 8.50943 10.0968C8.51079 10.2086 8.51154 10.3205 8.51186 10.4323C8.51209 10.4749 8.51254 10.5175 8.51322 10.5601C8.51951 10.9727 8.51951 10.9727 8.375 11.1262C8.25565 11.2396 8.15991 11.2609 8 11.2668C7.79613 11.2593 7.69759 11.2033 7.55838 11.0555C7.45299 10.892 7.48482 10.6834 7.48779 10.4966C7.48803 10.4534 7.4882 10.4102 7.48833 10.3671C7.4888 10.2539 7.49003 10.1408 7.49142 10.0277C7.4927 9.91206 7.49327 9.79642 7.4939 9.68078C7.49523 9.45425 7.49736 9.22774 7.5 9.00122C7.47614 9.0015 7.45229 9.00177 7.42771 9.00206C7.20243 9.00457 6.97715 9.00647 6.75186 9.0077C6.63604 9.00835 6.52024 9.00923 6.40443 9.01065C6.29259 9.01201 6.18075 9.01275 6.06889 9.01308C6.02631 9.01331 5.98372 9.01376 5.94114 9.01443C5.52848 9.02073 5.52848 9.02073 5.375 8.87622C5.26161 8.75687 5.24031 8.66113 5.23438 8.50122C5.24194 8.29735 5.2979 8.19881 5.44576 8.0596C5.60919 7.95421 5.81784 7.98604 6.00464 7.98901C6.04781 7.98924 6.09098 7.98942 6.13415 7.98955C6.24729 7.99002 6.3604 7.99125 6.47353 7.99264C6.58916 7.99392 6.7048 7.99449 6.82043 7.99511C7.04697 7.99645 7.27348 7.99858 7.5 8.00122C7.49972 7.97736 7.49944 7.9535 7.49916 7.92893C7.49665 7.70364 7.49475 7.47837 7.49352 7.25308C7.49287 7.13726 7.49199 7.02146 7.49057 6.90565C7.48921 6.7938 7.48846 6.68197 7.48814 6.57011C7.48791 6.52752 7.48746 6.48494 7.48678 6.44236C7.48049 6.0297 7.48049 6.0297 7.625 5.87622C7.78973 5.71973 7.97213 5.72223 8.1875 5.75122Z" fill="black"/>
</g>
<defs>
<clipPath id="clip0_1896_34345">
<rect width="16" height="16" fill="white" transform="translate(0 0.000976562)"/>
</clipPath>
</defs>
</svg>
