<svg width="24" height="25" viewBox="0 0 24 25" fill="none" xmlns="http://www.w3.org/2000/svg">
<rect x="0.5" y="1" width="23" height="23" rx="11.5" stroke="#535353"/>
<path d="M12.75 7.7C12.75 7.03726 12.6627 6.5 12 6.5C11.3373 6.5 11.25 7.33726 11.25 8V11.75H7.125C6.46226 11.75 6 11.8373 6 12.5C6 13.1627 6.53726 13.25 7.2 13.25H11.25V17.3C11.25 17.9627 11.3373 18.5 12 18.5C12.6627 18.5 12.75 17.9627 12.75 17.3V13.25H16.8C17.4627 13.25 18 13.1627 18 12.5C18 11.8373 17.4627 11.75 16.8 11.75H12.75V7.7Z" fill="#535353"/>
</svg>
