<svg width="55" height="55" viewBox="0 0 55 55" fill="none" xmlns="http://www.w3.org/2000/svg">
<g clip-path="url(#clip0_1397_17809)">
<path d="M8.43259 55.6134C8.27522 55.551 8.09394 55.3847 8.02976 55.2438C7.8364 54.8194 7.87502 45.8595 8.07596 44.5241C8.34433 42.7405 8.79688 41.4142 9.71179 39.7298C9.73204 39.6925 9.43982 39.4416 9.0624 39.1723C7.35157 37.9515 6.21557 36.1216 5.87839 34.0435C5.62407 32.476 5.81973 30.7455 6.47273 28.7868C6.93178 27.4099 7.40953 26.5867 8.66675 25.0061C10.196 23.0835 10.1034 23.4301 10.1836 19.3337C10.2557 15.6531 10.3335 14.9381 10.8625 13.0992C12.1077 8.77122 15.198 4.97353 19.2725 2.76426C20.454 2.12362 22.0894 1.4844 23.2744 1.19997C25.7687 0.601311 30.2332 0.601311 32.7275 1.19997C35.6209 1.89442 38.5529 3.56915 40.7827 5.80101C43.6008 8.62169 45.2647 12.079 45.721 16.0617C45.7816 16.591 45.8316 18.2603 45.8321 19.7711C45.8328 22.0156 45.8647 22.6111 46.0064 23.0269C46.1127 23.3389 46.5916 24.0577 47.2444 24.8849C48.6066 26.6109 49.0641 27.3922 49.5295 28.7868C50.7996 32.5933 50.3142 35.7982 48.1106 38.156C47.8328 38.4533 47.3012 38.9137 46.9294 39.1792C46.5575 39.4447 46.2698 39.6925 46.2901 39.7298C47.1874 41.3818 47.6617 42.7726 47.9263 44.5281C48.1266 45.857 48.1653 54.8199 47.9725 55.2429C47.9086 55.3833 47.6997 55.5547 47.5084 55.6239C47.0379 55.794 8.86216 55.7837 8.43259 55.6134ZM14.4658 50.8567C14.4658 48.0217 14.5131 47.797 15.1677 47.5235C15.6305 47.3301 15.8013 47.3318 16.2267 47.5337C16.8977 47.8521 16.9365 48.0333 16.9365 50.8517V53.3864H21.3436H25.7506L25.3256 52.6076C23.2652 48.8319 21.7999 43.5593 21.3384 38.2601C21.1651 36.2711 21.1464 36.1784 20.9321 36.2437C16.2378 37.6739 14.6369 38.3507 13.2726 39.482C12.2258 40.35 11.3719 41.6764 10.9257 43.1276C10.4757 44.5913 10.3851 45.6836 10.3844 49.6535L10.3838 53.3864H12.4248H14.4658V50.8567ZM39.0654 50.8517C39.0654 48.0333 39.1042 47.8521 39.7752 47.5337C40.2006 47.3318 40.3714 47.3301 40.8342 47.5235C41.4888 47.797 41.5361 48.0218 41.5361 50.8567V53.3864H43.5771H45.6181L45.6175 49.6535C45.6168 45.6787 45.5258 44.5846 45.0744 43.1276C44.2823 40.5705 42.7373 39.0194 39.7783 37.8108C38.6282 37.3411 34.9738 36.1727 34.8964 36.25C34.8695 36.277 34.7831 37.0137 34.7044 37.8872C34.1891 43.6115 32.7684 48.7959 30.6704 52.6076L30.2417 53.3864H34.6536H39.0654L39.0654 50.8517ZM28.5633 51.2648C29.6444 49.2034 30.6172 46.542 31.2362 43.9517C31.5419 42.6725 32.1186 39.314 32.0452 39.2406C32.0263 39.2217 31.7322 39.302 31.3917 39.4192C29.319 40.1323 26.851 40.1292 24.6924 39.4109C24.3185 39.2865 23.9923 39.205 23.9675 39.2298C23.8854 39.3119 24.4377 42.5791 24.7657 43.9517C25.1734 45.6576 25.8504 47.7452 26.4668 49.197C26.9993 50.4513 27.8937 52.2048 28.0009 52.2048C28.0391 52.2048 28.2921 51.7818 28.5633 51.2648ZM12.2939 37.129C13.9623 35.9741 15.3603 35.3655 18.8479 34.2755C19.9878 33.9192 20.9667 33.5991 21.0232 33.5642C21.0797 33.5293 21.1259 32.998 21.1259 32.3837V31.2667L20.3471 30.6504C17.7925 28.629 16.1294 25.8793 15.5898 22.785C15.3796 21.58 15.3835 19.2448 15.5971 18.4251C15.8566 17.4288 16.3626 16.5934 17.136 15.8848C17.7091 15.3596 18.2259 15.0514 20.0256 14.1612C22.9699 12.7049 23.53 12.1546 23.9593 10.2964C24.162 9.41897 24.5613 9.02119 25.2395 9.02119C25.8383 9.02119 26.0551 9.18762 26.6744 10.1228C27.3777 11.185 28.8914 12.7278 30.02 13.5328C32.1795 15.0731 35.6538 16.3387 39.0117 16.8083C39.8029 16.919 40.2101 17.1246 40.4123 17.5154C40.5691 17.8187 40.5856 18.1691 40.543 20.29C40.4984 22.5031 40.4685 22.8124 40.2038 23.7917C39.4739 26.4924 37.8871 28.884 35.6512 30.6532L34.8688 31.2723L34.8992 32.4155L34.9297 33.5586L35.3056 33.6904C35.5124 33.763 36.6166 34.1182 37.7595 34.4798C40.8503 35.4579 42.547 36.2288 43.983 37.3074L44.5501 37.7333L44.9321 37.5301C45.5018 37.2269 46.5151 36.2734 46.8859 35.6913C47.7576 34.3233 47.9439 32.4117 47.4057 30.3583C47.0311 28.9289 46.5329 27.9731 45.4947 26.6921C43.4035 24.1116 43.4474 24.2526 43.3549 19.8171C43.273 15.8917 43.1767 15.0983 42.5579 13.2471C41.8043 10.9928 40.7492 9.30115 39.0154 7.56726C37.2726 5.82447 35.441 4.691 33.1197 3.91882C31.1813 3.274 30.451 3.16669 28.0009 3.16669C26.0879 3.16669 25.6524 3.19947 24.6837 3.41636C19.2341 4.63652 15.1233 8.22394 13.4544 13.2159C12.8244 15.1006 12.7292 15.8788 12.647 19.8171C12.5545 24.2526 12.5984 24.1116 10.5071 26.6921C10.0283 27.2829 9.46503 28.1109 9.25533 28.5321C8.34369 30.3633 8.03438 32.9725 8.55024 34.4802C8.84325 35.3366 9.26021 36.0044 9.86807 36.591C10.3331 37.0398 11.2248 37.6931 11.3809 37.6994C11.4271 37.7013 11.838 37.4446 12.2939 37.129ZM30.042 37.2142C31.2678 36.8485 32.2012 36.3993 32.3055 36.125C32.3604 35.9807 32.4052 35.1109 32.4052 34.1921V32.5215L32.1635 32.5764C32.0306 32.6066 31.5476 32.731 31.0902 32.8528C30.6329 32.9747 29.7507 33.1291 29.1298 33.196C27.8163 33.3374 26.2528 33.2102 24.9117 32.8528C24.4543 32.731 23.9713 32.6066 23.8383 32.5764L23.5966 32.5215V34.1921C23.5966 35.1109 23.6398 35.9763 23.6926 36.1151C23.8029 36.4052 25.2846 37.0604 26.2822 37.2601C26.6071 37.3252 26.9697 37.4008 27.0879 37.4282C27.5164 37.5274 29.4654 37.3862 30.042 37.2142ZM30.0196 30.5498C34.8866 29.5469 38.2439 25.2369 38.0781 20.2042L38.0449 19.1949L37.1318 19.0094C32.6033 18.0894 29.2383 16.4418 26.5245 13.8158C26.0374 13.3445 25.6246 12.9792 25.6073 13.0042C24.574 14.4902 23.7969 15.0841 21.254 16.3312C18.2575 17.8007 17.9033 18.2323 17.9033 20.4133C17.9033 21.6681 18.1241 23.0121 18.5054 24.0777C19.6688 27.3289 22.5161 29.8154 25.9079 30.5421C26.9245 30.76 28.9811 30.7638 30.0196 30.5498Z" fill="#535353"/>
<path d="M8.47722 55.6037C8.34439 55.5379 8.15825 55.3208 8.06358 55.1213C7.91107 54.7999 7.89754 54.212 7.94487 49.9636C7.99989 45.0247 8.04984 44.3934 8.51564 42.7516C8.75617 41.9039 9.18819 40.8511 9.54144 40.252C9.70931 39.9673 9.84665 39.7182 9.84665 39.6984C9.84665 39.6786 9.48891 39.3932 9.05168 39.0641C7.68006 38.0317 6.7447 36.7472 6.22395 35.1807C5.96422 34.3993 5.9371 34.1638 5.93302 32.654C5.92932 31.2803 5.97004 30.8253 6.16574 30.0536C6.69481 27.9674 7.32375 26.7688 8.91604 24.8126C10.2668 23.1531 10.2 23.4282 10.2865 19.1725C10.369 15.1118 10.453 14.4818 11.1971 12.344C13.1027 6.86944 17.6627 2.71506 23.3974 1.22906C25.7528 0.618714 30.2491 0.618714 32.6045 1.22906C38.3455 2.71671 42.8971 6.86336 44.8048 12.344C45.5489 14.4818 45.6329 15.1118 45.7154 19.1725C45.8019 23.4282 45.7351 23.1531 47.0859 24.8126C48.6592 26.7455 49.2525 27.8637 49.8214 29.9684C50.0308 30.7432 50.0681 31.1419 50.0673 32.6003C50.0664 34.176 50.0424 34.3907 49.7789 35.1807C49.2552 36.7506 48.3211 38.0323 46.9465 39.0669C46.5073 39.3975 46.162 39.6971 46.1794 39.7328C46.1967 39.7684 46.4109 40.1853 46.6554 40.6593C46.8998 41.1333 47.2255 41.9309 47.379 42.4318C47.9508 44.2971 47.9977 44.8186 48.0568 49.9622C48.1172 55.2318 48.108 55.3222 47.476 55.6154C47.0806 55.7989 8.84809 55.7874 8.47722 55.6037ZM14.5732 50.8083C14.6028 49.3608 14.669 48.0901 14.7205 47.9845C14.8467 47.7257 15.3489 47.4782 15.7478 47.4782C15.956 47.4782 16.2004 47.5913 16.4245 47.7915L16.7754 48.1047L16.8291 50.7724L16.8828 53.4401L21.377 53.4682C23.8488 53.4836 25.8538 53.4594 25.8324 53.4145C25.8111 53.3695 25.4244 52.5834 24.9732 51.6677C22.9009 47.4624 22.0203 43.9662 21.2663 36.9509C21.1825 36.172 21.1707 36.1465 20.9117 36.1833C20.7643 36.2042 19.6419 36.5519 18.4175 36.9559C14.1386 38.3679 12.3834 39.6002 11.2799 41.9673C10.4779 43.6879 10.2784 45.2815 10.2772 49.978L10.2763 53.4984L12.3979 53.4692L14.5195 53.4401L14.5732 50.8083ZM39.1728 50.7724L39.2265 48.1047L39.5773 47.7915C39.8015 47.5913 40.0458 47.4782 40.2541 47.4782C40.653 47.4782 41.1552 47.7257 41.2814 47.9845C41.3329 48.0901 41.3991 49.3608 41.4287 50.8083L41.4824 53.4401L43.6145 53.4693L45.7466 53.4984L45.6963 49.3335C45.6509 45.5713 45.6236 45.0665 45.4132 44.1123C44.9989 42.2329 44.3123 40.8813 43.2427 39.8394C42.0569 38.6844 40.65 37.9675 37.583 36.9555C36.3594 36.5517 35.2378 36.2042 35.0907 36.1833C34.7879 36.1402 34.84 35.8842 34.4974 39.0993C33.97 44.0499 32.6435 48.6746 30.6801 52.4082C30.3882 52.9632 30.1494 53.4351 30.1494 53.4567C30.1494 53.4784 32.1676 53.4836 34.6342 53.4682L39.1191 53.4401L39.1728 50.7724ZM28.7671 51.0173C29.9769 48.6332 30.9095 45.9371 31.5017 43.112C31.8672 41.3683 32.1803 39.2837 32.0918 39.1824C32.0543 39.1395 31.678 39.2213 31.2556 39.3642C29.2064 40.0575 26.7197 40.0375 24.6073 39.3108C24.2655 39.1931 23.9534 39.1337 23.9139 39.1787C23.7348 39.3823 24.5357 43.616 25.1592 45.7615C25.888 48.2695 27.6989 52.395 28.0235 52.2868C28.0893 52.2648 28.4239 51.6936 28.7671 51.0173ZM12.1968 37.283C13.6858 36.1795 15.2675 35.4834 18.8164 34.3699L21.0722 33.662L21.1024 32.4179L21.1326 31.1738L20.4561 30.6356C18.9891 29.4682 17.5348 27.7286 16.8003 26.2624C16.3761 25.4159 15.8864 23.9359 15.6904 22.9081C15.4234 21.5084 15.4438 19.0631 15.7298 18.1791C16.2694 16.5117 17.1444 15.6838 19.6886 14.4333C21.7922 13.3994 22.6624 12.8669 23.1047 12.3431C23.5054 11.8683 23.8837 11.0497 24.032 10.336C24.2447 9.31263 24.8987 8.84418 25.6667 9.16509C25.9407 9.27957 26.2165 9.57838 26.7011 10.286C27.0645 10.8166 27.816 11.6901 28.371 12.227C30.7885 14.5657 33.918 15.9987 38.2597 16.755C40.5915 17.1611 40.5196 17.0613 40.504 19.8708C40.491 22.2179 40.3435 23.2501 39.8012 24.788C39.3968 25.935 39.0817 26.5732 38.4369 27.5515C37.8576 28.4304 36.5087 29.8694 35.5458 30.6356L34.8693 31.1738L34.8995 32.4179L34.9297 33.662L37.1855 34.3699C40.7442 35.4865 42.3152 36.1789 43.8188 37.2932L44.544 37.8306L45.0542 37.5325C46.2856 36.8131 47.2517 35.5522 47.6021 34.2071C47.8096 33.4105 47.8137 31.8155 47.6108 30.8617C47.2365 29.1025 46.7485 28.133 45.3541 26.3784C44.2991 25.0507 43.7841 24.1997 43.587 23.4579C43.5225 23.2153 43.4248 21.3542 43.37 19.3222C43.2651 15.4364 43.2062 14.9357 42.6555 13.2485C41.2443 8.92539 37.6027 5.31284 33.1572 3.82602C31.3961 3.23702 30.2634 3.07121 28.0009 3.07121C25.7384 3.07121 24.6058 3.23702 22.8447 3.82602C18.3884 5.31645 14.7611 8.91487 13.3464 13.2485C12.823 14.8519 12.7394 15.4941 12.6376 18.6891C12.4745 23.8074 12.5147 23.4078 12.0739 24.2953C11.8594 24.7273 11.2238 25.6583 10.6615 26.3642C9.25407 28.131 8.76672 29.0964 8.39111 30.8617C8.1897 31.8082 8.19185 33.4087 8.39556 34.1908C8.74216 35.5215 9.54328 36.6129 10.7495 37.3976C11.0984 37.6245 11.4067 37.8102 11.4346 37.8102C11.4626 37.8102 11.8055 37.573 12.1968 37.283ZM30.1011 37.2717C30.5277 37.1626 31.2134 36.9038 31.6248 36.6966L32.3729 36.3199L32.442 35.588C32.5657 34.2781 32.5285 32.439 32.3784 32.4405C32.3045 32.4413 31.9299 32.5407 31.5459 32.6614C30.6337 32.9482 29.0125 33.1898 28.0009 33.1898C26.9894 33.1898 25.3682 32.9482 24.456 32.6614C24.072 32.5407 23.6974 32.4413 23.6235 32.4405C23.4734 32.439 23.4362 34.2781 23.5599 35.5878L23.629 36.3195L24.2343 36.6251C26.051 37.5422 28.1424 37.7727 30.1011 37.2717ZM29.9883 30.6244C32.0222 30.2024 33.7164 29.3012 35.1518 27.8778C37.1364 25.9099 38.1078 23.5507 38.1376 20.6267L38.1523 19.1804L37.8838 19.1015C37.7361 19.0581 37.0351 18.894 36.3261 18.7369C32.4061 17.8681 29.1196 16.2111 26.7347 13.9012C26.1609 13.3454 25.666 12.8901 25.6351 12.8895C25.6041 12.8889 25.3654 13.1814 25.1046 13.5395C24.4191 14.4809 23.4866 15.1303 21.1797 16.2733C18.0856 17.8063 17.8435 18.1196 17.8593 20.569C17.8668 21.7224 17.9234 22.2952 18.1022 23.0265C18.9366 26.4385 21.4469 29.1803 24.7493 30.2867C25.2808 30.4648 25.9761 30.6538 26.2944 30.7066C27.3107 30.8754 28.9549 30.8388 29.9883 30.6244Z" fill="#535353"/>
<path d="M8.47993 55.5378C8.2895 55.4217 8.10444 55.2101 8.06868 55.0677C8.03293 54.9252 8.02408 52.543 8.04901 49.7738C8.09054 45.1621 8.11314 44.6553 8.318 43.7434C8.62616 42.3715 8.83186 41.7765 9.37724 40.6794C9.63543 40.16 9.84667 39.6967 9.84667 39.6499C9.84667 39.6031 9.57878 39.3802 9.25135 39.1547C8.29559 38.4965 7.24659 37.293 6.74751 36.2821C6.10866 34.9882 5.93384 34.1619 5.94589 32.4929C5.9544 31.3122 6.00545 30.9055 6.27626 29.8611C6.79838 27.8473 7.28936 26.9198 8.89429 24.9152C10.299 23.1608 10.211 23.5022 10.2904 19.4948C10.3873 14.6062 10.71 13.0396 12.2291 10.0828C14.7944 5.09001 19.8849 1.57891 25.5296 0.90901C31.5316 0.196701 36.9319 2.01426 40.9101 6.08557C42.8265 8.04687 44.4593 10.9187 45.1256 13.4999C45.5573 15.1722 45.6433 16.0529 45.7115 19.4948C45.7909 23.5022 45.703 23.1608 47.1076 24.9152C48.7121 26.9192 49.2029 27.8462 49.7262 29.8611C49.9992 30.912 50.0482 31.3048 50.0543 32.4929C50.0628 34.166 49.8863 35.0024 49.2544 36.2821C48.7553 37.293 47.7064 38.4965 46.7506 39.1547C46.4232 39.3802 46.1553 39.601 46.1553 39.6454C46.1553 39.6897 46.3973 40.2255 46.6932 40.836C47.2809 42.0485 47.6795 43.452 47.8628 44.9538C48.0169 46.2161 48.0237 54.9329 47.8708 55.2186C47.5712 55.7784 48.6447 55.7498 27.9795 55.7493C9.12852 55.7489 8.8207 55.7456 8.47993 55.5378ZM14.4033 53.5361C14.5516 53.4792 14.5732 53.1499 14.5732 50.9526C14.5732 48.1191 14.6192 47.905 15.2878 47.6256C15.7952 47.4136 16.3383 47.5877 16.6222 48.0533C16.81 48.3613 16.8283 48.6166 16.8287 50.9311C16.829 53.1477 16.8507 53.4792 16.999 53.5361C17.3188 53.6588 25.727 53.6101 25.8043 53.4851C25.8438 53.4211 25.6083 52.8531 25.2809 52.2229C23.2117 48.2387 21.8495 43.1524 21.4248 37.8246C21.3409 36.7716 21.2477 36.1565 21.1673 36.1256C21.0173 36.0681 18.1266 36.9411 16.82 37.4386C13.4282 38.7299 11.7477 40.2655 10.8776 42.8681C10.3633 44.4067 10.2773 45.3681 10.2768 49.5819C10.2766 51.7138 10.3086 53.4903 10.348 53.5297C10.4375 53.6192 14.1714 53.6251 14.4033 53.5361ZM39.0029 53.5361C39.1512 53.4792 39.1729 53.1477 39.1732 50.9311C39.1736 48.6166 39.1919 48.3613 39.3798 48.0533C39.6637 47.5877 40.2068 47.4136 40.7141 47.6256C41.3831 47.9051 41.4287 48.1181 41.4287 50.9621V53.4898L41.6704 53.5493C41.8033 53.582 42.758 53.595 43.792 53.5782L45.6719 53.5476L45.7021 49.6804C45.7261 46.6086 45.6983 45.5955 45.5667 44.7547C44.981 41.0107 43.26 39.0066 39.3318 37.4939C38.0798 37.0118 34.983 36.0687 34.8366 36.1249C34.7537 36.1567 34.6623 36.7555 34.5771 37.8246C34.1524 43.1524 32.7902 48.2387 30.721 52.2229C30.3937 52.8531 30.1582 53.4211 30.1977 53.4851C30.2749 53.6101 38.6832 53.6588 39.0029 53.5361ZM28.7695 51.1245C29.9319 48.8359 30.8935 46.1253 31.4728 43.5036C31.8263 41.9037 32.2443 39.2248 32.1544 39.135C32.116 39.0965 31.6612 39.1927 31.1438 39.3487C28.8782 40.0318 26.8569 40.0067 24.6926 39.2686C24.0335 39.0438 23.8991 39.0261 23.8485 39.1578C23.7506 39.413 24.335 42.7859 24.7783 44.5241C25.0043 45.4104 25.4038 46.7397 25.6661 47.4782C26.4183 49.5964 27.7998 52.4688 28.0295 52.3922C28.0931 52.371 28.4261 51.8005 28.7695 51.1245ZM12.3914 37.208C13.6789 36.2839 15.13 35.6393 18.0644 34.6879C19.5415 34.2089 20.8588 33.774 20.9917 33.7213C21.2226 33.6297 21.2334 33.5708 21.2334 32.3995V31.1735L20.2822 30.4222C17.2029 27.9898 15.5429 24.4764 15.5407 20.3864C15.5395 18.2943 15.9493 17.2062 17.1731 16.0517C17.8025 15.458 18.189 15.2178 19.7088 14.476C21.767 13.4713 22.4086 13.0853 22.9931 12.5001C23.397 12.0958 24.0255 10.9604 24.0269 10.6325C24.0303 9.82867 24.5763 9.12864 25.1998 9.12864C25.7328 9.12864 25.95 9.3077 26.665 10.3368C27.434 11.4435 28.9742 12.9774 30.0718 13.7294C32.3894 15.3174 35.192 16.3043 39.4141 17.0193C39.6354 17.0568 39.9497 17.2018 40.1124 17.3417L40.4082 17.5959L40.4438 19.4047C40.4633 20.3996 40.4221 21.6725 40.3521 22.2334C39.9497 25.4597 38.2917 28.3906 35.7197 30.4222L34.7685 31.1735V32.3995C34.7685 33.5708 34.7793 33.6297 35.0102 33.7213C35.1432 33.774 36.4604 34.2089 37.9375 34.6879C40.8783 35.6414 42.3229 36.2838 43.6209 37.2155C44.6057 37.9224 44.6512 37.9228 45.5859 37.2348C47.6669 35.7028 48.3231 33.2852 47.4961 30.1969C47.1315 28.8353 46.5595 27.7941 45.3428 26.2775C43.5518 24.0449 43.4698 23.7672 43.4694 19.9288C43.4692 18.3903 43.416 16.6965 43.3511 16.1648C42.5304 9.44107 37.4713 4.28605 30.5804 3.15181C29.2505 2.93292 26.7514 2.93292 25.4216 3.15181C19.6056 4.1091 14.9416 8.02905 13.251 13.3808C12.691 15.1537 12.6147 15.8245 12.5379 19.656C12.4477 24.1523 12.477 24.0538 10.5078 26.4773C9.44349 27.7871 8.86152 28.8684 8.5058 30.1969C7.65528 33.3732 8.39521 35.8921 10.614 37.3738C10.9735 37.6139 11.3317 37.8103 11.41 37.8103C11.4883 37.8103 11.9299 37.5393 12.3914 37.208ZM30.3105 37.2717C31.1365 37.0102 32.3064 36.455 32.4305 36.2657C32.4739 36.1994 32.5101 35.282 32.511 34.227C32.5126 32.4427 32.4996 32.314 32.3247 32.3841C32.2213 32.4255 31.6775 32.5854 31.1162 32.7394C30.1785 32.9967 29.9257 33.0194 28.001 33.0194C26.0763 33.0194 25.8234 32.9967 24.8857 32.7394C24.3245 32.5854 23.7806 32.4255 23.6772 32.3841C23.5024 32.314 23.4894 32.4427 23.4909 34.227C23.4918 35.282 23.5281 36.1993 23.5715 36.2654C23.76 36.5526 25.5022 37.2517 26.6119 37.4854C27.4309 37.658 29.4611 37.5407 30.3105 37.2717ZM30.34 30.6081C33.333 29.9107 35.9428 27.7829 37.2676 24.9598C37.9385 23.53 38.1427 22.5376 38.1478 20.6805L38.1523 19.0731L37.6689 18.9857C36.622 18.7964 35.1968 18.4352 34.0703 18.0736C30.9421 17.0696 28.7099 15.7543 26.5722 13.6555C25.7746 12.8725 25.6109 12.7551 25.525 12.9053C25.2501 13.3865 24.4929 14.2305 23.9425 14.6693C23.6009 14.9417 22.4218 15.6054 21.2871 16.1642C19.1243 17.2291 18.4725 17.6857 18.0876 18.4053C17.8683 18.8154 17.8503 18.9893 17.858 20.6228C17.8678 22.6701 18.038 23.4923 18.768 25.0194C19.3308 26.1967 19.9502 27.05 20.9263 27.9929C23.4779 30.4581 26.9017 31.4092 30.34 30.6081Z" fill="#535353"/>
<path d="M8.42497 55.4363L8.07416 55.123L8.04057 51.0589C8.02126 48.7233 8.05654 46.42 8.12352 45.6433C8.30785 43.5059 8.90176 41.415 9.67045 40.1973C10.0159 39.65 10.0201 39.5709 9.71234 39.4109C9.16185 39.1248 8.01511 38.1015 7.53513 37.468C6.47358 36.067 5.97943 34.5264 5.97943 32.6178C5.97943 31.3256 6.17403 30.1716 6.6088 28.8854C7.11316 27.3933 7.55997 26.639 8.98971 24.8659C10.3484 23.1809 10.3127 23.3275 10.3893 19.1188C10.4517 15.6958 10.4693 15.4577 10.7511 14.2394C11.5824 10.6457 13.3791 7.59564 16.0575 5.23117C19.1594 2.49293 22.9323 0.986904 27.1952 0.785334C33.6281 0.481163 39.626 3.53807 43.0606 8.87123C43.5673 9.65792 44.4018 11.4147 44.7393 12.4049C45.4359 14.4488 45.5282 15.1674 45.6085 19.1725L45.6817 22.8249L45.9609 23.362C46.1144 23.6574 46.5891 24.3341 47.0158 24.8659C48.5017 26.7174 48.9473 27.4904 49.4619 29.109C49.9212 30.5539 50.0583 31.5639 49.9969 33.0492C49.9359 34.5247 49.6355 35.6089 48.9778 36.7277C48.4972 37.5451 47.4003 38.6918 46.6118 39.201C46.3016 39.4013 46.0478 39.6063 46.0478 39.6566C46.0478 39.7069 46.1754 39.9502 46.3314 40.1973C46.95 41.1773 47.517 42.9249 47.7874 44.6852C47.887 45.3334 47.9277 46.9802 47.9277 50.3604V55.1225L47.5769 55.4361L47.226 55.7497H28.0009H8.77579L8.42497 55.4363ZM14.5732 50.8799L14.6269 48.2122L14.9777 47.8989C15.4572 47.4707 15.979 47.471 16.4076 47.8996L16.7216 48.2136V50.7375C16.7216 52.1256 16.751 53.3378 16.7868 53.4313C16.8448 53.5825 17.3472 53.6012 21.3459 53.6012C23.8175 53.6012 25.8628 53.564 25.8909 53.5186C25.919 53.4731 25.5713 52.6867 25.1184 51.771C23.0508 47.5908 21.8194 42.7268 21.3866 37.0298C21.3473 36.5119 21.279 36.0659 21.2348 36.0386C21.1345 35.9766 17.5939 37.0777 16.5068 37.509C12.4126 39.1332 10.7366 41.3023 10.2804 45.5672C10.1572 46.72 10.1254 53.4145 10.2427 53.5318C10.2833 53.5724 11.2622 53.5925 12.418 53.5765L14.5195 53.5475L14.5732 50.8799ZM39.215 53.4313C39.2509 53.3379 39.2802 52.1256 39.2802 50.7375V48.2136L39.5942 47.8996C40.0228 47.471 40.5447 47.4707 41.0241 47.899L41.3749 48.2123L41.4286 50.8799L41.4824 53.5476H43.6308H45.7792L45.7743 49.5193C45.7689 45.0365 45.696 44.3239 45.0646 42.5789C44.2131 40.2255 42.568 38.7281 39.4951 37.509C38.4079 37.0777 34.8673 35.9767 34.767 36.0387C34.7229 36.066 34.6546 36.512 34.6152 37.0298C34.1824 42.7268 32.9511 47.5909 30.8834 51.771C30.4305 52.6867 30.0829 53.4732 30.111 53.5186C30.1391 53.5641 32.1843 53.6012 34.6559 53.6012C38.6547 53.6012 39.157 53.5825 39.215 53.4313ZM29.041 50.605C30.3957 47.8964 31.3267 44.9205 31.929 41.3735C32.2518 39.4724 32.2684 38.9412 32.0024 39.0286C29.2153 39.9445 27.4286 40.0306 25.1504 39.3588C24.6208 39.2026 24.1028 39.0505 23.9994 39.0208C23.7329 38.9442 23.7504 39.4738 24.0785 41.4106C24.6984 45.0696 25.6275 47.9968 27.1126 50.9694C27.7682 52.2817 27.8725 52.4413 28.0439 52.3946C28.1089 52.3769 28.5576 51.5715 29.041 50.605ZM12.1968 37.3904C13.8069 36.1972 15.5221 35.4722 19.9711 34.1043L21.2333 33.7163V32.4002V31.0841L20.5574 30.5878C19.0888 29.5095 17.5349 27.6091 16.7783 25.9661C15.9142 24.0899 15.6201 22.7123 15.6147 20.5153C15.6112 19.1131 15.6455 18.7443 15.8325 18.1791C16.4035 16.4523 17.3138 15.6331 20.1591 14.2852C22.8942 12.9895 23.6712 12.242 24.0728 10.5203C24.2633 9.70407 24.5207 9.3254 24.9736 9.19552C25.5491 9.03047 25.8978 9.27004 26.6227 10.3283C29.0128 13.818 32.9473 15.9838 38.582 16.9117C40.4502 17.2193 40.494 17.2963 40.4191 20.1393C40.3479 22.8452 40.0948 24.0794 39.2242 25.9661C38.4652 27.6112 36.9123 29.51 35.4444 30.5878L34.7685 31.0841V32.3393C34.7685 33.2157 34.809 33.6262 34.9028 33.6997C34.9766 33.7575 35.9962 34.1033 37.1686 34.4681C40.656 35.5531 42.3102 36.2826 43.8188 37.4006L44.5439 37.938L45.0542 37.6404C46.381 36.8665 47.4777 35.3859 47.7721 33.9712C47.9708 33.0168 47.8455 31.1879 47.5019 30.0261C47.1105 28.7029 46.6347 27.8472 45.4929 26.413C43.5549 23.9789 43.5731 24.0426 43.4647 19.3337C43.3743 15.4072 43.3278 15.0111 42.7529 13.2643C41.995 10.9618 40.8867 9.1945 39.0806 7.40855C37.2514 5.59973 35.5636 4.55285 33.2098 3.76705C27.3571 1.81318 21.0937 3.22469 16.8688 7.44958C15.1127 9.20568 13.9926 11.0049 13.2489 13.2643C12.674 15.0111 12.6275 15.4072 12.5371 19.3337C12.4287 24.0426 12.4469 23.9789 10.509 26.413C8.87733 28.4624 8.26485 29.9624 8.15803 32.1706C8.0655 34.0832 8.46957 35.3379 9.54817 36.4872C10.0166 36.9864 11.2448 37.9176 11.4346 37.9176C11.4625 37.9176 11.8055 37.6804 12.1968 37.3904ZM29.9103 37.412C30.3401 37.3173 31.0894 37.0418 31.5753 36.7999L32.4589 36.36L32.5423 35.4469C32.5881 34.9447 32.6123 34.0505 32.596 33.4596C32.5609 32.1891 32.6642 32.2361 30.955 32.7126C29.9673 32.988 29.7294 33.0121 28.0009 33.0121C26.2752 33.0121 26.0329 32.9876 25.0468 32.7138C24.456 32.5497 23.8397 32.3912 23.6772 32.3614L23.3818 32.3073L23.3943 33.6354C23.4012 34.3659 23.4375 35.2778 23.4749 35.6618L23.5429 36.36L24.08 36.6507C25.8151 37.5895 27.8808 37.8593 29.9103 37.412ZM30.3503 30.6703C32.1681 30.2233 33.7729 29.3318 35.0948 28.0348C36.8993 26.2643 37.9006 24.2692 38.1948 21.8581C38.3292 20.7568 38.3484 19.3378 38.2312 19.1604C38.1878 19.0947 37.6205 18.9328 36.9706 18.8007C32.6913 17.9309 29.2154 16.2152 26.679 13.7209C26.1533 13.2039 25.6821 12.7809 25.6319 12.7809C25.5816 12.7809 25.3974 12.9864 25.2225 13.2375C24.8241 13.8096 24.0198 14.5806 23.3584 15.0244C23.0797 15.2115 22.0646 15.7455 21.1026 16.2111C20.1406 16.6768 19.1278 17.2307 18.852 17.442C17.857 18.2043 17.5348 19.4961 17.7906 21.6968C18.3298 26.3344 21.645 29.9118 26.2114 30.7836C27.171 30.9667 29.392 30.9059 30.3503 30.6703Z" fill="#535353"/>
<path d="M8.70334 55.6436C8.12468 55.4089 8.12788 55.4384 8.12788 50.3416C8.12788 46.6271 8.16348 45.3835 8.29557 44.4842C8.49138 43.151 9.05813 41.3652 9.58397 40.4246C9.78752 40.0605 9.95405 39.7143 9.95405 39.6552C9.95405 39.5962 9.64575 39.3278 9.26893 39.0589C7.79578 38.0077 6.6877 36.4208 6.22169 34.695C5.925 33.5962 5.97792 31.298 6.33071 29.9605C6.86833 27.9224 7.44064 26.8437 9.02274 24.8867C10.3928 23.1919 10.3164 23.4952 10.395 19.4411C10.4716 15.4853 10.5719 14.6912 11.2567 12.6198C13.2343 6.63718 18.0109 2.51045 24.5794 1.10968C25.7359 0.863044 26.1681 0.825762 27.9472 0.819179C29.7767 0.81241 30.1362 0.842353 31.416 1.10806C38.1141 2.49878 43.0264 6.86673 44.9062 13.1032C45.4432 14.885 45.5357 15.7206 45.6073 19.4411C45.6854 23.4953 45.6089 23.1918 46.9791 24.8867C48.5612 26.8437 49.1335 27.9224 49.6711 29.9605C50.0239 31.298 50.0769 33.5962 49.7802 34.695C49.3142 36.4208 48.2061 38.0077 46.7329 39.0589C46.3561 39.3278 46.0478 39.5962 46.0478 39.6552C46.0478 39.7143 46.2122 40.0605 46.4132 40.4246C46.8703 41.2526 47.287 42.4121 47.5777 43.6647C47.7851 44.5582 47.8054 45.0274 47.8453 49.8539L47.8884 55.0764L47.622 55.3862L47.3555 55.696L28.1445 55.7165C17.4591 55.7279 8.83138 55.6956 8.70334 55.6436ZM14.6806 50.8255C14.734 48.119 14.7358 48.1022 14.9896 47.8968C15.13 47.7833 15.3606 47.6613 15.5019 47.6258C15.8334 47.5426 16.3712 47.7664 16.5377 48.0569C16.6255 48.2098 16.6854 49.1423 16.7216 50.9157L16.7753 53.5475L21.3676 53.5755C24.8104 53.5965 25.9599 53.5722 25.9599 53.4782C25.9599 53.4093 25.6727 52.7896 25.3217 52.1012C23.306 48.1474 22.0103 43.3892 21.562 38.2936C21.3427 35.8003 21.3834 35.9522 20.9558 36.0324C20.162 36.1813 16.3713 37.4876 15.4058 37.9449C12.2985 39.4169 10.8457 41.3903 10.3344 44.8337C10.2093 45.6761 10.1689 46.8827 10.1689 49.7769V53.6056L12.3979 53.5766L14.6269 53.5475L14.6806 50.8255ZM39.2802 50.9157C39.3164 49.1423 39.3764 48.2098 39.4641 48.0569C39.6307 47.7664 40.1685 47.5426 40.4999 47.6258C40.6413 47.6613 40.8718 47.7833 41.0122 47.8968C41.2661 48.1022 41.2678 48.119 41.3212 50.8255L41.375 53.5475L43.604 53.5766L45.833 53.6056V49.7769C45.833 46.8827 45.7926 45.6761 45.6675 44.8337C45.3514 42.7049 44.7084 41.2389 43.546 39.9962C42.7451 39.1401 41.9461 38.5845 40.596 37.9449C39.6306 37.4876 35.8399 36.1813 35.0461 36.0324C34.6185 35.9522 34.6592 35.8003 34.4398 38.2936C33.9954 43.3447 32.7112 48.0875 30.728 52.0011C30.3507 52.7458 30.0419 53.411 30.0419 53.4793C30.0419 53.5718 31.2142 53.5964 34.6342 53.5755L39.2265 53.5475L39.2802 50.9157ZM28.98 50.843C29.9697 48.8761 30.6608 47.0351 31.225 44.8627C31.6077 43.3889 32.0625 41.0277 32.2472 39.5558C32.3307 38.8904 32.2708 38.867 31.3273 39.1975C29.228 39.9327 26.8941 39.9231 24.662 39.1699C24.2238 39.022 23.8241 38.9408 23.774 38.9893C23.6598 39.0998 24.0409 41.7201 24.4128 43.3818C25.0563 46.2571 25.8642 48.5729 27.0598 50.9694C27.769 52.3911 27.8707 52.5494 28.0439 52.5014C28.1089 52.4834 28.5301 51.7371 28.98 50.843ZM12.3914 37.3151C13.8891 36.2396 15.4976 35.5424 18.9245 34.4836C20.1058 34.1187 21.1326 33.7418 21.2065 33.6462C21.2941 33.5327 21.3408 33.0848 21.3408 32.3566C21.3408 31.0786 21.436 31.237 19.9259 30.0042C18.0503 28.4732 16.49 25.8838 15.9088 23.3379C15.6866 22.3644 15.5834 19.4598 15.7437 18.6891C16.0181 17.3701 16.8102 16.2587 18.0515 15.4512C18.399 15.2251 19.5108 14.6348 20.5222 14.1394C23.1891 12.833 23.6767 12.3061 24.2391 10.1227C24.3889 9.54128 24.7134 9.23601 25.1816 9.23601C25.7199 9.23601 25.8804 9.36293 26.549 10.3171C29.004 13.8206 32.7434 15.9127 38.3371 16.9122C39.7969 17.173 40.2038 17.3517 40.311 17.7787C40.4401 18.2931 40.2751 22.5727 40.0966 23.3379C39.4972 25.9086 37.9493 28.475 36.076 30.0042C34.5658 31.237 34.6611 31.0786 34.6611 32.3566C34.6611 33.0861 34.7076 33.5316 34.7954 33.6438C34.8692 33.7381 35.8853 34.1107 37.0534 34.4717C40.4733 35.5288 42.1206 36.247 43.6633 37.3537C44.0957 37.6639 44.5096 37.9176 44.5831 37.9176C44.6566 37.9176 44.9393 37.7765 45.2113 37.604C46.7928 36.601 47.7072 35.1305 47.9218 33.2448C48.0754 31.8953 47.5958 29.6829 46.8389 28.2497C46.6361 27.8656 45.9944 26.9567 45.4128 26.2297C44.7847 25.4445 44.209 24.5942 43.9946 24.135L43.6337 23.362L43.5663 19.7633C43.5078 16.6382 43.4679 16.0163 43.2625 15.0368C42.6151 11.9485 41.3432 9.57241 39.177 7.405C36.1999 4.4262 32.4106 2.89812 28.0009 2.89812C23.5974 2.89812 19.8014 4.4291 16.8249 7.40565C14.6782 9.55232 13.3556 12.0147 12.7281 15.033C12.5512 15.8839 12.5073 16.6119 12.4684 19.3337C12.4427 21.1357 12.3682 22.8759 12.3028 23.2008C12.1238 24.0913 11.681 24.8696 10.553 26.2766C9.39721 27.7182 8.91668 28.557 8.51859 29.8275C7.45734 33.2146 8.27333 36.0076 10.7906 37.604C11.0626 37.7765 11.3453 37.9176 11.4188 37.9176C11.4922 37.9176 11.9299 37.6465 12.3914 37.3151ZM30.0957 37.431C30.4501 37.3343 31.1316 37.0724 31.6101 36.8491C32.3874 36.4862 32.4874 36.4057 32.55 36.0927C32.6552 35.5666 32.6343 32.3532 32.5253 32.2858C32.4731 32.2536 32.1522 32.3229 31.8122 32.4399C30.7298 32.8123 29.4155 33.0083 28.0009 33.0083C26.5864 33.0083 25.272 32.8123 24.1897 32.4399C23.8496 32.3229 23.5288 32.2536 23.4766 32.2858C23.3686 32.3525 23.3461 35.5642 23.45 36.0836C23.5252 36.4592 23.9353 36.717 25.1542 37.1548C26.7468 37.7267 28.6269 37.8319 30.0957 37.431ZM29.7805 30.8223C32.9715 30.2571 35.787 28.1299 37.2376 25.1882C37.9845 23.6733 38.226 22.6438 38.2887 20.707L38.3398 19.1262L38.0849 19.023C37.9447 18.9663 37.2258 18.7912 36.4873 18.6339C33.357 17.9675 30.4265 16.6913 28.2695 15.0553C27.915 14.7865 27.1728 14.1285 26.6203 13.5931L25.6156 12.6198L25.4386 12.8842C24.4956 14.2935 23.7266 14.8754 21.1364 16.14C17.9594 17.6911 17.6127 18.1717 17.7143 20.8841C17.7795 22.6242 18.0473 23.726 18.7603 25.1882C20.1479 28.0337 22.8576 30.1351 25.9599 30.7718C26.816 30.9474 28.9172 30.9752 29.7805 30.8223Z" fill="#535353"/>
<path d="M8.77242 55.6781C8.6838 55.6525 8.51461 55.5009 8.39644 55.3415C8.18895 55.0614 8.18164 54.8843 8.18288 50.1638C8.18399 45.9502 8.21036 45.1353 8.37407 44.2556C8.64846 42.7811 9.01805 41.6505 9.58498 40.5514L10.0827 39.5864L9.85096 39.4235C8.30886 38.3388 7.4812 37.4454 6.84247 36.1761C6.22302 34.945 6.05221 34.0239 6.11357 32.2456C6.21385 29.3395 6.94691 27.5276 9.09922 24.8659C10.2835 23.4014 10.3802 23.1355 10.3886 21.321C10.4021 18.3769 10.5783 15.4569 10.8051 14.417C11.5566 10.972 13.1388 8.16083 15.7161 5.69114C18.6183 2.91019 22.4336 1.23736 26.7924 0.834651C29.5338 0.581383 33.1923 1.31004 35.9502 2.65857C38.7292 4.01745 41.4098 6.41189 43.0131 8.9675C43.579 9.8694 44.3066 11.4126 44.6518 12.443C45.3225 14.4448 45.4077 15.0937 45.5289 19.1189C45.6591 23.4442 45.6203 23.2817 46.9022 24.8659C48.447 26.7751 49.0205 27.8149 49.5388 29.6462C49.8869 30.8763 50.0186 33.0451 49.8159 34.2092C49.477 36.1553 48.3012 37.9339 46.5815 39.1017C46.2289 39.3411 45.9404 39.5845 45.9404 39.6426C45.9404 39.7006 46.0666 39.9481 46.2208 40.1924C46.6218 40.8276 47.0719 41.9272 47.3224 42.8835C47.7745 44.6095 47.8203 45.2887 47.8203 50.2712C47.8203 54.8839 47.8127 55.0616 47.6054 55.3394C47.4873 55.4977 47.2939 55.6542 47.1757 55.687C46.9258 55.7566 9.01279 55.7478 8.77242 55.6781ZM14.6806 50.9331L14.7343 48.2112L15.0357 47.9522C15.3546 47.6781 15.8387 47.6154 16.1891 47.803C16.6224 48.0349 16.666 48.2985 16.7216 51.0232L16.7753 53.655L21.3342 53.683C24.0336 53.6996 25.9337 53.6704 25.9927 53.6114C26.054 53.5502 25.8222 52.9804 25.3915 52.1332C23.7685 48.9409 22.6988 45.5874 22.0431 41.6369C21.7759 40.0273 21.4482 37.1885 21.4482 36.4837C21.4482 35.8344 21.3348 35.8329 19.3386 36.4554C16.9799 37.191 16.1457 37.5079 14.8939 38.1441C11.9465 39.6421 10.5332 41.9151 10.1704 45.7409C10.0095 47.4379 10.0263 53.4158 10.1925 53.582C10.289 53.6784 10.8922 53.7053 12.4753 53.684L14.6269 53.655L14.6806 50.9331ZM39.2802 51.0232C39.3358 48.2985 39.3794 48.0349 39.8127 47.803C40.1631 47.6154 40.6473 47.6781 40.9661 47.9522L41.2675 48.2112L41.3212 50.9331L41.375 53.655L43.5096 53.6842C44.9933 53.7044 45.6894 53.6759 45.7923 53.5905C45.9122 53.4909 45.9404 52.8407 45.9404 50.1693C45.9404 48.3552 45.8873 46.343 45.8225 45.6976C45.4365 41.857 44.0535 39.6412 41.108 38.1441C39.8562 37.5079 39.022 37.191 36.6633 36.4554C35.4243 36.069 34.7934 35.9189 34.7077 35.99C34.6381 36.0478 34.5483 36.5414 34.5083 37.0869C34.0839 42.8701 32.8161 47.7622 30.6117 52.1228C30.2313 52.8753 29.9507 53.5405 29.9881 53.601C30.0332 53.674 31.5988 53.7016 34.6413 53.683L39.2265 53.655L39.2802 51.0232ZM28.8313 51.2844C30.371 48.3356 31.4407 44.9595 32.0794 41.0329C32.3332 39.4726 32.3562 38.8845 32.1635 38.8845C32.0897 38.8846 31.7704 38.983 31.454 39.1032C29.4856 39.8514 27.0839 39.8859 24.9283 39.197C24.3905 39.0251 23.895 38.8845 23.8272 38.8845C23.6367 38.8845 23.6779 39.5722 23.9734 41.3198C24.6032 45.0456 25.5508 48.0651 26.9916 50.9381C27.7184 52.3873 27.8868 52.6541 28.0427 52.6043C28.1084 52.5833 28.4632 51.9893 28.8313 51.2844ZM12.3026 37.4309C13.5354 36.5035 15.188 35.755 18.0107 34.8458C19.3991 34.3986 20.7043 33.9743 20.9111 33.903L21.2871 33.7734L21.317 32.4205L21.347 31.0677L20.6188 30.5277C18.6687 29.0819 17.0609 26.8486 16.3106 24.5437C15.8406 23.0997 15.7039 22.1484 15.7086 20.3542C15.7134 18.5243 15.8642 17.9224 16.5771 16.8862C17.1731 16.0201 17.9811 15.4573 20.2272 14.3439C23.0564 12.9416 23.7777 12.246 24.1766 10.536C24.374 9.68991 24.577 9.38116 24.9966 9.28901C25.5451 9.16853 25.8619 9.39238 26.5507 10.3873C28.944 13.8439 32.877 16.0359 38.362 16.9703C39.7437 17.2057 40.0855 17.3564 40.2629 17.8086C40.421 18.2119 40.3009 22.0782 40.1001 23.0479C39.4815 26.0347 37.7601 28.7653 35.3862 30.5254L34.6611 31.063V32.3979C34.6611 33.6819 34.6703 33.7366 34.9028 33.8299C35.0357 33.8833 36.353 34.3166 37.83 34.7928C40.8198 35.7567 42.4444 36.4869 43.6993 37.4309C44.1337 37.7577 44.5181 38.0251 44.5536 38.0251C44.7432 38.0251 46.0303 37.0846 46.4739 36.6219C47.5755 35.4729 48.0408 34.0846 47.9475 32.2243C47.8356 29.9912 47.2061 28.4262 45.6144 26.4236C43.6292 23.9259 43.6664 24.0527 43.569 19.4411C43.5091 16.6026 43.4488 15.5465 43.3114 14.9294C41.9258 8.70779 37.2946 4.29077 30.8476 3.04189C29.5093 2.78264 26.4926 2.78264 25.1543 3.04189C19.3535 4.16558 14.9376 7.90466 13.1848 13.1767C12.5667 15.0357 12.5149 15.4609 12.4282 19.3874C12.3398 23.3935 12.3081 23.6086 11.6456 24.7048C11.4492 25.0298 10.8646 25.8274 10.3465 26.4773C8.79937 28.4178 8.16545 30.0072 8.05434 32.2243C7.93648 34.5762 8.74288 36.269 10.5602 37.4845C11.0048 37.7818 11.401 38.0251 11.4406 38.0251C11.4803 38.0251 11.8682 37.7577 12.3026 37.4309ZM29.9907 37.4874C30.9348 37.2459 32.2044 36.695 32.455 36.4181C32.5844 36.2752 32.6352 35.8152 32.6906 34.2869C32.7729 32.013 32.8162 32.0933 31.6903 32.4272C29.2651 33.1465 26.7368 33.1465 24.3115 32.4272C23.1871 32.0937 23.2291 32.017 23.3102 34.2569C23.3484 35.3124 23.4073 36.2478 23.441 36.3357C23.4959 36.4786 24.3904 36.9317 25.2617 37.2579C26.5543 37.7419 28.6064 37.8414 29.9907 37.4874ZM30.467 30.7218C31.4551 30.4786 33.0575 29.7655 33.8662 29.2091C34.698 28.6368 35.8881 27.4413 36.4838 26.5796C37.6731 24.8592 38.2467 23.0947 38.3732 20.7673C38.4524 19.3104 38.377 18.904 38.0272 18.904C37.6096 18.904 35.2331 18.3102 33.9091 17.8751C31.058 16.9381 28.5563 15.4599 26.6968 13.6135C26.1762 13.0965 25.687 12.6736 25.6097 12.6736C25.5324 12.6736 25.3765 12.8307 25.2634 13.0227C24.9394 13.5723 24.1369 14.3811 23.4563 14.8439C23.1132 15.0771 22.0424 15.6507 21.0767 16.1184C18.9591 17.1442 18.36 17.5881 17.9412 18.4414C17.6453 19.0444 17.6357 19.1151 17.6536 20.5691C17.6685 21.7793 17.7242 22.2747 17.939 23.1062C19 27.2123 22.0924 30.082 26.3305 30.8931C27.3568 31.0895 29.3 31.0091 30.467 30.7218Z" fill="#535353"/>
<path d="M8.82612 55.6423C8.70796 55.5915 8.64534 55.5465 8.68696 55.5424C8.72859 55.5382 8.64064 55.4128 8.49151 55.2637L8.22037 54.9926L8.26618 49.9195C8.3161 44.3913 8.35067 44.0148 8.97746 42.172C9.1519 41.6591 9.49841 40.8682 9.74748 40.4144L10.2003 39.5893L9.89853 39.3711C7.9924 37.9935 7.17805 37.0042 6.57573 35.3344C6.15704 34.1737 6.02676 32.9458 6.18127 31.6165C6.46766 29.1528 7.28187 27.2572 8.93973 25.1943C10.5409 23.2021 10.4207 23.6361 10.5035 19.5485C10.5767 15.9321 10.6671 15.0637 11.1518 13.318C12.4335 8.70211 15.8495 4.71808 20.3203 2.62488C21.9595 1.85739 24.7364 1.07195 25.8106 1.07195C25.9588 1.07195 26.0542 1.03014 26.0226 0.979031C25.9457 0.854679 27.7516 0.766584 29.0188 0.832867C29.5787 0.86215 30.0109 0.927924 29.9793 0.979031C29.9477 1.03014 30.0725 1.07195 30.2566 1.07195C30.788 1.07195 32.6923 1.49507 33.748 1.84769C39.1819 3.66277 43.3653 7.99979 44.864 13.3718C45.3329 15.0527 45.4256 15.955 45.4984 19.5485C45.5811 23.6348 45.4609 23.1996 47.0586 25.1943C48.659 27.1925 49.4133 28.8641 49.7701 31.2038C50.0492 33.0336 49.8307 34.5615 49.0634 36.1452C48.4512 37.4088 47.728 38.197 46.1033 39.3711L45.8015 39.5893L46.2479 40.4026C46.9588 41.6979 47.4105 43.1865 47.6556 45.0421C47.717 45.5073 47.7666 47.9193 47.7666 50.445V55.0075L47.5029 55.2712C47.3579 55.4162 47.2733 55.5382 47.3149 55.5424C47.3565 55.5466 47.2939 55.5915 47.1757 55.6423C47.0576 55.693 38.4289 55.7346 28.0009 55.7346C17.573 55.7346 8.94429 55.693 8.82612 55.6423ZM14.5803 53.7049C14.777 53.5996 14.788 53.454 14.788 50.9716C14.788 48.3679 14.7898 48.3475 15.0427 48.0535C15.3719 47.6708 15.9685 47.6442 16.3212 47.9966C16.5539 48.2292 16.5613 48.3085 16.5909 50.8916C16.6176 53.2165 16.6436 53.5643 16.7994 53.6818C17.0622 53.8799 25.73 53.8756 26.0013 53.6773C26.1775 53.5485 26.1333 53.4225 25.3888 51.9317C23.3555 47.8595 22.1652 43.4882 21.7048 38.4011C21.4693 35.8002 21.4852 35.8766 21.1796 35.8766C20.8201 35.8766 17.3893 36.9685 16.1206 37.4867C13.1747 38.69 11.5519 40.2566 10.6949 42.7244C10.1661 44.2472 10.142 44.5066 10.0923 49.2144C10.0473 53.4797 10.0543 53.6921 10.2413 53.7405C10.6455 53.8449 14.3757 53.8143 14.5803 53.7049ZM39.2024 53.6818C39.3583 53.5643 39.3843 53.2165 39.4109 50.8916C39.4405 48.3085 39.4479 48.2292 39.6807 47.9966C40.0333 47.6442 40.63 47.6708 40.9592 48.0535C41.212 48.3475 41.2138 48.3679 41.2138 50.9716C41.2138 53.454 41.2249 53.5996 41.4216 53.7049C41.6457 53.8248 45.2824 53.8599 45.7069 53.7463L45.9567 53.6793L45.9149 49.2091C45.8735 44.7696 45.8712 44.7316 45.5866 43.6647C44.7574 40.5569 43.1582 38.8252 39.8812 37.4867C38.6125 36.9685 35.1817 35.8766 34.8222 35.8766C34.5242 35.8766 34.4948 35.9893 34.3881 37.5417C34.0202 42.8937 32.5443 48.3353 30.3268 52.5155C29.8178 53.4751 29.8013 53.5316 29.991 53.6703C30.271 53.875 38.9318 53.8859 39.2024 53.6818ZM28.365 52.331C29.2027 51.004 30.5374 47.831 31.1065 45.8132C31.8742 43.0916 32.5767 39.1203 32.3334 38.8771C32.2441 38.7877 31.9934 38.8322 31.369 39.0482C29.1355 39.821 26.9018 39.8156 24.6512 39.0322C23.9918 38.8026 23.7788 38.7667 23.6775 38.8681C23.4248 39.1207 24.1104 43.0304 24.8953 45.8132C25.6093 48.3442 27.5804 52.7419 28.0009 52.7419C28.0585 52.7419 28.2224 52.557 28.365 52.331ZM12.3784 37.4824C13.7561 36.4396 15.6454 35.6221 19.1923 34.5341C20.2854 34.1988 21.2401 33.8469 21.3139 33.7521C21.4031 33.6376 21.4482 33.1756 21.4482 32.3768C21.4482 31.0141 21.4658 31.0513 20.4718 30.3096C19.1889 29.3522 17.9402 27.835 17.1271 26.2454C16.213 24.4584 15.8694 23.1004 15.7863 20.945C15.7238 19.3253 15.8314 18.527 16.2297 17.6572C16.8318 16.3419 17.6504 15.689 20.3245 14.3914C23.0871 13.0508 23.786 12.3688 24.2412 10.5695C24.4805 9.62384 24.7127 9.34144 25.2467 9.34685C25.692 9.35137 25.8105 9.45748 26.5019 10.471C26.8242 10.9434 27.5229 11.7665 28.0546 12.3C30.454 14.7076 33.743 16.2304 38.2597 17.0249C39.5917 17.2591 39.7927 17.3226 40.0179 17.5802L40.2722 17.8711L40.2141 20.1868C40.1536 22.597 40.0649 23.2074 39.5621 24.6726C38.8257 26.8185 37.2428 29.0315 35.53 30.3096C34.5361 31.0513 34.5537 31.0141 34.5537 32.3768C34.5537 33.1756 34.5988 33.6376 34.6879 33.7521C34.7618 33.8469 35.7165 34.1988 36.8095 34.5341C40.3564 35.6221 42.2458 36.4396 43.6235 37.4824C44.0178 37.7809 44.4473 38.0251 44.5779 38.0251C44.9053 38.0251 45.884 37.3477 46.5395 36.6673C47.4919 35.6788 48.0823 34.1427 48.087 32.6412C48.0911 31.2865 47.5124 29.0959 46.8532 27.971C46.702 27.7131 46.1622 26.9814 45.6537 26.3451C43.7024 23.9037 43.7665 24.121 43.6806 19.6559C43.6043 15.6914 43.4977 14.8653 42.8121 12.9218C40.9783 7.72371 36.4862 3.9791 30.9013 2.99295C29.3324 2.71591 26.9021 2.69355 25.3691 2.94205C19.6744 3.86514 15.0473 7.6566 13.1897 12.9218C12.5066 14.8583 12.3989 15.6921 12.3201 19.6559C12.2316 24.1138 12.2897 23.916 10.3601 26.3301C8.94316 28.103 8.40128 29.2378 8.07308 31.1199C7.78114 32.7939 7.9419 34.1728 8.57502 35.425C9.12686 36.5164 10.7799 38.0251 11.424 38.0251C11.5546 38.0251 11.9841 37.7809 12.3784 37.4824ZM30.2031 37.5413C31.2349 37.2605 32.5819 36.5703 32.6589 36.2829C32.695 36.1481 32.7252 35.1782 32.726 34.1277C32.7272 32.5485 32.7002 32.2071 32.5702 32.1572C32.4836 32.124 32.1083 32.1982 31.7361 32.322C29.5224 33.0587 26.4171 33.0619 24.2887 32.3296C23.2028 31.956 23.2744 31.8312 23.2744 34.0972C23.2744 35.1864 23.3187 36.194 23.3728 36.3364C23.5203 36.7244 25.245 37.4274 26.8193 37.7412C27.3431 37.8456 29.568 37.7142 30.2031 37.5413ZM30.1618 30.8757C33.6552 30.1568 36.6845 27.4788 37.8391 24.0884C38.2971 22.7433 38.419 21.9537 38.42 20.325C38.421 18.7739 38.6045 18.9548 36.5947 18.5258C34.6245 18.1052 32.8686 17.4978 31.1699 16.6491C29.3491 15.7393 27.9577 14.7604 26.7028 13.506C26.1856 12.9891 25.6942 12.5661 25.6107 12.5661C25.5273 12.5661 25.3051 12.8036 25.1169 13.094C24.6882 13.7556 23.7654 14.6055 22.9705 15.0708C22.6354 15.2669 21.5969 15.7995 20.6626 16.2543C17.9717 17.5642 17.5803 18.0909 17.5818 20.4002C17.5828 21.9534 17.7095 22.7572 18.1628 24.0884C19.635 28.4115 23.9507 31.3335 28.4843 31.0766C29.0161 31.0465 29.7709 30.9561 30.1618 30.8757Z" fill="#535353"/>
</g>
<defs>
<clipPath id="clip0_1397_17809">
<rect width="55" height="55" fill="white"/>
</clipPath>
</defs>
</svg>
