<svg width="24" height="24" viewBox="0 0 24 24" fill="none" xmlns="http://www.w3.org/2000/svg">
<mask id="path-1-outside-1_2268_5455" maskUnits="userSpaceOnUse" x="2" y="2" width="20" height="20" fill="black">
<rect fill="white" x="2" y="2" width="20" height="20"/>
<path d="M8.01743 3.01437C8.2044 3.11098 8.20859 3.164 8.28043 3.36528C8.28043 3.63162 8.28043 3.89796 8.28043 4.17237C10.7477 4.17237 13.215 4.17237 15.7571 4.17237C15.7571 3.88287 15.7571 3.59337 15.7571 3.2951C15.8698 3.08456 15.8698 3.08456 15.9826 3.01437C16.11 2.99521 16.2309 2.9952 16.3583 3.01437C16.4644 3.09123 16.5241 3.14878 16.5837 3.26001C16.5869 3.33133 16.5877 3.40274 16.5874 3.47412C16.5872 3.51664 16.5871 3.55916 16.587 3.60297C16.5867 3.64757 16.5864 3.69217 16.586 3.73812C16.5858 3.80543 16.5858 3.80543 16.5855 3.8741C16.5851 3.98522 16.5845 4.09634 16.5837 4.20746C16.627 4.20691 16.6703 4.20636 16.715 4.20579C16.8789 4.20386 17.0428 4.20267 17.2067 4.20168C17.2771 4.20116 17.3474 4.20044 17.4178 4.19952C18.025 4.19177 18.6124 4.22057 19.1761 4.4531C19.2131 4.46825 19.2501 4.48341 19.2882 4.49902C19.5575 4.61679 19.7807 4.76024 20.0027 4.94437C20.0257 4.96301 20.0488 4.98164 20.0725 5.00085C20.3696 5.25789 20.5853 5.58407 20.7494 5.92691C20.7597 5.94808 20.77 5.96925 20.7806 5.99106C20.9528 6.37097 20.9962 6.75639 20.9941 7.16518C20.9943 7.2141 20.9945 7.26301 20.9947 7.31193C20.9953 7.44505 20.9951 7.57816 20.9948 7.71128C20.9946 7.85535 20.9951 7.99943 20.9955 8.1435C20.9961 8.42526 20.9962 8.70702 20.996 8.98878C20.9958 9.21796 20.9959 9.44713 20.9961 9.6763C20.9961 9.70899 20.9961 9.74169 20.9962 9.77537C20.9962 9.8418 20.9963 9.90823 20.9963 9.97466C20.9969 10.5968 20.9967 11.219 20.9962 11.8411C20.9959 12.4093 20.9963 12.9776 20.9972 13.5458C20.9982 14.1303 20.9985 14.7148 20.9983 15.2993C20.9981 15.6271 20.9982 15.9548 20.9989 16.2826C20.9994 16.5616 20.9994 16.8406 20.9988 17.1196C20.9985 17.2617 20.9984 17.4039 20.999 17.546C21.0031 18.6377 21.0031 18.6377 20.8293 19.086C20.8151 19.1243 20.8009 19.1626 20.7862 19.2021C20.5432 19.8287 19.9746 20.4042 19.3347 20.6955C18.8402 20.9067 18.3563 20.9969 17.8127 20.9945C17.7604 20.9946 17.708 20.9948 17.6556 20.9951C17.5131 20.9956 17.3706 20.9954 17.228 20.9952C17.0738 20.995 16.9195 20.9954 16.7653 20.9958C16.4636 20.9964 16.1619 20.9964 15.8602 20.9962C15.6149 20.9961 15.3695 20.9962 15.1241 20.9963C15.0891 20.9964 15.0541 20.9964 15.0181 20.9964C14.9469 20.9965 14.8758 20.9965 14.8047 20.9966C14.1385 20.9971 13.4724 20.9969 12.8063 20.9965C12.1979 20.9961 11.5895 20.9966 10.9811 20.9974C10.3553 20.9983 9.72943 20.9986 9.10361 20.9984C8.7527 20.9983 8.4018 20.9983 8.05089 20.9989C7.75215 20.9995 7.45342 20.9995 7.15468 20.9989C7.00249 20.9986 6.85031 20.9985 6.69812 20.999C5.52925 21.0029 5.52925 21.0029 5.0493 20.8405C5.00826 20.8273 4.96722 20.814 4.92494 20.8004C4.25413 20.5733 3.63788 20.0423 3.32602 19.4447C3.09987 18.9828 3.0033 18.5308 3.00588 18.0232C3.00572 17.9743 3.00552 17.9253 3.00527 17.8764C3.00473 17.7433 3.00488 17.6102 3.00516 17.4771C3.00534 17.333 3.00487 17.1889 3.00448 17.0449C3.00384 16.7631 3.00381 16.4813 3.004 16.1996C3.00416 15.9704 3.0041 15.7412 3.0039 15.5121C3.00387 15.4794 3.00384 15.4467 3.00381 15.413C3.00376 15.3466 3.0037 15.2801 3.00364 15.2137C3.00313 14.5915 3.00333 13.9694 3.00376 13.3473C3.00413 12.779 3.00365 12.2108 3.00275 11.6425C3.00183 11.058 3.00147 10.4735 3.00172 9.88902C3.00185 9.56128 3.00177 9.23354 3.00111 8.9058C3.00056 8.62678 3.00054 8.34777 3.00119 8.06875C3.00151 7.92661 3.00159 7.78448 3.00101 7.64234C2.99615 6.35665 2.99615 6.35665 3.31162 5.80848C3.33087 5.77382 3.33087 5.77382 3.3505 5.73845C3.4666 5.53593 3.60908 5.36194 3.77187 5.19001C3.7894 5.16866 3.80694 5.14731 3.825 5.12531C4.27676 4.58246 5.08828 4.26213 5.80072 4.17237C5.92589 4.16775 6.0509 4.16828 6.17614 4.16894C6.21168 4.16899 6.24722 4.16904 6.28384 4.1691C6.39676 4.16929 6.50968 4.16973 6.6226 4.17018C6.6994 4.17035 6.77621 4.17051 6.85301 4.17066C7.04077 4.17104 7.22853 4.17165 7.41629 4.17237C7.4157 4.14921 7.41511 4.12605 7.4145 4.10218C7.41214 3.99618 7.41069 3.89019 7.40925 3.78418C7.4083 3.74774 7.40736 3.71131 7.40638 3.67377C7.40391 3.43108 7.41707 3.2443 7.59006 3.05166C7.73159 2.99252 7.8653 2.99179 8.01743 3.01437ZM5.07278 5.17904C5.04771 5.19136 5.02265 5.20368 4.99682 5.21637C4.48202 5.47829 4.11318 5.93303 3.93566 6.45369C3.73364 7.13969 3.84702 8.05136 3.84702 8.664C9.24038 8.664 14.6337 8.664 20.1905 8.664C20.3052 6.93672 20.3052 6.93672 19.5289 5.54983C19.0287 5.10934 18.4269 4.93683 17.7486 4.94094C17.7172 4.94099 17.6859 4.94104 17.6537 4.94109C17.5545 4.94129 17.4554 4.94173 17.3563 4.94218C17.2887 4.94235 17.2211 4.94251 17.1535 4.94266C16.9886 4.94304 16.8237 4.94365 16.6588 4.94437C16.6581 4.96984 16.6573 4.99532 16.6566 5.02156C16.653 5.13767 16.6489 5.25376 16.6447 5.36985C16.6436 5.40992 16.6424 5.45 16.6412 5.49129C16.6398 5.5302 16.6383 5.5691 16.6368 5.60918C16.6356 5.64483 16.6345 5.68048 16.6332 5.71721C16.6203 5.83013 16.5884 5.92599 16.5461 6.03219C16.2161 6.11685 16.2161 6.11685 16.0389 6.0607C15.945 5.9971 15.945 5.9971 15.8698 5.89182C15.8574 5.57916 15.845 5.2665 15.8323 4.94437C13.3154 4.94437 10.7985 4.94437 8.20529 4.94437C8.19289 5.25703 8.18049 5.56969 8.16772 5.89182C7.94612 6.09879 7.94612 6.09879 7.75443 6.10237C7.61354 6.08482 7.61354 6.08482 7.49143 6.03219C7.39465 5.81348 7.39994 5.58391 7.39281 5.35011C7.39136 5.31105 7.3899 5.27199 7.38841 5.23175C7.38488 5.13596 7.38166 5.04017 7.37872 4.94437C7.18571 4.94173 6.99272 4.93984 6.79969 4.93859C6.7343 4.93806 6.6689 4.93735 6.60351 4.93643C6.07587 4.92918 5.54913 4.93822 5.07278 5.17904ZM3.84702 9.436C3.84547 10.8806 3.84392 12.3252 3.84232 13.8136C3.84163 14.2696 3.84095 14.7256 3.84025 15.1954C3.83999 15.6044 3.83999 15.6044 3.83984 16.0135C3.83977 16.1956 3.8395 16.3776 3.83908 16.5597C3.83855 16.7922 3.83841 17.0246 3.83852 17.2571C3.8385 17.3423 3.83835 17.4274 3.83806 17.5126C3.83768 17.628 3.83777 17.7434 3.83798 17.8588C3.83776 17.8918 3.83754 17.9249 3.83732 17.9589C3.84049 18.6269 4.06411 19.1628 4.54913 19.654C4.97714 20.0343 5.54058 20.2477 6.13078 20.2487C6.1949 20.2489 6.1949 20.2489 6.26031 20.2492C6.33019 20.2492 6.33019 20.2492 6.40149 20.2491C6.45178 20.2493 6.50207 20.2494 6.55236 20.2495C6.69034 20.2499 6.82831 20.25 6.96629 20.2501C7.11521 20.2503 7.26412 20.2506 7.41303 20.2509C7.77258 20.2516 8.13213 20.2519 8.49168 20.2523C8.66119 20.2524 8.8307 20.2526 9.00021 20.2528C9.56405 20.2534 10.1279 20.2539 10.6917 20.2541C10.838 20.2542 10.9842 20.2543 11.1304 20.2543C11.1668 20.2544 11.2031 20.2544 11.2406 20.2544C11.8288 20.2547 12.4171 20.2556 13.0054 20.2567C13.6099 20.2579 14.2145 20.2585 14.8191 20.2586C15.1583 20.2587 15.4975 20.259 15.8367 20.2599C16.1257 20.2607 16.4147 20.2609 16.7036 20.2606C16.8509 20.2604 16.9981 20.2605 17.1454 20.2612C18.051 20.2652 18.8983 20.2398 19.5894 19.6123C20.0575 19.1248 20.2414 18.5748 20.2372 17.9305C20.2372 17.894 20.2373 17.8575 20.2373 17.8199C20.2375 17.6983 20.2371 17.5768 20.2366 17.4552C20.2366 17.3663 20.2366 17.2773 20.2367 17.1884C20.2367 16.9749 20.2364 16.7615 20.2359 16.548C20.2353 16.3009 20.2353 16.0537 20.2352 15.8065C20.2348 15.1547 20.2338 14.5028 20.2328 13.8509C20.2313 12.394 20.2297 10.9371 20.2281 9.436C14.8224 9.436 9.41659 9.436 3.84702 9.436Z"/>
</mask>
<path d="M8.01743 3.01437C8.2044 3.11098 8.20859 3.164 8.28043 3.36528C8.28043 3.63162 8.28043 3.89796 8.28043 4.17237C10.7477 4.17237 13.215 4.17237 15.7571 4.17237C15.7571 3.88287 15.7571 3.59337 15.7571 3.2951C15.8698 3.08456 15.8698 3.08456 15.9826 3.01437C16.11 2.99521 16.2309 2.9952 16.3583 3.01437C16.4644 3.09123 16.5241 3.14878 16.5837 3.26001C16.5869 3.33133 16.5877 3.40274 16.5874 3.47412C16.5872 3.51664 16.5871 3.55916 16.587 3.60297C16.5867 3.64757 16.5864 3.69217 16.586 3.73812C16.5858 3.80543 16.5858 3.80543 16.5855 3.8741C16.5851 3.98522 16.5845 4.09634 16.5837 4.20746C16.627 4.20691 16.6703 4.20636 16.715 4.20579C16.8789 4.20386 17.0428 4.20267 17.2067 4.20168C17.2771 4.20116 17.3474 4.20044 17.4178 4.19952C18.025 4.19177 18.6124 4.22057 19.1761 4.4531C19.2131 4.46825 19.2501 4.48341 19.2882 4.49902C19.5575 4.61679 19.7807 4.76024 20.0027 4.94437C20.0257 4.96301 20.0488 4.98164 20.0725 5.00085C20.3696 5.25789 20.5853 5.58407 20.7494 5.92691C20.7597 5.94808 20.77 5.96925 20.7806 5.99106C20.9528 6.37097 20.9962 6.75639 20.9941 7.16518C20.9943 7.2141 20.9945 7.26301 20.9947 7.31193C20.9953 7.44505 20.9951 7.57816 20.9948 7.71128C20.9946 7.85535 20.9951 7.99943 20.9955 8.1435C20.9961 8.42526 20.9962 8.70702 20.996 8.98878C20.9958 9.21796 20.9959 9.44713 20.9961 9.6763C20.9961 9.70899 20.9961 9.74169 20.9962 9.77537C20.9962 9.8418 20.9963 9.90823 20.9963 9.97466C20.9969 10.5968 20.9967 11.219 20.9962 11.8411C20.9959 12.4093 20.9963 12.9776 20.9972 13.5458C20.9982 14.1303 20.9985 14.7148 20.9983 15.2993C20.9981 15.6271 20.9982 15.9548 20.9989 16.2826C20.9994 16.5616 20.9994 16.8406 20.9988 17.1196C20.9985 17.2617 20.9984 17.4039 20.999 17.546C21.0031 18.6377 21.0031 18.6377 20.8293 19.086C20.8151 19.1243 20.8009 19.1626 20.7862 19.2021C20.5432 19.8287 19.9746 20.4042 19.3347 20.6955C18.8402 20.9067 18.3563 20.9969 17.8127 20.9945C17.7604 20.9946 17.708 20.9948 17.6556 20.9951C17.5131 20.9956 17.3706 20.9954 17.228 20.9952C17.0738 20.995 16.9195 20.9954 16.7653 20.9958C16.4636 20.9964 16.1619 20.9964 15.8602 20.9962C15.6149 20.9961 15.3695 20.9962 15.1241 20.9963C15.0891 20.9964 15.0541 20.9964 15.0181 20.9964C14.9469 20.9965 14.8758 20.9965 14.8047 20.9966C14.1385 20.9971 13.4724 20.9969 12.8063 20.9965C12.1979 20.9961 11.5895 20.9966 10.9811 20.9974C10.3553 20.9983 9.72943 20.9986 9.10361 20.9984C8.7527 20.9983 8.4018 20.9983 8.05089 20.9989C7.75215 20.9995 7.45342 20.9995 7.15468 20.9989C7.00249 20.9986 6.85031 20.9985 6.69812 20.999C5.52925 21.0029 5.52925 21.0029 5.0493 20.8405C5.00826 20.8273 4.96722 20.814 4.92494 20.8004C4.25413 20.5733 3.63788 20.0423 3.32602 19.4447C3.09987 18.9828 3.0033 18.5308 3.00588 18.0232C3.00572 17.9743 3.00552 17.9253 3.00527 17.8764C3.00473 17.7433 3.00488 17.6102 3.00516 17.4771C3.00534 17.333 3.00487 17.1889 3.00448 17.0449C3.00384 16.7631 3.00381 16.4813 3.004 16.1996C3.00416 15.9704 3.0041 15.7412 3.0039 15.5121C3.00387 15.4794 3.00384 15.4467 3.00381 15.413C3.00376 15.3466 3.0037 15.2801 3.00364 15.2137C3.00313 14.5915 3.00333 13.9694 3.00376 13.3473C3.00413 12.779 3.00365 12.2108 3.00275 11.6425C3.00183 11.058 3.00147 10.4735 3.00172 9.88902C3.00185 9.56128 3.00177 9.23354 3.00111 8.9058C3.00056 8.62678 3.00054 8.34777 3.00119 8.06875C3.00151 7.92661 3.00159 7.78448 3.00101 7.64234C2.99615 6.35665 2.99615 6.35665 3.31162 5.80848C3.33087 5.77382 3.33087 5.77382 3.3505 5.73845C3.4666 5.53593 3.60908 5.36194 3.77187 5.19001C3.7894 5.16866 3.80694 5.14731 3.825 5.12531C4.27676 4.58246 5.08828 4.26213 5.80072 4.17237C5.92589 4.16775 6.0509 4.16828 6.17614 4.16894C6.21168 4.16899 6.24722 4.16904 6.28384 4.1691C6.39676 4.16929 6.50968 4.16973 6.6226 4.17018C6.6994 4.17035 6.77621 4.17051 6.85301 4.17066C7.04077 4.17104 7.22853 4.17165 7.41629 4.17237C7.4157 4.14921 7.41511 4.12605 7.4145 4.10218C7.41214 3.99618 7.41069 3.89019 7.40925 3.78418C7.4083 3.74774 7.40736 3.71131 7.40638 3.67377C7.40391 3.43108 7.41707 3.2443 7.59006 3.05166C7.73159 2.99252 7.8653 2.99179 8.01743 3.01437ZM5.07278 5.17904C5.04771 5.19136 5.02265 5.20368 4.99682 5.21637C4.48202 5.47829 4.11318 5.93303 3.93566 6.45369C3.73364 7.13969 3.84702 8.05136 3.84702 8.664C9.24038 8.664 14.6337 8.664 20.1905 8.664C20.3052 6.93672 20.3052 6.93672 19.5289 5.54983C19.0287 5.10934 18.4269 4.93683 17.7486 4.94094C17.7172 4.94099 17.6859 4.94104 17.6537 4.94109C17.5545 4.94129 17.4554 4.94173 17.3563 4.94218C17.2887 4.94235 17.2211 4.94251 17.1535 4.94266C16.9886 4.94304 16.8237 4.94365 16.6588 4.94437C16.6581 4.96984 16.6573 4.99532 16.6566 5.02156C16.653 5.13767 16.6489 5.25376 16.6447 5.36985C16.6436 5.40992 16.6424 5.45 16.6412 5.49129C16.6398 5.5302 16.6383 5.5691 16.6368 5.60918C16.6356 5.64483 16.6345 5.68048 16.6332 5.71721C16.6203 5.83013 16.5884 5.92599 16.5461 6.03219C16.2161 6.11685 16.2161 6.11685 16.0389 6.0607C15.945 5.9971 15.945 5.9971 15.8698 5.89182C15.8574 5.57916 15.845 5.2665 15.8323 4.94437C13.3154 4.94437 10.7985 4.94437 8.20529 4.94437C8.19289 5.25703 8.18049 5.56969 8.16772 5.89182C7.94612 6.09879 7.94612 6.09879 7.75443 6.10237C7.61354 6.08482 7.61354 6.08482 7.49143 6.03219C7.39465 5.81348 7.39994 5.58391 7.39281 5.35011C7.39136 5.31105 7.3899 5.27199 7.38841 5.23175C7.38488 5.13596 7.38166 5.04017 7.37872 4.94437C7.18571 4.94173 6.99272 4.93984 6.79969 4.93859C6.7343 4.93806 6.6689 4.93735 6.60351 4.93643C6.07587 4.92918 5.54913 4.93822 5.07278 5.17904ZM3.84702 9.436C3.84547 10.8806 3.84392 12.3252 3.84232 13.8136C3.84163 14.2696 3.84095 14.7256 3.84025 15.1954C3.83999 15.6044 3.83999 15.6044 3.83984 16.0135C3.83977 16.1956 3.8395 16.3776 3.83908 16.5597C3.83855 16.7922 3.83841 17.0246 3.83852 17.2571C3.8385 17.3423 3.83835 17.4274 3.83806 17.5126C3.83768 17.628 3.83777 17.7434 3.83798 17.8588C3.83776 17.8918 3.83754 17.9249 3.83732 17.9589C3.84049 18.6269 4.06411 19.1628 4.54913 19.654C4.97714 20.0343 5.54058 20.2477 6.13078 20.2487C6.1949 20.2489 6.1949 20.2489 6.26031 20.2492C6.33019 20.2492 6.33019 20.2492 6.40149 20.2491C6.45178 20.2493 6.50207 20.2494 6.55236 20.2495C6.69034 20.2499 6.82831 20.25 6.96629 20.2501C7.11521 20.2503 7.26412 20.2506 7.41303 20.2509C7.77258 20.2516 8.13213 20.2519 8.49168 20.2523C8.66119 20.2524 8.8307 20.2526 9.00021 20.2528C9.56405 20.2534 10.1279 20.2539 10.6917 20.2541C10.838 20.2542 10.9842 20.2543 11.1304 20.2543C11.1668 20.2544 11.2031 20.2544 11.2406 20.2544C11.8288 20.2547 12.4171 20.2556 13.0054 20.2567C13.6099 20.2579 14.2145 20.2585 14.8191 20.2586C15.1583 20.2587 15.4975 20.259 15.8367 20.2599C16.1257 20.2607 16.4147 20.2609 16.7036 20.2606C16.8509 20.2604 16.9981 20.2605 17.1454 20.2612C18.051 20.2652 18.8983 20.2398 19.5894 19.6123C20.0575 19.1248 20.2414 18.5748 20.2372 17.9305C20.2372 17.894 20.2373 17.8575 20.2373 17.8199C20.2375 17.6983 20.2371 17.5768 20.2366 17.4552C20.2366 17.3663 20.2366 17.2773 20.2367 17.1884C20.2367 16.9749 20.2364 16.7615 20.2359 16.548C20.2353 16.3009 20.2353 16.0537 20.2352 15.8065C20.2348 15.1547 20.2338 14.5028 20.2328 13.8509C20.2313 12.394 20.2297 10.9371 20.2281 9.436C14.8224 9.436 9.41659 9.436 3.84702 9.436Z" fill="white"/>
<path d="M8.01743 3.01437C8.2044 3.11098 8.20859 3.164 8.28043 3.36528C8.28043 3.63162 8.28043 3.89796 8.28043 4.17237C10.7477 4.17237 13.215 4.17237 15.7571 4.17237C15.7571 3.88287 15.7571 3.59337 15.7571 3.2951C15.8698 3.08456 15.8698 3.08456 15.9826 3.01437C16.11 2.99521 16.2309 2.9952 16.3583 3.01437C16.4644 3.09123 16.5241 3.14878 16.5837 3.26001C16.5869 3.33133 16.5877 3.40274 16.5874 3.47412C16.5872 3.51664 16.5871 3.55916 16.587 3.60297C16.5867 3.64757 16.5864 3.69217 16.586 3.73812C16.5858 3.80543 16.5858 3.80543 16.5855 3.8741C16.5851 3.98522 16.5845 4.09634 16.5837 4.20746C16.627 4.20691 16.6703 4.20636 16.715 4.20579C16.8789 4.20386 17.0428 4.20267 17.2067 4.20168C17.2771 4.20116 17.3474 4.20044 17.4178 4.19952C18.025 4.19177 18.6124 4.22057 19.1761 4.4531C19.2131 4.46825 19.2501 4.48341 19.2882 4.49902C19.5575 4.61679 19.7807 4.76024 20.0027 4.94437C20.0257 4.96301 20.0488 4.98164 20.0725 5.00085C20.3696 5.25789 20.5853 5.58407 20.7494 5.92691C20.7597 5.94808 20.77 5.96925 20.7806 5.99106C20.9528 6.37097 20.9962 6.75639 20.9941 7.16518C20.9943 7.2141 20.9945 7.26301 20.9947 7.31193C20.9953 7.44505 20.9951 7.57816 20.9948 7.71128C20.9946 7.85535 20.9951 7.99943 20.9955 8.1435C20.9961 8.42526 20.9962 8.70702 20.996 8.98878C20.9958 9.21796 20.9959 9.44713 20.9961 9.6763C20.9961 9.70899 20.9961 9.74169 20.9962 9.77537C20.9962 9.8418 20.9963 9.90823 20.9963 9.97466C20.9969 10.5968 20.9967 11.219 20.9962 11.8411C20.9959 12.4093 20.9963 12.9776 20.9972 13.5458C20.9982 14.1303 20.9985 14.7148 20.9983 15.2993C20.9981 15.6271 20.9982 15.9548 20.9989 16.2826C20.9994 16.5616 20.9994 16.8406 20.9988 17.1196C20.9985 17.2617 20.9984 17.4039 20.999 17.546C21.0031 18.6377 21.0031 18.6377 20.8293 19.086C20.8151 19.1243 20.8009 19.1626 20.7862 19.2021C20.5432 19.8287 19.9746 20.4042 19.3347 20.6955C18.8402 20.9067 18.3563 20.9969 17.8127 20.9945C17.7604 20.9946 17.708 20.9948 17.6556 20.9951C17.5131 20.9956 17.3706 20.9954 17.228 20.9952C17.0738 20.995 16.9195 20.9954 16.7653 20.9958C16.4636 20.9964 16.1619 20.9964 15.8602 20.9962C15.6149 20.9961 15.3695 20.9962 15.1241 20.9963C15.0891 20.9964 15.0541 20.9964 15.0181 20.9964C14.9469 20.9965 14.8758 20.9965 14.8047 20.9966C14.1385 20.9971 13.4724 20.9969 12.8063 20.9965C12.1979 20.9961 11.5895 20.9966 10.9811 20.9974C10.3553 20.9983 9.72943 20.9986 9.10361 20.9984C8.7527 20.9983 8.4018 20.9983 8.05089 20.9989C7.75215 20.9995 7.45342 20.9995 7.15468 20.9989C7.00249 20.9986 6.85031 20.9985 6.69812 20.999C5.52925 21.0029 5.52925 21.0029 5.0493 20.8405C5.00826 20.8273 4.96722 20.814 4.92494 20.8004C4.25413 20.5733 3.63788 20.0423 3.32602 19.4447C3.09987 18.9828 3.0033 18.5308 3.00588 18.0232C3.00572 17.9743 3.00552 17.9253 3.00527 17.8764C3.00473 17.7433 3.00488 17.6102 3.00516 17.4771C3.00534 17.333 3.00487 17.1889 3.00448 17.0449C3.00384 16.7631 3.00381 16.4813 3.004 16.1996C3.00416 15.9704 3.0041 15.7412 3.0039 15.5121C3.00387 15.4794 3.00384 15.4467 3.00381 15.413C3.00376 15.3466 3.0037 15.2801 3.00364 15.2137C3.00313 14.5915 3.00333 13.9694 3.00376 13.3473C3.00413 12.779 3.00365 12.2108 3.00275 11.6425C3.00183 11.058 3.00147 10.4735 3.00172 9.88902C3.00185 9.56128 3.00177 9.23354 3.00111 8.9058C3.00056 8.62678 3.00054 8.34777 3.00119 8.06875C3.00151 7.92661 3.00159 7.78448 3.00101 7.64234C2.99615 6.35665 2.99615 6.35665 3.31162 5.80848C3.33087 5.77382 3.33087 5.77382 3.3505 5.73845C3.4666 5.53593 3.60908 5.36194 3.77187 5.19001C3.7894 5.16866 3.80694 5.14731 3.825 5.12531C4.27676 4.58246 5.08828 4.26213 5.80072 4.17237C5.92589 4.16775 6.0509 4.16828 6.17614 4.16894C6.21168 4.16899 6.24722 4.16904 6.28384 4.1691C6.39676 4.16929 6.50968 4.16973 6.6226 4.17018C6.6994 4.17035 6.77621 4.17051 6.85301 4.17066C7.04077 4.17104 7.22853 4.17165 7.41629 4.17237C7.4157 4.14921 7.41511 4.12605 7.4145 4.10218C7.41214 3.99618 7.41069 3.89019 7.40925 3.78418C7.4083 3.74774 7.40736 3.71131 7.40638 3.67377C7.40391 3.43108 7.41707 3.2443 7.59006 3.05166C7.73159 2.99252 7.8653 2.99179 8.01743 3.01437ZM5.07278 5.17904C5.04771 5.19136 5.02265 5.20368 4.99682 5.21637C4.48202 5.47829 4.11318 5.93303 3.93566 6.45369C3.73364 7.13969 3.84702 8.05136 3.84702 8.664C9.24038 8.664 14.6337 8.664 20.1905 8.664C20.3052 6.93672 20.3052 6.93672 19.5289 5.54983C19.0287 5.10934 18.4269 4.93683 17.7486 4.94094C17.7172 4.94099 17.6859 4.94104 17.6537 4.94109C17.5545 4.94129 17.4554 4.94173 17.3563 4.94218C17.2887 4.94235 17.2211 4.94251 17.1535 4.94266C16.9886 4.94304 16.8237 4.94365 16.6588 4.94437C16.6581 4.96984 16.6573 4.99532 16.6566 5.02156C16.653 5.13767 16.6489 5.25376 16.6447 5.36985C16.6436 5.40992 16.6424 5.45 16.6412 5.49129C16.6398 5.5302 16.6383 5.5691 16.6368 5.60918C16.6356 5.64483 16.6345 5.68048 16.6332 5.71721C16.6203 5.83013 16.5884 5.92599 16.5461 6.03219C16.2161 6.11685 16.2161 6.11685 16.0389 6.0607C15.945 5.9971 15.945 5.9971 15.8698 5.89182C15.8574 5.57916 15.845 5.2665 15.8323 4.94437C13.3154 4.94437 10.7985 4.94437 8.20529 4.94437C8.19289 5.25703 8.18049 5.56969 8.16772 5.89182C7.94612 6.09879 7.94612 6.09879 7.75443 6.10237C7.61354 6.08482 7.61354 6.08482 7.49143 6.03219C7.39465 5.81348 7.39994 5.58391 7.39281 5.35011C7.39136 5.31105 7.3899 5.27199 7.38841 5.23175C7.38488 5.13596 7.38166 5.04017 7.37872 4.94437C7.18571 4.94173 6.99272 4.93984 6.79969 4.93859C6.7343 4.93806 6.6689 4.93735 6.60351 4.93643C6.07587 4.92918 5.54913 4.93822 5.07278 5.17904ZM3.84702 9.436C3.84547 10.8806 3.84392 12.3252 3.84232 13.8136C3.84163 14.2696 3.84095 14.7256 3.84025 15.1954C3.83999 15.6044 3.83999 15.6044 3.83984 16.0135C3.83977 16.1956 3.8395 16.3776 3.83908 16.5597C3.83855 16.7922 3.83841 17.0246 3.83852 17.2571C3.8385 17.3423 3.83835 17.4274 3.83806 17.5126C3.83768 17.628 3.83777 17.7434 3.83798 17.8588C3.83776 17.8918 3.83754 17.9249 3.83732 17.9589C3.84049 18.6269 4.06411 19.1628 4.54913 19.654C4.97714 20.0343 5.54058 20.2477 6.13078 20.2487C6.1949 20.2489 6.1949 20.2489 6.26031 20.2492C6.33019 20.2492 6.33019 20.2492 6.40149 20.2491C6.45178 20.2493 6.50207 20.2494 6.55236 20.2495C6.69034 20.2499 6.82831 20.25 6.96629 20.2501C7.11521 20.2503 7.26412 20.2506 7.41303 20.2509C7.77258 20.2516 8.13213 20.2519 8.49168 20.2523C8.66119 20.2524 8.8307 20.2526 9.00021 20.2528C9.56405 20.2534 10.1279 20.2539 10.6917 20.2541C10.838 20.2542 10.9842 20.2543 11.1304 20.2543C11.1668 20.2544 11.2031 20.2544 11.2406 20.2544C11.8288 20.2547 12.4171 20.2556 13.0054 20.2567C13.6099 20.2579 14.2145 20.2585 14.8191 20.2586C15.1583 20.2587 15.4975 20.259 15.8367 20.2599C16.1257 20.2607 16.4147 20.2609 16.7036 20.2606C16.8509 20.2604 16.9981 20.2605 17.1454 20.2612C18.051 20.2652 18.8983 20.2398 19.5894 19.6123C20.0575 19.1248 20.2414 18.5748 20.2372 17.9305C20.2372 17.894 20.2373 17.8575 20.2373 17.8199C20.2375 17.6983 20.2371 17.5768 20.2366 17.4552C20.2366 17.3663 20.2366 17.2773 20.2367 17.1884C20.2367 16.9749 20.2364 16.7615 20.2359 16.548C20.2353 16.3009 20.2353 16.0537 20.2352 15.8065C20.2348 15.1547 20.2338 14.5028 20.2328 13.8509C20.2313 12.394 20.2297 10.9371 20.2281 9.436C14.8224 9.436 9.41659 9.436 3.84702 9.436Z" stroke="white" stroke-width="0.2" mask="url(#path-1-outside-1_2268_5455)"/>
</svg>
