<svg width="15" height="13" viewBox="0 0 15 13" fill="none" xmlns="http://www.w3.org/2000/svg">
<path fill-rule="evenodd" clip-rule="evenodd" d="M4.7165 1.71329C4.88827 0.870052 5.63864 0.273438 6.49832 0.273438H8.60171C9.46137 0.273438 10.2117 0.870052 10.3835 1.71329C10.4232 1.90794 10.5995 2.05074 10.7829 2.05074H10.7935L10.804 2.0512C11.7075 2.0907 12.4014 2.20158 12.9808 2.58165C13.3458 2.82112 13.6598 3.12922 13.9045 3.48874C14.2089 3.93603 14.3431 4.44941 14.4075 5.07031C14.4703 5.67695 14.4703 6.43734 14.4703 7.40046V7.45524C14.4703 8.41835 14.4703 9.17875 14.4075 9.78536C14.3431 10.4063 14.2089 10.9196 13.9045 11.3669C13.6598 11.7265 13.3458 12.0346 12.9808 12.274C12.5279 12.5711 12.0088 12.7021 11.379 12.765C10.7625 12.8266 9.98918 12.8266 9.00708 12.8266H6.09293C5.11083 12.8266 4.33749 12.8266 3.72096 12.765C3.09126 12.7021 2.57209 12.5711 2.11924 12.274C1.75422 12.0346 1.44021 11.7265 1.19555 11.3669C0.89114 10.9196 0.756879 10.4063 0.692543 9.78536C0.629687 9.17875 0.629693 8.41835 0.6297 7.45524V7.40046C0.629693 6.43734 0.629687 5.67695 0.692543 5.07031C0.756879 4.44941 0.89114 3.93603 1.19555 3.48874C1.44021 3.12922 1.75422 2.82112 2.11924 2.58165C2.6986 2.20158 3.39255 2.0907 4.296 2.0512L4.30655 2.05074H4.3171C4.50049 2.05074 4.67685 1.90795 4.7165 1.71329ZM6.49832 1.23906C6.08562 1.23906 5.74046 1.52424 5.66269 1.90603C5.53674 2.52437 4.98853 3.01057 4.3289 3.01631C3.46073 3.05488 2.99571 3.16153 2.64891 3.38905C2.38913 3.55947 2.16667 3.77808 1.99384 4.03202C1.81607 4.29324 1.70924 4.62728 1.65302 5.16983C1.59593 5.72091 1.59532 6.43129 1.59532 7.42782C1.59532 8.42441 1.59593 9.13478 1.65302 9.68583C1.70924 10.2284 1.81607 10.5624 1.99384 10.8237C2.16667 11.0776 2.38913 11.2962 2.64891 11.4666C2.9177 11.643 3.26163 11.7487 3.81693 11.8042C4.37986 11.8604 5.105 11.8609 6.11946 11.8609H8.98055C9.99504 11.8609 10.7202 11.8604 11.2831 11.8042C11.8384 11.7487 12.1823 11.643 12.4511 11.4666C12.7109 11.2962 12.9334 11.0776 13.1062 10.8237C13.284 10.5624 13.3908 10.2284 13.447 9.68583C13.5041 9.13478 13.5047 8.42441 13.5047 7.42782C13.5047 6.43129 13.5041 5.72091 13.447 5.16983C13.3908 4.62728 13.284 4.29324 13.1062 4.03202C12.9334 3.77808 12.7109 3.55947 12.4511 3.38905C12.1043 3.16153 11.6393 3.05488 10.7711 3.01631C10.1115 3.01057 9.56328 2.52437 9.43736 1.90603C9.35953 1.52424 9.01441 1.23906 8.60171 1.23906H6.49832ZM7.55001 5.74531C6.75009 5.74531 6.10157 6.39383 6.10157 7.19375C6.10157 7.99367 6.75009 8.64219 7.55001 8.64219C8.34994 8.64219 8.99845 7.99367 8.99845 7.19375C8.99845 6.39383 8.34994 5.74531 7.55001 5.74531ZM5.13595 7.19375C5.13595 5.86048 6.21676 4.77969 7.55001 4.77969C8.88328 4.77969 9.96407 5.86048 9.96407 7.19375C9.96407 8.52702 8.88328 9.60781 7.55001 9.60781C6.21676 9.60781 5.13595 8.52702 5.13595 7.19375ZM10.9297 5.2625C10.9297 4.99585 11.1459 4.77969 11.4125 4.77969H12.0563C12.3229 4.77969 12.5391 4.99585 12.5391 5.2625C12.5391 5.52914 12.3229 5.74531 12.0563 5.74531H11.4125C11.1459 5.74531 10.9297 5.52914 10.9297 5.2625Z" fill="white"/>
</svg>
