<svg width="20" height="20" viewBox="0 0 20 20" fill="none" xmlns="http://www.w3.org/2000/svg">
<g clip-path="url(#clip0_2268_5446)">
<path d="M11.9068 8.2546C11.9623 8.3015 12.0168 8.34962 12.0704 8.39864C12.1226 8.44554 12.1226 8.44554 12.176 8.4934C12.5675 8.86301 12.8319 9.29549 13.0079 9.80489C13.0204 9.84094 13.0329 9.877 13.0457 9.91414C13.2807 10.7367 13.139 11.6209 12.7369 12.3613C12.6351 12.5406 12.522 12.6995 12.3829 12.8518C12.3516 12.8866 12.3203 12.9215 12.2881 12.9574C11.8248 13.4482 11.2607 13.7052 10.6251 13.9065C10.6917 13.92 10.6917 13.92 10.7597 13.9338C11.9424 14.1805 12.9436 14.7213 13.711 15.6643C13.838 15.6075 13.9309 15.5354 14.0357 15.4445C14.5569 15.0258 15.1989 14.7808 15.8594 14.6877C15.8269 14.6759 15.7943 14.664 15.7607 14.6518C15.068 14.3939 14.5337 14.021 14.2066 13.3376C13.9559 12.7874 13.9178 12.0863 14.1308 11.5163C14.4214 10.8645 14.8459 10.4238 15.4958 10.1276C16.1177 9.89048 16.8162 9.93807 17.4171 10.2067C18.0069 10.5007 18.401 10.9936 18.6329 11.6018C18.8277 12.2373 18.7427 12.9161 18.4498 13.5036C18.092 14.1212 17.5431 14.4744 16.8751 14.6877C16.9176 14.6967 16.9601 14.7057 17.0039 14.715C17.9701 14.9265 18.859 15.4129 19.4222 16.2519C19.8318 16.9273 20.0082 17.5729 20.0137 18.359C20.0144 18.4262 20.0155 18.4934 20.0169 18.5605C20.0191 18.658 20.0199 18.7554 20.0205 18.8529C20.0214 18.8828 20.0223 18.9126 20.0232 18.9434C20.0226 19.0886 20.009 19.1679 19.9216 19.2855C19.7725 19.4 19.6556 19.4025 19.475 19.3998C19.4251 19.4002 19.4251 19.4002 19.3742 19.4006C19.2622 19.4014 19.1502 19.4007 19.0381 19.4C18.9572 19.4002 18.8763 19.4005 18.7954 19.4009C18.5726 19.4017 18.3499 19.4013 18.1271 19.4007C17.887 19.4003 17.647 19.401 17.4069 19.4015C16.9636 19.4023 16.5204 19.4023 16.0771 19.4017C15.6676 19.4012 15.2582 19.4011 14.8487 19.4013C14.808 19.4014 14.808 19.4014 14.7664 19.4014C14.6563 19.4014 14.5461 19.4015 14.4359 19.4016C13.402 19.4022 12.3681 19.4016 11.3341 19.4006C10.4152 19.3996 9.49632 19.3997 8.57741 19.4007C7.5454 19.4017 6.51339 19.4021 5.48138 19.4015C5.3714 19.4015 5.26142 19.4014 5.15144 19.4013C5.11082 19.4013 5.11081 19.4013 5.06937 19.4013C4.66013 19.4011 4.25088 19.4013 3.84164 19.4018C3.37638 19.4024 2.91113 19.4022 2.44588 19.4012C2.20835 19.4007 1.97084 19.4005 1.73332 19.4011C1.51607 19.4017 1.29885 19.4014 1.08161 19.4003C1.00283 19.4001 0.924053 19.4002 0.845275 19.4007C0.738529 19.4013 0.631855 19.4007 0.525113 19.3998C0.494222 19.4002 0.46333 19.4007 0.431503 19.4012C0.276094 19.3985 0.203078 19.3811 0.0786551 19.285C-0.0241491 19.1475 -0.0275025 19.0333 -0.0245003 18.868C-0.0245945 18.8378 -0.0246894 18.8075 -0.0247864 18.7764C-0.0247482 18.7123 -0.024225 18.6482 -0.023251 18.5841C-0.0219325 18.4884 -0.0224385 18.3929 -0.0232033 18.2972C-0.0227825 17.7603 0.0429423 17.2154 0.307684 16.7385C0.328119 16.6999 0.328119 16.6999 0.348968 16.6605C0.811044 15.8008 1.54672 15.14 2.48389 14.8378C2.69672 14.7754 2.90558 14.7209 3.12507 14.6877C3.09249 14.6759 3.05991 14.664 3.02634 14.6518C2.33358 14.3939 1.79933 14.021 1.47223 13.3376C1.2215 12.7874 1.18338 12.0863 1.3964 11.5163C1.68701 10.8645 2.11149 10.4238 2.76145 10.1276C3.38328 9.89048 4.08185 9.93807 4.68268 10.2067C5.2725 10.5007 5.66658 10.9936 5.8985 11.6018C6.09328 12.2373 6.00834 12.9161 5.7154 13.5036C5.3576 14.1212 4.80868 14.4744 4.14069 14.6877C4.18274 14.6967 4.22478 14.7057 4.2681 14.715C4.93641 14.8624 5.52357 15.0866 6.0572 15.5283C6.13172 15.5853 6.20495 15.6236 6.28913 15.6643C6.32136 15.6274 6.35358 15.5905 6.38679 15.5526C7.20348 14.6374 8.20211 14.0948 9.41413 13.9065C9.36972 13.8932 9.3253 13.8799 9.27955 13.8662C8.68868 13.6833 8.22009 13.4482 7.7735 13.008C7.74918 12.9865 7.72486 12.965 7.6998 12.9429C7.35803 12.6318 7.14134 12.1895 6.99225 11.758C6.97977 11.722 6.96728 11.6859 6.95441 11.6488C6.7194 10.8262 6.86112 9.94196 7.26325 9.20156C7.36501 9.02235 7.47809 8.86336 7.61725 8.71114C7.64852 8.67629 7.67979 8.64145 7.71201 8.60555C8.08162 8.214 8.51411 7.94966 9.0235 7.77364C9.05956 7.76115 9.09561 7.74866 9.13276 7.7358C10.0728 7.4672 11.1265 7.67699 11.9068 8.2546ZM8.20289 9.30593C7.75023 9.86048 7.63386 10.4723 7.69538 11.1721C7.78449 11.7809 8.14252 12.2668 8.61091 12.6491C9.16495 13.0572 9.79777 13.1729 10.4732 13.0741C11.0792 12.9546 11.571 12.5735 11.9326 12.0826C12.2988 11.529 12.4061 10.8837 12.2777 10.2326C12.1104 9.59191 11.6837 9.07132 11.1172 8.73326C10.0974 8.19037 8.95989 8.46645 8.20289 9.30593ZM2.3902 11.4162C2.11308 11.7997 2.06438 12.1961 2.10944 12.6565C2.19763 13.0776 2.45103 13.403 2.79593 13.6522C3.18562 13.8945 3.62397 13.9347 4.06852 13.8416C4.50542 13.7001 4.8361 13.3913 5.05164 12.9902C5.20989 12.6211 5.21882 12.1808 5.09528 11.7995C4.91651 11.3826 4.59424 11.0603 4.17731 10.8815C3.49697 10.6611 2.84358 10.8781 2.3902 11.4162ZM15.1246 11.4162C14.8475 11.7997 14.7988 12.1961 14.8438 12.6565C14.932 13.0776 15.1854 13.403 15.5303 13.6522C15.92 13.8945 16.3584 13.9347 16.8029 13.8416C17.2398 13.7001 17.5705 13.3913 17.786 12.9902C17.9443 12.6211 17.9532 12.1808 17.8297 11.7995C17.6509 11.3826 17.3286 11.0603 16.9117 10.8815C16.2313 10.6611 15.578 10.8781 15.1246 11.4162ZM8.94538 14.844C8.92097 14.8517 8.89656 14.8595 8.87141 14.8675C7.82028 15.2092 7.02863 15.8951 6.50397 16.8665C6.23233 17.431 6.13288 17.9664 6.13288 18.594C8.68522 18.594 11.2376 18.594 13.8673 18.594C13.8673 17.4732 13.4544 16.558 12.6784 15.7621C11.8109 14.9401 10.7741 14.6944 9.61068 14.7216C9.37858 14.7317 9.16704 14.7725 8.94538 14.844ZM1.67975 16.2502C1.64395 16.2806 1.64395 16.2806 1.60743 16.3115C1.07415 16.7961 0.830115 17.5012 0.781316 18.2033C0.781316 18.3322 0.781316 18.4611 0.781316 18.594C2.27663 18.594 3.77194 18.594 5.31257 18.594C5.33835 18.3232 5.36413 18.0525 5.39069 17.7736C5.46675 17.417 5.56035 17.0886 5.70121 16.7528C5.74449 16.6347 5.77268 16.5321 5.78132 16.4065C5.5768 16.0152 4.94545 15.7576 4.54886 15.6241C3.51975 15.3339 2.485 15.5264 1.67975 16.2502ZM14.3751 16.2502C14.3299 16.2862 14.3299 16.2862 14.2838 16.323C14.2071 16.4032 14.2071 16.4032 14.2217 16.5159C14.262 16.6551 14.3129 16.7877 14.3677 16.9216C14.4597 17.1573 14.5296 17.392 14.5826 17.6394C14.5888 17.6674 14.595 17.6954 14.6014 17.7243C14.6603 18.0166 14.6672 18.2892 14.6876 18.594C16.1829 18.594 17.6782 18.594 19.2188 18.594C19.2188 17.7093 19.0272 16.9954 18.4128 16.3418C17.851 15.7855 17.1581 15.4966 16.3697 15.4885C15.6098 15.4963 14.9426 15.7347 14.3751 16.2502Z" fill="white"/>
<path d="M9.97794 0.607758C10.0069 0.607002 10.0358 0.606247 10.0657 0.605469C10.2023 0.634726 10.2532 0.67911 10.3515 0.781097C10.4375 0.923894 10.5091 1.07268 10.581 1.22299C10.6116 1.28581 10.6116 1.28581 10.6429 1.34989C10.7025 1.47255 10.7615 1.59552 10.8202 1.7186C10.8361 1.75159 10.852 1.78457 10.8684 1.81856C11.0937 2.28614 11.0937 2.28614 11.0937 2.38266C11.1226 2.38443 11.1516 2.3862 11.1814 2.38803C11.5167 2.41093 11.8475 2.45037 12.1798 2.49953C12.2664 2.51219 12.3532 2.52398 12.4399 2.53578C12.4957 2.54394 12.5515 2.55216 12.6073 2.56042C12.682 2.5711 12.682 2.5711 12.7581 2.58199C12.904 2.62059 12.9794 2.66748 13.0858 2.77328C13.1349 2.92035 13.1452 3.00884 13.1249 3.16391C12.9881 3.3744 12.7859 3.53642 12.5985 3.70026C12.0605 4.12726 12.0605 4.12726 11.7914 4.71756C11.8075 4.8931 11.8575 5.05427 11.9196 5.21864C11.972 5.36547 11.9947 5.51526 12.019 5.66879C12.0262 5.70941 12.0262 5.70941 12.0336 5.75086C12.112 6.19424 12.112 6.19424 12.0702 6.4061C11.9842 6.51926 11.9223 6.5777 11.7968 6.64047C11.4724 6.63619 11.2426 6.5135 10.9618 6.35971C10.9204 6.33763 10.879 6.31555 10.8364 6.2928C10.6726 6.20516 10.5092 6.11742 10.349 6.02331C10.3114 6.00154 10.2739 5.97977 10.2352 5.95734C10.202 5.93753 10.1689 5.91773 10.1347 5.89732C10.0172 5.85054 9.96298 5.86012 9.84366 5.89828C9.76306 5.93204 9.76306 5.93204 9.68558 5.97519C9.65611 5.99091 9.62664 6.00662 9.59628 6.02282C9.56512 6.03973 9.53396 6.05664 9.50186 6.07407C9.4694 6.09133 9.43693 6.1086 9.40348 6.12638C9.23964 6.21365 9.07676 6.30244 8.9147 6.39297C8.88528 6.40916 8.85586 6.42535 8.82555 6.44203C8.77007 6.47261 8.71484 6.50367 8.65992 6.53526C8.48849 6.6293 8.36419 6.66057 8.16397 6.64047C8.05502 6.59205 7.9904 6.55123 7.91739 6.45737C7.84756 6.22249 7.89791 5.96913 7.9418 5.73318C7.94961 5.68916 7.94961 5.68916 7.95757 5.64425C7.97403 5.55147 7.99084 5.45876 8.00772 5.36606C8.02458 5.27307 8.04135 5.18007 8.05787 5.08703C8.06811 5.02943 8.07853 4.97186 8.08917 4.91434C8.15069 4.64212 8.15069 4.64212 8.08166 4.3867C8.05118 4.36052 8.05118 4.36052 8.02008 4.3338C7.99702 4.31329 7.97397 4.29278 7.95021 4.27164C7.92488 4.25011 7.89955 4.22858 7.87344 4.20639C7.82 4.15852 7.76665 4.11055 7.71338 4.0625C7.68512 4.03728 7.65687 4.01206 7.62776 3.98607C7.47316 3.84682 7.32229 3.70407 7.17276 3.55942C7.14373 3.53251 7.11471 3.50561 7.0848 3.47789C6.95503 3.35149 6.86116 3.25762 6.83447 3.07404C6.83607 2.90632 6.85067 2.82854 6.95303 2.69516C7.16302 2.6033 7.36066 2.55391 7.58688 2.5238C7.61623 2.51963 7.64558 2.51547 7.67582 2.51117C7.73731 2.50251 7.79882 2.49401 7.86036 2.48569C7.9541 2.47298 8.04774 2.45972 8.14139 2.44637C8.2015 2.43797 8.26162 2.4296 8.32175 2.42126C8.34946 2.41736 8.37718 2.41346 8.40573 2.40943C8.56068 2.38866 8.7108 2.3788 8.8671 2.38266C8.87677 2.35072 8.88644 2.31878 8.89641 2.28587C8.95361 2.12464 9.02519 1.97496 9.10117 1.8219C9.11629 1.7913 9.13142 1.76069 9.147 1.72916C9.1789 1.66481 9.21088 1.6005 9.24294 1.53623C9.29185 1.43793 9.34018 1.33936 9.38849 1.24077C9.41963 1.17811 9.45081 1.11548 9.48203 1.05286C9.49635 1.02344 9.51068 0.994017 9.52544 0.963705C9.63115 0.754112 9.72374 0.608198 9.97794 0.607758ZM9.96085 1.95297C9.94077 1.99612 9.94077 1.99612 9.9203 2.04014C9.85929 2.17075 9.79777 2.30112 9.73624 2.43149C9.71519 2.47676 9.69414 2.52202 9.67245 2.56866C9.65181 2.61222 9.63116 2.65578 9.60989 2.70065C9.59107 2.74075 9.57225 2.78084 9.55286 2.82215C9.45971 2.98677 9.38646 3.07124 9.20309 3.12393C9.15143 3.13303 9.09964 3.14144 9.04776 3.14926C9.02052 3.15386 8.99328 3.15846 8.96521 3.16319C8.88052 3.17724 8.79574 3.19026 8.71085 3.20297C8.66996 3.20918 8.66996 3.20918 8.62826 3.2155C8.47367 3.23874 8.31893 3.26052 8.16397 3.2811C8.22744 3.45185 8.35616 3.55147 8.48868 3.66928C8.93518 4.07128 8.93518 4.07128 8.98428 4.2186C8.99426 4.44964 8.96812 4.66086 8.92569 4.88754C8.88931 5.08388 8.8594 5.26779 8.8671 5.4686C8.96562 5.41987 9.06408 5.37102 9.16251 5.32211C9.19002 5.30852 9.21754 5.29492 9.2459 5.28091C9.37775 5.21529 9.50515 5.1484 9.62988 5.07004C9.80454 4.97966 9.96037 4.92453 10.1544 4.98432C10.2334 5.0199 10.3079 5.05961 10.3832 5.10239C10.4339 5.12985 10.4846 5.15721 10.5353 5.18448C10.5613 5.19859 10.5873 5.2127 10.614 5.22724C10.7835 5.3149 10.9584 5.39123 11.1327 5.4686C11.1278 5.44086 11.1228 5.41311 11.1178 5.38453C11.0954 5.2572 11.0738 5.12975 11.0522 5.00229C11.0444 4.95866 11.0366 4.91503 11.0286 4.87007C10.9439 4.3637 10.9439 4.3637 11.0155 4.14047C11.0966 4.03961 11.0966 4.03961 11.2108 3.94516C11.2603 3.89741 11.3094 3.8492 11.3581 3.80066C11.3839 3.77521 11.4097 3.74975 11.4363 3.72353C11.4626 3.69757 11.4889 3.67161 11.516 3.64487C11.5431 3.61846 11.5702 3.59205 11.598 3.56483C11.6236 3.53953 11.6491 3.51423 11.6755 3.48816C11.6988 3.46526 11.7221 3.44237 11.7461 3.41878C11.8052 3.36234 11.8052 3.36234 11.7968 3.2811C11.7659 3.27698 11.7349 3.27286 11.7031 3.26861C11.5625 3.24963 11.4221 3.22997 11.2816 3.2103C11.233 3.20383 11.1843 3.19736 11.1342 3.19069C11.0872 3.18402 11.0403 3.17735 10.9919 3.17047C10.9487 3.16454 10.9056 3.15861 10.8611 3.15249C10.7013 3.11536 10.5891 3.06587 10.4912 2.93118C10.4697 2.88845 10.4697 2.88845 10.4478 2.84485C10.4315 2.81315 10.4152 2.78145 10.3984 2.74879C10.3821 2.71579 10.3658 2.68278 10.349 2.64877C10.3326 2.61652 10.3161 2.58427 10.2992 2.55104C10.251 2.45612 10.2035 2.36086 10.1562 2.26547C10.1261 2.2054 10.0961 2.14533 10.066 2.08527C10.0442 2.04161 10.0224 1.99795 9.99991 1.95297C9.98702 1.95297 9.97413 1.95297 9.96085 1.95297Z" fill="white"/>
<path d="M16.6211 4.1188C16.6497 4.11795 16.6783 4.11709 16.7078 4.11621C16.8441 4.1538 16.9166 4.22057 16.9922 4.33609C17.0233 4.41346 17.0523 4.49172 17.0798 4.57047C17.1836 4.85646 17.2836 5.13129 17.5 5.35172C17.7997 5.48885 18.1161 5.50229 18.441 5.52094C18.7349 5.53805 18.7349 5.53805 18.8623 5.64056C18.9611 5.76168 18.9875 5.82043 18.9844 5.97672C18.905 6.21587 18.7817 6.35637 18.6011 6.52847C18.5775 6.55169 18.5539 6.5749 18.5296 6.59882C18.4192 6.70643 18.3098 6.80531 18.1856 6.89651C18.0754 6.98299 18.0754 6.98299 18.0688 7.10739C18.0773 7.16887 18.0773 7.16887 18.0859 7.2316C18.0915 7.27641 18.0971 7.32123 18.1029 7.3674C18.1223 7.48374 18.1436 7.59931 18.1665 7.715C18.2776 8.30218 18.2776 8.30218 18.1616 8.51318C18.0626 8.60813 17.9679 8.63309 17.8349 8.65311C17.5839 8.6477 17.3732 8.49701 17.1606 8.37662C17.0745 8.32805 16.9881 8.27996 16.9014 8.23242C16.8635 8.21094 16.8256 8.18946 16.7865 8.16733C16.6611 8.11781 16.6109 8.12168 16.4844 8.16422C16.4185 8.19403 16.3537 8.22636 16.29 8.26065C16.2541 8.27973 16.2183 8.29882 16.1813 8.31848C16.1444 8.33847 16.1074 8.35846 16.0693 8.37906C15.9956 8.4186 15.9219 8.45808 15.8481 8.49747C15.8156 8.51502 15.7831 8.53256 15.7496 8.55064C15.5829 8.63496 15.419 8.66607 15.2344 8.63297C15.1293 8.54798 15.0603 8.48021 15 8.35953C15.0005 8.29028 15.0044 8.22105 15.0098 8.15201C15.0124 8.10619 15.0151 8.06036 15.0179 8.01315C15.0296 7.89026 15.0593 7.78291 15.0981 7.66586C15.1619 7.44944 15.215 7.25446 15.1563 7.0314C14.9539 6.72214 14.6643 6.48138 14.3821 6.24677C14.2702 6.14862 14.26 6.11642 14.2456 5.96695C14.2603 5.79088 14.2957 5.7166 14.4141 5.58609C14.6369 5.50666 14.8664 5.47672 15.1001 5.44449C15.154 5.43663 15.154 5.43663 15.209 5.42862C15.3882 5.40337 15.5607 5.38413 15.7422 5.39078C15.7551 5.34621 15.7551 5.34621 15.7683 5.30075C15.8405 5.10041 15.9335 4.91255 16.0278 4.72183C16.0463 4.68321 16.0648 4.64459 16.0839 4.6048C16.3245 4.11828 16.3245 4.11828 16.6211 4.1188ZM16.6016 5.4689C16.5558 5.55181 16.5103 5.63482 16.4648 5.71793C16.4518 5.74149 16.4388 5.76506 16.4253 5.78934C16.352 5.91477 16.352 5.91477 16.3281 6.05484C16.1544 6.11846 15.989 6.1527 15.8057 6.17691C15.757 6.18346 15.7084 6.19 15.6583 6.19675C15.6215 6.20148 15.5847 6.20621 15.5469 6.21109C15.5818 6.25269 15.6168 6.29417 15.6519 6.3356C15.6731 6.36083 15.6944 6.38606 15.7162 6.41205C15.7849 6.4919 15.7849 6.4919 15.8911 6.5773C16.0584 6.77809 16.02 7.01959 15.9985 7.26822C15.9916 7.33255 15.9844 7.39686 15.9766 7.46109C16.0254 7.43503 16.0254 7.43503 16.0753 7.40845C16.5134 7.18814 16.5134 7.18814 16.7525 7.23587C16.8824 7.28243 16.9984 7.34693 17.1153 7.41974C17.1849 7.46756 17.1849 7.46756 17.2656 7.46109C17.2592 7.41114 17.2527 7.36119 17.2461 7.30972C17.2394 7.24301 17.2329 7.17628 17.2266 7.10953C17.2205 7.06036 17.2205 7.06036 17.2144 7.01019C17.2033 6.86149 17.2004 6.75996 17.2821 6.63162C17.3516 6.5526 17.4249 6.4801 17.5 6.4064C17.5528 6.34188 17.6051 6.2769 17.6563 6.21109C17.6134 6.2049 17.5705 6.1987 17.5264 6.19232C17.4696 6.18316 17.4128 6.17395 17.356 6.1647C17.3278 6.16075 17.2996 6.1568 17.2706 6.15273C17.0693 6.11872 16.9662 6.06474 16.8359 5.89859C16.7741 5.78552 16.7741 5.78552 16.7261 5.67154C16.7097 5.63342 16.6933 5.5953 16.6765 5.55603C16.6647 5.52728 16.6528 5.49853 16.6406 5.4689C16.6277 5.4689 16.6148 5.4689 16.6016 5.4689Z" fill="white"/>
<path d="M3.33984 4.1188C3.36845 4.11795 3.39705 4.11709 3.42651 4.11621C3.56285 4.1538 3.63535 4.22057 3.71094 4.33609C3.74209 4.41346 3.77105 4.49172 3.79852 4.57047C3.90232 4.85646 4.00233 5.13129 4.21875 5.35172C4.51844 5.48885 4.83481 5.50229 5.15976 5.52094C5.45366 5.53805 5.45366 5.53805 5.58106 5.64056C5.67983 5.76168 5.70625 5.82043 5.70313 5.97672C5.62379 6.21587 5.50044 6.35637 5.31982 6.52847C5.29623 6.55169 5.27264 6.5749 5.24834 6.59882C5.13799 6.70643 5.02859 6.80531 4.90433 6.89651C4.7941 6.98299 4.7941 6.98299 4.7876 7.10739C4.79606 7.16887 4.79606 7.16887 4.80469 7.2316C4.81028 7.27641 4.81587 7.32123 4.82163 7.3674C4.84101 7.48374 4.86235 7.59931 4.88525 7.715C4.99632 8.30218 4.99632 8.30218 4.88037 8.51318C4.78139 8.60813 4.68664 8.63309 4.55368 8.65311C4.30261 8.6477 4.09198 8.49701 3.87939 8.37662C3.79326 8.32805 3.70686 8.27996 3.62015 8.23242C3.58225 8.21094 3.54435 8.18946 3.5053 8.16733C3.37983 8.11781 3.32961 8.12168 3.20313 8.16422C3.13722 8.19403 3.07242 8.22636 3.00873 8.26065C2.97288 8.27973 2.93702 8.29882 2.90009 8.31848C2.86313 8.33847 2.82617 8.35846 2.78809 8.37906C2.71438 8.4186 2.64063 8.45808 2.56683 8.49747C2.53432 8.51502 2.50181 8.53256 2.46832 8.55064C2.30166 8.63496 2.13774 8.66607 1.95313 8.63297C1.84801 8.54798 1.77909 8.48021 1.71875 8.35953C1.71922 8.29028 1.72314 8.22105 1.72852 8.15201C1.73118 8.10619 1.73385 8.06036 1.7366 8.01315C1.74833 7.89026 1.77803 7.78291 1.81686 7.66586C1.88068 7.44944 1.93371 7.25446 1.875 7.0314C1.67262 6.72214 1.38309 6.48138 1.10081 6.24677C0.988952 6.14862 0.978728 6.11642 0.964355 5.96695C0.979028 5.79088 1.01444 5.7166 1.13281 5.58609C1.35568 5.50666 1.58519 5.47672 1.81885 5.44449C1.87274 5.43663 1.87274 5.43663 1.92772 5.42862C2.10691 5.40337 2.27944 5.38413 2.46094 5.39078C2.47385 5.34621 2.47385 5.34621 2.48703 5.30075C2.55925 5.10041 2.65222 4.91255 2.74658 4.72183C2.76509 4.68321 2.78359 4.64459 2.80266 4.6048C3.04328 4.11828 3.04328 4.11828 3.33984 4.1188ZM3.32031 5.4689C3.27454 5.55181 3.229 5.63482 3.18359 5.71793C3.17055 5.74149 3.15751 5.76506 3.14407 5.78934C3.07079 5.91477 3.07079 5.91477 3.04688 6.05484C2.87311 6.11846 2.70771 6.1527 2.52441 6.17691C2.47577 6.18346 2.42713 6.19 2.37701 6.19675C2.34026 6.20148 2.3035 6.20621 2.26563 6.21109C2.30051 6.25269 2.33553 6.29417 2.37061 6.3356C2.39186 6.36083 2.4131 6.38606 2.435 6.41205C2.5036 6.4919 2.5036 6.4919 2.60986 6.5773C2.77719 6.77809 2.73872 7.01959 2.71729 7.26822C2.71031 7.33255 2.70312 7.39686 2.69531 7.46109C2.74418 7.43503 2.74418 7.43503 2.79404 7.40845C3.23214 7.18814 3.23214 7.18814 3.47122 7.23587C3.60115 7.28243 3.71712 7.34693 3.83408 7.41974C3.90368 7.46756 3.90368 7.46756 3.98438 7.46109C3.97793 7.41114 3.97148 7.36119 3.96484 7.30972C3.95814 7.24301 3.95164 7.17628 3.94531 7.10953C3.93927 7.06036 3.93927 7.06036 3.93311 7.01019C3.92204 6.86149 3.91918 6.75996 4.00085 6.63162C4.07037 6.5526 4.14368 6.4801 4.21875 6.4064C4.27155 6.34188 4.32381 6.2769 4.375 6.21109C4.33215 6.2049 4.2893 6.1987 4.24515 6.19232C4.18833 6.18316 4.13151 6.17395 4.07471 6.1647C4.04653 6.16075 4.01836 6.1568 3.98933 6.15273C3.78806 6.11872 3.68496 6.06474 3.55469 5.89859C3.49289 5.78552 3.49289 5.78552 3.44482 5.67154C3.42846 5.63342 3.41209 5.5953 3.39523 5.55603C3.3834 5.52728 3.37157 5.49853 3.35938 5.4689C3.34648 5.4689 3.33359 5.4689 3.32031 5.4689Z" fill="white"/>
</g>
<defs>
<clipPath id="clip0_2268_5446">
<rect width="20" height="20" fill="white"/>
</clipPath>
</defs>
</svg>
