<svg width="16" height="16" viewBox="0 0 16 16" fill="none" xmlns="http://www.w3.org/2000/svg">
<g clip-path="url(#clip0_1951_7700)">
<path d="M8.54941 3.14392C8.60961 3.14386 8.66982 3.14377 8.73002 3.14365C8.85524 3.14351 8.98045 3.14371 9.10567 3.14415C9.2645 3.14469 9.42332 3.14438 9.58216 3.14382C9.70619 3.14348 9.83022 3.14359 9.95426 3.14383C10.0128 3.14389 10.0713 3.14382 10.1297 3.1436C10.8081 3.14159 11.4685 3.21012 12.0309 3.62512C12.0552 3.64301 12.0796 3.6609 12.1047 3.67932C12.601 4.08047 12.7759 4.70332 12.8434 5.31262C12.8584 5.52687 12.8566 5.74153 12.8558 5.95618C12.8559 6.01638 12.856 6.07659 12.8561 6.13679C12.8562 6.26201 12.856 6.38722 12.8556 6.51244C12.855 6.67127 12.8553 6.83009 12.8559 6.98893C12.8563 7.11296 12.8561 7.23699 12.8559 7.36103C12.8558 7.41952 12.8559 7.47802 12.8561 7.53652C12.8581 8.21824 12.787 8.87052 12.3746 9.43762C12.3602 9.45777 12.3458 9.47791 12.331 9.49866C11.9664 9.96516 11.3751 10.1441 10.8147 10.2334C10.6269 10.2552 10.4384 10.2534 10.2496 10.2501C10.2507 10.2752 10.2518 10.3002 10.2529 10.3261C10.2695 11.0243 10.1057 11.7106 9.61752 12.2305C9.02033 12.7886 8.2358 12.8593 7.45773 12.8563C7.3983 12.8564 7.33887 12.8565 7.27945 12.8566C7.15583 12.8567 7.03222 12.8565 6.90861 12.8561C6.75195 12.8556 6.5953 12.8559 6.43864 12.8564C6.31619 12.8568 6.19374 12.8567 6.07128 12.8564C6.0136 12.8564 5.95591 12.8564 5.89823 12.8567C5.23402 12.8586 4.50715 12.8094 3.96835 12.3751C3.92998 12.3454 3.92998 12.3454 3.89084 12.3151C3.41927 11.9241 3.22583 11.3408 3.16026 10.7483C3.14708 10.567 3.18951 10.4522 3.28476 10.3009C3.40762 10.1887 3.52175 10.1298 3.68967 10.1222C3.84337 10.134 3.94558 10.1834 4.0621 10.2814C4.18901 10.4382 4.07302 10.5551 4.10323 10.7483C4.15934 11.0581 4.36703 11.3551 4.63632 11.547C5.05612 11.7905 5.50177 11.7912 5.97385 11.7908C6.03186 11.7909 6.08987 11.791 6.14789 11.7912C6.26905 11.7914 6.39021 11.7914 6.51138 11.7912C6.6655 11.7911 6.81961 11.7916 6.97373 11.7923C7.09345 11.7928 7.21316 11.7928 7.33287 11.7927C7.38964 11.7927 7.44641 11.7929 7.50318 11.7932C7.98965 11.7956 8.46823 11.7745 8.86874 11.463C9.19302 11.0461 9.20161 10.5448 9.19955 10.0405C9.19962 9.98498 9.19971 9.92942 9.19983 9.87387C9.19996 9.75807 9.19977 9.64228 9.19933 9.52648C9.19879 9.37962 9.1991 9.23278 9.19966 9.08591C9.2 8.97134 9.19989 8.85678 9.19965 8.74221C9.19959 8.68813 9.19966 8.63406 9.19988 8.57999C9.20421 7.82076 9.20421 7.82076 8.88351 7.15589C8.4912 6.774 7.87867 6.80274 7.36813 6.80323C7.31386 6.8031 7.25959 6.80297 7.20532 6.80282C7.09215 6.80259 6.97898 6.80259 6.86581 6.80276C6.7222 6.80294 6.5786 6.80241 6.435 6.80169C6.32306 6.80122 6.21112 6.8012 6.09918 6.8013C6.0463 6.80128 5.99342 6.80112 5.94054 6.8008C5.475 6.79834 4.65525 6.84526 4.28226 7.16198C4.05417 7.43274 4.14615 10.4222 4.10323 10.7483C4.07524 10.9389 4.1138 10.3933 3.97226 10.5277C3.81085 10.6027 3.73978 10.5513 3.56478 10.5277C3.41132 10.4565 3.23907 10.8971 3.16026 10.7483C3.12152 10.5701 3.16285 7.85865 3.19296 7.68177C3.19734 7.65554 3.20172 7.62931 3.20624 7.60228C3.30242 7.05521 3.52505 6.55912 3.97226 6.21497C4.49737 5.84883 5.11775 5.72603 5.7496 5.75012C5.74852 5.72994 5.74743 5.70976 5.74631 5.68897C5.72749 5.03407 5.88836 4.34722 6.31406 3.83606C6.90557 3.21948 7.74154 3.14086 8.54941 3.14392ZM7.13046 4.50989C6.86768 4.83274 6.77854 5.18823 6.78024 5.60156C6.78033 5.62946 6.78042 5.65735 6.78051 5.68609C6.78062 5.70722 6.78074 5.72835 6.78085 5.75012C6.81515 5.75074 6.84946 5.75136 6.8848 5.752C7.01457 5.75442 7.14433 5.75718 7.27409 5.76004C7.32979 5.76122 7.38548 5.76232 7.44118 5.76331C8.1969 5.77693 9.01831 5.82793 9.60056 6.37708C10.1675 6.99788 10.2249 7.78978 10.2379 8.58802C10.2391 8.6494 10.2403 8.71078 10.2415 8.77216C10.2445 8.92106 10.2472 9.06996 10.2496 9.21887C10.2937 9.21928 10.3378 9.21957 10.3819 9.21981C10.4065 9.21999 10.4311 9.22016 10.4564 9.22034C10.8295 9.213 11.209 9.12272 11.4937 8.87317C11.8517 8.48315 11.8219 7.89833 11.8215 7.40467C11.8216 7.3474 11.8218 7.29013 11.8219 7.23286C11.8221 7.11335 11.8221 6.99385 11.822 6.87435C11.8218 6.72236 11.8223 6.57038 11.823 6.4184C11.8235 6.30027 11.8235 6.18214 11.8234 6.06401C11.8234 6.00803 11.8236 5.95204 11.8239 5.89606C11.8263 5.42264 11.819 4.86994 11.4741 4.50208C11.0599 4.1674 10.5289 4.17778 10.0254 4.17823C9.96735 4.1781 9.90933 4.17797 9.85132 4.17782C9.73015 4.17759 9.60899 4.17759 9.48783 4.17776C9.33371 4.17794 9.17959 4.17741 9.02547 4.17669C8.90576 4.17622 8.78605 4.1762 8.66634 4.1763C8.60957 4.17628 8.5528 4.17612 8.49603 4.1758C8.0139 4.17344 7.52097 4.1888 7.13046 4.50989Z" fill="#535353"/>
<path d="M14.8437 9.49984C14.9837 9.56732 15.0682 9.65389 15.1562 9.78109C15.413 10.5515 14.9673 11.6949 14.6244 12.3819C14.3782 12.8596 14.0625 13.2732 13.6875 13.6561C13.6638 13.6813 13.6401 13.7066 13.6157 13.7326C12.713 14.6765 11.3752 15.1645 10.0879 15.1971C9.91013 15.1933 9.77319 15.1777 9.64084 15.0478C9.5049 14.8907 9.48153 14.782 9.48351 14.5779C9.51533 14.3666 9.63578 14.1969 9.74802 14.0194C9.77131 13.9812 9.79452 13.9429 9.81766 13.9046C9.87569 13.8091 9.93518 13.7145 9.99507 13.6201C10.0322 13.5608 10.0682 13.5009 10.104 13.4407C10.1279 13.4014 10.1519 13.3621 10.1759 13.3228C10.1969 13.2878 10.2179 13.2528 10.2395 13.2167C10.3428 13.0866 10.4552 13.0128 10.6223 12.9843C10.9146 12.9907 10.9146 12.9907 11.0312 13.0936C11.1646 13.2331 11.2326 13.3494 11.2323 13.5476C11.2035 13.7114 11.1117 13.8561 11.0312 13.9998C11.722 13.7888 12.3047 13.4843 12.8437 12.9998C12.8689 12.9774 12.894 12.9549 12.9199 12.9317C13.7 12.1934 14.0783 11.1415 14.1294 10.0882C14.1435 9.85852 14.1902 9.7136 14.3593 9.54867C14.5209 9.47653 14.6696 9.47615 14.8437 9.49984Z" fill="#535353"/>
<path d="M5.79107 0.807598C5.98919 0.802419 6.14231 0.799947 6.31256 0.906352C6.44157 1.033 6.50624 1.13929 6.51751 1.31968C6.51498 1.58123 6.38688 1.76724 6.25201 1.98057C6.22872 2.01877 6.20551 2.05702 6.18237 2.09532C6.12434 2.19087 6.06485 2.28542 6.00496 2.37981C5.96784 2.43915 5.93187 2.49909 5.89604 2.55922C5.87209 2.59852 5.84813 2.63781 5.82415 2.6771C5.80314 2.71214 5.78213 2.74717 5.76049 2.78326C5.65721 2.91332 5.54482 2.98716 5.37774 3.01561C5.08547 3.00929 5.08547 3.00929 4.96881 2.90635C4.83539 2.76683 4.76739 2.65054 4.76776 2.45237C4.79649 2.28854 4.88832 2.14383 4.96881 2.0001C4.22084 2.22865 3.58573 2.56773 3.03131 3.1251C3.00331 3.1531 2.97531 3.1811 2.94647 3.20994C2.33972 3.84661 1.95418 4.74626 1.89239 5.61998C1.89009 5.65181 1.88778 5.68365 1.8854 5.71646C1.88121 5.77901 1.8777 5.8416 1.87497 5.90423C1.86228 6.10639 1.82216 6.25135 1.68756 6.40635C1.54713 6.51982 1.42082 6.5158 1.24627 6.51109C1.08319 6.49117 1.00292 6.41291 0.896542 6.29502C0.669165 5.96659 0.840003 5.30483 0.906307 4.9376C1.11973 3.96363 1.58565 3.08795 2.28131 2.3751C2.30709 2.34703 2.33287 2.31895 2.35943 2.29002C3.23284 1.36468 4.53805 0.86818 5.79107 0.807598Z" fill="#535353"/>
</g>
<defs>
<clipPath id="clip0_1951_7700">
<rect width="16" height="16" fill="white"/>
</clipPath>
</defs>
</svg>
