<svg width="40" height="40" viewBox="0 0 40 40" fill="none" xmlns="http://www.w3.org/2000/svg">
<path d="M3.50001 20.001C3.50001 10.8884 10.8874 3.50098 20 3.50098C29.1127 3.50098 36.5 10.8884 36.5 20.001C36.5 29.1137 29.1127 36.501 20 36.501C10.8874 36.501 3.5 29.1137 3.50001 20.001Z" fill="white" stroke="#F0F0F0"/>
<path fill-rule="evenodd" clip-rule="evenodd" d="M21.5386 14.7664C22.5592 13.7458 24.2139 13.7458 25.2346 14.7664C26.2552 15.787 26.2552 17.4418 25.2346 18.4624L19.9404 23.7565C19.638 24.059 19.4599 24.2371 19.2618 24.3916C19.0284 24.5736 18.7757 24.7298 18.5085 24.8572C18.2817 24.9652 18.0428 25.0449 17.637 25.1801L15.7777 25.7999L15.3301 25.9491C14.967 26.0701 14.5666 25.9756 14.296 25.705C14.0254 25.4343 13.9308 25.034 14.0519 24.6709L14.8208 22.364C14.9561 21.9582 15.0357 21.7193 15.1438 21.4925C15.2712 21.2252 15.4273 20.9726 15.6094 20.7392C15.7639 20.5411 15.942 20.363 16.2445 20.0605L21.5386 14.7664ZM15.7584 24.9238L17.3444 24.3951C17.7859 24.248 17.9735 24.1847 18.1483 24.1014C18.3607 24.0002 18.5614 23.8761 18.7469 23.7314C18.8996 23.6124 19.04 23.4729 19.3692 23.1437L23.594 18.919C23.1538 18.7637 22.5867 18.4759 22.0559 17.9451C21.5251 17.4142 21.2373 16.8471 21.0821 16.407L16.8572 20.6318C16.5281 20.9609 16.3886 21.1014 16.2696 21.254C16.1249 21.4396 16.0008 21.6403 15.8996 21.8527C15.8163 22.0274 15.753 22.215 15.6058 22.6566L15.0772 24.2425L15.7584 24.9238ZM21.7611 15.7279C21.7802 15.8255 21.8125 15.9583 21.8663 16.1135C21.9875 16.4628 22.2165 16.9216 22.6479 17.3531C23.0793 17.7845 23.5381 18.0135 23.8875 18.1347C24.0427 18.1885 24.1754 18.2208 24.2731 18.2399L24.6425 17.8704C25.3362 17.1767 25.3362 16.0521 24.6425 15.3584C23.9489 14.6648 22.8242 14.6648 22.1306 15.3584L21.7611 15.7279Z" fill="#535353"/>
</svg>
