<svg width="24" height="24" viewBox="0 0 24 24" fill="none" xmlns="http://www.w3.org/2000/svg">
<path d="M5.02738 4.29372C5.13147 4.29345 5.23556 4.29312 5.33965 4.29274C5.6206 4.2919 5.90154 4.29195 6.18249 4.29222C6.41757 4.29237 6.65265 4.29208 6.88773 4.2918C7.474 4.2911 8.06026 4.29127 8.64652 4.29184C9.15462 4.29231 9.6627 4.2917 10.1708 4.29058C10.694 4.28943 11.2172 4.289 11.7404 4.2893C12.0336 4.28945 12.3267 4.28934 12.6198 4.28853C12.8954 4.28781 13.1709 4.288 13.4464 4.28888C13.5473 4.28905 13.6481 4.2889 13.7489 4.28841C14.5159 4.28496 15.1252 4.35883 15.706 4.91031C15.7968 5.01578 15.7968 5.01578 15.7968 5.10953C15.879 5.135 15.879 5.135 15.9629 5.16098C16.2624 5.26098 16.5514 5.38569 16.841 5.51082C16.9369 5.5521 17.033 5.5927 17.1291 5.6333C17.1907 5.65978 17.2523 5.6863 17.3138 5.71286C17.3691 5.73652 17.4243 5.76017 17.4812 5.78454C17.7197 5.90898 17.7197 5.90898 17.8124 6.04703C17.8345 6.19242 17.8301 6.33402 17.8241 6.48062C17.8233 6.52002 17.8224 6.55942 17.8216 6.60001C17.8194 6.69696 17.816 6.79388 17.8124 6.89078C18.0943 6.88871 18.3762 6.88543 18.6581 6.88105C18.754 6.87973 18.8498 6.87874 18.9456 6.87808C19.0837 6.87707 19.2216 6.87488 19.3596 6.87247C19.4236 6.87238 19.4236 6.87238 19.4889 6.8723C19.7947 6.86529 19.9669 6.79427 20.1912 6.57711C20.2237 6.53869 20.2237 6.53869 20.2569 6.49948C20.2818 6.47112 20.3067 6.44275 20.3323 6.41352C20.3828 6.35482 20.4329 6.29585 20.4828 6.23664C20.5078 6.20833 20.5328 6.18002 20.5586 6.15085C20.5804 6.12529 20.6022 6.09973 20.6246 6.07339C20.9158 5.84663 21.2337 5.83902 21.5868 5.8425C21.6557 5.84247 21.6557 5.84247 21.726 5.84243C21.8225 5.84254 21.919 5.84299 22.0154 5.84377C22.1634 5.84489 22.3112 5.84474 22.4592 5.84442C22.5531 5.84469 22.6471 5.84502 22.7411 5.84543C22.7853 5.84539 22.8295 5.84535 22.8751 5.8453C22.9161 5.84575 22.9571 5.8462 22.9994 5.84666C23.0534 5.84698 23.0534 5.84698 23.1086 5.84731C23.203 5.85953 23.203 5.85953 23.3437 5.95328C23.4065 6.14181 23.3992 6.31547 23.3993 6.51285C23.3999 6.55089 23.4005 6.58893 23.4011 6.62812C23.4011 6.66495 23.4012 6.70177 23.4013 6.73972C23.4015 6.77319 23.4017 6.80666 23.4019 6.84115C23.3886 6.95437 23.3569 7.0286 23.2968 7.12516C23.1953 7.17423 23.1953 7.17423 23.08 7.20719C23.0417 7.21855 23.0034 7.22991 22.9639 7.24161C22.9345 7.24959 22.9052 7.25756 22.8749 7.26578C22.9339 7.27642 22.9929 7.28705 23.0536 7.29801C23.1935 7.32324 23.2378 7.34357 23.3251 7.45855C23.4055 7.62498 23.408 7.7436 23.4076 7.92807C23.4076 7.95955 23.4076 7.99103 23.4076 8.02346C23.4075 8.08968 23.4071 8.15591 23.4063 8.22213C23.4052 8.32326 23.4053 8.42432 23.4056 8.52546C23.4034 9.07789 23.4034 9.07789 23.2968 9.23453C23.1873 9.28927 23.1216 9.28791 22.9997 9.28896C22.9365 9.28964 22.9365 9.28964 22.8721 9.29032C22.8036 9.29062 22.8036 9.29062 22.7337 9.29093C22.6633 9.29133 22.6633 9.29133 22.5915 9.29174C22.4919 9.29218 22.3923 9.29249 22.2927 9.29267C22.141 9.29312 21.9893 9.29457 21.8375 9.29605C21.7408 9.29636 21.644 9.29661 21.5472 9.29679C21.4794 9.29766 21.4794 9.29766 21.4103 9.29854C21.0219 9.29727 20.7747 9.21603 20.4901 8.93863C20.1341 8.59288 19.8496 8.39481 19.3459 8.39994C19.3018 8.39929 19.2576 8.39865 19.2122 8.39799C19.0727 8.39625 18.9333 8.39641 18.7938 8.39664C18.6987 8.39579 18.6035 8.39481 18.5083 8.39371C18.2763 8.39129 18.0444 8.39057 17.8124 8.39078C17.8151 8.4326 17.8178 8.47441 17.8206 8.51749C17.8228 8.57236 17.8249 8.62722 17.8271 8.68375C17.8298 8.73813 17.8325 8.79251 17.8353 8.84855C17.8124 9.00016 17.8124 9.00016 17.7134 9.1028C17.5684 9.19368 17.4228 9.2798 17.2726 9.36179C17.2438 9.37762 17.2149 9.39344 17.1852 9.40975C17.0936 9.45995 17.0018 9.50985 16.9101 9.55973C16.8492 9.593 16.7883 9.62629 16.7275 9.65961C16.6978 9.67584 16.6682 9.69208 16.6376 9.7088C16.5789 9.74092 16.5202 9.77306 16.4615 9.80521C16.3368 9.87344 16.2119 9.94125 16.0863 10.0078C16.0489 10.0278 16.0116 10.0478 15.9731 10.0684C15.9418 10.0849 15.9105 10.1013 15.8782 10.1183C15.7859 10.1792 15.727 10.2463 15.6591 10.3332C15.2167 10.8941 14.4494 10.9602 13.7921 11.0588C13.7113 11.0712 13.6305 11.0836 13.5497 11.096C13.3811 11.1219 13.2125 11.1475 13.0438 11.173C12.8279 11.2055 12.612 11.2386 12.3962 11.2718C12.2297 11.2974 12.0631 11.3228 11.8965 11.3482C11.8169 11.3603 11.7373 11.3724 11.6577 11.3847C11.5465 11.4017 11.4354 11.4184 11.3242 11.4351C11.2752 11.4427 11.2752 11.4427 11.2252 11.4504C11.0601 11.4749 10.9012 11.49 10.7343 11.4845C10.7162 11.572 10.7162 11.572 10.6977 11.6613C10.6379 11.9299 10.5578 12.1911 10.4756 12.4537C10.4596 12.5047 10.4436 12.5557 10.4272 12.6082C10.3935 12.7153 10.3598 12.8223 10.3259 12.9293C10.2914 13.0387 10.2573 13.1482 10.2235 13.2578C10.1745 13.4168 10.1245 13.5754 10.0742 13.734C10.0593 13.783 10.0444 13.8319 10.029 13.8824C9.9171 14.2293 9.79889 14.3646 9.47735 14.5333C9.40771 14.5673 9.3379 14.6009 9.26797 14.6343C9.23006 14.6527 9.19215 14.6711 9.15309 14.69C9.03185 14.7488 8.91041 14.8071 8.78897 14.8654C8.71028 14.9035 8.63161 14.9415 8.55295 14.9796C7.98443 15.2547 7.41411 15.526 6.84366 15.797C6.84093 15.8341 6.8382 15.8711 6.83539 15.9092C6.80948 16.2602 6.7833 16.6112 6.75684 16.9621C6.74324 17.1425 6.72975 17.3228 6.71649 17.5032C6.70366 17.6777 6.69056 17.8522 6.67728 18.0266C6.67229 18.0928 6.66739 18.1589 6.6626 18.2251C6.5641 19.5809 6.5641 19.5809 6.07901 20.0334C5.62453 20.4083 5.22156 20.4697 4.64053 20.4377C4.40913 20.4041 4.18313 20.3539 3.95553 20.3007C3.89233 20.2864 3.82912 20.2721 3.7659 20.2579C3.63467 20.2282 3.50355 20.1981 3.37251 20.1676C3.20575 20.1288 3.03878 20.091 2.87171 20.0535C2.74161 20.0242 2.61162 19.9945 2.48166 19.9647C2.3906 19.9438 2.29947 19.9233 2.20835 19.9027C1.60173 19.7606 1.12417 19.5781 0.779202 19.0343C0.574003 18.6646 0.497571 18.2791 0.581208 17.8588C0.708166 17.4202 0.902118 17.0059 1.08389 16.588C1.14108 16.4558 1.19817 16.3235 1.25526 16.1911C1.29438 16.1005 1.33353 16.0099 1.37271 15.9193C1.55183 15.5049 1.7286 15.0895 1.90479 14.6739C2.18266 14.0184 2.46175 13.3635 2.74209 12.7091C2.75737 12.6734 2.77266 12.6377 2.7884 12.601C2.83104 12.5014 2.87372 12.4018 2.91641 12.3023C2.94055 12.246 2.96469 12.1897 2.98956 12.1316C3.02256 12.0558 3.05667 11.9804 3.09366 11.9064C3.04317 11.8985 3.04317 11.8985 2.99167 11.8905C2.56466 11.7907 2.19753 11.4871 1.87491 11.2033C1.83919 11.172 1.80348 11.1408 1.76669 11.1086C1.06085 10.4493 0.643025 9.48233 0.594449 8.52335C0.557047 7.31043 0.934368 6.26477 1.76944 5.37613C2.69472 4.49567 3.7956 4.29084 5.02738 4.29372ZM2.29678 6.00016C2.26306 6.03399 2.22935 6.06783 2.19461 6.1027C1.61798 6.71197 1.33028 7.54616 1.34756 8.3798C1.40553 9.12973 1.64614 9.72704 2.10928 10.3127C2.16149 10.3852 2.16149 10.3852 2.21475 10.4591C2.59782 10.8596 3.02505 11.087 3.53056 11.2967C3.56971 11.3131 3.60886 11.3296 3.6492 11.3465C3.6844 11.3607 3.71961 11.375 3.75588 11.3897C3.84366 11.4377 3.84366 11.4377 3.93741 11.5783C3.94419 11.9745 3.77106 12.3118 3.6121 12.6658C3.54345 12.8188 3.4761 12.9722 3.40863 13.1257C3.37308 13.2065 3.33746 13.2872 3.30178 13.368C3.11185 13.7979 2.92823 14.2304 2.74502 14.6632C2.69561 14.7798 2.64618 14.8963 2.59674 15.0128C2.56349 15.0912 2.53025 15.1696 2.49702 15.248C2.37257 15.5415 2.24776 15.8349 2.12283 16.1283C2.06847 16.256 2.01411 16.3837 1.95975 16.5114C1.92514 16.5926 1.89052 16.6739 1.85588 16.7552C1.76481 16.9688 1.67402 17.1826 1.58388 17.3966C1.55072 17.4752 1.51725 17.5536 1.48374 17.632C1.351 17.9498 1.27356 18.2425 1.40066 18.5782C1.55349 18.851 1.76443 18.9836 2.0607 19.0736C2.23148 19.1168 2.40283 19.1566 2.57473 19.1949C2.63842 19.2094 2.7021 19.224 2.76577 19.2386C2.89878 19.2689 3.03188 19.2989 3.16504 19.3285C3.33476 19.3663 3.5042 19.4053 3.6736 19.4445C3.80492 19.4748 3.93637 19.5044 4.06788 19.5339C4.13038 19.548 4.19283 19.5623 4.25523 19.5768C4.83811 19.7148 4.83811 19.7148 5.40225 19.5617C5.81266 19.2166 5.82577 18.9118 5.87602 18.3882C5.89138 18.1998 5.90501 18.0113 5.91806 17.8227C5.92304 17.7536 5.92805 17.6845 5.93308 17.6154C5.94614 17.4356 5.95893 17.2557 5.97163 17.0759C5.99207 16.7866 6.01276 16.4973 6.03375 16.2081C6.04099 16.1076 6.04801 16.007 6.05502 15.9065C6.0594 15.8456 6.06379 15.7847 6.06831 15.7219C6.07397 15.6416 6.07397 15.6416 6.07975 15.5597C6.1018 15.3414 6.1018 15.3414 6.14053 15.2345C6.24447 15.1833 6.24447 15.1833 6.37491 15.1408C6.75031 14.973 7.12194 14.7967 7.49416 14.622C7.62562 14.5603 7.7572 14.4989 7.88889 14.4377C8.05631 14.3599 8.22336 14.2813 8.39019 14.2022C8.45459 14.1718 8.5191 14.1416 8.58373 14.1117C8.67449 14.0696 8.76481 14.0267 8.85507 13.9836C8.90686 13.9592 8.95864 13.9349 9.012 13.9098C9.22849 13.7725 9.29668 13.571 9.37234 13.3336C9.38877 13.2826 9.4052 13.2316 9.42212 13.1791C9.43941 13.1245 9.4567 13.0699 9.47451 13.0136C9.51187 12.8978 9.54922 12.7819 9.58658 12.666C9.63528 12.5141 9.68383 12.3621 9.73232 12.2101C9.79833 12.0032 9.86487 11.7965 9.93155 11.5898C9.94884 11.5351 9.96612 11.4804 9.98394 11.4241C10.0004 11.3732 10.0168 11.3224 10.0337 11.27C10.048 11.2253 10.0622 11.1807 10.0769 11.1346C10.126 11.0131 10.1786 10.926 10.2655 10.8283C10.3717 10.7922 10.3717 10.7922 10.5016 10.7735C10.5783 10.7618 10.5783 10.7618 10.6566 10.7499C10.7429 10.7379 10.7429 10.7379 10.831 10.7257C10.9259 10.7114 11.0208 10.6971 11.1157 10.6827C11.2276 10.6658 11.3396 10.6494 11.4516 10.633C11.953 10.5597 12.454 10.4842 12.955 10.4079C13.1376 10.3803 13.3202 10.3535 13.5029 10.3266C13.618 10.3092 13.733 10.2918 13.848 10.2744C13.9004 10.2669 13.9529 10.2594 14.0069 10.2516C14.4484 10.1834 14.837 10.084 15.1607 9.76279C15.4373 9.363 15.4503 8.97452 15.4483 8.50229C15.4486 8.4315 15.4489 8.36071 15.4492 8.28992C15.4497 8.14214 15.4495 7.99437 15.4488 7.84658C15.448 7.65834 15.4491 7.47016 15.4507 7.28193C15.4518 7.1359 15.4517 6.98989 15.4513 6.84385C15.4513 6.77451 15.4516 6.70516 15.4523 6.63582C15.4562 6.17318 15.4207 5.78553 15.0955 5.43129C14.7786 5.123 14.4361 5.04134 14.0076 5.04448C13.9659 5.04423 13.9242 5.04398 13.8812 5.04372C13.7423 5.04305 13.6033 5.04338 13.4644 5.04372C13.3644 5.04345 13.2644 5.04312 13.1645 5.04274C12.8934 5.0419 12.6223 5.04196 12.3512 5.04222C12.1244 5.04237 11.8976 5.04208 11.6708 5.0418C11.1353 5.04114 10.5999 5.04121 10.0644 5.04175C9.5133 5.04229 8.96225 5.04163 8.41119 5.04037C7.93709 5.03933 7.46299 5.03902 6.98889 5.0393C6.70618 5.03945 6.42348 5.03934 6.14077 5.03853C5.87452 5.0378 5.60828 5.038 5.34203 5.03888C5.24483 5.03905 5.14764 5.03891 5.05044 5.03841C3.99669 5.03347 3.06129 5.21167 2.29678 6.00016ZM16.1718 6.09391C16.1872 7.05297 16.2027 8.01203 16.2187 9.00016C16.3115 8.96922 16.4043 8.93828 16.4999 8.90641C16.5492 8.89217 16.5984 8.87794 16.6492 8.86327C16.8317 8.78946 16.9332 8.72868 17.0624 8.57828C17.1598 8.23393 17.1148 7.85604 17.0976 7.50309C17.0947 7.40296 17.0922 7.30284 17.0899 7.2027C17.0842 6.95776 17.0732 6.71388 17.0624 6.46891C16.7685 6.34516 16.4746 6.22141 16.1718 6.09391ZM20.8653 6.60001C20.8411 6.63022 20.8169 6.66043 20.7919 6.69156C20.6841 6.82026 20.5765 6.94766 20.4608 7.06949C20.4372 7.09493 20.4135 7.12037 20.3891 7.14658C20.1021 7.37145 19.8159 7.38121 19.4649 7.38352C19.4175 7.38436 19.3701 7.3852 19.3213 7.38607C19.1709 7.38859 19.0205 7.39019 18.87 7.39176C18.7676 7.39331 18.6652 7.39493 18.5629 7.39661C18.3127 7.40058 18.0626 7.40372 17.8124 7.40641C17.8124 7.56109 17.8124 7.71578 17.8124 7.87516C17.8743 7.87584 17.9363 7.87652 18.0001 7.87723C18.2311 7.87996 18.4621 7.88358 18.693 7.88746C18.7928 7.88901 18.8925 7.89033 18.9923 7.8914C19.1361 7.89298 19.2799 7.89543 19.4237 7.89804C19.4679 7.89834 19.5121 7.89864 19.5577 7.89895C19.9507 7.90759 20.2463 7.9866 20.537 8.26773C20.5764 8.30484 20.6157 8.34194 20.6562 8.38016C20.7103 8.43182 20.7103 8.43182 20.7655 8.48453C21.0298 8.72053 21.2071 8.77279 21.56 8.77036C21.6143 8.77026 21.6143 8.77026 21.6698 8.77016C21.7854 8.7699 21.9009 8.76931 22.0165 8.76871C22.0949 8.76848 22.1733 8.76826 22.2517 8.76807C22.4438 8.76759 22.6359 8.76668 22.828 8.76578C22.828 8.45641 22.828 8.14703 22.828 7.82828C22.6258 7.76087 22.4541 7.71303 22.2474 7.6774C22.1918 7.66755 22.1363 7.6577 22.079 7.64756C21.9626 7.62732 21.8461 7.60718 21.7297 7.58713C21.6466 7.57236 21.6466 7.57236 21.5619 7.55729C21.5114 7.54855 21.4609 7.53982 21.4088 7.53083C21.2812 7.50016 21.2812 7.50016 21.1405 7.40641C21.123 7.26578 21.123 7.26578 21.1405 7.12516C21.3009 7.01825 21.4481 6.98791 21.6333 6.95047C21.6674 6.94332 21.7015 6.93617 21.7367 6.92881C21.8455 6.90608 21.9545 6.88378 22.0634 6.86148C22.1373 6.84613 22.2112 6.83075 22.285 6.81534C22.466 6.77767 22.647 6.74037 22.828 6.70328C22.828 6.595 22.828 6.48672 22.828 6.37516C22.6062 6.37167 22.3844 6.36912 22.1626 6.36743C22.0872 6.36673 22.0118 6.36577 21.9364 6.36455C21.8277 6.36283 21.7191 6.36204 21.6104 6.36142C21.577 6.3607 21.5436 6.35997 21.5091 6.35922C21.2478 6.35914 21.0554 6.41748 20.8653 6.60001Z" fill="white"/>
<path d="M16.2657 17.0627C16.4263 17.3306 16.5094 17.645 16.5945 17.9433C16.6067 17.9855 16.619 18.0277 16.6315 18.0712C16.6571 18.1598 16.6824 18.2483 16.7076 18.337C16.7461 18.4719 16.7855 18.6065 16.8249 18.7412C16.8497 18.8277 16.8745 18.9143 16.8992 19.0009C16.9168 19.0606 16.9168 19.0606 16.9347 19.1215C17.003 19.3654 17.0272 19.5751 17.0157 19.8284C16.6896 20.0134 16.2682 20.1725 15.8907 20.1096C15.7565 19.9709 15.7351 19.8156 15.6997 19.6317C15.6874 19.5684 15.6874 19.5684 15.6748 19.5039C15.6656 19.4557 15.6656 19.4557 15.6563 19.4065C15.4863 19.451 15.3164 19.4961 15.1465 19.5413C15.0931 19.5555 15.0397 19.5697 14.9847 19.5843C14.6599 19.6717 14.3369 19.7636 14.0149 19.8608C13.9794 19.8714 13.9439 19.8821 13.9074 19.8931C13.732 19.9458 13.5568 19.9991 13.3818 20.0533C13.3166 20.073 13.2514 20.0927 13.1862 20.1124C13.1291 20.1299 13.0721 20.1475 13.0133 20.1655C12.8199 20.2087 12.6663 20.2169 12.4688 20.2034C12.3271 20.046 12.2812 19.845 12.2227 19.6438C12.206 19.5883 12.1893 19.5327 12.1721 19.4755C12.1399 19.3087 12.1485 19.1955 12.1875 19.0315C12.5485 18.8947 12.9121 18.7787 13.2834 18.6735C13.3366 18.6583 13.3897 18.6431 13.4445 18.6274C13.6124 18.5793 13.7803 18.5314 13.9483 18.4836C14.1177 18.4353 14.2872 18.3869 14.4566 18.3384C14.5616 18.3084 14.6666 18.2784 14.7716 18.2486C14.8188 18.2351 14.8659 18.2216 14.9144 18.2078C14.956 18.1959 14.9975 18.1841 15.0403 18.1719C15.1417 18.1435 15.1417 18.1435 15.2344 18.094C15.2184 18.0489 15.2184 18.0489 15.202 18.003C15.1158 17.7436 15.0768 17.5641 15.1407 17.2971C15.3121 17.2333 15.4839 17.1709 15.6563 17.1096C15.6884 17.0981 15.7206 17.0865 15.7537 17.0746C15.9408 17.0135 16.082 16.9852 16.2657 17.0627ZM15.7032 17.6721C15.772 18.0827 15.8921 18.4762 16.0137 18.8733C16.0336 18.9389 16.0535 19.0045 16.0734 19.0701C16.1216 19.2292 16.1701 19.3882 16.2188 19.5471C16.3116 19.5239 16.3116 19.5239 16.4063 19.5002C16.3794 19.2456 16.3342 19.0067 16.2625 18.7605C16.2532 18.7277 16.2439 18.695 16.2344 18.6612C16.205 18.558 16.1753 18.4549 16.1455 18.3518C16.1254 18.2813 16.1053 18.2107 16.0852 18.1401C16.0363 17.9684 15.987 17.7968 15.9375 17.6252C15.8004 17.6148 15.8004 17.6148 15.7032 17.6721ZM15.0909 18.7203C15.0415 18.7342 14.9921 18.7481 14.9412 18.7625C14.8876 18.7777 14.834 18.793 14.7788 18.8087C14.6967 18.8319 14.6967 18.8319 14.6128 18.8556C14.4968 18.8885 14.3808 18.9214 14.2648 18.9543C14.0868 19.0049 13.9087 19.0552 13.7306 19.1056C13.6181 19.1374 13.5056 19.1693 13.3931 19.2012C13.3395 19.2164 13.286 19.2315 13.2308 19.2471C13.1566 19.2682 13.1566 19.2682 13.081 19.2897C13.0155 19.3083 13.0155 19.3083 12.9487 19.3273C12.8435 19.3566 12.8435 19.3566 12.75 19.4065C12.7655 19.4838 12.781 19.5612 12.7969 19.6409C13.6878 19.3917 14.5783 19.1415 15.4688 18.8909C15.4456 18.7748 15.4456 18.7748 15.4219 18.6565C15.3026 18.6565 15.2059 18.6878 15.0909 18.7203Z" fill="white"/>
<path d="M18.5467 15.5923C18.6083 15.5923 18.6083 15.5923 18.6711 15.5924C18.7349 15.5935 18.7349 15.5935 18.7999 15.5947C18.8426 15.5945 18.8853 15.5944 18.9293 15.5942C19.2469 15.5968 19.2469 15.5968 19.4064 15.7031C19.4588 15.8603 19.4589 15.978 19.4586 16.1437C19.4586 16.1739 19.4586 16.2041 19.4586 16.2352C19.4586 16.3348 19.4582 16.4345 19.4578 16.5342C19.4577 16.6034 19.4577 16.6725 19.4576 16.7417C19.4574 16.9236 19.457 17.1056 19.4565 17.2875C19.456 17.4732 19.4558 17.6589 19.4555 17.8446C19.455 18.2089 19.4542 18.5732 19.4532 18.9375C19.5024 18.9353 19.5515 18.9331 19.6021 18.9309C19.6667 18.9291 19.7314 18.9274 19.796 18.9257C19.8284 18.9242 19.8607 18.9226 19.8941 18.921C19.9888 18.9191 19.9888 18.9191 20.1564 18.9375C20.2567 19.034 20.2905 19.089 20.3152 19.225C20.3154 19.2777 20.3154 19.2777 20.3157 19.3315C20.3159 19.3702 20.316 19.409 20.3162 19.4489C20.3157 19.4889 20.3151 19.529 20.3146 19.5703C20.3151 19.6103 20.3157 19.6504 20.3162 19.6917C20.316 19.7304 20.3159 19.7691 20.3157 19.809C20.3155 19.8442 20.3154 19.8793 20.3152 19.9155C20.2912 20.0476 20.2497 20.1065 20.1564 20.2031C20.0351 20.2266 20.0351 20.2266 19.888 20.2266C19.8054 20.2273 19.8054 20.2273 19.7212 20.2279C19.6617 20.2274 19.6022 20.2269 19.541 20.2263C19.48 20.2264 19.419 20.2265 19.3562 20.2265C19.2272 20.2266 19.0983 20.226 18.9693 20.225C18.8038 20.2236 18.6384 20.2237 18.4729 20.2243C18.3153 20.2248 18.1576 20.224 17.9999 20.2234C17.9404 20.2235 17.8808 20.2237 17.8194 20.2238C17.7645 20.2232 17.7096 20.2226 17.653 20.222C17.6045 20.2218 17.556 20.2215 17.5061 20.2213C17.468 20.2153 17.43 20.2093 17.3907 20.2031C17.2541 19.9981 17.2815 19.8113 17.2823 19.5703C17.2816 19.5251 17.2808 19.48 17.2801 19.4335C17.28 19.3902 17.28 19.3468 17.28 19.3022C17.2798 19.2626 17.2797 19.223 17.2795 19.1822C17.297 19.0781 17.297 19.0781 17.3459 19.0018C17.4868 18.9029 17.6326 18.9226 17.798 18.9287C17.8309 18.9293 17.8638 18.9299 17.8977 18.9306C17.9787 18.9322 18.0597 18.9348 18.1407 18.9375C18.1403 18.8978 18.1399 18.8582 18.1395 18.8174C18.1357 18.4442 18.1329 18.0711 18.131 17.6979C18.13 17.5061 18.1287 17.3143 18.1266 17.1224C18.1246 16.9373 18.1234 16.7522 18.123 16.5671C18.1226 16.4965 18.1219 16.4258 18.1209 16.3551C18.1196 16.2562 18.1194 16.1574 18.1195 16.0585C18.119 16.0022 18.1186 15.9459 18.1182 15.8879C18.1407 15.75 18.1407 15.75 18.2293 15.6614C18.3441 15.601 18.4173 15.5918 18.5467 15.5923ZM18.6564 16.125C18.6564 17.0531 18.6564 17.9812 18.6564 18.9375C18.7337 18.9375 18.8111 18.9375 18.8907 18.9375C18.8907 18.0093 18.8907 17.0812 18.8907 16.125C18.8134 16.125 18.7361 16.125 18.6564 16.125ZM17.8126 19.4531C17.8126 19.5304 17.8126 19.6078 17.8126 19.6875C18.4468 19.6875 19.0811 19.6875 19.7345 19.6875C19.7345 19.6101 19.7345 19.5328 19.7345 19.4531C19.1003 19.4531 18.4661 19.4531 17.8126 19.4531Z" fill="white"/>
<path d="M9.54494 11.0392C9.64989 11.23 9.63244 11.43 9.58528 11.6374C9.55104 11.7528 9.51343 11.8664 9.47408 11.9802C9.46007 12.0217 9.44606 12.0633 9.43163 12.1061C9.402 12.1935 9.37208 12.2808 9.34189 12.3679C9.29599 12.5009 9.25146 12.6343 9.20702 12.7678C9.17796 12.8529 9.14882 12.9381 9.11959 13.0231C9.10644 13.0628 9.0933 13.1024 9.07976 13.1433C8.97555 13.4391 8.8585 13.6187 8.5677 13.7622C8.48359 13.7934 8.48359 13.7934 8.39779 13.8253C8.3519 13.8427 8.3519 13.8427 8.3051 13.8605C8.20785 13.8972 8.11031 13.9331 8.01272 13.9689C7.9167 14.0048 7.82075 14.0408 7.72481 14.0769C7.662 14.1005 7.59915 14.124 7.53626 14.1474C7.29377 14.238 7.05548 14.3369 6.81824 14.4406C6.6528 14.5037 6.54944 14.5172 6.37502 14.4845C6.24936 14.3952 6.19837 14.3379 6.15881 14.1887C6.14002 14.0583 6.14046 13.9431 6.14882 13.8117C6.15182 13.7627 6.15482 13.7138 6.15791 13.6633C6.16332 13.5847 6.16332 13.5847 6.16884 13.5045C6.17252 13.4503 6.17619 13.396 6.17997 13.3401C6.18791 13.2255 6.19604 13.1109 6.20434 12.9964C6.21677 12.8212 6.2277 12.6459 6.23861 12.4705C6.24651 12.3591 6.2545 12.2477 6.26259 12.1364C6.26563 12.084 6.26867 12.0316 6.2718 11.9776C6.28944 11.7555 6.30186 11.6163 6.43019 11.4305C6.58218 11.331 6.69081 11.3004 6.87032 11.2747C6.93037 11.2656 6.99042 11.2564 7.05229 11.2471C7.11657 11.2383 7.18085 11.2295 7.24514 11.2208C7.31093 11.2112 7.3767 11.2015 7.44247 11.1918C7.57307 11.1725 7.70373 11.1537 7.83446 11.1354C7.99112 11.113 8.14731 11.089 8.30349 11.0635C8.34515 11.0568 8.38681 11.0501 8.42973 11.0432C8.50395 11.0313 8.57815 11.0192 8.65231 11.0069C9.3112 10.9056 9.3112 10.9056 9.54494 11.0392ZM8.15847 11.8639C8.12752 11.8691 8.09657 11.8743 8.06469 11.8797C7.96628 11.8962 7.86792 11.913 7.76955 11.9298C7.70266 11.9411 7.63577 11.9524 7.56887 11.9637C7.40527 11.9913 7.2417 12.0191 7.07815 12.047C7.06214 12.2013 7.04666 12.3556 7.03127 12.5099C7.0268 12.5529 7.02233 12.5959 7.01772 12.6403C6.98936 12.9279 6.97874 13.2111 6.9844 13.5001C7.00979 13.4916 7.03518 13.4832 7.06133 13.4744C7.09655 13.4627 7.13177 13.4509 7.16805 13.4388C7.20662 13.4259 7.2452 13.4129 7.28494 13.3996C7.36217 13.3741 7.43956 13.3491 7.51716 13.3247C7.96987 13.1979 7.96987 13.1979 8.33791 12.9288C8.38591 12.8072 8.41149 12.6907 8.43752 12.5626C8.47936 12.4448 8.5222 12.3279 8.56643 12.2111C8.64353 12.0163 8.64353 12.0163 8.6719 11.8126C8.49227 11.8126 8.33526 11.8339 8.15847 11.8639Z" fill="white"/>
<path d="M4.00067 7.56966C4.07576 7.56878 4.07576 7.56878 4.15236 7.56787C4.23308 7.56844 4.23308 7.56844 4.31543 7.56902C4.3709 7.56884 4.42638 7.56866 4.48353 7.56848C4.60079 7.56835 4.71805 7.5687 4.83531 7.56948C5.01495 7.57048 5.19451 7.56949 5.37415 7.56829C5.48804 7.56841 5.60193 7.56865 5.71582 7.56902C5.76963 7.56864 5.82344 7.56826 5.87889 7.56787C5.92895 7.56846 5.979 7.56905 6.03058 7.56966C6.09656 7.56989 6.09656 7.56989 6.16387 7.57011C6.31717 7.60121 6.37433 7.65882 6.46875 7.78142C6.46875 7.92791 6.46875 7.92791 6.42188 8.06267C6.27933 8.158 6.16129 8.16826 5.99231 8.16855C5.94413 8.16885 5.89595 8.16915 5.84631 8.16945C5.79454 8.16926 5.74278 8.16907 5.68945 8.16887C5.63606 8.16896 5.58267 8.16905 5.52766 8.16915C5.41481 8.16921 5.30196 8.16904 5.18912 8.16865C5.01629 8.16814 4.84348 8.16864 4.67065 8.16924C4.56104 8.16918 4.45142 8.16906 4.3418 8.16887C4.29004 8.16906 4.23827 8.16925 4.18494 8.16945C4.13676 8.16915 4.08858 8.16886 4.03894 8.16855C3.99662 8.16848 3.9543 8.16841 3.9107 8.16833C3.78747 8.15544 3.7122 8.13144 3.60938 8.06267C3.5625 7.92791 3.5625 7.92791 3.5625 7.78142C3.69555 7.60866 3.78546 7.57039 4.00067 7.56966Z" fill="white"/>
<path d="M3.95244 8.98659C4.00453 8.98599 4.05663 8.9854 4.1103 8.98478C4.19504 8.98462 4.19504 8.98462 4.28149 8.98446C4.33929 8.98415 4.39709 8.98384 4.45664 8.98352C4.57907 8.98304 4.7015 8.98282 4.82393 8.98284C4.94966 8.98285 5.07536 8.98219 5.20108 8.98092C5.38187 8.9792 5.56261 8.97874 5.74341 8.9786C5.828 8.97759 5.828 8.97759 5.91431 8.97656C5.96655 8.97685 6.01879 8.97714 6.07262 8.97744C6.11866 8.9773 6.16469 8.97717 6.21213 8.97703C6.32806 9.00021 6.32806 9.00021 6.41489 9.08769C6.46869 9.18771 6.46869 9.18771 6.4599 9.31076C6.42181 9.42209 6.42181 9.42209 6.32806 9.51584C6.21808 9.52837 6.21808 9.52837 6.07868 9.52945C6.02659 9.53005 5.9745 9.53065 5.92082 9.53127C5.83608 9.53142 5.83608 9.53142 5.74963 9.53158C5.66293 9.53205 5.66293 9.53205 5.57449 9.53253C5.45206 9.533 5.32962 9.53322 5.20719 9.53321C5.08146 9.5332 4.95577 9.53385 4.83004 9.53513C4.64926 9.53684 4.46851 9.53731 4.28772 9.53744C4.20312 9.53845 4.20312 9.53845 4.11681 9.53948C4.06457 9.53919 4.01233 9.53891 3.95851 9.53861C3.91247 9.53874 3.86643 9.53888 3.819 9.53901C3.70306 9.51584 3.70306 9.51584 3.61624 9.42835C3.56244 9.32834 3.56244 9.32834 3.57123 9.20529C3.6453 8.98875 3.74186 8.98823 3.95244 8.98659Z" fill="white"/>
<path d="M3.9525 6.22128C4.03064 6.22061 4.03064 6.22061 4.11036 6.21993C4.1951 6.21999 4.1951 6.21999 4.28156 6.22006C4.33935 6.21986 4.39715 6.21966 4.4567 6.21945C4.61054 6.21911 4.76438 6.21926 4.91822 6.21952C5.01253 6.21951 5.10683 6.21904 5.20115 6.2184C5.38193 6.21725 5.56268 6.21706 5.74347 6.21713C5.82807 6.21648 5.82807 6.21648 5.91437 6.21582C5.99274 6.21626 5.99274 6.21626 6.07268 6.21671C6.14174 6.21666 6.14174 6.21666 6.21219 6.21662C6.32812 6.23416 6.32812 6.23416 6.41477 6.29659C6.46875 6.37478 6.46875 6.37478 6.46289 6.51834C6.42188 6.65603 6.42188 6.65603 6.28125 6.74978C6.1695 6.76232 6.1695 6.76232 6.0359 6.7634C5.98584 6.764 5.93578 6.7646 5.8842 6.76521C5.80312 6.76537 5.80312 6.76537 5.7204 6.76553C5.66486 6.76584 5.60932 6.76615 5.55209 6.76647C5.43456 6.76695 5.31701 6.76717 5.19947 6.76715C5.01943 6.76736 4.83943 6.76906 4.65939 6.77084C4.54529 6.77111 4.43118 6.7713 4.31708 6.77139C4.26312 6.77206 4.20916 6.77274 4.15357 6.77343C4.10336 6.77314 4.05315 6.77285 4.00142 6.77256C3.93522 6.77276 3.93522 6.77276 3.8677 6.77296C3.71437 6.74277 3.65721 6.68424 3.5625 6.56228C3.57595 6.27978 3.68777 6.22253 3.9525 6.22128Z" fill="white"/>
</svg>
