<svg width="277" height="80" viewBox="0 0 277 80" fill="none" xmlns="http://www.w3.org/2000/svg">
<path d="M31.0196 78.9716V72.8694C31.0196 72.3072 30.5625 71.8547 29.9947 71.8547H16.6434C16.2694 71.8547 15.9647 71.553 15.9647 71.1828V67.1101C15.9647 66.7399 16.2694 66.4382 16.6434 66.4382H42.3211C42.8889 66.4382 43.346 65.9857 43.346 65.4234V59.3213C43.346 58.7591 42.8889 58.3066 42.3211 58.3066H16.6434C16.2694 58.3066 15.9647 58.0049 15.9647 57.6346V53.562C15.9647 53.1917 16.2694 52.89 16.6434 52.89H54.6475C55.2153 52.89 55.6723 52.4375 55.6723 51.8753V45.7732C55.6723 45.2109 55.2153 44.7584 54.6475 44.7584H4.45549C4.1508 44.7584 3.99845 45.1287 4.22005 45.3344L7.33627 48.4197C7.59942 48.6803 7.73791 49.0231 7.73791 49.3796V78.9853C7.73791 79.5475 8.19496 80 8.76281 80H29.9808C30.5487 80 31.0057 79.5475 31.0057 78.9853L31.0196 78.9716Z" fill="white"/>
<path d="M103.593 67.1101V71.1827C103.593 71.553 103.288 71.8547 102.914 71.8547H65.2566C64.4949 71.8547 63.8855 72.458 63.8855 73.2122V75.3651C63.8855 75.7216 64.024 76.0645 64.2871 76.325L67.5973 79.6023C67.8604 79.8629 68.2067 80 68.5668 80H110.795C111.363 80 111.82 79.5475 111.82 78.9853V59.3213C111.82 58.759 111.363 58.3065 110.795 58.3065H72.8048C72.4309 58.3065 72.1262 58.0048 72.1262 57.6346V53.5756C72.1262 53.2054 72.4309 52.9037 72.8048 52.9037H110.809C111.377 52.9037 111.834 52.4512 111.834 51.889V45.7868C111.834 45.2246 111.377 44.7721 110.809 44.7721H68.5806C68.2205 44.7721 67.8743 44.9092 67.6111 45.1698L63.8994 48.8448V65.4508C63.8994 66.0131 64.3564 66.4656 64.9242 66.4656H102.928C103.302 66.4656 103.607 66.7672 103.607 67.1375L103.593 67.1101Z" fill="white"/>
<path d="M166.581 45.7588V78.9709C166.581 79.5332 167.038 79.9857 167.605 79.9857H211.205C211.565 79.9857 211.911 79.8486 212.174 79.588L215.485 76.3107C215.748 76.0501 215.886 75.7073 215.886 75.3508V49.3652C215.886 49.0087 215.748 48.6659 215.485 48.4053L212.174 45.128C211.911 44.8675 211.565 44.7303 211.205 44.7303H167.605C167.038 44.7303 166.581 45.1829 166.581 45.7451V45.7588ZM206.981 71.8541H175.486C175.112 71.8541 174.807 71.5524 174.807 71.1821V67.1095C174.807 66.7392 175.112 66.4375 175.486 66.4375H206.981C207.355 66.4375 207.659 66.7392 207.659 67.1095V71.1821C207.659 71.5524 207.355 71.8541 206.981 71.8541ZM206.981 58.2922H175.486C175.112 58.2922 174.807 57.9905 174.807 57.6203V53.5476C174.807 53.1774 175.112 52.8757 175.486 52.8757H206.981C207.355 52.8757 207.659 53.1774 207.659 53.5476V57.6203C207.659 57.9905 207.355 58.2922 206.981 58.2922Z" fill="white"/>
<path d="M265.164 45.7588V69.0978C265.164 69.66 264.499 69.9754 264.056 69.6325L232.672 45.032C232.437 44.84 232.132 44.744 231.827 44.744H225.11C224.542 44.744 224.085 45.1965 224.085 45.7588V78.9709C224.085 79.5331 224.542 79.9856 225.11 79.9856H231.273C231.841 79.9856 232.298 79.5331 232.298 78.9709V55.6319C232.298 55.0697 232.963 54.7543 233.406 55.0971L264.97 79.8348C265.095 79.9308 265.247 79.9856 265.399 79.9856H272.352C272.92 79.9856 273.377 79.5331 273.377 78.9709V49.3652C273.377 49.0087 273.515 48.6658 273.778 48.4053L276.895 45.3199C277.116 45.1005 276.964 44.744 276.659 44.744H266.189C265.621 44.744 265.164 45.1965 265.164 45.7588Z" fill="white"/>
<path d="M163.839 0.342817V0.685635C163.839 1.05588 163.535 1.35756 163.161 1.35756H115.24C114.866 1.35756 114.561 1.05588 114.561 0.685635V0.342817C114.561 0.15084 114.409 0 114.215 0H112.165C111.972 0 111.819 0.15084 111.819 0.342817V10.5039C111.819 10.6959 111.972 10.8467 112.165 10.8467H114.215C114.409 10.8467 114.561 10.6959 114.561 10.5039V10.1611C114.561 9.79086 114.866 9.48918 115.24 9.48918H163.161C163.535 9.48918 163.839 9.79086 163.839 10.1611V10.5039C163.839 10.6959 163.992 10.8467 164.186 10.8467H166.235C166.429 10.8467 166.582 10.6959 166.582 10.5039V0.342817C166.582 0.15084 166.429 0 166.235 0H164.186C163.992 0 163.839 0.15084 163.839 0.342817Z" fill="white"/>
<path d="M154.255 78.9715V76.2015C154.255 76.0232 154.186 75.845 154.062 75.7216L150.557 72.2522C150.294 71.9917 150.156 71.6489 150.156 71.2924V9.48926H141.943V78.9715C141.943 79.5337 142.4 79.9862 142.967 79.9862H153.244C153.812 79.9862 154.269 79.5337 154.269 78.9715H154.255Z" fill="white"/>
<path d="M136.445 78.9715V9.48926H128.232V71.2924C128.232 71.6489 128.093 71.9917 127.83 72.2522L124.326 75.7216C124.201 75.845 124.132 76.0232 124.132 76.2015V78.9715C124.132 79.5337 124.589 79.9862 125.157 79.9862H135.434C136.002 79.9862 136.459 79.5337 136.459 78.9715H136.445Z" fill="white"/>
<path d="M4.11486 51.1211C4.11486 52.273 3.21429 53.1643 2.0505 53.1643C0.886697 53.1643 0 52.2593 0 51.1348C0 50.0104 0.886711 49.1053 2.06436 49.1053C3.24202 49.1053 4.11486 49.983 4.11486 51.1211ZM3.83777 51.1211C3.83777 50.1201 3.08961 49.3522 2.06436 49.3522C1.03911 49.3522 0.277091 50.1338 0.277091 51.1211C0.277091 52.1084 1.0391 52.89 2.0505 52.89C3.06189 52.89 3.83777 52.1084 3.83777 51.1074V51.1211ZM2.61854 51.4776L3.14503 52.2867H2.74323L2.25833 51.5462H1.621V52.2867H1.21922V49.983H2.14749C2.72939 49.983 3.0896 50.2846 3.0896 50.7646C3.0896 51.1211 2.9095 51.3679 2.6047 51.4776H2.61854ZM2.72938 50.7646C2.72938 50.4766 2.50771 50.3121 2.14749 50.3121H1.63485V51.2308H2.14749C2.52157 51.2308 2.72938 51.0663 2.72938 50.7646Z" fill="white"/>
</svg>
