<svg width="32" height="32" viewBox="0 0 32 32" fill="none" xmlns="http://www.w3.org/2000/svg">
<circle cx="16" cy="16" r="16" fill="white"/>
<path d="M18.5822 16.8291C18.3764 16.8291 18.1791 16.9157 18.0336 17.0699C17.8881 17.224 17.8064 17.4331 17.8064 17.6512V20.9259C17.8064 21.1439 17.8881 21.353 18.0336 21.5071C18.1791 21.6613 18.3764 21.7479 18.5822 21.7479C18.684 21.7479 18.785 21.7266 18.8791 21.6853C18.9732 21.644 19.0587 21.5835 19.1308 21.5071C19.2028 21.4308 19.26 21.3401 19.299 21.2404C19.338 21.1407 19.358 21.0338 19.358 20.9259V17.6107C19.3482 17.3998 19.2622 17.2009 19.1177 17.0554C18.9733 16.9099 18.7815 16.8288 18.5822 16.8291Z" fill="#FEB91E"/>
<path d="M22.5754 13.0432L19.8282 10.1459C19.3734 9.6611 18.8323 9.27687 18.2363 9.01546C17.6402 8.75405 17.0011 8.62066 16.356 8.62308H10.8489C10.4754 8.6213 10.1051 8.69773 9.75954 8.84796C9.41396 8.99819 9.09978 9.21929 8.83506 9.49853C8.57034 9.77776 8.36032 10.1096 8.21699 10.4751C8.07366 10.8406 7.99986 11.2325 7.99986 11.6283V23.6624C7.99986 24.0582 8.07366 24.4501 8.21699 24.8156C8.36032 25.1811 8.57034 25.513 8.83506 25.7922C9.09978 26.0714 9.41396 26.2925 9.75954 26.4427C10.1051 26.593 10.4754 26.6694 10.8489 26.6676H21.1636C21.9159 26.6676 22.6373 26.351 23.1692 25.7874C23.7011 25.2238 23.9999 24.4595 23.9999 23.6624V16.7222C23.9941 15.3464 23.4832 14.027 22.5754 13.0432ZM20.9093 20.9268C20.9329 21.2651 20.8904 21.6049 20.7845 21.925C20.6786 22.2451 20.5114 22.5386 20.2936 22.7871C20.0757 23.0357 19.8118 23.234 19.5184 23.3695C19.2249 23.5051 18.9082 23.5751 18.5881 23.5751C18.268 23.5751 17.9513 23.5051 17.6578 23.3695C17.3643 23.234 17.1005 23.0357 16.8826 22.7871C16.6648 22.5386 16.4976 22.2451 16.3917 21.925C16.2858 21.6049 16.2433 21.2651 16.2669 20.9268V17.6117C16.2433 17.2734 16.2858 16.9336 16.3917 16.6135C16.4976 16.2934 16.6648 15.9999 16.8826 15.7513C17.1005 15.5027 17.3643 15.3045 17.6578 15.1689C17.9513 15.0333 18.268 14.9634 18.5881 14.9634C18.9082 14.9634 19.2249 15.0333 19.5184 15.1689C19.8118 15.3045 20.0757 15.5027 20.2936 15.7513C20.5114 15.9999 20.6786 16.2934 20.7845 16.6135C20.8904 16.9336 20.9329 17.2734 20.9093 17.6117V20.9268Z" fill="#FEB91E"/>
<path d="M15.72 6.97803C15.6589 6.52314 15.4454 6.10674 15.1185 5.80488C14.7916 5.50301 14.3731 5.33588 13.9394 5.33398H10.8488C10.3686 5.33397 9.90789 5.53514 9.56717 5.89363C9.22645 6.25211 9.03334 6.73882 9.02998 7.24757V7.40928C9.59997 7.1288 10.2204 6.98171 10.8488 6.97803H15.72Z" fill="#FEB91E"/>
</svg>
