<svg width="24" height="24" viewBox="0 0 24 24" fill="none" xmlns="http://www.w3.org/2000/svg">
<path d="M19.0016 2.01555C18.9511 2.01537 18.9005 2.01519 18.8485 2.01501C18.7654 2.01502 18.7654 2.01502 18.6806 2.01503C18.6216 2.01488 18.5627 2.01473 18.5019 2.01458C18.3036 2.01414 18.1053 2.01398 17.907 2.01383C17.7651 2.0136 17.6232 2.01331 17.4813 2.01303C17.0549 2.01223 16.6285 2.01183 16.2022 2.01147C16.0013 2.0113 15.8004 2.01108 15.5995 2.01087C14.9314 2.01018 14.2633 2.0096 13.5953 2.00931C13.4219 2.00923 13.2486 2.00916 13.0753 2.00908C13.0107 2.00905 13.0107 2.00905 12.9447 2.00902C12.2472 2.00869 11.5498 2.00767 10.8523 2.00636C10.1358 2.00503 9.41929 2.00431 8.70281 2.00418C8.30068 2.00409 7.89857 2.00374 7.49645 2.00271C7.1539 2.00184 6.81137 2.00152 6.46882 2.00191C6.2942 2.00209 6.1196 2.00193 5.94498 2.00123C5.75522 2.00052 5.5655 2.00081 5.37575 2.00134C5.32116 2.0009 5.26658 2.00045 5.21034 2C4.58268 2.0042 4.10697 2.1728 3.65816 2.50336C3.25539 2.82784 3.03279 3.20029 3.02938 3.65076C3.02893 3.69506 3.02848 3.73935 3.02802 3.78499C3.02769 3.8573 3.02769 3.8573 3.02735 3.93107C3.02692 3.98215 3.02649 4.03322 3.02605 4.08584C3.02469 4.25476 3.02389 4.42368 3.02315 4.5926C3.02287 4.65085 3.02258 4.7091 3.0223 4.76735C3.02118 5.00959 3.0202 5.25183 3.01961 5.49407C3.01877 5.84088 3.01703 6.18768 3.01406 6.5345C3.01205 6.77861 3.01103 7.02273 3.01075 7.26685C3.01056 7.41257 3.00994 7.55828 3.00825 7.704C3.00639 7.86646 3.00659 8.02889 3.00698 8.19136C3.00612 8.23956 3.00425 13.5814 3.00337 13.6311C3.00655 13.9559 3.29809 13.402 3.29809 13.3578C3.48415 13.4518 3.40447 13.3879 3.62279 13.3578C3.672 13.4289 3.83802 14.0409 3.9589 13.9112C3.9975 13.7469 3.95755 8.36777 3.95481 8.20129C3.95502 8.15126 3.95523 8.10123 3.95545 8.04968C3.95573 7.94103 3.95555 7.83245 3.95458 7.7238C3.95306 7.55177 3.95347 7.37976 3.95415 7.20772C3.95523 6.87334 3.95442 6.53896 3.95335 6.20458C3.95204 5.77955 3.95137 5.35452 3.95283 4.92949C3.95334 4.75875 3.95282 4.58804 3.95147 4.41731C3.95069 4.28566 3.95123 4.15401 3.95155 4.02235C3.95087 3.97548 3.9502 3.9286 3.94951 3.8803C3.95217 3.54607 4.05097 3.32074 4.26914 3.03604C4.68498 2.73227 5.179 2.69816 5.72399 2.69954C5.77365 2.6995 5.82331 2.69947 5.87447 2.69943C6.04066 2.69937 6.20685 2.69959 6.37304 2.69981C6.49225 2.69982 6.61147 2.69981 6.73068 2.69979C7.05425 2.69978 7.37782 2.70002 7.70138 2.7003C8.03956 2.70055 8.37773 2.70057 8.71591 2.70062C9.28349 2.70073 9.85108 2.70098 10.4187 2.70134C11.0032 2.70171 11.5877 2.70199 12.1723 2.70217C12.2083 2.70218 12.2444 2.70219 12.2815 2.7022C12.4624 2.70225 12.6432 2.7023 12.8241 2.70235C14.3237 2.70277 15.8233 2.70348 17.323 2.70437C17.2771 2.71474 17.2313 2.72511 17.184 2.73579C16.7448 2.83506 16.3056 2.93435 15.8664 3.03366C15.6408 3.08467 15.4152 3.13568 15.1896 3.18668C15.146 3.19651 15.1025 3.20635 15.0577 3.21648C14.9703 3.23624 14.8828 3.256 14.7954 3.27576C14.5792 3.32462 14.3631 3.37355 14.147 3.42261C14.0625 3.44179 13.9779 3.46096 13.8934 3.48014C13.8525 3.48943 13.8115 3.49873 13.7693 3.5083C13.5432 3.55952 13.3169 3.61019 13.0903 3.66011C12.9918 3.68182 12.8935 3.70371 12.7951 3.72561C12.6793 3.75136 12.5634 3.77684 12.4474 3.80194C11.7244 3.96372 11.1615 4.21096 10.7688 4.71917C10.5543 5.08895 10.5229 5.42833 10.5263 5.83028C10.5263 5.88983 10.5261 5.94937 10.5259 6.00892C10.5256 6.17165 10.5262 6.33437 10.527 6.4971C10.5277 6.67292 10.5274 6.84874 10.5273 7.02456C10.5272 7.32888 10.5277 7.6332 10.5286 7.93752C10.5299 8.37751 10.5303 8.8175 10.5305 9.25749C10.5308 9.97141 10.5319 10.6853 10.5334 11.3992C10.5348 12.0926 10.5359 12.786 10.5366 13.4793C10.5366 13.5435 10.5366 13.5435 10.5367 13.6089C10.5369 13.8235 10.5371 14.038 10.5373 14.2525C10.5389 16.0314 10.5417 17.8102 10.5452 19.5891C9.85218 19.5857 9.1592 19.5819 8.46623 19.5775C8.14444 19.5755 7.82265 19.5737 7.50086 19.5721C7.19019 19.5706 6.87952 19.5688 6.56885 19.5667C6.45045 19.5659 6.33205 19.5653 6.21365 19.5648C6.04754 19.5642 5.88144 19.563 5.71534 19.5617C5.64227 19.5616 5.64227 19.5616 5.56772 19.5614C5.11233 19.557 4.69611 19.5024 4.34083 19.2675C4.08699 19.0297 3.96936 18.8379 3.96938 18.53C3.96924 18.4864 3.96911 18.4429 3.96897 18.398C3.96914 18.3266 3.96914 18.3266 3.9693 18.2537C3.96921 18.2034 3.96911 18.1532 3.96901 18.1014C3.9688 17.9921 3.96868 17.8828 3.96867 17.7736C3.96861 17.6007 3.96794 17.4279 3.96713 17.2551C3.967 17.2259 3.96686 17.1967 3.96672 17.1667C3.96645 17.107 3.96617 17.0473 3.9659 16.9876C3.96407 16.5854 3.96268 16.1831 3.96281 15.7809C3.96289 15.5094 3.96206 15.2379 3.96017 14.9664C3.95921 14.8228 3.95872 14.6792 3.95936 14.5356C3.96007 14.3754 3.95876 14.2153 3.95729 14.0552C3.95782 14.0076 3.95835 13.9601 3.9589 13.9112C3.95361 13.5909 3.95361 13.5909 3.8027 13.4289C3.61683 13.3343 3.51664 13.3277 3.29809 13.3578C3.1584 13.4288 3.14781 13.4478 3.02681 13.5779C2.98757 13.7436 3.00235 13.8887 3.0045 14.0568C3.00394 14.1326 3.00394 14.1326 3.00337 14.21C3.0024 14.3485 3.00308 14.487 3.0041 14.6254C3.00496 14.7709 3.0045 14.9163 3.00423 15.0617C3.004 15.3063 3.00482 15.5508 3.00628 15.7953C3.00795 16.0769 3.00795 16.3584 3.00705 16.64C3.00622 16.9118 3.00658 17.1836 3.00746 17.4554C3.00782 17.5705 3.00777 17.6857 3.00739 17.8008C3.0069 17.9625 3.00817 18.124 3.00959 18.2857C3.00908 18.3562 3.00908 18.3562 3.00856 18.4282C3.01631 18.9512 3.19737 19.4032 3.66305 19.7901C4.24637 20.1848 4.86385 20.2793 5.61472 20.2771C5.69489 20.2771 5.69489 20.2771 5.77668 20.2771C5.95243 20.2771 6.12817 20.2768 6.30392 20.2764C6.42614 20.2764 6.54835 20.2763 6.67057 20.2763C6.99156 20.2761 7.31255 20.2757 7.63354 20.2753C7.96136 20.2749 8.28918 20.2747 8.617 20.2745C9.25972 20.274 9.90244 20.2734 10.5452 20.2725C10.5441 20.3482 10.5441 20.3482 10.543 20.4255C10.5377 20.7991 10.7489 21.1248 11.0665 21.3982C11.0927 21.4225 11.1188 21.4468 11.1458 21.4718C11.5297 21.8024 12.0313 21.9368 12.5883 21.9999C13.0972 22.0031 13.5872 21.8898 14.0705 21.7773C14.1327 21.763 14.1948 21.7488 14.2588 21.7342C14.4266 21.6957 14.5942 21.657 14.7618 21.6182C14.9376 21.5776 15.1134 21.5373 15.2893 21.4969C15.5065 21.4471 15.7238 21.3971 15.941 21.3471C16.4304 21.2343 16.9202 21.1227 17.4104 21.0119C17.6015 20.9685 17.7927 20.9252 17.9838 20.8818C18.105 20.8544 18.2262 20.827 18.3474 20.7997C18.5161 20.7616 18.6848 20.7233 18.8535 20.6849C18.9267 20.6685 18.9267 20.6685 19.0014 20.6517C19.7531 20.4799 20.3121 20.2802 20.7394 19.7501C20.9768 19.3767 20.995 19.0326 20.9928 18.6226C20.993 18.5569 20.9933 18.4912 20.9937 18.4256C20.9944 18.2457 20.9942 18.0659 20.9938 17.886C20.9936 17.6919 20.9942 17.4977 20.9947 17.3035C20.9956 16.9233 20.9957 16.5431 20.9954 16.1629C20.9952 15.8538 20.9953 15.5447 20.9956 15.2357C20.9956 15.1917 20.9956 15.1476 20.9957 15.1023C20.9958 15.0129 20.9958 14.9235 20.9959 14.8341C20.9966 13.9959 20.9963 13.1577 20.9957 12.3195C20.9952 11.5529 20.9959 10.7863 20.9972 10.0197C20.9984 9.23231 20.9989 8.44489 20.9986 7.65746C20.9984 7.21551 20.9985 6.77355 20.9994 6.33159C21.0002 5.95536 21.0002 5.57913 20.9993 5.2029C20.9989 5.01101 20.9988 4.81914 20.9996 4.62725C21.0003 4.45143 21 4.27562 20.999 4.0998C20.9988 4.03636 20.999 3.97292 20.9995 3.90949C21.004 3.34653 20.8622 2.88905 20.3586 2.46568C19.9925 2.19787 19.5104 2.01639 19.0016 2.01555ZM19.8777 3.54861C20.2066 3.91402 20.146 4.36061 20.1454 4.7864C20.1455 4.84708 20.1456 4.90777 20.1457 4.96845C20.146 5.13471 20.146 5.30096 20.146 5.46722C20.146 5.64672 20.1463 5.82622 20.1465 6.00572C20.1469 6.35719 20.1471 6.70866 20.1471 7.06013C20.1471 7.34584 20.1472 7.63155 20.1474 7.91726C20.1479 8.72755 20.1481 9.53784 20.1481 10.3481C20.1481 10.3918 20.1481 10.4355 20.1481 10.4804C20.1481 10.5242 20.1481 10.5679 20.1481 10.6129C20.148 11.3215 20.1485 12.0302 20.1493 12.7388C20.15 13.4667 20.1504 14.1945 20.1503 14.9224C20.1503 15.331 20.1505 15.7395 20.151 16.148C20.1515 16.4958 20.1516 16.8436 20.1513 17.1914C20.1511 17.3688 20.1511 17.5462 20.1515 17.7236C20.1519 17.8861 20.1519 18.0486 20.1514 18.2112C20.1513 18.2698 20.1514 18.3285 20.1517 18.3871C20.1543 18.9433 20.1185 19.3143 19.6073 19.7197C19.2122 19.9093 18.7234 19.9926 18.28 20.0935C18.1937 20.1133 18.1937 20.1133 18.1056 20.1335C17.9175 20.1767 17.7294 20.2196 17.5413 20.2625C17.3087 20.3155 17.076 20.3686 16.8434 20.4218C16.775 20.4374 16.7067 20.453 16.6383 20.4686C16.1959 20.5694 15.7542 20.6718 15.3131 20.776C15.0579 20.8363 14.8026 20.896 14.5471 20.9557C14.4262 20.9841 14.3054 21.0127 14.1847 21.0417C13.169 21.3118 13.169 21.3118 12.1386 21.1946C11.7895 21.0395 11.5375 20.8175 11.4315 20.5137C11.4079 20.311 11.4101 20.1087 11.4113 19.9054C11.4111 19.8427 11.4108 19.7801 11.4104 19.7174C11.4097 19.5455 11.4099 19.3736 11.4103 19.2016C11.4105 19.0161 11.4099 18.8306 11.4093 18.645C11.4084 18.2817 11.4084 17.9183 11.4087 17.5549C11.4089 17.2596 11.4088 16.9642 11.4085 16.6689C11.4085 16.6269 11.4085 16.5848 11.4084 16.5415C11.4083 16.4561 11.4082 16.3707 11.4082 16.2854C11.4075 15.4845 11.4077 14.6837 11.4083 13.8829C11.4089 13.1503 11.4082 12.4177 11.4069 11.6852C11.4057 10.9329 11.4052 10.1806 11.4055 9.42837C11.4057 9.00605 11.4056 8.58374 11.4047 8.16142C11.4039 7.8019 11.4039 7.44238 11.4048 7.08285C11.4052 6.89944 11.4053 6.71605 11.4045 6.53264C11.4038 6.36466 11.404 6.19669 11.4051 6.0287C11.4053 5.96802 11.4051 5.90734 11.4046 5.84666C11.4012 5.43914 11.4473 5.12615 11.7932 4.80491C12.193 4.51958 12.8397 4.43083 13.3512 4.31652C13.4137 4.30236 13.4762 4.2882 13.5405 4.27361C13.7086 4.23557 13.8767 4.19772 14.0449 4.15998C14.2209 4.12044 14.3969 4.08072 14.5729 4.04102C14.6446 4.02485 14.7163 4.00868 14.788 3.99251C14.8236 3.98447 14.8593 3.97642 14.896 3.96814C15.0046 3.94366 15.1131 3.91922 15.2217 3.89478C15.697 3.7877 16.1714 3.67848 16.6454 3.56808C16.8259 3.52628 17.0064 3.48454 17.1869 3.44281C17.3006 3.4164 17.4143 3.3898 17.5279 3.363C17.6856 3.32586 17.8434 3.28939 18.0014 3.25306C18.0694 3.23672 18.0694 3.23672 18.1389 3.22005C18.822 3.0651 19.39 3.13169 19.8777 3.54861Z" fill="white"/>
<path d="M13.5 12C13.5 11.5858 13.4142 11.25 13 11.25C12.5858 11.25 12.5 11.5858 12.5 12V14C12.5 14.4142 12.5858 14.75 13 14.75C13.4142 14.75 13.5 14.4142 13.5 14V12Z" fill="white"/>
</svg>
