<svg width="18" height="18" viewBox="0 0 18 18" fill="none" xmlns="http://www.w3.org/2000/svg">
<path d="M10.6394 0.00889229C10.6669 0.00872616 10.6945 0.00856003 10.7228 0.00838886C10.8146 0.00792614 10.9065 0.00798463 10.9983 0.00804528C11.0643 0.00782578 11.1303 0.00757624 11.1963 0.00729896C11.3753 0.00665171 11.5544 0.00647933 11.7334 0.00643253C11.8454 0.00638036 11.9573 0.00622374 12.0693 0.00602942C12.4601 0.00535116 12.8509 0.00505155 13.2418 0.00510926C13.6057 0.00515329 13.9695 0.00437994 14.3334 0.0032215C14.6461 0.00226142 14.9589 0.00186936 15.2716 0.00191618C15.4583 0.00193484 15.6449 0.0017277 15.8315 0.000949849C16.0072 0.000237801 16.1828 0.000235602 16.3585 0.000767747C16.4227 0.000844175 16.487 0.000672728 16.5513 0.000228012C16.9746 -0.00251026 17.3476 0.0146098 17.6728 0.322898C17.9259 0.608638 17.9918 0.89678 17.9906 1.27225C17.9908 1.30979 17.9909 1.34732 17.9911 1.38599C17.9916 1.51172 17.9915 1.63744 17.9915 1.76317C17.9917 1.85333 17.9919 1.94349 17.9922 2.03366C17.9928 2.25313 17.993 2.4726 17.993 2.69208C17.9931 2.87053 17.9932 3.04899 17.9934 3.22744C17.9941 3.73373 17.9944 4.24002 17.9944 4.7463C17.9944 4.77358 17.9944 4.80086 17.9943 4.82896C17.9943 4.85627 17.9943 4.88358 17.9943 4.91172C17.9943 5.35426 17.995 5.79679 17.996 6.23932C17.9971 6.69404 17.9976 7.14875 17.9975 7.60347C17.9975 7.85863 17.9977 8.11378 17.9984 8.36894C17.9992 8.60894 17.9992 8.84893 17.9986 9.08893C17.9986 9.17695 17.9987 9.26496 17.9992 9.35298C17.9997 9.47328 17.9994 9.59354 17.9988 9.71384C17.9992 9.74854 17.9996 9.78324 17.9999 9.81898C17.9965 10.158 17.8794 10.4123 17.6532 10.6591C17.4057 10.8925 17.1394 10.9927 16.8022 10.9912C16.7617 10.9914 16.7617 10.9914 16.7203 10.9917C16.63 10.9921 16.5398 10.9921 16.4495 10.992C16.3847 10.9922 16.3198 10.9925 16.2549 10.9928C16.0789 10.9934 15.9029 10.9936 15.727 10.9936C15.6169 10.9937 15.5068 10.9938 15.3968 10.994C15.0124 10.9947 14.6281 10.995 14.2438 10.995C13.8861 10.9949 13.5284 10.9957 13.1708 10.9968C12.8633 10.9978 12.5558 10.9982 12.2483 10.9981C12.0648 10.9981 11.8813 10.9983 11.6979 10.9991C11.5252 10.9998 11.3525 10.9998 11.1798 10.9993C11.1166 10.9992 11.0535 10.9994 10.9903 10.9998C10.5241 11.0029 10.1312 10.9665 9.77945 10.6255C9.61349 10.4269 9.48822 10.1727 9.4876 9.90967C9.48744 9.87787 9.48728 9.84608 9.48712 9.81332C9.48713 9.76089 9.48713 9.76089 9.48714 9.70741C9.487 9.67029 9.48687 9.63317 9.48673 9.59493C9.48633 9.46996 9.4862 9.345 9.48606 9.22003C9.48583 9.13067 9.48559 9.0413 9.48534 8.95193C9.48464 8.68329 9.48426 8.41465 9.48394 8.14601C9.48378 8.01945 9.48359 7.89288 9.4834 7.76631C9.48278 7.34545 9.48226 6.92459 9.482 6.50372C9.48193 6.39451 9.48186 6.28529 9.48179 6.17608C9.48176 6.13536 9.48176 6.13536 9.48174 6.09382C9.48144 5.65439 9.48052 5.21496 9.47935 4.77553C9.47815 4.32417 9.4775 3.87281 9.47739 3.42145C9.47731 3.16812 9.477 2.91478 9.47607 2.66145C9.4752 2.42301 9.47508 2.18459 9.47545 1.94615C9.47547 1.85874 9.47524 1.77134 9.47474 1.68393C9.4741 1.56436 9.47436 1.44482 9.47483 1.32525C9.47444 1.29087 9.47404 1.25649 9.47363 1.22107C9.47695 0.873477 9.58761 0.591963 9.82262 0.339654C10.0692 0.103555 10.2958 0.00735627 10.6394 0.00889229ZM10.3232 1.00864C10.2905 1.10831 10.2825 1.16601 10.2823 1.2684C10.2821 1.29901 10.282 1.32962 10.2818 1.36115C10.2818 1.39478 10.2818 1.4284 10.2818 1.46305C10.2817 1.49877 10.2815 1.53449 10.2814 1.5713C10.281 1.69154 10.2809 1.81178 10.2807 1.93202C10.2805 2.01802 10.2803 2.10401 10.28 2.19C10.2794 2.424 10.279 2.658 10.2787 2.892C10.2785 3.03811 10.2783 3.18422 10.2781 3.33032C10.2775 3.73483 10.2769 4.13934 10.2767 4.54385C10.2766 4.6488 10.2765 4.75376 10.2765 4.85872C10.2764 4.8848 10.2764 4.91089 10.2764 4.93777C10.2761 5.36047 10.2752 5.78316 10.274 6.20586C10.2728 6.63981 10.2722 7.07377 10.2721 7.50773C10.272 7.75139 10.2716 7.99504 10.2707 8.2387C10.2699 8.46787 10.2697 8.69702 10.2701 8.92619C10.2701 9.01035 10.2699 9.09451 10.2694 9.17866C10.2688 9.29347 10.269 9.40824 10.2695 9.52305C10.2691 9.55643 10.2687 9.58981 10.2683 9.6242C10.2703 9.82466 10.2957 9.94512 10.4316 10.1014C10.555 10.1956 10.6816 10.1841 10.8322 10.1843C10.8709 10.1845 10.8709 10.1845 10.9104 10.1847C10.9969 10.1851 11.0834 10.185 11.1699 10.1848C11.2319 10.185 11.2939 10.1852 11.3559 10.1854C11.5244 10.1859 11.6928 10.1859 11.8612 10.1858C12.0018 10.1858 12.1424 10.1859 12.283 10.1861C12.6146 10.1865 12.9462 10.1865 13.2778 10.1863C13.62 10.1861 13.9622 10.1866 14.3044 10.1873C14.5981 10.188 14.8919 10.1882 15.1856 10.1881C15.3611 10.188 15.5365 10.1881 15.712 10.1886C15.877 10.1891 16.042 10.189 16.2069 10.1885C16.2675 10.1884 16.3281 10.1885 16.3886 10.1888C16.4713 10.1892 16.5539 10.1889 16.6366 10.1885C16.6829 10.1885 16.7291 10.1885 16.7768 10.1885C16.9384 10.1701 17.0231 10.1142 17.1425 10.0065C17.2129 9.86437 17.2012 9.72309 17.2001 9.56624C17.2003 9.51212 17.2003 9.51212 17.2006 9.45691C17.201 9.33568 17.2007 9.21446 17.2003 9.09323C17.2005 9.00645 17.2007 8.91967 17.2009 8.83289C17.2013 8.62145 17.2013 8.41001 17.201 8.19856C17.2007 8.02671 17.2007 7.85486 17.2008 7.68301C17.2008 7.64633 17.2008 7.64633 17.2008 7.60891C17.2009 7.55924 17.2009 7.50957 17.2009 7.4599C17.2013 6.99401 17.2009 6.52812 17.2003 6.06222C17.1998 5.66246 17.1999 5.2627 17.2004 4.86294C17.201 4.39878 17.2012 3.93462 17.2009 3.47046C17.2009 3.42096 17.2008 3.37146 17.2008 3.32196C17.2008 3.29761 17.2008 3.27325 17.2007 3.24816C17.2006 3.07653 17.2008 2.90491 17.2011 2.73328C17.2014 2.50225 17.2012 2.27123 17.2005 2.0402C17.2004 1.95531 17.2004 1.87043 17.2007 1.78554C17.201 1.66985 17.2006 1.55417 17.2001 1.43848C17.2004 1.38786 17.2004 1.38786 17.2008 1.33621C17.1992 1.1619 17.1946 1.03701 17.0779 0.898644C16.9537 0.804732 16.8257 0.815814 16.6748 0.815263C16.6487 0.815071 16.6226 0.814879 16.5958 0.814681C16.5084 0.814131 16.421 0.814106 16.3336 0.814081C16.2709 0.813802 16.2083 0.813493 16.1456 0.813156C15.9754 0.812351 15.8051 0.812029 15.6349 0.811843C15.5286 0.811709 15.4222 0.81148 15.3159 0.811219C14.9449 0.810321 14.5739 0.809843 14.2029 0.809713C13.857 0.80958 13.5112 0.808483 13.1653 0.806948C12.8684 0.805677 12.5715 0.80511 12.2745 0.805084C12.0972 0.805055 11.9199 0.804734 11.7425 0.803691C11.5757 0.802732 11.4089 0.80265 11.2421 0.803238C11.1809 0.803305 11.1197 0.803059 11.0586 0.802475C10.9749 0.801726 10.8914 0.802111 10.8078 0.802776C10.761 0.802702 10.7143 0.802629 10.6661 0.802553C10.4992 0.832679 10.4412 0.886643 10.3232 1.00864Z" fill="white"/>
<path d="M1.1658 7.00889C1.19331 7.00873 1.22082 7.00856 1.24917 7.00839C1.341 7.00793 1.43283 7.00798 1.52466 7.00805C1.59066 7.00783 1.65665 7.00758 1.72264 7.0073C1.90169 7.00665 2.08073 7.00648 2.25978 7.00643C2.37173 7.00638 2.48368 7.00622 2.59564 7.00603C2.98648 7.00535 3.37731 7.00505 3.76815 7.00511C4.13202 7.00515 4.49589 7.00438 4.85976 7.00322C5.17251 7.00226 5.48526 7.00187 5.79801 7.00192C5.98465 7.00193 6.17128 7.00173 6.35791 7.00095C6.53355 7.00024 6.70918 7.00024 6.88482 7.00077C6.94909 7.00084 7.01336 7.00067 7.07763 7.00023C7.50096 6.99749 7.87397 7.01461 8.19917 7.3229C8.45227 7.60864 8.51819 7.89678 8.51699 8.27225C8.51715 8.30979 8.51732 8.34732 8.51748 8.38599C8.51794 8.51172 8.51788 8.63744 8.51782 8.76317C8.51804 8.85333 8.51829 8.94349 8.51856 9.03366C8.51913 9.25313 8.51936 9.4726 8.5194 9.69208C8.51943 9.87053 8.51958 10.049 8.51981 10.2274C8.52044 10.7337 8.52078 11.24 8.52073 11.7463C8.52072 11.7736 8.52072 11.8009 8.52072 11.829C8.52071 11.8563 8.52071 11.8836 8.52071 11.9117C8.52068 12.3543 8.52137 12.7968 8.52239 13.2393C8.52343 13.694 8.52392 14.1488 8.52386 14.6035C8.52384 14.8586 8.52403 15.1138 8.52481 15.3689C8.52554 15.6089 8.52552 15.8489 8.52499 16.0889C8.52492 16.1769 8.52509 16.265 8.52552 16.353C8.52608 16.4733 8.52575 16.5935 8.52519 16.7138C8.52556 16.7485 8.52593 16.7832 8.52632 16.819C8.52286 17.158 8.40573 17.4123 8.17956 17.6591C7.93205 17.8925 7.6658 17.9927 7.32859 17.9912C7.28802 17.9914 7.28802 17.9914 7.24663 17.9917C7.15638 17.9921 7.06614 17.9921 6.97589 17.992C6.91102 17.9922 6.84615 17.9925 6.78128 17.9928C6.60529 17.9934 6.42931 17.9936 6.25332 17.9936C6.14325 17.9937 6.03319 17.9938 5.92312 17.994C5.5388 17.9947 5.15448 17.995 4.77016 17.995C4.41248 17.9949 4.05482 17.9957 3.69714 17.9968C3.38964 17.9978 3.08213 17.9982 2.77462 17.9981C2.59116 17.9981 2.4077 17.9983 2.22423 17.9991C2.05153 17.9998 1.87883 17.9998 1.70613 17.9993C1.64298 17.9992 1.57983 17.9994 1.51668 17.9998C1.05045 18.0029 0.657521 17.9665 0.305814 17.6255C0.139856 17.4269 0.0145888 17.1727 0.0139706 16.9097C0.0138096 16.8779 0.0136485 16.8461 0.0134826 16.8133C0.0134926 16.7609 0.0134926 16.7609 0.0135028 16.7074C0.01337 16.6703 0.0132372 16.6332 0.0131004 16.5949C0.012701 16.47 0.0125627 16.345 0.0124252 16.22C0.012199 16.1307 0.0119589 16.0413 0.011706 15.9519C0.0110109 15.6833 0.0106284 15.4147 0.010307 15.146C0.0101487 15.0194 0.00995479 14.8929 0.00976559 14.7663C0.00915103 14.3454 0.00862764 13.9246 0.00836604 13.5037C0.00829705 13.3945 0.00822765 13.2853 0.008157 13.1761C0.0081308 13.1354 0.00813083 13.1354 0.00810409 13.0938C0.00780446 12.6544 0.00688955 12.215 0.00571588 11.7755C0.00452022 11.3242 0.0038707 10.8728 0.00375538 10.4215C0.00367727 10.1681 0.00336265 9.91478 0.00243837 9.66145C0.00157045 9.42301 0.00144441 9.18459 0.00181555 8.94615C0.00183344 8.85874 0.00160509 8.77134 0.00110922 8.68393C0.000468963 8.56436 0.000726024 8.44482 0.00120072 8.32525C0.000804495 8.29087 0.00040823 8.25649 0 8.22107C0.0033187 7.87348 0.113977 7.59196 0.34899 7.33965C0.595579 7.10356 0.822166 7.00736 1.1658 7.00889ZM0.849609 8.00864C0.816876 8.10831 0.80889 8.16601 0.80864 8.2684C0.808479 8.29901 0.808318 8.32962 0.808152 8.36115C0.808158 8.39478 0.808165 8.4284 0.808172 8.46305C0.808039 8.49877 0.807906 8.53449 0.807769 8.5713C0.80737 8.69154 0.807232 8.81178 0.807094 8.93202C0.806868 9.01802 0.806628 9.10401 0.806375 9.19C0.805746 9.424 0.805365 9.658 0.805067 9.892C0.804881 10.0381 0.804662 10.1842 0.804435 10.3303C0.80382 10.7348 0.803297 11.1393 0.803035 11.5438C0.802966 11.6488 0.802897 11.7538 0.802826 11.8587C0.802809 11.8848 0.802791 11.9109 0.802773 11.9378C0.802473 12.3605 0.801558 12.7832 0.800385 13.2059C0.799191 13.6398 0.79854 14.0738 0.798424 14.5077C0.798346 14.7514 0.798014 14.995 0.797107 15.2387C0.796268 15.4679 0.796113 15.697 0.796485 15.9262C0.796503 16.0103 0.796273 16.0945 0.795778 16.1787C0.795141 16.2935 0.795393 16.4082 0.79587 16.523C0.795474 16.5564 0.795077 16.5898 0.794669 16.6242C0.79668 16.8247 0.822028 16.9451 0.957973 17.1014C1.08141 17.1956 1.20796 17.1841 1.3586 17.1843C1.39731 17.1845 1.39731 17.1845 1.43681 17.1847C1.52329 17.1851 1.60977 17.185 1.69626 17.1848C1.75827 17.185 1.82028 17.1852 1.88228 17.1854C2.05072 17.1859 2.21916 17.1859 2.3876 17.1858C2.52818 17.1858 2.66875 17.1859 2.80933 17.1861C3.14094 17.1865 3.47255 17.1865 3.80416 17.1863C4.14636 17.1861 4.48856 17.1866 4.83077 17.1873C5.1245 17.188 5.41822 17.1882 5.71195 17.1881C5.88742 17.188 6.06288 17.1881 6.23834 17.1886C6.40334 17.1891 6.56832 17.189 6.73332 17.1885C6.79388 17.1884 6.85444 17.1885 6.915 17.1888C6.99766 17.1892 7.0803 17.1889 7.16296 17.1885C7.20923 17.1885 7.25549 17.1885 7.30315 17.1885C7.46475 17.1701 7.54944 17.1142 7.66891 17.0065C7.73924 16.8644 7.72754 16.7231 7.72642 16.5662C7.72667 16.5121 7.72667 16.5121 7.72693 16.4569C7.72737 16.3357 7.72702 16.2145 7.72668 16.0932C7.72683 16.0064 7.72702 15.9197 7.72726 15.8329C7.7277 15.6214 7.72763 15.41 7.72732 15.1986C7.72708 15.0267 7.72704 14.8549 7.72716 14.683C7.72719 14.6463 7.72719 14.6463 7.72721 14.6089C7.72725 14.5592 7.72728 14.5096 7.72732 14.4599C7.72763 13.994 7.72727 13.5281 7.72669 13.0622C7.7262 12.6625 7.72629 12.2627 7.72679 11.8629C7.72737 11.3988 7.7276 10.9346 7.72726 10.4705C7.72723 10.421 7.72719 10.3715 7.72716 10.322C7.72714 10.2976 7.72713 10.2733 7.72711 10.2482C7.72702 10.0765 7.72717 9.90491 7.72743 9.73328C7.72774 9.50225 7.72753 9.27123 7.7269 9.0402C7.72676 8.95531 7.7268 8.87043 7.72704 8.78554C7.72733 8.66985 7.72696 8.55417 7.72642 8.43848C7.72678 8.38786 7.72678 8.38786 7.72715 8.33621C7.72557 8.1619 7.72094 8.03701 7.6043 7.89864C7.48002 7.80473 7.35204 7.81581 7.20117 7.81526C7.17509 7.81507 7.14902 7.81488 7.12215 7.81468C7.03474 7.81413 6.94735 7.81411 6.85995 7.81408C6.79729 7.8138 6.73463 7.81349 6.67197 7.81316C6.50174 7.81235 6.33151 7.81203 6.16127 7.81184C6.05492 7.81171 5.94857 7.81148 5.84222 7.81122C5.47122 7.81032 5.10023 7.80984 4.72923 7.80971C4.38337 7.80958 4.03752 7.80848 3.69167 7.80695C3.39475 7.80568 3.09783 7.80511 2.80091 7.80508C2.62356 7.80506 2.44623 7.80473 2.26888 7.80369C2.10207 7.80273 1.93529 7.80265 1.76848 7.80324C1.7073 7.80331 1.64611 7.80306 1.58493 7.80248C1.50131 7.80173 1.41777 7.80211 1.33415 7.80278C1.28739 7.8027 1.24063 7.80263 1.19245 7.80255C1.02554 7.83268 0.967529 7.88664 0.849609 8.00864Z" fill="white"/>
<path d="M10.6989 12.0122C10.7259 12.012 10.7529 12.0119 10.7807 12.0118C10.8713 12.0114 10.9618 12.0113 11.0524 12.0111C11.1173 12.0109 11.1822 12.0107 11.2471 12.0104C11.4604 12.0097 11.6737 12.0093 11.8869 12.009C11.9604 12.0089 12.0339 12.0087 12.1074 12.0086C12.4526 12.0079 12.7979 12.0074 13.1432 12.0071C13.5414 12.0068 13.9396 12.0059 14.3379 12.0044C14.6459 12.0034 14.9539 12.0029 15.2619 12.0028C15.4457 12.0027 15.6296 12.0024 15.8134 12.0015C15.9865 12.0007 16.1596 12.0005 16.3327 12.0009C16.396 12.0009 16.4594 12.0007 16.5227 12.0002C16.9692 11.997 17.3273 12.0279 17.665 12.3362C17.9451 12.6229 17.992 12.8793 17.9917 13.2671C17.9919 13.3085 17.9921 13.3499 17.9924 13.3925C17.993 13.5056 17.9932 13.6187 17.9933 13.7318C17.9933 13.8026 17.9935 13.8734 17.9936 13.9441C17.9943 14.1915 17.9946 14.4388 17.9946 14.6862C17.9945 14.9161 17.9953 15.146 17.9964 15.376C17.9974 15.5739 17.9977 15.7718 17.9977 15.9698C17.9977 16.0877 17.9979 16.2057 17.9987 16.3237C17.9994 16.4554 17.9992 16.5872 17.9987 16.7189C17.9991 16.7576 17.9995 16.7962 17.9999 16.8361C17.997 17.1911 17.8749 17.4795 17.6199 17.7381C17.3798 17.9208 17.1391 17.9929 16.8339 17.9916C16.7926 17.9919 16.7926 17.9919 16.7505 17.9921C16.6585 17.9925 16.5666 17.9925 16.4747 17.9924C16.4087 17.9926 16.3426 17.9929 16.2765 17.9931C16.0973 17.9937 15.9182 17.9939 15.739 17.994C15.6269 17.994 15.5149 17.9942 15.4029 17.9943C15.0118 17.995 14.6208 17.9953 14.2297 17.9952C13.8656 17.9952 13.5014 17.9959 13.1372 17.997C12.8243 17.9979 12.5114 17.9983 12.1984 17.9983C12.0116 17.9982 11.8249 17.9984 11.6381 17.9992C11.4623 17.9998 11.2866 17.9999 11.1109 17.9993C11.0465 17.9993 10.9822 17.9994 10.9178 17.9999C10.4728 18.0026 10.147 17.9686 9.80989 17.6658C9.53291 17.3778 9.48159 17.0864 9.48192 16.7045C9.48168 16.6639 9.48143 16.6233 9.48118 16.5814C9.4805 16.4472 9.48036 16.313 9.48028 16.1787C9.4801 16.1089 9.47993 16.039 9.47974 15.9692C9.47915 15.7495 9.47897 15.5299 9.47903 15.3103C9.47907 15.0844 9.47831 14.8586 9.47717 14.6327C9.47622 14.4382 9.47583 14.2437 9.47588 14.0492C9.4759 13.9333 9.47563 13.8174 9.47493 13.7015C9.47422 13.5721 9.47443 13.4426 9.47486 13.3131C9.47425 13.2563 9.47425 13.2563 9.47363 13.1983C9.47671 12.836 9.5848 12.5597 9.84319 12.2957C10.0981 12.0827 10.3699 12.0121 10.6989 12.0122ZM10.3593 12.9243C10.2872 13.0247 10.278 13.1056 10.2777 13.2264C10.2774 13.2589 10.2772 13.2914 10.2769 13.3249C10.277 13.3604 10.2771 13.3958 10.2772 13.4323C10.277 13.4698 10.2768 13.5073 10.2766 13.546C10.2761 13.6701 10.2762 13.7942 10.2762 13.9183C10.2761 14.0045 10.2759 14.0907 10.2758 14.1769C10.2755 14.3576 10.2755 14.5383 10.2757 14.719C10.2759 14.9508 10.2753 15.1825 10.2745 15.4142C10.2739 15.5922 10.2739 15.7702 10.274 15.9482C10.274 16.0337 10.2738 16.1191 10.2734 16.2045C10.273 16.324 10.2732 16.4434 10.2737 16.5628C10.2734 16.5981 10.2731 16.6335 10.2728 16.6699C10.2737 16.9079 10.2737 16.9079 10.3955 17.1102C10.5231 17.2292 10.6251 17.228 10.7988 17.2282C10.825 17.2283 10.8511 17.2285 10.878 17.2286C10.9654 17.2291 11.0529 17.2287 11.1404 17.2284C11.2031 17.2285 11.2659 17.2287 11.3286 17.229C11.499 17.2294 11.6693 17.2292 11.8397 17.2289C12.018 17.2287 12.1962 17.2289 12.3745 17.2291C12.6738 17.2293 12.9732 17.229 13.2726 17.2285C13.6188 17.2279 13.9649 17.2281 14.3111 17.2287C14.6082 17.2292 14.9053 17.2292 15.2024 17.229C15.3799 17.2288 15.5574 17.2288 15.7349 17.2291C15.9018 17.2294 16.0686 17.2292 16.2355 17.2286C16.2968 17.2285 16.3581 17.2285 16.4193 17.2287C16.5029 17.229 16.5865 17.2287 16.6701 17.2282C16.7403 17.2281 16.7403 17.2281 16.8119 17.228C16.944 17.2137 17.0108 17.1897 17.1142 17.1102C17.1859 17.0091 17.1957 16.9266 17.1964 16.8057C17.1969 16.7561 17.1969 16.7561 17.1975 16.7055C17.1975 16.6695 17.1975 16.6334 17.1975 16.5963C17.198 16.5391 17.198 16.5391 17.1985 16.4808C17.1993 16.3546 17.1996 16.2284 17.1999 16.1022C17.2002 16.0145 17.2005 15.9268 17.2009 15.8391C17.2015 15.6553 17.2017 15.4714 17.2018 15.2875C17.202 15.0753 17.2031 14.863 17.2046 14.6508C17.206 14.4463 17.2064 14.2419 17.2064 14.0374C17.2066 13.9505 17.207 13.8636 17.2078 13.7768C17.2088 13.6553 17.2086 13.5338 17.2081 13.4123C17.2087 13.3764 17.2092 13.3405 17.2098 13.3036C17.2081 13.1453 17.2057 13.0297 17.1016 12.9025C16.9527 12.7736 16.8397 12.7802 16.6459 12.7796C16.6202 12.7795 16.5944 12.7793 16.5679 12.7792C16.4814 12.7788 16.3949 12.7787 16.3083 12.7786C16.2464 12.7783 16.1845 12.7781 16.1225 12.7779C15.9541 12.7773 15.7856 12.7769 15.6172 12.7766C15.5119 12.7764 15.4067 12.7762 15.3015 12.776C14.9724 12.7753 14.6432 12.7748 14.3141 12.7745C13.934 12.7742 13.5539 12.7733 13.1739 12.7719C12.8801 12.7708 12.5864 12.7703 12.2927 12.7702C12.1173 12.7701 11.9418 12.7698 11.7664 12.7689C11.6013 12.7681 11.4363 12.768 11.2712 12.7683C11.2107 12.7683 11.1501 12.7681 11.0896 12.7676C11.0068 12.767 10.9241 12.7673 10.8414 12.7677C10.7951 12.7676 10.7489 12.7676 10.7012 12.7675C10.5517 12.7881 10.4748 12.8314 10.3593 12.9243Z" fill="white"/>
<path d="M1.22523 0.0121731C1.25224 0.0120448 1.27925 0.0119166 1.30708 0.0117844C1.39764 0.0114001 1.4882 0.0112655 1.57876 0.0111325C1.64368 0.0109139 1.7086 0.0106821 1.77351 0.0104379C1.98677 0.00970439 2.20004 0.00934249 2.4133 0.0089949C2.48678 0.00885368 2.56026 0.00871007 2.63374 0.00856409C2.97901 0.00789958 3.32429 0.00740317 3.66957 0.00711254C4.06779 0.0067718 4.466 0.00585404 4.86422 0.00444397C5.17223 0.00339087 5.48023 0.00287526 5.78823 0.00275982C5.97209 0.00267793 6.15594 0.00236674 6.33979 0.00148795C6.51289 0.000673949 6.68597 0.000528942 6.85906 0.000886613C6.9224 0.000903851 6.98575 0.000684605 7.04908 0.000204441C7.49558 -0.00298951 7.85364 0.0278515 8.19132 0.336159C8.47146 0.622949 8.51836 0.879253 8.51803 1.26714C8.51827 1.30851 8.51852 1.34989 8.51877 1.39252C8.51933 1.50561 8.51957 1.61869 8.51962 1.73178C8.51967 1.80257 8.51982 1.87335 8.52002 1.94414C8.52068 2.19149 8.52098 2.43883 8.52092 2.68618C8.52088 2.91612 8.52164 3.14604 8.52278 3.37597C8.52373 3.5739 8.52411 3.77183 8.52407 3.96976C8.52405 4.08774 8.52425 4.20572 8.52502 4.3237C8.52573 4.45545 8.52552 4.58716 8.52509 4.71891C8.52549 4.75758 8.5259 4.79624 8.52632 4.83607C8.52335 5.19114 8.40126 5.47948 8.14631 5.73811C7.90618 5.92084 7.66545 5.99291 7.36028 5.99161C7.31897 5.99185 7.31897 5.99185 7.27683 5.99209C7.18491 5.99253 7.093 5.99248 7.00108 5.99242C6.93502 5.99263 6.86897 5.99287 6.80291 5.99313C6.62372 5.99375 6.44452 5.99391 6.26532 5.99395C6.15329 5.994 6.04126 5.99415 5.92924 5.99434C5.53819 5.99498 5.14715 5.99527 4.75611 5.99521C4.39194 5.99517 4.02778 5.99591 3.66361 5.99701C3.35067 5.99792 3.03772 5.9983 2.72478 5.99825C2.538 5.99823 2.35122 5.99843 2.16444 5.99917C1.98871 5.99985 1.81299 5.99985 1.63725 5.99934C1.57291 5.99927 1.50856 5.99943 1.44422 5.99986C0.999204 6.00259 0.673321 5.96855 0.336262 5.66575C0.0592768 5.37783 0.00795784 5.08638 0.00828539 4.70453C0.00804275 4.66389 0.00780011 4.62325 0.00755011 4.58138C0.00686442 4.44716 0.00672275 4.31295 0.00664507 4.17873C0.00647158 4.10887 0.00629802 4.03902 0.00610615 3.96916C0.00551874 3.74953 0.00534134 3.52989 0.00539278 3.31025C0.00543613 3.0844 0.00467474 2.85856 0.00353295 2.63271C0.00258506 2.43822 0.00220085 2.24373 0.0022469 2.04923C0.00226523 1.93333 0.00199683 1.81744 0.00129487 1.70155C0.000584113 1.57206 0.00079587 1.4426 0.00123024 1.31312C0.000621272 1.25629 0.000621272 1.25629 0 1.19832C0.00307647 0.83596 0.111165 0.559705 0.369562 0.295689C0.62446 0.0827215 0.896219 0.0120891 1.22523 0.0121731ZM0.885717 0.924263C0.813538 1.02474 0.804373 1.10559 0.804055 1.2264C0.803799 1.25892 0.803543 1.29144 0.80328 1.32494C0.803369 1.36037 0.803459 1.3958 0.803551 1.4323C0.803366 1.46981 0.803181 1.50732 0.802991 1.54596C0.802489 1.67007 0.802524 1.79418 0.802607 1.91829C0.802467 2.00448 0.80231 2.09068 0.802138 2.17687C0.801868 2.35759 0.801879 2.53832 0.802069 2.71904C0.802278 2.95075 0.801667 3.18245 0.800829 3.41416C0.800297 3.59219 0.800265 3.77021 0.800377 3.94823C0.800359 4.03367 0.800169 4.11911 0.799806 4.20454C0.799361 4.32396 0.799604 4.44336 0.800023 4.56277C0.799747 4.59813 0.799471 4.63349 0.799186 4.66993C0.800071 4.90795 0.800071 4.90795 0.921839 5.11021C1.04946 5.22918 1.15144 5.228 1.32522 5.22815C1.35132 5.22831 1.37743 5.22848 1.40432 5.22864C1.49182 5.22906 1.57929 5.22873 1.66678 5.2284C1.7295 5.22854 1.79222 5.22873 1.85494 5.22896C2.02533 5.22944 2.19571 5.22925 2.3661 5.22892C2.54434 5.22865 2.72258 5.2289 2.90083 5.22906C3.20021 5.22925 3.49959 5.229 3.79897 5.2285C4.14513 5.22794 4.49128 5.22812 4.83743 5.2287C5.13454 5.22917 5.43165 5.22924 5.72877 5.22896C5.90625 5.2288 6.08374 5.22878 6.26123 5.22913C6.42812 5.22943 6.59501 5.22922 6.76191 5.22861C6.82317 5.22847 6.88443 5.22851 6.94569 5.22874C7.02931 5.22903 7.1129 5.22867 7.19651 5.22815C7.2667 5.22809 7.2667 5.22809 7.33832 5.22803C7.47032 5.21374 7.53717 5.1897 7.6406 5.11021C7.71229 5.0091 7.72204 4.92665 7.72275 4.80567C7.72329 4.75608 7.72329 4.75608 7.72384 4.7055C7.72386 4.66947 7.72389 4.63344 7.72391 4.59632C7.72436 4.53912 7.72436 4.53912 7.72482 4.48077C7.72569 4.35456 7.72601 4.22836 7.72625 4.10215C7.72657 4.01448 7.7269 3.9268 7.72724 3.83913C7.72783 3.65527 7.72811 3.47141 7.72822 3.28755C7.72835 3.07528 7.72943 2.86304 7.73094 2.65078C7.73235 2.44631 7.73275 2.24185 7.73279 2.03738C7.73294 1.95051 7.7334 1.86364 7.73415 1.77678C7.73512 1.65527 7.73495 1.53381 7.73449 1.4123C7.73503 1.37641 7.73557 1.34053 7.73612 1.30355C7.73444 1.14528 7.73202 1.02975 7.62796 0.902481C7.47902 0.773554 7.36607 0.780222 7.17231 0.779597C7.14655 0.779469 7.1208 0.779341 7.09427 0.779209C7.00775 0.778824 6.92123 0.77869 6.83472 0.778557C6.77277 0.778338 6.71083 0.778106 6.64889 0.777862C6.48044 0.777255 6.31199 0.776887 6.14354 0.776599C6.03832 0.77642 5.9331 0.776208 5.82788 0.775988C5.49872 0.775324 5.16957 0.774827 4.84042 0.774537C4.46035 0.774196 4.08029 0.773277 3.70022 0.771868C3.40652 0.770817 3.11281 0.7703 2.8191 0.770184C2.64365 0.770102 2.46821 0.769789 2.29275 0.768912C2.1277 0.768101 1.96265 0.767952 1.79759 0.768311C1.73704 0.768328 1.6765 0.768107 1.61595 0.767629C1.53321 0.767012 1.45051 0.767258 1.36777 0.767717C1.32149 0.767634 1.27522 0.76755 1.22754 0.767465C1.07804 0.788101 1.00119 0.831424 0.885717 0.924263Z" fill="white"/>
</svg>
