<svg width="32" height="32" viewBox="0 0 32 32" fill="none" xmlns="http://www.w3.org/2000/svg">
<circle cx="16" cy="16" r="16" fill="white"/>
<path d="M15.0295 15.0335C14.9005 15.1599 14.7982 15.3111 14.7287 15.4779C14.6592 15.6447 14.6239 15.8237 14.625 16.0044C14.6147 16.2791 14.6887 16.5504 14.8369 16.7819C14.9851 17.0134 15.2006 17.1941 15.4544 17.2997C15.7082 17.4053 15.9881 17.4308 16.2568 17.3728C16.5256 17.3149 16.7702 17.1762 16.9578 16.9753C17.0869 16.8488 17.1892 16.6977 17.2587 16.5309C17.3282 16.3641 17.3634 16.1851 17.3624 16.0044C17.3634 15.8237 17.3282 15.6447 17.2587 15.4779C17.1892 15.3111 17.0869 15.1599 16.9578 15.0335C16.833 14.906 16.684 14.8047 16.5196 14.7352C16.3553 14.6658 16.1788 14.6297 16.0004 14.6289C15.8197 14.6279 15.6407 14.6631 15.4739 14.7326C15.3071 14.8021 15.156 14.9044 15.0295 15.0335Z" fill="#696969"/>
<path d="M12.9795 16.0042C12.9828 15.4932 13.1175 14.9917 13.3706 14.5478L12.1839 13.3477C11.6445 14.126 11.3555 15.0505 11.3555 15.9975C11.3555 16.9444 11.6445 17.8689 12.1839 18.6473L13.3706 17.4606C13.1208 17.0154 12.9863 16.5147 12.9795 16.0042Z" fill="#696969"/>
<path d="M18.6162 14.5478C18.8693 14.9917 19.004 15.4932 19.0073 16.0042C19.0005 16.5147 18.866 17.0154 18.6162 17.4606L19.8029 18.6473C20.3423 17.8689 20.6313 16.9444 20.6313 15.9975C20.6313 15.0505 20.3423 14.126 19.8029 13.3477L18.6162 14.5478Z" fill="#696969"/>
<path d="M23.5388 8.45286C21.7931 6.70921 19.497 5.62467 17.0415 5.38392C14.5859 5.14318 12.1229 5.76113 10.0718 7.13255C8.02074 8.50397 6.50849 10.544 5.79271 12.9052C5.07693 15.2665 5.20187 17.8028 6.14621 20.0822C7.09055 22.3617 8.79591 24.2432 10.9718 25.4065C13.1477 26.5697 15.6596 26.9427 18.0796 26.4618C20.4996 25.9809 22.678 24.676 24.2439 22.7692C25.8098 20.8625 26.6662 18.4718 26.6673 16.0045C26.6709 14.6014 26.3962 13.2116 25.8592 11.9154C25.3222 10.6192 24.5335 9.4423 23.5388 8.45286ZM20.4507 20.4545C19.5722 21.348 18.4472 21.9592 17.2194 22.2098C15.9917 22.4603 14.7171 22.339 13.5587 21.8611C12.4003 21.3833 11.4108 20.5707 10.7167 19.5274C10.0227 18.4841 9.65578 17.2575 9.66274 16.0045C9.6663 14.3354 10.3309 12.7357 11.5112 11.5554C12.6914 10.3752 14.2911 9.71057 15.9602 9.707C17.2133 9.70004 18.4399 10.067 19.4832 10.7611C20.5265 11.4551 21.339 12.4446 21.8169 13.603C22.2947 14.7613 22.4161 16.0359 22.1655 17.2637C21.9149 18.4914 21.3038 19.6165 20.4103 20.495L20.4507 20.4545Z" fill="#696969"/>
<path d="M17.4432 13.389L18.6433 12.1888C17.8672 11.6439 16.9419 11.3516 15.9936 11.3516C15.0453 11.3516 14.1199 11.6439 13.3438 12.1888L14.5439 13.389C14.9917 13.1561 15.4889 13.0346 15.9936 13.0346C16.4983 13.0346 16.9954 13.1561 17.4432 13.389Z" fill="#696969"/>
<path d="M16.0003 18.9574C15.4893 18.9541 14.9878 18.8195 14.5439 18.5664L13.3438 19.7531C14.1221 20.2925 15.0466 20.5814 15.9936 20.5814C16.9406 20.5814 17.865 20.2925 18.6433 19.7531L17.4567 18.5664C17.0114 18.8162 16.5107 18.9506 16.0003 18.9574Z" fill="#696969"/>
</svg>
