<svg width="22" height="22" viewBox="0 0 22 22" fill="none" xmlns="http://www.w3.org/2000/svg">
<path d="M15.8985 0.386704C16.0333 0.511732 16.0681 0.584778 16.0933 0.768471C16.0947 0.833218 16.0951 0.897992 16.0947 0.962753C16.095 0.997228 16.0952 1.0317 16.0955 1.06722C16.0958 1.13988 16.0957 1.21255 16.0951 1.28521C16.0945 1.39615 16.096 1.50693 16.0976 1.61786C16.0977 1.68863 16.0976 1.75941 16.0974 1.83018C16.098 1.86318 16.0985 1.89617 16.0991 1.93016C16.0961 2.10274 16.0773 2.18255 15.9693 2.31971C15.8555 2.40623 15.8555 2.40623 15.7266 2.43309C15.5471 2.39568 15.493 2.33808 15.3829 2.19139C15.3568 2.04273 15.3625 1.89861 15.3694 1.74828C15.3704 1.70826 15.3714 1.66824 15.3724 1.62701C15.3749 1.52861 15.3784 1.43035 15.3829 1.33202C14.5049 1.9504 13.9218 2.78015 13.7289 3.85542C13.6539 4.41117 13.6729 4.9671 13.8216 5.50818C13.873 5.69774 13.8916 5.82663 13.836 6.01561C13.7571 6.12453 13.6632 6.21562 13.5668 6.30915C13.5247 6.35133 13.5247 6.35133 13.4817 6.39436C13.389 6.48694 13.2955 6.57874 13.202 6.67055C13.1375 6.73468 13.073 6.79886 13.0086 6.86308C12.839 7.03182 12.6688 7.19991 12.4985 7.36786C12.3247 7.53943 12.1516 7.71161 11.9784 7.88374C11.6385 8.22127 11.298 8.55811 10.9571 8.89452C10.9977 8.94225 11.0383 8.98993 11.079 9.0376C11.1016 9.06415 11.1242 9.09071 11.1476 9.11808C11.2399 9.22393 11.3379 9.32307 11.4375 9.42206C11.4774 9.4618 11.5172 9.50154 11.5583 9.54249C11.5996 9.58342 11.6409 9.62434 11.6822 9.66527C11.7245 9.70736 11.7668 9.74946 11.8091 9.79157C11.9117 9.89369 12.0144 9.99571 12.1172 10.0976C12.2843 9.95949 12.4417 9.81866 12.5921 9.66241C12.6221 9.63126 12.6522 9.6001 12.6831 9.568C12.7444 9.5041 12.8052 9.43987 12.8658 9.37531C13.1898 9.04176 13.5398 8.85035 14.0079 8.83543C14.3169 8.83683 14.5514 8.92893 14.8243 9.06639C14.8816 9.09505 14.9389 9.1237 14.9962 9.15233C15.0247 9.12262 15.0533 9.0929 15.0828 9.06229C15.1894 8.9518 15.2967 8.84202 15.4042 8.73245C15.4506 8.685 15.4968 8.63736 15.5427 8.58953C15.609 8.52064 15.676 8.45249 15.7431 8.38443C15.7735 8.35234 15.7735 8.35234 15.8045 8.31959C15.944 8.18005 16.0453 8.13002 16.2422 8.12108C16.3592 8.14532 16.4712 8.17279 16.586 8.20433C17.5799 8.44904 18.576 8.28225 19.455 7.77129C20.3439 7.23216 20.9434 6.41639 21.2077 5.40884C21.4378 4.38707 21.2546 3.3131 20.6991 2.42789C20.505 2.1458 20.2948 1.89465 20.0379 1.66815C19.9856 1.62194 19.9856 1.62194 19.9322 1.5748C19.9056 1.5514 19.879 1.528 19.8516 1.50389C19.8515 1.53881 19.8513 1.57374 19.8511 1.60972C19.8495 1.94091 19.8471 2.27208 19.8437 2.60326C19.842 2.77348 19.8406 2.94368 19.84 3.1139C19.8393 3.27857 19.8378 3.44321 19.8358 3.60787C19.8352 3.67028 19.8348 3.7327 19.8348 3.79512C19.834 4.48534 19.6518 5.04096 19.1776 5.5537C18.6576 6.0435 18.0896 6.1794 17.399 6.15929C16.8292 6.12877 16.3117 5.87168 15.9223 5.45433C15.5029 4.93162 15.3754 4.39102 15.3668 3.73558C15.3652 3.68936 15.3635 3.64314 15.3619 3.59551C15.3581 3.25664 15.3581 3.25664 15.4832 3.08484C15.5977 3.0078 15.5977 3.0078 15.7266 2.98094C15.9074 3.01861 15.9599 3.0741 16.0704 3.22264C16.0991 3.38192 16.096 3.5392 16.0945 3.70067C16.1046 4.24523 16.1809 4.6752 16.586 5.0703C17.0115 5.38451 17.3951 5.44887 17.918 5.41405C18.3187 5.34494 18.6294 5.0944 18.8633 4.76952C19.0164 4.49802 19.0845 4.27959 19.0856 3.96614C19.0859 3.93252 19.0862 3.8989 19.0865 3.86426C19.0871 3.79125 19.0876 3.71824 19.0881 3.64523C19.0888 3.52964 19.0898 3.41406 19.0908 3.29847C19.0939 2.96983 19.0965 2.64118 19.0987 2.31253C19.1 2.11151 19.1018 1.91049 19.1038 1.70947C19.1045 1.63289 19.1051 1.55631 19.1054 1.47974C19.1059 1.37256 19.107 1.2654 19.1081 1.15823C19.1082 1.12666 19.1082 1.09509 19.1082 1.06257C19.1113 0.848016 19.1335 0.683302 19.2796 0.520981C19.4264 0.449565 19.5217 0.481584 19.6797 0.51561C19.7829 0.567709 19.8722 0.618256 19.9671 0.682114C19.9929 0.699146 20.0187 0.716178 20.0453 0.733727C21.0316 1.40353 21.7239 2.44102 21.9623 3.60869C22.1749 4.86745 21.9202 6.1102 21.1944 7.15512C21.122 7.25078 21.0468 7.34246 20.9688 7.43358C20.9244 7.4865 20.9244 7.4865 20.8792 7.5405C20.1683 8.36241 19.1304 8.9082 18.0469 9.02342C17.8723 9.03042 17.698 9.03137 17.5233 9.03148C17.4777 9.03201 17.4321 9.03253 17.3852 9.03307C17.1065 9.03358 16.8451 9.00953 16.5715 8.956C16.3447 8.91639 16.3447 8.91639 16.139 9.0041C15.6128 9.42945 15.6128 9.42945 15.3327 10.011C15.3314 10.1428 15.3458 10.2703 15.3632 10.4008C15.3947 10.6722 15.3072 10.8653 15.1517 11.0829C15.1027 11.1436 15.0498 11.2012 14.9962 11.2578C15.0523 11.2758 15.0523 11.2758 15.1096 11.2942C15.8795 11.5533 16.3911 12.0028 16.9611 12.5699C17.0004 12.6089 17.0397 12.6478 17.0802 12.688C17.2089 12.8156 17.3374 12.9434 17.4659 13.0712C17.5105 13.1156 17.5552 13.1601 17.5998 13.2045C17.7857 13.3895 17.9715 13.5745 18.1572 13.7597C18.4213 14.023 18.6857 14.2861 18.9507 14.5486C19.1382 14.7344 19.3252 14.9206 19.512 15.1071C19.623 15.218 19.7342 15.3287 19.8459 15.439C20.6545 16.2379 21.2662 16.9937 21.2857 18.1811C21.2835 19.0503 20.9625 19.802 20.354 20.4259C19.6953 21.052 18.8986 21.2956 18.0051 21.2813C17.0847 21.2458 16.3653 20.7605 15.7266 20.1308C15.6775 20.0844 15.6775 20.0844 15.6274 20.037C15.3671 19.7804 15.3671 19.7804 15.3381 19.5986C15.3399 19.4638 15.3435 19.3988 15.4258 19.293C15.531 19.2112 15.597 19.207 15.7308 19.2035C15.9737 19.2421 16.116 19.4485 16.2745 19.6206C16.7678 20.1336 17.2802 20.503 18.0189 20.5478C18.7378 20.5568 19.3616 20.3672 19.8948 19.8615C20.3658 19.3351 20.5615 18.7322 20.5497 18.0371C20.4754 16.8985 19.5569 16.1973 18.8073 15.4439C18.7653 15.4017 18.7234 15.3595 18.6814 15.3173C18.5068 15.1418 18.3321 14.9663 18.1572 14.7909C17.909 14.542 17.6611 14.2926 17.4137 14.0428C17.2383 13.8657 17.0624 13.6891 16.8863 13.5127C16.7817 13.408 16.6773 13.3031 16.5734 13.1977C15.829 12.4259 15.829 12.4259 14.8672 11.9883C14.8309 11.9785 14.7946 11.9688 14.7571 11.9587C14.45 11.915 14.45 11.915 14.1776 12.0327C14.1351 12.0732 14.0935 12.1146 14.0527 12.1568C14.0296 12.1793 14.0065 12.2018 13.9827 12.225C13.9069 12.2992 13.8325 12.3746 13.7581 12.4502C13.7057 12.5024 13.6532 12.5546 13.6006 12.6067C13.4909 12.7159 13.3817 12.8258 13.273 12.9361C13.1338 13.0773 12.9932 13.2168 12.852 13.3559C12.7433 13.4633 12.6355 13.5715 12.528 13.68C12.4764 13.7318 12.4246 13.7833 12.3725 13.8346C12.2998 13.9064 12.2282 13.9793 12.1569 14.0526C12.1353 14.0735 12.1137 14.0943 12.0915 14.1158C11.9766 14.2365 11.9323 14.3239 11.9304 14.4871C12.014 15.4088 12.6104 15.9697 13.2311 16.5858C13.3074 16.6615 13.3836 16.7374 13.4597 16.8134C13.6208 16.974 13.7821 17.1345 13.9434 17.2949C14.1317 17.4822 14.3199 17.6695 14.5079 17.857C14.583 17.9318 14.6582 18.0064 14.7334 18.0811C14.779 18.1266 14.8247 18.1721 14.8704 18.2176C14.9103 18.2574 14.9503 18.2971 14.9914 18.338C15.0961 18.4484 15.1212 18.4903 15.1412 18.6404C15.1251 18.7773 15.1251 18.7773 15.0338 18.9009C14.9102 18.9922 14.9102 18.9922 14.7894 19.0244C14.3897 18.9304 14.0395 18.4316 13.7514 18.1459C13.7251 18.1198 13.6989 18.0938 13.6718 18.067C13.5328 17.9291 13.3939 17.7911 13.2552 17.653C13.1414 17.5397 13.0273 17.4268 12.9129 17.3142C12.7736 17.177 12.6348 17.0392 12.4963 16.9011C12.444 16.8491 12.3915 16.7973 12.3389 16.7456C11.929 16.3434 11.5833 15.928 11.3895 15.3774C11.3731 15.3321 11.3568 15.2868 11.34 15.2401C11.3123 15.1589 11.285 15.0775 11.2579 14.9961C11.2266 15.0218 11.2266 15.0218 11.1948 15.0479C11.166 15.0707 11.1372 15.0935 11.1075 15.1169C11.0796 15.1394 11.0517 15.1618 11.0229 15.1849C10.7794 15.3393 10.5932 15.3976 10.3087 15.3504C10.0692 15.3162 9.88451 15.3268 9.67678 15.4597C9.54924 15.5624 9.43248 15.6703 9.31622 15.7856C9.27791 15.823 9.23959 15.8603 9.20012 15.8987C9.00795 16.0996 9.00795 16.0996 8.92235 16.356C8.93258 16.4655 8.95255 16.5656 8.98053 16.6719C9.0874 17.3314 9.07651 18.0472 8.89459 18.6914C8.88313 18.734 8.87166 18.7767 8.85985 18.8206C8.51856 19.9583 7.73281 20.9004 6.71124 21.4897C6.49253 21.6012 6.34437 21.6662 6.10162 21.6133C5.97 21.4903 5.93243 21.4187 5.90861 21.2387C5.90787 21.1759 5.90807 21.113 5.90902 21.0502C5.90885 21.0157 5.90868 20.9813 5.90851 20.9457C5.90825 20.8711 5.90839 20.7964 5.90887 20.7217C5.90962 20.6031 5.90929 20.4846 5.90869 20.3661C5.90742 20.0714 5.90798 19.7768 5.90848 19.4821C5.90884 19.2333 5.90849 18.9846 5.90723 18.7357C5.90693 18.6196 5.90764 18.5035 5.9084 18.3874C5.90833 17.8628 5.85069 17.4337 5.50258 17.0159C5.19916 16.72 4.83312 16.5738 4.41242 16.5725C3.92918 16.5805 3.62869 16.7116 3.27895 17.0411C2.88128 17.4637 2.89712 17.9543 2.89877 18.4989C2.89835 18.5758 2.89783 18.6527 2.89724 18.7296C2.89586 18.9309 2.8954 19.1322 2.89523 19.3335C2.89485 19.6564 2.89332 19.9793 2.89127 20.3022C2.89073 20.4147 2.89076 20.5271 2.89085 20.6396C2.89056 20.7086 2.89026 20.7775 2.88994 20.8465C2.89012 20.8776 2.8903 20.9087 2.89048 20.9407C2.88877 21.1544 2.86595 21.3174 2.72052 21.479C2.57372 21.5504 2.4784 21.5184 2.32037 21.4844C2.21727 21.4323 2.12791 21.3817 2.03302 21.3179C2.0072 21.3008 1.98138 21.2838 1.95478 21.2662C0.956856 20.5885 0.297732 19.5614 0.0430308 18.3906C-0.094658 17.6641 -0.0640087 16.8149 0.171937 16.1133C0.187003 16.0659 0.202069 16.0184 0.217591 15.9696C0.610343 14.8459 1.43232 13.9265 2.50037 13.4031C3.14319 13.1079 3.76887 12.9689 4.47687 12.9685C4.52243 12.968 4.56798 12.9674 4.61492 12.9669C4.89362 12.9664 5.155 12.9904 5.42861 13.044C5.46637 13.0501 5.50413 13.0562 5.54303 13.0625C5.57537 13.0678 5.60772 13.0732 5.64104 13.0787C5.81594 13.0544 5.90497 12.9436 6.02287 12.8219C6.04847 12.7963 6.07407 12.7707 6.10044 12.7444C6.18488 12.6598 6.26854 12.5745 6.35222 12.4891C6.41063 12.4303 6.46909 12.3715 6.5276 12.3128C6.68143 12.1582 6.83461 12.0029 6.98767 11.8474C7.14397 11.6889 7.30088 11.5311 7.45774 11.3731C7.76542 11.0631 8.07241 10.7525 8.37897 10.4414C8.17277 10.1966 7.95754 9.96175 7.73845 9.72848C7.70074 9.68828 7.66302 9.64807 7.62416 9.60664C7.27581 9.23602 6.92304 8.86968 6.56885 8.50463C6.33174 8.26005 6.09629 8.01421 5.86432 7.76472C5.59549 7.47598 5.3232 7.19101 5.04469 6.91158C5.02236 6.88917 5.00003 6.86677 4.97703 6.84368C4.48412 6.35263 4.02301 5.89872 3.28939 5.87141C3.0338 5.8757 2.78621 5.90954 2.53772 5.9685C2.40631 5.97264 2.40631 5.97264 2.31215 5.8863C2.22811 5.74733 2.14948 5.60725 2.07687 5.46207C2.05483 5.41874 2.05483 5.41874 2.03235 5.37454C1.98418 5.27964 1.9364 5.18455 1.88867 5.08943C1.85521 5.02302 1.82173 4.95661 1.78826 4.89021C1.71829 4.75124 1.64855 4.61217 1.57893 4.47304C1.48984 4.29508 1.39996 4.11753 1.30988 3.94007C1.24054 3.80314 1.17174 3.66595 1.1031 3.52867C1.07019 3.4631 1.0371 3.39763 1.00379 3.33225C0.957238 3.24072 0.911464 3.14884 0.865857 3.05683C0.845168 3.01677 0.845169 3.01677 0.824062 2.9759C0.73514 2.79376 0.706928 2.65072 0.730531 2.4492C0.785156 2.35601 0.785156 2.35601 0.861063 2.27874C0.888648 2.24995 0.916233 2.22115 0.944655 2.19148C0.98755 2.1489 0.98755 2.1489 1.03131 2.10545C1.05705 2.07874 1.08279 2.05202 1.10931 2.02449C1.18837 1.94277 1.26852 1.86228 1.34905 1.78201C1.39245 1.73855 1.39245 1.73855 1.43673 1.6942C1.49723 1.63367 1.55778 1.5732 1.61839 1.51278C1.71141 1.41998 1.80421 1.32696 1.89698 1.23391C1.95602 1.1749 2.01508 1.1159 2.07414 1.05692C2.10189 1.02908 2.12964 1.00124 2.15823 0.972563C2.19677 0.934229 2.19677 0.934229 2.23608 0.895122C2.25865 0.872591 2.28122 0.850059 2.30446 0.826845C2.40075 0.739485 2.45281 0.730157 2.58529 0.719021C2.7707 0.731885 2.90403 0.786766 3.06616 0.870406C3.11118 0.892727 3.11118 0.892727 3.1571 0.915499C3.25559 0.96452 3.35362 1.01439 3.45166 1.0643C3.52026 1.09872 3.58889 1.13309 3.65753 1.16742C3.80103 1.23933 3.94432 1.31164 4.08746 1.38427C4.27091 1.47733 4.45473 1.56964 4.63868 1.66168C4.78027 1.73257 4.92171 1.80374 5.06311 1.875C5.13085 1.90914 5.19862 1.94321 5.26643 1.97722C5.36107 2.02479 5.45554 2.07269 5.54995 2.1207C5.57795 2.1347 5.60594 2.1487 5.63478 2.16312C5.9133 2.30569 5.9133 2.30569 5.97272 2.40623C5.95648 2.53046 5.95648 2.53046 5.91757 2.68607C5.82564 3.1836 5.82158 3.68578 6.09796 4.1276C6.62944 4.84681 7.31953 5.45467 7.97081 6.06262C8.23859 6.31289 8.50181 6.56777 8.76481 6.82305C9.30459 7.34678 9.84961 7.86471 10.3985 8.37889C10.5885 8.21877 10.7729 8.0549 10.9511 7.88169C10.9742 7.85929 10.9974 7.83689 11.0212 7.81382C11.2321 7.60955 11.4416 7.40387 11.6506 7.19777C11.7906 7.05974 11.9311 6.92221 12.0726 6.78575C12.2103 6.65304 12.3467 6.51921 12.4824 6.3845C12.534 6.33359 12.5861 6.28309 12.6386 6.23302C12.9293 5.97427 12.9293 5.97427 13.0846 5.63321C13.0745 5.5238 13.0539 5.43213 13.0196 5.32811C12.8205 4.08442 13.0741 2.85691 13.8048 1.83052C14.2137 1.27923 15.1351 0.220145 15.8985 0.386704ZM2.36267 1.74072C2.33796 1.76501 2.31324 1.7893 2.28777 1.81432C2.2356 1.86584 2.1836 1.91754 2.13176 1.9694C2.05219 2.04869 1.97166 2.12688 1.89102 2.20507C1.84049 2.25522 1.79003 2.30543 1.73962 2.35571C1.71537 2.37904 1.69112 2.40237 1.66613 2.4264C1.59056 2.50039 1.59056 2.50039 1.50397 2.62108C1.51823 2.79209 1.58528 2.92849 1.66158 3.08052C1.68552 3.12854 1.70947 3.17656 1.73414 3.22603C1.76035 3.27795 1.78658 3.32985 1.81281 3.38176C1.83964 3.43529 1.86645 3.48883 1.89324 3.54238C1.94928 3.65427 2.0055 3.76608 2.06185 3.87783C2.13419 4.02129 2.20623 4.1649 2.27816 4.30857C2.33344 4.41897 2.38883 4.52932 2.44425 4.63965C2.47086 4.69261 2.49745 4.74559 2.52402 4.79857C2.56106 4.87236 2.59824 4.94609 2.63542 5.01982C2.65657 5.06182 2.67772 5.10382 2.69951 5.1471C2.74213 5.23842 2.74213 5.23842 2.79303 5.28514C2.88634 5.27479 2.97945 5.26272 3.07247 5.25001C3.65946 5.19007 4.19659 5.19897 4.67639 5.57698C5.0528 5.89155 5.3894 6.25101 5.72489 6.60793C5.89521 6.78749 6.06979 6.96283 6.24391 7.13868C6.57179 7.47107 6.89578 7.807 7.21846 8.14442C7.58651 8.5289 7.9588 8.90915 8.33148 9.28913C9.09685 10.0697 9.85685 10.8553 10.6133 11.6445C10.6614 11.6036 10.7094 11.5626 10.7574 11.5216C10.7842 11.4988 10.8109 11.476 10.8384 11.4525C10.9305 11.3724 11.0173 11.2883 11.1033 11.2017C11.1353 11.1696 11.1673 11.1375 11.2002 11.1044C11.2325 11.0717 11.2649 11.039 11.2982 11.0054C11.3484 10.9548 11.3484 10.9548 11.3996 10.9033C11.4814 10.821 11.563 10.7387 11.6446 10.6562C11.48 10.4595 11.3097 10.2722 11.1277 10.0915C11.1029 10.0667 11.0782 10.042 11.0527 10.0165C10.9705 9.93435 10.8883 9.8524 10.806 9.77046C10.7467 9.71129 10.6875 9.65212 10.6283 9.59294C10.5012 9.46597 10.374 9.33906 10.2468 9.21221C10.0457 9.01175 9.84485 8.81112 9.644 8.61048C9.21797 8.18493 8.79177 7.75956 8.36554 7.33421C7.90464 6.87426 7.44377 6.41428 6.98311 5.95408C6.78328 5.75447 6.58335 5.55496 6.38334 5.35552C6.25928 5.23179 6.13531 5.10797 6.01137 4.98412C5.95371 4.92654 5.89601 4.86899 5.83827 4.81149C5.75974 4.73326 5.68133 4.65491 5.60296 4.57652C5.57986 4.55356 5.55675 4.53061 5.53295 4.50697C5.33755 4.31102 5.32074 4.19554 5.31459 3.92592C5.3137 3.89361 5.31281 3.86131 5.31189 3.82802C5.30907 3.7247 5.30654 3.62138 5.30402 3.51805C5.30216 3.44806 5.30029 3.37807 5.29839 3.30807C5.29379 3.13637 5.28944 2.96467 5.28522 2.79295C4.7531 2.51055 4.21855 2.23358 3.67997 1.96369C3.56402 1.9055 3.44826 1.84694 3.33249 1.78839C3.25831 1.75116 3.18413 1.71396 3.10993 1.67677C3.07556 1.65932 3.04119 1.64187 3.00578 1.62389C2.97401 1.60808 2.94225 1.59226 2.90952 1.57596C2.88173 1.56199 2.85395 1.54802 2.82532 1.53362C2.60611 1.44702 2.50676 1.5975 2.36267 1.74072ZM13.1481 10.0813C13.1106 10.1187 13.073 10.156 13.0343 10.1945C12.932 10.2963 12.83 10.3985 12.7281 10.5008C12.6211 10.6081 12.5138 10.7151 12.4065 10.8221C12.2266 11.0018 12.0469 11.1818 11.8674 11.362C11.6601 11.5699 11.4524 11.7774 11.2444 11.9847C11.0655 12.163 10.8868 12.3416 10.7083 12.5204C10.6019 12.6271 10.4954 12.7336 10.3887 12.8399C10.2697 12.9584 10.1513 13.0775 10.0329 13.1966C9.98005 13.249 9.98005 13.249 9.92614 13.3025C9.65685 13.5743 9.65685 13.5743 9.522 13.9272C9.52485 14.1546 9.56174 14.3326 9.73097 14.4996C9.89622 14.641 9.99842 14.7025 10.2132 14.7087C10.2488 14.7103 10.2844 14.7119 10.3211 14.7136C10.6627 14.6617 10.8934 14.3907 11.1254 14.157C11.1625 14.12 11.1997 14.0831 11.2379 14.0451C11.3391 13.9444 11.44 13.8434 11.5407 13.7423C11.6465 13.6362 11.7526 13.5304 11.8586 13.4245C12.0366 13.2468 12.2142 13.0689 12.3917 12.8907C12.5967 12.6851 12.802 12.48 13.0076 12.2751C13.1846 12.0987 13.3613 11.9221 13.5377 11.7453C13.643 11.6399 13.7483 11.5346 13.8538 11.4294C13.9714 11.3123 14.0885 11.1946 14.2056 11.0768C14.2404 11.0422 14.2752 11.0077 14.3111 10.9721C14.5295 10.7512 14.7136 10.5534 14.7142 10.2265C14.7075 10.0236 14.6602 9.90903 14.5235 9.75389C14.3306 9.57979 14.195 9.53601 13.936 9.52075C13.6051 9.58128 13.3742 9.85358 13.1481 10.0813ZM8.78187 11.0231C8.73098 11.0745 8.68021 11.126 8.62953 11.1776C8.60186 11.2057 8.57419 11.2337 8.54568 11.2625C8.48533 11.3236 8.42503 11.3847 8.36477 11.4459C8.23673 11.5757 8.10829 11.7052 7.97988 11.8347C7.7405 12.076 7.50128 12.3175 7.26278 12.5597C7.09714 12.7279 6.93099 12.8956 6.76448 13.0629C6.70106 13.1268 6.63783 13.1909 6.57479 13.2552C6.48654 13.3453 6.39763 13.4346 6.30855 13.5238C6.28262 13.5506 6.2567 13.5773 6.22999 13.6049C6.07961 13.7539 5.97925 13.8312 5.75787 13.8359C5.64188 13.8117 5.53073 13.7841 5.41681 13.7527C4.52987 13.5348 3.60321 13.6263 2.79303 14.0508C2.75586 14.0682 2.7187 14.0857 2.68041 14.1036C1.83556 14.5218 1.18544 15.3167 0.872025 16.1988C0.541806 17.215 0.604225 18.2893 1.07428 19.25C1.33633 19.7549 1.70574 20.1833 2.1485 20.539C2.16268 20.539 2.17686 20.539 2.19147 20.539C2.19162 20.5036 2.19178 20.4681 2.19194 20.4316C2.19358 20.0953 2.19603 19.7591 2.19937 19.4229C2.20106 19.2501 2.20245 19.0773 2.20311 18.9044C2.20377 18.7373 2.20526 18.5701 2.20729 18.4029C2.20793 18.3396 2.20827 18.2762 2.20831 18.2128C2.20909 17.5338 2.37934 16.9767 2.84406 16.4678C3.35602 15.9902 3.92605 15.864 4.60108 15.8837C5.17276 15.9143 5.65402 16.162 6.0506 16.5698C6.51648 17.1184 6.58664 17.7332 6.59207 18.423C6.59288 18.488 6.59372 18.5529 6.59459 18.6179C6.59679 18.7876 6.5985 18.9574 6.6001 19.1271C6.60183 19.3008 6.60402 19.4745 6.60617 19.6482C6.61031 19.9881 6.61395 20.328 6.61725 20.668C7.37172 20.3011 7.86731 19.4979 8.16278 18.7382C8.40396 18.0156 8.42321 17.226 8.22152 16.4918C8.17033 16.303 8.15444 16.1732 8.20709 15.9844C8.27854 15.8947 8.34517 15.821 8.42748 15.743C8.46029 15.7106 8.46029 15.7106 8.49376 15.6776C8.56333 15.6093 8.6336 15.5417 8.70392 15.4741C8.75139 15.4277 8.7988 15.3813 8.84617 15.3348C8.96202 15.2213 9.07851 15.1085 9.19537 14.9961C9.15238 14.9099 9.10924 14.8238 9.06496 14.7383C9.05039 14.7099 9.03582 14.6815 9.02081 14.6523C9.00614 14.624 8.99146 14.5956 8.97633 14.5664C8.83035 14.2428 8.84081 13.8123 8.95636 13.4814C9.07485 13.2298 9.25868 13.0423 9.45319 12.8476C9.49528 12.8051 9.49528 12.8051 9.53822 12.7617C9.73789 12.56 9.9388 12.3596 10.1407 12.1601C9.92896 11.903 9.6977 11.6676 9.4619 11.4328C9.39603 11.3672 9.3304 11.3013 9.26478 11.2354C9.22303 11.1937 9.18126 11.152 9.13948 11.1103C9.10174 11.0726 9.06401 11.0349 9.02513 10.9961C8.90654 10.8827 8.90654 10.8827 8.78187 11.0231Z" fill="white"/>
</svg>
