<svg width="24" height="24" viewBox="0 0 24 24" fill="none" xmlns="http://www.w3.org/2000/svg">
<g clip-path="url(#clip0_2268_5472)">
<path d="M11.0005 1.98888C11.0494 1.98838 11.0983 1.98788 11.1487 1.98737C11.2016 1.98725 11.2545 1.98716 11.3074 1.98711C11.3623 1.98686 11.4171 1.98659 11.472 1.98632C11.5868 1.98585 11.7016 1.98571 11.8165 1.98575C11.9628 1.98576 12.1091 1.9847 12.2554 1.98335C12.3687 1.98248 12.482 1.98232 12.5953 1.98236C12.6492 1.98227 12.7031 1.98193 12.757 1.98132C13.0737 1.97808 13.3257 1.99331 13.6015 2.15648C13.627 2.17126 13.6525 2.18604 13.6788 2.20126C13.9502 2.36649 14.0997 2.6401 14.1875 2.93773C14.2086 3.05033 14.2234 3.16345 14.2378 3.27709C14.2421 3.30914 14.2463 3.3412 14.2506 3.37424C14.2595 3.44172 14.2682 3.50922 14.2768 3.57673C14.29 3.67963 14.3036 3.78246 14.3172 3.8853C14.3258 3.95111 14.3343 4.01693 14.3428 4.08275C14.3468 4.11327 14.3509 4.1438 14.355 4.17525C14.3755 4.33688 14.3871 4.49313 14.3828 4.65648C14.4066 4.66177 14.4303 4.66705 14.4548 4.6725C14.7258 4.73904 14.9698 4.83739 15.2198 4.95922C15.3299 5.01069 15.4183 5.0473 15.5408 5.04604C15.6621 4.99595 15.7421 4.92669 15.8403 4.83959C16.0308 4.67445 16.2267 4.51922 16.4287 4.36839C16.4547 4.34889 16.4807 4.32939 16.5075 4.30929C16.8771 4.03403 17.2243 3.81486 17.7031 3.87523C18.1386 3.96643 18.387 4.19505 18.6958 4.50191C18.7307 4.5364 18.7655 4.5709 18.8014 4.60643C18.8749 4.67932 18.9482 4.75229 19.0215 4.8254C19.1147 4.91842 19.2085 5.01078 19.3025 5.103C19.3929 5.19191 19.4826 5.28153 19.5723 5.37105C19.6058 5.40378 19.6393 5.4365 19.6738 5.47022C19.9078 5.706 20.091 5.95716 20.125 6.2971C20.1287 6.33344 20.1287 6.33344 20.1325 6.3705C20.159 6.84914 19.9334 7.19535 19.6395 7.55016C19.5185 7.69819 19.4023 7.85009 19.2851 8.00121C19.2613 8.03178 19.2374 8.06235 19.2128 8.09385C19.1903 8.12259 19.1679 8.15134 19.1448 8.18095C19.1147 8.21937 19.1147 8.21937 19.0841 8.25856C18.9796 8.38359 18.9796 8.38359 18.9627 8.53784C18.993 8.6438 19.0299 8.74235 19.0729 8.8438C19.0886 8.88141 19.1044 8.91903 19.1206 8.95778C19.1539 9.03652 19.1873 9.11526 19.2207 9.19399C19.2442 9.25026 19.2442 9.25026 19.2682 9.30766C19.2827 9.34181 19.2972 9.37596 19.3121 9.41114C19.3437 9.50023 19.3437 9.50023 19.3437 9.61742C19.3763 9.61942 19.4088 9.62141 19.4423 9.62347C19.793 9.64656 20.1402 9.68228 20.4888 9.72728C20.5392 9.73325 20.5897 9.73921 20.6417 9.74536C21.0572 9.79907 21.4795 9.90548 21.7537 10.2467C21.9223 10.4894 22.0093 10.7014 22.0113 11.0008C22.0121 11.0741 22.0121 11.0741 22.0128 11.1489C22.013 11.2018 22.0131 11.2547 22.0131 11.3076C22.0134 11.3625 22.0136 11.4174 22.0139 11.4723C22.0144 11.5871 22.0145 11.7019 22.0145 11.8167C22.0145 11.963 22.0155 12.1093 22.0169 12.2556C22.0177 12.3689 22.0179 12.4822 22.0179 12.5955C22.0179 12.6494 22.0183 12.7033 22.0189 12.7572C22.0221 13.0739 22.0069 13.3259 21.8437 13.6018C21.829 13.6273 21.8142 13.6528 21.799 13.679C21.6589 13.9089 21.4457 14.0638 21.1894 14.1427C20.8703 14.2151 20.552 14.2639 20.2274 14.3024C20.1435 14.3124 20.0596 14.3228 19.9758 14.3332C19.5327 14.3875 19.5327 14.3875 19.3437 14.383C19.3384 14.4068 19.3332 14.4306 19.3277 14.4551C19.2612 14.726 19.1628 14.97 19.041 15.2201C18.9895 15.3301 18.9529 15.4185 18.9542 15.541C19.0043 15.6623 19.0735 15.7423 19.1606 15.8406C19.3244 16.0297 19.4792 16.2239 19.6294 16.4241C19.6581 16.4621 19.6581 16.4621 19.6875 16.5009C19.9724 16.8822 20.1764 17.2114 20.125 17.7034C20.0416 18.1541 19.7537 18.4385 19.4396 18.7548C19.4079 18.7869 19.3762 18.8189 19.3435 18.8519C19.2768 18.9192 19.21 18.9864 19.143 19.0535C19.0414 19.1556 18.9405 19.2584 18.8396 19.3613C18.7743 19.4269 18.709 19.4925 18.6437 19.5581C18.6139 19.5885 18.5842 19.619 18.5536 19.6504C18.2542 19.9474 17.9472 20.1187 17.5209 20.1316C16.9865 20.1054 16.6604 19.8199 16.264 19.4914C16.1413 19.3905 16.0154 19.2939 15.8891 19.1975C15.8497 19.1671 15.8103 19.1367 15.7697 19.1053C15.6311 18.9863 15.6311 18.9863 15.4611 18.9636C15.3628 18.9915 15.2707 19.024 15.1763 19.0632C15.1425 19.077 15.1088 19.0908 15.074 19.105C15.0393 19.1194 15.0045 19.1338 14.9687 19.1487C14.8996 19.1773 14.8305 19.2058 14.7612 19.2341C14.7308 19.2468 14.7003 19.2594 14.6689 19.2724C14.5742 19.3063 14.4818 19.3266 14.3828 19.344C14.3798 19.3928 14.3798 19.3928 14.3767 19.4426C14.3537 19.7932 14.3179 20.1405 14.2729 20.489C14.267 20.5395 14.261 20.59 14.2549 20.642C14.2184 20.9241 14.1677 21.1637 14.0312 21.4143C14.0103 21.4546 13.9893 21.4949 13.9678 21.5364C13.7782 21.7659 13.5352 21.9188 13.25 22.0002C13.1293 22.0107 13.1293 22.0107 12.9995 22.0116C12.9261 22.0123 12.9261 22.0123 12.8513 22.0131C12.7984 22.0132 12.7455 22.0133 12.6926 22.0134C12.6377 22.0136 12.5828 22.0139 12.528 22.0141C12.4131 22.0146 12.2983 22.0148 12.1835 22.0147C12.0372 22.0147 11.8909 22.0158 11.7446 22.0171C11.6313 22.018 11.518 22.0181 11.4047 22.0181C11.3508 22.0182 11.2969 22.0185 11.243 22.0191C10.9263 22.0224 10.6743 22.0071 10.3984 21.844C10.3729 21.8292 10.3475 21.8144 10.3212 21.7992C10.0497 21.634 9.90032 21.3604 9.81249 21.0627C9.79136 20.9501 9.77654 20.837 9.76213 20.7234C9.75791 20.6913 9.75368 20.6593 9.74933 20.6262C9.74049 20.5587 9.73176 20.4912 9.72315 20.4237C9.70998 20.3208 9.69641 20.218 9.68279 20.1152C9.67422 20.0493 9.66567 19.9835 9.65715 19.9177C9.65312 19.8872 9.6491 19.8567 9.64495 19.8252C9.62452 19.6636 9.61292 19.5073 9.61717 19.344C9.59341 19.3387 9.56964 19.3334 9.54515 19.328C9.2742 19.2614 9.03018 19.1631 8.78015 19.0412C8.67011 18.9898 8.58167 18.9532 8.45918 18.9544C8.3379 19.0045 8.25788 19.0738 8.15965 19.1609C7.96919 19.326 7.77327 19.4812 7.57128 19.6321C7.54528 19.6516 7.51928 19.6711 7.49249 19.6912C7.12066 19.9681 6.77581 20.1708 6.29686 20.1252C5.8407 20.0374 5.55648 19.7488 5.23546 19.4299C5.18596 19.3809 5.18596 19.3809 5.13545 19.3309C5.06615 19.2622 4.99696 19.1934 4.92786 19.1244C4.82249 19.0195 4.71642 18.9154 4.61031 18.8112C4.54277 18.744 4.47527 18.6768 4.40782 18.6096C4.37629 18.5788 4.34475 18.548 4.31226 18.5163C4.03293 18.2347 3.898 17.9611 3.86278 17.5666C3.8802 17.0154 4.17209 16.6706 4.5088 16.2643C4.60967 16.1415 4.70633 16.0157 4.80272 15.8894C4.83313 15.85 4.86355 15.8105 4.89488 15.7699C5.01389 15.6313 5.01389 15.6313 5.03664 15.4614C5.00876 15.363 4.97617 15.2709 4.937 15.1765C4.9232 15.1428 4.9094 15.109 4.89519 15.0743C4.88079 15.0395 4.86639 15.0048 4.85155 14.969C4.8229 14.8999 4.79442 14.8307 4.7661 14.7615C4.75346 14.731 4.74082 14.7005 4.7278 14.6691C4.69389 14.5744 4.67358 14.482 4.65624 14.383C4.61196 14.38 4.61196 14.38 4.56678 14.377C4.24747 14.3541 3.92971 14.3224 3.61206 14.2829C3.55923 14.2764 3.50637 14.2701 3.45348 14.2641C3.00567 14.2132 2.54386 14.1241 2.24626 13.7538C2.07766 13.511 1.99072 13.299 1.98864 12.9997C1.98814 12.9508 1.98764 12.9019 1.98713 12.8515C1.98701 12.7986 1.98692 12.7457 1.98686 12.6928C1.98661 12.638 1.98635 12.5831 1.98608 12.5282C1.98561 12.4134 1.98546 12.2986 1.98551 12.1837C1.98552 12.0374 1.98445 11.8911 1.98311 11.7448C1.98223 11.6315 1.98208 11.5182 1.98212 11.4049C1.98203 11.351 1.98169 11.2971 1.98108 11.2432C1.97784 10.9265 1.99307 10.6745 2.15624 10.3987C2.17101 10.3732 2.18579 10.3477 2.20102 10.3214C2.36613 10.0502 2.63989 9.90015 2.93749 9.81273C3.05339 9.79148 3.16983 9.77674 3.28676 9.76238C3.33629 9.75604 3.33629 9.75604 3.38682 9.74957C3.4563 9.74073 3.52581 9.73201 3.59532 9.72339C3.70147 9.71021 3.80757 9.69665 3.91367 9.68303C3.98139 9.67446 4.04911 9.66592 4.11684 9.6574C4.16421 9.65135 4.16421 9.65135 4.21253 9.64519C4.36145 9.62687 4.50583 9.61248 4.65624 9.61742C4.66152 9.59365 4.66681 9.56988 4.67226 9.5454C4.7388 9.27444 4.83715 9.03042 4.95898 8.7804C5.01044 8.67036 5.04706 8.58191 5.04579 8.45943C4.99571 8.33814 4.92645 8.25812 4.83934 8.1599C4.6742 7.96944 4.51897 7.77351 4.36815 7.57152C4.34865 7.54552 4.32914 7.51952 4.30905 7.49274C4.03318 7.12234 3.81597 6.7766 3.87499 6.2971C3.96031 5.84135 4.25248 5.5557 4.57033 5.2357C4.60298 5.2027 4.63563 5.1697 4.66926 5.1357C4.738 5.0664 4.80685 4.9972 4.8758 4.92811C4.9807 4.82274 5.08485 4.71666 5.189 4.61055C5.25617 4.54301 5.32338 4.47552 5.39064 4.40807C5.4368 4.36076 5.4368 4.36076 5.48389 4.3125C5.71398 4.08425 5.96575 3.90834 6.29686 3.87523C6.32108 3.87276 6.3453 3.8703 6.37026 3.86775C6.84889 3.84121 7.1951 4.06685 7.54991 4.36073C7.69795 4.48176 7.84985 4.59793 8.00096 4.71507C8.04682 4.7509 8.04682 4.7509 8.0936 4.78746C8.12235 4.8099 8.15109 4.83234 8.18071 4.85545C8.20632 4.87547 8.23193 4.89549 8.25832 4.91611C8.38386 5.02107 8.38386 5.02107 8.53884 5.03688C8.63721 5.00901 8.7293 4.97641 8.82372 4.93724C8.85745 4.92344 8.89119 4.90965 8.92595 4.89543C8.96069 4.88103 8.99544 4.86663 9.03124 4.85179C9.10034 4.82315 9.16951 4.79466 9.23876 4.76634C9.26922 4.7537 9.29968 4.74107 9.33107 4.72804C9.42579 4.69413 9.51819 4.67382 9.61717 4.65648C9.61917 4.62696 9.62117 4.59744 9.62323 4.56703C9.64617 4.24771 9.67778 3.92995 9.71736 3.6123C9.72384 3.55947 9.73008 3.50661 9.73609 3.45372C9.787 3.00591 9.87616 2.54411 10.2464 2.24651C10.4892 2.0779 10.7012 1.99096 11.0005 1.98888ZM10.7109 3.05492C10.6676 3.17062 10.6485 3.28425 10.6328 3.40648C10.6286 3.43532 10.6243 3.46415 10.62 3.49386C10.6075 3.58303 10.5969 3.67227 10.5866 3.7617C10.5785 3.82839 10.5703 3.89507 10.5622 3.96175C10.5498 4.06509 10.5376 4.16844 10.5255 4.27182C10.5136 4.37282 10.5013 4.47376 10.4889 4.57469C10.4855 4.6051 10.4821 4.6355 10.4785 4.66683C10.4117 5.20437 10.4117 5.20437 10.2444 5.34553C10.2163 5.35481 10.1882 5.36408 10.1593 5.37364C10.1282 5.3848 10.097 5.39595 10.0649 5.40744C10.0173 5.42243 10.0173 5.42243 9.96874 5.43773C9.91046 5.45899 9.85222 5.48035 9.79402 5.50182C9.73427 5.5228 9.67451 5.54376 9.61473 5.56468C9.33497 5.6641 9.07176 5.77942 8.81356 5.92643C8.62518 6.02875 8.49801 6.04366 8.28905 6.02367C8.20223 5.98888 8.20223 5.98888 8.13036 5.93578C8.1011 5.91443 8.07185 5.89308 8.0417 5.87108C7.86097 5.72925 7.68107 5.58649 7.50246 5.442C7.36151 5.32817 7.21916 5.21631 7.07567 5.1057C7.03654 5.07549 6.99742 5.04527 6.95711 5.01415C6.73561 4.84203 6.73561 4.84203 6.47752 4.74681C6.32911 4.77496 6.29638 4.79658 6.1892 4.89401C6.14815 4.93126 6.14815 4.93126 6.10627 4.96927C5.97844 5.08937 5.85321 5.21173 5.72939 5.33595C5.70304 5.36226 5.6767 5.38857 5.64956 5.41567C5.59453 5.47067 5.53956 5.52572 5.48463 5.58081C5.40027 5.66538 5.3157 5.74974 5.23111 5.83408C5.17746 5.88775 5.12383 5.94143 5.07021 5.99513C5.0449 6.02036 5.01959 6.04559 4.99352 6.07158C4.97029 6.09493 4.94706 6.11829 4.92312 6.14235C4.90264 6.16287 4.88216 6.18338 4.86105 6.20452C4.7737 6.30079 4.74999 6.39602 4.75343 6.52568C4.79501 6.70025 4.92081 6.83258 5.0309 6.97028C5.09334 7.04859 5.15474 7.12766 5.21608 7.20683C5.31009 7.32812 5.40436 7.44921 5.49883 7.57015C6.03921 8.26336 6.03921 8.26336 6.03563 8.51173C6.01243 8.6829 5.92714 8.82647 5.84764 8.97777C5.67834 9.31276 5.54284 9.64958 5.42879 10.0072C5.41731 10.0414 5.40583 10.0756 5.394 10.1109C5.38442 10.1411 5.37483 10.1712 5.36496 10.2023C5.30191 10.3141 5.24175 10.3457 5.12499 10.3987C5.01836 10.4205 4.91662 10.4373 4.80898 10.4501C4.77847 10.4541 4.74796 10.4581 4.71653 10.4622C4.61917 10.4748 4.52174 10.4868 4.4243 10.4988C4.36018 10.5069 4.29607 10.5152 4.23197 10.5234C4.10684 10.5395 3.98171 10.5555 3.85657 10.5715C3.82692 10.5753 3.79726 10.5791 3.76671 10.583C3.70989 10.5902 3.65306 10.5972 3.59621 10.6041C3.52043 10.6134 3.44472 10.6231 3.369 10.6329C3.32669 10.6381 3.28438 10.6434 3.24079 10.6488C3.07948 10.6836 3.00604 10.7444 2.89842 10.8674C2.84937 10.9655 2.85333 11.0345 2.85183 11.1443C2.8512 11.1858 2.85057 11.2273 2.84993 11.27C2.84819 11.4599 2.84658 11.6498 2.84569 11.8398C2.84504 11.94 2.84397 12.0401 2.84248 12.1403C2.84034 12.2847 2.83949 12.429 2.83891 12.5733C2.83803 12.618 2.83714 12.6627 2.83623 12.7088C2.83372 12.9671 2.83372 12.9671 2.93632 13.1973C3.09004 13.3168 3.21617 13.3429 3.40624 13.3674C3.43507 13.3717 3.46391 13.3759 3.49362 13.3803C3.58279 13.3927 3.67203 13.4034 3.76146 13.4137C3.82814 13.4218 3.89482 13.4299 3.9615 13.438C4.06485 13.4504 4.1682 13.4627 4.27158 13.4747C4.37258 13.4866 4.47351 13.4989 4.57445 13.5113C4.60485 13.5147 4.63526 13.5182 4.66659 13.5217C4.87463 13.5476 5.09473 13.5799 5.28124 13.6799C5.35755 13.7907 5.39662 13.9039 5.43749 14.0315C5.46195 14.0964 5.48662 14.1613 5.51149 14.226C5.5365 14.2938 5.56147 14.3616 5.58641 14.4294C5.67962 14.6807 5.77959 14.9208 5.90624 15.157C6.01083 15.3592 6.06777 15.4854 6.02342 15.7112C5.90314 15.9091 5.7587 16.0884 5.61571 16.2702C5.56716 16.3323 5.51864 16.3944 5.47014 16.4566C5.44545 16.4882 5.42077 16.5198 5.39533 16.5523C5.2744 16.7076 5.15438 16.8636 5.03465 17.0198C5.00203 17.0622 5.00203 17.0622 4.96875 17.1054C4.94875 17.1315 4.92876 17.1576 4.90816 17.1846C4.89057 17.2075 4.87298 17.2304 4.85486 17.2541C4.75486 17.3925 4.75157 17.495 4.77342 17.6643C4.82468 17.7399 4.82468 17.7399 4.89331 17.8116C4.93066 17.8525 4.93066 17.8525 4.96877 17.8943C5.08932 18.0216 5.21151 18.147 5.33571 18.2708C5.37517 18.3103 5.37517 18.3103 5.41542 18.3507C5.47042 18.4057 5.52547 18.4607 5.58057 18.5156C5.66514 18.5999 5.74949 18.6845 5.83383 18.7691C5.88751 18.8228 5.94119 18.8764 5.99489 18.93C6.02012 18.9553 6.04534 18.9806 6.07133 19.0067C6.09469 19.0299 6.11804 19.0532 6.14211 19.0771C6.17288 19.1078 6.17288 19.1078 6.20427 19.1392C6.30037 19.2264 6.39543 19.2499 6.52483 19.2472C6.72437 19.199 6.88231 19.0401 7.03905 18.9143C7.08142 18.8809 7.12384 18.8476 7.16631 18.8143C7.23373 18.7615 7.30111 18.7086 7.3683 18.6554C7.55282 18.5096 7.73968 18.3671 7.92772 18.2258C7.96826 18.1953 7.96826 18.1953 8.00961 18.1641C8.21502 18.0104 8.34174 17.9416 8.60155 17.9768C8.73296 18.0239 8.85409 18.0877 8.97753 18.1526C9.31252 18.3219 9.64934 18.4574 10.007 18.5714C10.0412 18.5829 10.0754 18.5944 10.1106 18.6062C10.1408 18.6158 10.171 18.6254 10.2021 18.6353C10.3138 18.6983 10.3455 18.7585 10.3984 18.8752C10.4203 18.9819 10.4371 19.0836 10.4498 19.1912C10.4558 19.237 10.4558 19.237 10.4619 19.2837C10.4745 19.381 10.4865 19.4785 10.4985 19.5759C10.5067 19.64 10.5149 19.7041 10.5232 19.7682C10.5392 19.8934 10.5553 20.0185 10.5712 20.1436C10.575 20.1733 10.5788 20.203 10.5827 20.2335C10.5899 20.2903 10.597 20.3472 10.6039 20.404C10.6131 20.4798 10.6229 20.5555 10.6326 20.6312C10.6379 20.6735 10.6432 20.7158 10.6486 20.7594C10.6834 20.9207 10.7442 20.9942 10.8672 21.1018C10.9653 21.1508 11.0343 21.1469 11.1441 21.1484C11.1856 21.149 11.227 21.1496 11.2697 21.1503C11.4597 21.152 11.6496 21.1536 11.8395 21.1545C11.9397 21.1552 12.0399 21.1562 12.1401 21.1577C12.2844 21.1599 12.4287 21.1607 12.5731 21.1613C12.6401 21.1626 12.6401 21.1626 12.7085 21.164C12.9669 21.1665 12.9669 21.1665 13.1971 21.0639C13.3165 20.9102 13.3427 20.784 13.3672 20.594C13.3714 20.5651 13.3757 20.5363 13.38 20.5066C13.3924 20.4174 13.4031 20.3282 13.4134 20.2388C13.4215 20.1721 13.4296 20.1054 13.4377 20.0387C13.4501 19.9354 13.4624 19.832 13.4745 19.7286C13.4864 19.6276 13.4987 19.5267 13.5111 19.4258C13.5145 19.3954 13.5179 19.365 13.5214 19.3336C13.5473 19.1256 13.5797 18.9055 13.6797 18.719C13.7905 18.6427 13.9036 18.6036 14.0312 18.5627C14.0962 18.5383 14.161 18.5136 14.2258 18.4887C14.2936 18.4637 14.3614 18.4387 14.4292 18.4138C14.6804 18.3206 14.9206 18.2206 15.1567 18.094C15.359 17.9894 15.4851 17.9324 15.7109 17.9768C15.9088 18.0971 16.0882 18.2415 16.27 18.3845C16.3321 18.4331 16.3942 18.4816 16.4563 18.5301C16.4879 18.5548 16.5195 18.5794 16.5521 18.6049C16.7074 18.7258 16.8633 18.8458 17.0195 18.9656C17.0478 18.9873 17.076 19.0091 17.1052 19.0315C17.1313 19.0515 17.1574 19.0715 17.1843 19.0921C17.2072 19.1096 17.2302 19.1272 17.2538 19.1454C17.3923 19.2454 17.4947 19.2486 17.664 19.2268C17.7396 19.1755 17.7396 19.1755 17.8114 19.1069C17.8387 19.082 17.8659 19.0571 17.894 19.0314C18.0214 18.9109 18.1468 18.7887 18.2706 18.6645C18.2969 18.6382 18.3233 18.6119 18.3504 18.5848C18.4054 18.5298 18.4604 18.4747 18.5153 18.4196C18.5997 18.3351 18.6843 18.2507 18.7689 18.1664C18.8225 18.1127 18.8761 18.059 18.9298 18.0053C18.9677 17.9675 18.9677 17.9675 19.0064 17.9289C19.0297 17.9055 19.0529 17.8822 19.0768 17.8581C19.0973 17.8376 19.1178 17.8171 19.1389 17.7959C19.2261 17.6998 19.2497 17.6048 19.247 17.4754C19.1987 17.2758 19.0398 17.118 18.914 16.9612C18.8798 16.9174 18.8455 16.8736 18.8114 16.8298C18.7394 16.7376 18.6671 16.6457 18.5945 16.5539C18.4855 16.4159 18.3772 16.2774 18.2695 16.1384C18.223 16.0785 18.223 16.0785 18.1755 16.0174C18.1485 15.9808 18.1215 15.9442 18.0937 15.9065C18.0708 15.8759 18.0478 15.8454 18.0242 15.8139C17.9437 15.6403 17.9443 15.4873 18.0086 15.3106C18.0538 15.213 18.1023 15.1179 18.1523 15.0227C18.3216 14.6877 18.4571 14.3509 18.5712 13.9932C18.5827 13.959 18.5941 13.9248 18.606 13.8896C18.6156 13.8594 18.6251 13.8292 18.635 13.7982C18.7003 13.6824 18.7515 13.6548 18.875 13.6018C19.0229 13.5714 19.1717 13.5545 19.3216 13.5374C19.4107 13.5262 19.4998 13.515 19.5889 13.5038C19.7289 13.4867 19.869 13.4699 20.0091 13.4535C20.1446 13.4374 20.28 13.4203 20.4154 13.4031C20.4571 13.3985 20.4989 13.3939 20.5419 13.3892C20.789 13.3572 20.9296 13.3171 21.1015 13.133C21.1506 13.0349 21.1466 12.9659 21.1481 12.8561C21.1488 12.8147 21.1494 12.7732 21.15 12.7305C21.1518 12.5405 21.1534 12.3506 21.1543 12.1607C21.1549 12.0605 21.156 11.9603 21.1575 11.8602C21.1596 11.7158 21.1605 11.5715 21.1611 11.4271C21.1624 11.3601 21.1624 11.3601 21.1637 11.2917C21.1663 11.0334 21.1663 11.0334 21.0636 10.8031C20.9099 10.6837 20.7838 10.6575 20.5937 10.633C20.5649 10.6288 20.5361 10.6246 20.5063 10.6202C20.4172 10.6078 20.3279 10.5971 20.2385 10.5868C20.1718 10.5787 20.1051 10.5706 20.0385 10.5625C19.9351 10.5501 19.8318 10.5378 19.7284 10.5257C19.6274 10.5139 19.5265 10.5015 19.4255 10.4892C19.3951 10.4857 19.3647 10.4823 19.3334 10.4788C19.1253 10.4529 18.9052 10.4205 18.7187 10.3205C18.6424 10.2097 18.6034 10.0966 18.5625 9.96898C18.538 9.90405 18.5134 9.8392 18.4885 9.77443C18.4635 9.70664 18.4385 9.63884 18.4136 9.57103C18.3203 9.3198 18.2204 9.07964 18.0937 8.84349C17.9891 8.64125 17.9322 8.51507 17.9765 8.28929C18.0968 8.0914 18.2413 7.91204 18.3843 7.73021C18.4328 7.66812 18.4813 7.60602 18.5298 7.5439C18.5669 7.4965 18.5669 7.4965 18.6046 7.44813C18.7256 7.29286 18.8456 7.1369 18.9653 6.9807C18.9871 6.95243 19.0088 6.92417 19.0312 6.89505C19.0512 6.86893 19.0712 6.84281 19.0918 6.8159C19.1094 6.79297 19.127 6.77003 19.1451 6.7464C19.2451 6.60794 19.2484 6.5055 19.2265 6.33617C19.1753 6.26057 19.1753 6.26057 19.1067 6.18883C19.0693 6.14791 19.0693 6.14791 19.0312 6.10617C18.9107 5.97882 18.7885 5.85343 18.6643 5.72963C18.638 5.70329 18.6117 5.67694 18.5845 5.6498C18.5295 5.59478 18.4745 5.5398 18.4194 5.48487C18.3348 5.40051 18.2505 5.31594 18.1661 5.23135C18.1125 5.17771 18.0588 5.12407 18.0051 5.07045C17.9799 5.04515 17.9546 5.01984 17.9286 4.99377C17.9053 4.97053 17.8819 4.9473 17.8579 4.92337C17.8373 4.90288 17.8168 4.8824 17.7957 4.8613C17.6996 4.77411 17.6045 4.75056 17.4751 4.75322C17.2756 4.80149 17.1177 4.96034 16.9609 5.08617C16.9185 5.11954 16.8761 5.15285 16.8337 5.18611C16.7662 5.23898 16.6989 5.2919 16.6317 5.34506C16.4472 5.49088 16.2603 5.6334 16.0723 5.77464C16.0452 5.795 16.0182 5.81536 15.9904 5.83633C15.785 5.99008 15.6582 6.05888 15.3984 6.02367C15.267 5.97656 15.1459 5.91275 15.0224 5.84789C14.6875 5.67858 14.3506 5.54309 13.993 5.42903C13.9588 5.41755 13.9246 5.40607 13.8893 5.39424C13.8592 5.38466 13.829 5.37508 13.7979 5.3652C13.6861 5.30216 13.6545 5.24199 13.6015 5.12523C13.5797 5.0186 13.5629 4.91687 13.5501 4.80922C13.5461 4.77871 13.5422 4.74821 13.5381 4.71678C13.5254 4.61941 13.5134 4.52199 13.5015 4.42455C13.4933 4.36043 13.4851 4.29632 13.4768 4.23221C13.4607 4.10708 13.4447 3.98195 13.4287 3.85681C13.4249 3.82716 13.4211 3.79751 13.4172 3.76696C13.4101 3.71014 13.403 3.6533 13.3961 3.59646C13.3868 3.52068 13.3771 3.44496 13.3673 3.36925C13.3621 3.32694 13.3568 3.28463 13.3514 3.24104C13.3166 3.07973 13.2558 3.00628 13.1328 2.89867C13.0347 2.84962 12.9657 2.85358 12.8559 2.85207C12.8144 2.85144 12.773 2.85082 12.7302 2.85017C12.5403 2.84843 12.3504 2.84683 12.1604 2.84593C12.0603 2.84528 11.9601 2.84422 11.8599 2.84272C11.7156 2.84059 11.5712 2.83973 11.4269 2.83916C11.3822 2.83827 11.3375 2.83739 11.2915 2.83647C11.0303 2.83717 10.8763 2.84207 10.7109 3.05492Z" fill="white"/>
<path d="M14.7161 8.78997C15.4206 9.41293 15.8657 10.1578 16.1015 11.0626C16.1159 11.1173 16.1159 11.1173 16.1306 11.1731C16.3584 12.2475 16.1078 13.3961 15.5164 14.308C14.8779 15.2288 14.014 15.8212 12.9374 16.1017C12.8827 16.1161 12.8827 16.1161 12.8269 16.1308C11.7524 16.3586 10.6051 16.0994 9.68618 15.5222C9.5068 15.4041 9.34548 15.27 9.18739 15.1251C9.15129 15.0922 9.11518 15.0593 9.07798 15.0253C8.47715 14.4519 8.10593 13.7344 7.89833 12.9376C7.88871 12.9012 7.87909 12.8647 7.86918 12.8271C7.64142 11.7527 7.89202 10.6041 8.48335 9.69222C9.12185 8.77144 9.98579 8.17906 11.0624 7.89855C11.0988 7.88893 11.1353 7.87932 11.1729 7.86941C12.4252 7.60393 13.7447 7.98074 14.7161 8.78997ZM9.77333 9.53918C9.74357 9.56521 9.71381 9.59124 9.68315 9.61806C9.1256 10.1389 8.71284 10.9615 8.67958 11.7267C8.67756 11.7658 8.67555 11.8048 8.67347 11.8451C8.64949 12.7323 8.95183 13.5592 9.53895 14.2267C9.578 14.2713 9.578 14.2713 9.61784 14.3169C10.1387 14.8744 10.9613 15.2872 11.7265 15.3204C11.7655 15.3224 11.8046 15.3245 11.8449 15.3265C12.7321 15.3505 13.559 15.0482 14.2265 14.4611C14.2562 14.435 14.286 14.409 14.3166 14.3822C14.8742 13.8613 15.2869 13.0387 15.3202 12.2736C15.3222 12.2345 15.3242 12.1954 15.3263 12.1551C15.3503 11.2679 15.0479 10.441 14.4608 9.77355C14.4348 9.74379 14.4088 9.71403 14.3819 9.68337C13.8611 9.12583 13.0385 8.71307 12.2733 8.6798C12.2343 8.67779 12.1952 8.67577 12.1549 8.6737C11.2677 8.64972 10.4408 8.95206 9.77333 9.53918Z" fill="white"/>
</g>
<defs>
<clipPath id="clip0_2268_5472">
<rect width="20" height="20" fill="white" transform="translate(2 2)"/>
</clipPath>
</defs>
</svg>
