<svg width="16" height="16" viewBox="0 0 16 16" fill="none" xmlns="http://www.w3.org/2000/svg">
<path d="M3.86816 13.9799C3.89073 13.9704 3.91769 13.9715 3.92808 13.9825C3.93847 13.9935 3.92 14.0013 3.88705 13.9998C3.85063 13.9982 3.84322 13.9904 3.86816 13.9799ZM4.087 13.9799C4.10957 13.9704 4.13653 13.9715 4.14692 13.9825C4.15731 13.9935 4.13884 14.0013 4.10589 13.9998C4.06947 13.9982 4.06206 13.9904 4.087 13.9799ZM11.2148 13.9799C11.2374 13.9704 11.2643 13.9715 11.2747 13.9825C11.2851 13.9935 11.2666 14.0013 11.2337 13.9998C11.1973 13.9982 11.1899 13.9904 11.2148 13.9799ZM11.4336 13.9799C11.4562 13.9704 11.4832 13.9715 11.4936 13.9825C11.5039 13.9935 11.4855 14.0013 11.4525 13.9998C11.4161 13.9982 11.4087 13.9904 11.4336 13.9799ZM10.06 13.384C10.0211 13.3317 10.0222 13.3305 10.0718 13.3715C10.1238 13.4146 10.1404 13.4417 10.1147 13.4417C10.1082 13.4417 10.0836 13.4157 10.06 13.384ZM11.4024 13.2542C11.4249 13.2447 11.4519 13.2459 11.4623 13.2568C11.4727 13.2678 11.4542 13.2756 11.4213 13.2742C11.3848 13.2725 11.3774 13.2648 11.4024 13.2542ZM10.0327 11.0873C10.0327 11.0805 10.0573 11.0545 10.0874 11.0296C10.137 10.9886 10.1381 10.9897 10.0992 11.0421C10.0584 11.097 10.0327 11.1145 10.0327 11.0873ZM3.86816 10.4505C3.89073 10.441 3.91769 10.4422 3.92808 10.4531C3.93847 10.4641 3.92 10.4719 3.88705 10.4705C3.85063 10.4688 3.84322 10.4611 3.86816 10.4505ZM4.087 10.4505C4.10957 10.441 4.13653 10.4422 4.14692 10.4531C4.15731 10.4641 4.13884 10.4719 4.10589 10.4705C4.06947 10.4688 4.06206 10.4611 4.087 10.4505ZM11.2148 10.4505C11.2374 10.441 11.2643 10.4422 11.2747 10.4531C11.2851 10.4641 11.2666 10.4719 11.2337 10.4705C11.1973 10.4688 11.1899 10.4611 11.2148 10.4505ZM11.4336 10.4505C11.4562 10.441 11.4832 10.4422 11.4936 10.4531C11.5039 10.4641 11.4855 10.4719 11.4525 10.4705C11.4161 10.4688 11.4087 10.4611 11.4336 10.4505ZM12.5278 4.11747C12.5504 4.10794 12.5774 4.10911 12.5877 4.12007C12.5981 4.13103 12.5797 4.13883 12.5467 4.1374C12.5103 4.13581 12.5029 4.128 12.5278 4.11747ZM9.66249 3.67822C9.66249 3.63286 9.66958 3.61431 9.67825 3.63698C9.68692 3.65966 9.68692 3.69677 9.67825 3.71945C9.66958 3.74212 9.66249 3.72357 9.66249 3.67822ZM2.55514 2.00645C2.57771 1.99692 2.60468 1.99809 2.61506 2.00905C2.62545 2.02001 2.60699 2.02781 2.57403 2.02637C2.53761 2.02479 2.53021 2.01698 2.55514 2.00645ZM8.08857 2.00645C8.11114 1.99692 8.1381 1.99809 8.14849 2.00905C8.15888 2.02001 8.14041 2.02781 8.10746 2.02637C8.07104 2.02479 8.06364 2.01698 8.08857 2.00645Z" fill="#535353"/>
<path d="M3.96003 13.981C3.98152 13.9719 4.01669 13.9719 4.03818 13.981C4.05968 13.9902 4.04209 13.9976 3.99911 13.9976C3.95612 13.9976 3.93853 13.9902 3.96003 13.981ZM11.3067 13.981C11.3282 13.9719 11.3633 13.9719 11.3848 13.981C11.4063 13.9902 11.3888 13.9976 11.3457 13.9976C11.3028 13.9976 11.2852 13.9902 11.3067 13.981ZM3.27609 12.9556C3.2372 12.9033 3.23831 12.9021 3.28789 12.9431C3.31798 12.968 3.3426 12.994 3.3426 13.0009C3.3426 13.028 3.31693 13.0105 3.27609 12.9556ZM4.65561 13.0009C4.65561 12.994 4.68023 12.968 4.71032 12.9431C4.75991 12.9021 4.76101 12.9033 4.72213 12.9556C4.68129 13.0105 4.65561 13.028 4.65561 13.0009ZM3.24881 11.5165C3.24881 11.5097 3.27343 11.4837 3.30352 11.4588C3.3531 11.4178 3.35421 11.419 3.31532 11.4713C3.27448 11.5262 3.24881 11.5437 3.24881 11.5165ZM4.68289 11.4713C4.644 11.419 4.64511 11.4178 4.69469 11.4588C4.72478 11.4837 4.7494 11.5097 4.7494 11.5165C4.7494 11.5437 4.72373 11.5262 4.68289 11.4713ZM14.3254 11.3476C14.3255 11.2387 14.3314 11.1982 14.3383 11.2575C14.3453 11.3167 14.3451 11.4058 14.338 11.4554C14.3309 11.5049 14.3252 11.4564 14.3254 11.3476ZM1.6689 10.3168L1.67006 9.76431L5.51533 9.76412L9.36059 9.76392L5.5239 9.77249L1.6872 9.78106L1.67746 10.3252L1.66772 10.8694L1.6689 10.3168ZM3.96003 10.4516C3.98152 10.4425 4.01669 10.4425 4.03818 10.4516C4.05968 10.4608 4.04209 10.4683 3.99911 10.4683C3.95612 10.4683 3.93853 10.4608 3.96003 10.4516ZM11.3067 10.4516C11.3282 10.4425 11.3633 10.4425 11.3848 10.4516C11.4063 10.4608 11.3888 10.4683 11.3457 10.4683C11.3028 10.4683 11.2852 10.4608 11.3067 10.4516ZM14.1436 10.4498L14.3157 10.4372V10.1107V9.7841L14.1436 9.7715L13.9715 9.75889L14.1514 9.76164L14.3313 9.76438V10.1107V10.457L14.1514 10.4597L13.9715 10.4625L14.1436 10.4498ZM9.67238 7.12553C9.67239 5.85562 9.67625 5.34091 9.68102 5.98173C9.68575 6.62255 9.68575 7.66157 9.68101 8.29066C9.67628 8.91975 9.67238 8.39545 9.67238 7.12553ZM1.66934 6.39987C1.66934 4.9304 1.67317 4.32444 1.67787 5.05328C1.68256 5.78213 1.68256 6.98442 1.67787 7.72505C1.67318 8.46567 1.66934 7.86934 1.66934 6.39987ZM14.3274 8.7088C14.3274 8.50925 14.3326 8.43186 14.3388 8.53684C14.345 8.64181 14.3449 8.80509 14.3387 8.89967C14.3324 8.99425 14.3273 8.90836 14.3274 8.7088ZM11.6702 6.94412C11.6702 6.73549 11.6753 6.65014 11.6815 6.75446C11.6877 6.85877 11.6877 7.02947 11.6815 7.13378C11.6753 7.2381 11.6702 7.15275 11.6702 6.94412ZM9.67036 4.095C9.66128 4.07001 9.65918 3.97724 9.66569 3.88884L9.67756 3.72811L9.68316 3.91743L9.68876 4.10676L11.1034 4.11569L12.518 4.12461L11.1024 4.13252C9.92403 4.1391 9.68411 4.13281 9.67036 4.095ZM8.68446 3.02718C8.64558 2.97487 8.64668 2.9737 8.69627 3.01473C8.74834 3.05782 8.7649 3.08491 8.73917 3.08491C8.7327 3.08491 8.70806 3.05893 8.68446 3.02718ZM3.97566 2.00467C4.72791 1.99975 5.95886 1.99975 6.71111 2.00467C7.46336 2.00958 6.84788 2.01361 5.34338 2.01361C3.83889 2.01361 3.22341 2.00959 3.97566 2.00467Z" fill="#535353"/>
<path d="M1.9315 11.5375C1.89262 11.4852 1.89372 11.484 1.94331 11.5251C1.9734 11.55 1.99802 11.5759 1.99802 11.5828C1.99802 11.6099 1.97234 11.5925 1.9315 11.5375Z" fill="#535353"/>
<path d="M13.5779 4.62695L13.5183 4.55273L13.5887 4.61557C13.6273 4.65013 13.659 4.68353 13.659 4.68979C13.659 4.71618 13.6338 4.6967 13.5779 4.62695Z" fill="#535353"/>
<path d="M12.9671 12.5749C12.9805 12.5609 13.2295 12.5535 13.5205 12.5585L14.0496 12.5677L13.4962 12.5841C13.1918 12.5931 12.9537 12.589 12.9671 12.5749ZM6.63267 12.5593C7.19578 12.5542 8.11724 12.5542 8.68035 12.5593C9.24346 12.5643 8.78273 12.5684 7.65651 12.5684C6.53028 12.5684 6.06955 12.5643 6.63267 12.5593ZM10.3187 12.2212C10.3187 12.1758 10.3258 12.1573 10.3345 12.1799C10.3432 12.2026 10.3432 12.2397 10.3345 12.2624C10.3258 12.2851 10.3187 12.2665 10.3187 12.2212ZM6.63267 11.8666C7.19578 11.8615 8.11724 11.8615 8.68035 11.8666C9.24346 11.8717 8.78273 11.8758 7.65651 11.8758C6.53028 11.8758 6.06955 11.8716 6.63267 11.8666ZM12.9602 11.8666C12.9522 11.853 13.1096 11.8457 13.3101 11.8505C13.9825 11.8664 14.0537 11.8786 13.5122 11.885C13.2166 11.8885 12.9682 11.8802 12.9602 11.8666ZM13.2797 10.8441C13.2408 10.7917 13.242 10.7906 13.2915 10.8316C13.3436 10.8747 13.3602 10.9018 13.3344 10.9018C13.328 10.9018 13.3033 10.8758 13.2797 10.8441ZM13.2525 9.40501C13.2525 9.39818 13.2771 9.37218 13.3072 9.34729C13.3568 9.30626 13.3579 9.30742 13.319 9.35974C13.2781 9.41468 13.2525 9.43216 13.2525 9.40501ZM12.5589 8.33725C12.8911 8.3319 13.4256 8.3319 13.7469 8.33727C14.0682 8.34261 13.7964 8.347 13.143 8.34699C12.4897 8.34698 12.2268 8.34262 12.5589 8.33725ZM12.51 7.64458C12.8152 7.63917 13.3146 7.63917 13.6198 7.64458C13.925 7.65 13.6753 7.6544 13.0649 7.6544C12.4545 7.6544 12.2048 7.64997 12.51 7.64458ZM12.3868 6.22626C12.6242 6.22065 13.0041 6.22066 13.2309 6.22629C13.4577 6.23192 13.2634 6.23651 12.7992 6.23649C12.3349 6.23647 12.1493 6.23187 12.3868 6.22626ZM12.3242 5.5336C12.5272 5.52785 12.8507 5.52787 13.0432 5.53363C13.2357 5.53941 13.0696 5.54412 12.6741 5.5441C12.2786 5.54407 12.1212 5.53936 12.3242 5.5336Z" fill="#535353"/>
<path d="M5.15558 13.4588C5.19596 13.4135 5.23604 13.3764 5.24463 13.3764C5.25323 13.3764 5.22722 13.4135 5.18684 13.4588C5.14646 13.5042 5.10638 13.5413 5.09779 13.5413C5.08919 13.5413 5.1152 13.5042 5.15558 13.4588ZM10.6079 12.9723L10.5483 12.8981L10.6187 12.9609C10.6848 13.02 10.7032 13.0465 10.6782 13.0465C10.6723 13.0465 10.6406 13.0131 10.6079 12.9723ZM14.9744 11.6089C14.9759 11.5705 14.9833 11.5627 14.9933 11.589C15.0023 11.6128 15.0012 11.6413 14.9908 11.6522C14.9804 11.6632 14.9731 11.6437 14.9744 11.6089ZM10.6109 11.4632C10.642 11.427 10.6745 11.3973 10.6831 11.3973C10.6917 11.3973 10.6732 11.427 10.6421 11.4632C10.611 11.4995 10.5785 11.5292 10.5699 11.5292C10.5613 11.5292 10.5797 11.4995 10.6109 11.4632ZM2.81091 10.985C2.85129 10.9396 2.89136 10.9025 2.89996 10.9025C2.90856 10.9025 2.88255 10.9396 2.84217 10.985C2.80179 11.0303 2.76171 11.0674 2.75311 11.0674C2.74452 11.0674 2.77052 11.0303 2.81091 10.985ZM5.15159 10.9767C5.11271 10.9244 5.11381 10.9232 5.16339 10.9643C5.19348 10.9892 5.2181 11.0151 5.2181 11.022C5.2181 11.0491 5.19243 11.0317 5.15159 10.9767ZM1.00016 3.65961C1.00166 3.62118 1.00907 3.61337 1.01905 3.63968C1.02808 3.66349 1.02697 3.69194 1.01658 3.7029C1.00619 3.71386 0.998804 3.69438 1.00016 3.65961ZM9.15317 2.53263C9.11428 2.48031 9.11539 2.47915 9.16497 2.52017C9.21704 2.56326 9.23361 2.59035 9.20787 2.59035C9.20141 2.59035 9.17676 2.56438 9.15317 2.53263Z" fill="#535353"/>
<path d="M3.6318 13.9193C3.09092 13.7953 2.5953 13.3109 2.43321 12.7478C2.3694 12.5262 2.36792 12.5243 2.22678 12.4868C1.71167 12.35 1.25006 11.8774 1.08244 11.3153L1.01318 11.083V7.27331V3.46357L1.09441 3.22931C1.30542 2.6208 1.79096 2.17218 2.35539 2.06422C2.47892 2.04059 3.47634 2.02892 5.34094 2.02931C8.41499 2.02993 8.37713 2.02772 8.75404 2.22847C8.87439 2.29257 9.03496 2.42088 9.16025 2.55308C9.50056 2.91213 9.65549 3.32755 9.65667 3.88412L9.65721 4.13976H11.1052C12.0026 4.13976 12.6236 4.15325 12.7386 4.17524C13.1587 4.25559 13.6255 4.59337 13.8357 4.9692C13.8901 5.06632 14.1554 5.73056 14.4254 6.44528C14.7949 7.42358 14.9274 7.81305 14.9614 8.021C14.9979 8.24364 15.0048 8.63151 14.997 10.02L14.9874 11.7427L14.9061 11.9257C14.7939 12.1781 14.655 12.334 14.446 12.4423C14.2731 12.5319 14.2513 12.5348 13.6182 12.5509L12.9681 12.5674L12.8959 12.7855C12.7234 13.3068 12.3507 13.6952 11.849 13.8768C11.5597 13.9814 11.102 13.9805 10.8139 13.8747C10.3002 13.686 9.87062 13.2149 9.74966 12.7076L9.71231 12.5509H7.66955H5.62678L5.59142 12.6911C5.52617 12.9497 5.34516 13.2639 5.14394 13.4678C4.73295 13.8842 4.18822 14.0468 3.6318 13.9193ZM4.45204 13.1696C4.63816 13.0681 4.80869 12.8867 4.90975 12.6828C4.97199 12.5572 4.98331 12.4861 4.98326 12.221C4.9832 11.9452 4.97324 11.8879 4.90008 11.7427C4.71917 11.3838 4.43509 11.1952 4.041 11.1723C3.81433 11.1592 3.76613 11.1673 3.60333 11.2457C3.38115 11.3528 3.2084 11.5225 3.09739 11.7427C3.02423 11.8879 3.01426 11.9452 3.01421 12.221C3.01414 12.5761 3.06774 12.7274 3.2752 12.9577C3.48725 13.1932 3.70119 13.2784 4.04563 13.2647C4.24091 13.257 4.32998 13.2361 4.45204 13.1696ZM11.7766 13.1821C11.9811 13.0704 12.1471 12.8947 12.2432 12.6881C12.3176 12.5284 12.3301 12.4608 12.3301 12.221C12.3301 11.9812 12.3176 11.9136 12.2432 11.7539C12.1477 11.5486 11.9831 11.3737 11.7766 11.2581C11.6643 11.1951 11.594 11.1828 11.3454 11.1824C11 11.1819 10.827 11.2506 10.6177 11.4714C10.1864 11.9265 10.2481 12.7246 10.7423 13.0834C10.9608 13.242 11.082 13.2768 11.3766 13.2655C11.5764 13.2579 11.6757 13.2371 11.7766 13.1821ZM9.74967 11.7345C9.80926 11.4845 9.96951 11.2025 10.1754 10.9853C11.0311 10.0824 12.4944 10.4435 12.8959 11.6566L12.9682 11.8747L13.4776 11.8847C13.7873 11.8907 14.0336 11.8804 14.1058 11.8581C14.2757 11.8059 14.3463 11.6693 14.3464 11.393L14.3466 11.1753L14.073 11.1557C13.6866 11.128 13.5224 11.0594 13.3121 10.8378C12.9189 10.4234 12.9189 9.7966 13.3121 9.38221C13.5224 9.16057 13.6866 9.09196 14.073 9.06429L14.3466 9.04471V8.68677V8.32882H13.0816C11.8915 8.32882 11.8067 8.32488 11.6489 8.26258C11.4102 8.16834 11.2411 8.00217 11.12 7.74264L11.0171 7.52208V6.94346V6.36484L11.12 6.14427C11.2411 5.88475 11.4102 5.71857 11.6489 5.62433C11.8004 5.56451 11.8922 5.5581 12.597 5.5581C13.2178 5.5581 13.3774 5.5493 13.3774 5.51508C13.3774 5.44403 13.2075 5.18384 13.0971 5.08584C13.0404 5.03544 12.936 4.96152 12.8652 4.92157C12.7383 4.84993 12.7154 4.8488 11.1969 4.8395L9.65721 4.83008V7.17265V9.51523L9.56599 9.62295L9.47477 9.73067L5.56212 9.7393L1.64946 9.74792L1.65958 10.4155C1.67097 11.1672 1.69255 11.2586 1.9221 11.5267C2.0264 11.6485 2.28982 11.8252 2.36711 11.8252C2.38215 11.8252 2.41234 11.7621 2.43419 11.685C2.55539 11.2574 2.86825 10.8731 3.26029 10.6703C3.74071 10.4219 4.23479 10.4148 4.70344 10.6496C5.11716 10.8569 5.47914 11.3059 5.59142 11.751L5.62678 11.8912H7.66955H9.71231L9.74967 11.7345ZM14.3466 10.1065V9.74017L14.097 9.75214C13.8737 9.76283 13.8382 9.77372 13.7609 9.85533C13.6005 10.0246 13.6572 10.3532 13.862 10.4416C13.8964 10.4565 14.0195 10.4696 14.1355 10.4707L14.3466 10.4728V10.1065ZM8.99357 6.25903L8.98507 3.46357L8.9018 3.29865C8.802 3.10098 8.62966 2.9215 8.43798 2.81562L8.2973 2.73791H5.32738H2.35746L2.22319 2.81355C2.01623 2.93014 1.85203 3.10479 1.75659 3.30984L1.66969 3.49655L1.66119 6.27552L1.65268 9.05448H5.32738H9.00207L8.99357 6.25903ZM14.1813 7.62789C14.1728 7.60521 14.0491 7.27867 13.9066 6.90223L13.6474 6.21779H12.808C11.8797 6.21779 11.7945 6.23277 11.707 6.41147C11.6371 6.5541 11.637 7.33274 11.7069 7.47534C11.7972 7.65954 11.8461 7.66641 13.076 7.66783C13.9606 7.66882 14.1936 7.66043 14.1813 7.62789Z" fill="#535353"/>
</svg>
