<svg width="24" height="24" viewBox="0 0 24 24" fill="none" xmlns="http://www.w3.org/2000/svg">
<path d="M13.9032 10.6462C13.9585 10.694 14.0129 10.743 14.0664 10.7929C14.1185 10.8407 14.1185 10.8407 14.1717 10.8894C14.5623 11.2659 14.826 11.7064 15.0016 12.2252C15.0141 12.2619 15.0265 12.2986 15.0393 12.3365C15.2738 13.1742 15.1324 14.0748 14.7313 14.8289C14.6297 15.0115 14.5169 15.1734 14.3781 15.3284C14.3469 15.3639 14.3157 15.3994 14.2836 15.436C13.8213 15.9359 13.2587 16.1976 12.6245 16.4026C12.691 16.4164 12.691 16.4164 12.7588 16.4305C13.9386 16.6818 14.9375 17.2325 15.703 18.193C15.8297 18.1352 15.9224 18.0617 16.027 17.9692C16.5469 17.5427 17.1873 17.2932 17.8463 17.1983C17.8138 17.1863 17.7813 17.1742 17.7478 17.1618C17.0567 16.8991 16.5237 16.5193 16.1974 15.8233C15.9473 15.2629 15.9093 14.5489 16.1218 13.9683C16.4117 13.3044 16.8352 12.8555 17.4835 12.5539C18.1039 12.3124 18.8008 12.3608 19.4001 12.6344C19.9885 12.9339 20.3817 13.4359 20.613 14.0553C20.8073 14.7026 20.7226 15.394 20.4304 15.9924C20.0734 16.6214 19.5258 16.9811 18.8595 17.1983C18.9019 17.2075 18.9443 17.2167 18.9879 17.2262C19.9519 17.4416 20.8386 17.937 21.4005 18.7915C21.809 19.4794 21.985 20.1369 21.9906 20.9376C21.9912 21.006 21.9923 21.0744 21.9938 21.1428C21.9959 21.2421 21.9968 21.3413 21.9973 21.4406C21.9982 21.471 21.9991 21.5014 22 21.5328C21.9994 21.6807 21.9858 21.7615 21.8986 21.8812C21.7499 21.9978 21.6333 22.0003 21.4531 21.9976C21.4034 21.998 21.4034 21.998 21.3526 21.9985C21.2408 21.9992 21.1291 21.9985 21.0173 21.9978C20.9366 21.9981 20.8559 21.9984 20.7752 21.9988C20.5529 21.9996 20.3307 21.9992 20.1085 21.9986C19.869 21.9981 19.6295 21.9988 19.39 21.9994C18.9478 22.0002 18.5056 22.0001 18.0634 21.9996C17.6549 21.9991 17.2465 21.9989 16.838 21.9992C16.7974 21.9992 16.7974 21.9992 16.7559 21.9992C16.646 21.9993 16.5361 21.9994 16.4262 21.9994C15.3947 22 14.3633 21.9995 13.3319 21.9984C12.4152 21.9975 11.4985 21.9975 10.5818 21.9985C9.55229 21.9996 8.52277 22 7.49325 21.9994C7.38353 21.9993 7.27382 21.9992 7.1641 21.9992C7.12358 21.9992 7.12358 21.9992 7.08223 21.9991C6.67397 21.9989 6.26572 21.9992 5.85746 21.9997C5.39332 22.0002 4.9292 22.0001 4.46506 21.999C4.22811 21.9985 3.99117 21.9983 3.75422 21.999C3.5375 21.9995 3.32081 21.9992 3.10409 21.9982C3.0255 21.9979 2.94691 21.9981 2.86832 21.9985C2.76183 21.9991 2.65542 21.9985 2.54893 21.9976C2.51812 21.9981 2.4873 21.9985 2.45555 21.999C2.30051 21.9963 2.22767 21.9786 2.10355 21.8807C2.00099 21.7406 1.99765 21.6244 2.00064 21.456C2.00055 21.4252 2.00046 21.3944 2.00036 21.3627C2.0004 21.2974 2.00092 21.2321 2.00189 21.1669C2.00321 21.0694 2.0027 20.9721 2.00194 20.8746C2.00236 20.3278 2.06792 19.7729 2.33203 19.2871C2.35241 19.2477 2.35241 19.2477 2.37321 19.2076C2.83417 18.332 3.56807 17.659 4.50299 17.3513C4.7153 17.2876 4.92366 17.2322 5.14262 17.1983C5.11012 17.1863 5.07762 17.1742 5.04413 17.1618C4.35304 16.8991 3.82008 16.5193 3.49377 15.8233C3.24364 15.2629 3.20561 14.5489 3.41812 13.9683C3.70803 13.3044 4.13148 12.8555 4.77988 12.5539C5.40021 12.3124 6.09709 12.3608 6.69648 12.6344C7.28487 12.9339 7.678 13.4359 7.90937 14.0553C8.10368 14.7026 8.01894 15.394 7.7267 15.9924C7.36976 16.6214 6.82217 16.9811 6.15579 17.1983C6.19774 17.2075 6.23968 17.2167 6.2829 17.2262C6.94959 17.3763 7.53533 17.6047 8.06768 18.0545C8.14202 18.1125 8.21507 18.1516 8.29905 18.193C8.3312 18.1554 8.36335 18.1179 8.39647 18.0792C9.21119 17.1471 10.2074 16.5944 11.4165 16.4026C11.3722 16.3891 11.3279 16.3756 11.2823 16.3616C10.6928 16.1753 10.2254 15.9359 9.77985 15.4876C9.75558 15.4657 9.73132 15.4438 9.70632 15.4212C9.36537 15.1044 9.14921 14.6539 9.00048 14.2145C8.98802 14.1777 8.97556 14.141 8.96273 14.1032C8.72828 13.2654 8.86967 12.3648 9.27082 11.6107C9.37234 11.4282 9.48514 11.2662 9.62397 11.1112C9.65517 11.0757 9.68636 11.0402 9.7185 11.0037C10.0872 10.6049 10.5187 10.3356 11.0268 10.1564C11.0628 10.1436 11.0988 10.1309 11.1358 10.1178C12.0736 9.84425 13.1247 10.0579 13.9032 10.6462ZM10.2082 11.717C9.75663 12.2818 9.64054 12.905 9.70191 13.6177C9.7908 14.2378 10.148 14.7327 10.6152 15.1221C11.1679 15.5377 11.7992 15.6555 12.473 15.5549C13.0776 15.4331 13.5682 15.045 13.9289 14.545C14.2943 13.9812 14.4013 13.324 14.2732 12.6608C14.1063 12.0083 13.6806 11.4781 13.1154 11.1337C12.0982 10.5808 10.9634 10.862 10.2082 11.717ZM4.40953 13.8663C4.13307 14.2569 4.08449 14.6606 4.12944 15.1295C4.21741 15.5584 4.4702 15.8898 4.81428 16.1437C5.20302 16.3904 5.64032 16.4314 6.08379 16.3366C6.51964 16.1924 6.84953 15.8779 7.06455 15.4694C7.22241 15.0935 7.23133 14.6451 7.10808 14.2567C6.92974 13.8321 6.60825 13.5039 6.19233 13.3218C5.51362 13.0973 4.86181 13.3183 4.40953 13.8663ZM17.1132 13.8663C16.8367 14.2569 16.7882 14.6606 16.8331 15.1295C16.9211 15.5584 17.1739 15.8898 17.5179 16.1437C17.9067 16.3904 18.344 16.4314 18.7875 16.3366C19.2233 16.1924 19.5532 15.8779 19.7682 15.4694C19.9261 15.0935 19.935 14.6451 19.8118 14.2567C19.6334 13.8321 19.3119 13.5039 18.896 13.3218C18.2173 13.0973 17.5655 13.3183 17.1132 13.8663ZM10.9489 17.3575C10.9245 17.3654 10.9002 17.3733 10.8751 17.3814C9.82651 17.7295 9.03677 18.428 8.51337 19.4175C8.24239 19.9924 8.14318 20.5377 8.14318 21.1769C10.6894 21.1769 13.2356 21.1769 15.8589 21.1769C15.8589 20.0354 15.4471 19.1032 14.673 18.2926C13.8075 17.4554 12.7732 17.2051 11.6126 17.2329C11.381 17.2432 11.17 17.2847 10.9489 17.3575ZM3.70079 18.7897C3.66507 18.8207 3.66507 18.8207 3.62864 18.8522C3.09664 19.3458 2.8532 20.0639 2.80452 20.779C2.80452 20.9103 2.80452 21.0416 2.80452 21.1769C4.29623 21.1769 5.78793 21.1769 7.32484 21.1769C7.35056 20.9011 7.37628 20.6254 7.40278 20.3414C7.47865 19.9781 7.57203 19.6437 7.71255 19.3017C7.75573 19.1814 7.78384 19.0769 7.79246 18.9489C7.58844 18.5504 6.95861 18.288 6.56298 18.1521C5.53635 17.8565 4.50409 18.0525 3.70079 18.7897ZM16.3655 18.7897C16.3204 18.8264 16.3204 18.8264 16.2745 18.8639C16.198 18.9456 16.198 18.9456 16.2125 19.0603C16.2527 19.2021 16.3035 19.3372 16.3582 19.4736C16.4499 19.7136 16.5197 19.9527 16.5725 20.2046C16.5787 20.2332 16.5849 20.2617 16.5913 20.2911C16.65 20.5889 16.657 20.8664 16.6772 21.1769C18.1689 21.1769 19.6607 21.1769 21.1976 21.1769C21.1976 20.2758 21.0064 19.5487 20.3935 18.883C19.833 18.3164 19.1418 18.0222 18.3553 18.0139C17.5973 18.0219 16.9317 18.2647 16.3655 18.7897Z" fill="white"/>
<path d="M11.4018 2.00192C11.4728 2.00182 11.4728 2.00182 11.5452 2.00171C11.6453 2.00179 11.7454 2.00235 11.8454 2.00334C11.9988 2.00474 12.1521 2.00433 12.3054 2.00371C12.4026 2.00401 12.4997 2.00441 12.5969 2.00493C12.6429 2.00479 12.6888 2.00465 12.7362 2.0045C12.8003 2.00542 12.8003 2.00542 12.8656 2.00635C12.9032 2.00661 12.9407 2.00687 12.9794 2.00714C13.1044 2.0308 13.1475 2.07275 13.2251 2.17018C13.2594 2.28878 13.2594 2.28878 13.2831 2.42848C13.3663 2.99233 13.3663 2.99233 13.6606 3.45662C13.9089 3.55872 14.0924 3.58389 14.3527 3.51772C14.4579 3.46413 14.4579 3.46413 14.5577 3.39552C14.5951 3.37157 14.6326 3.34763 14.6712 3.32295C14.7489 3.27238 14.8263 3.22137 14.9033 3.16993C14.9409 3.1461 14.9785 3.12228 15.0173 3.09774C15.0509 3.07561 15.0845 3.05349 15.1192 3.03069C15.2934 2.96708 15.4 2.98812 15.5784 3.03645C15.6997 3.1157 15.7982 3.21158 15.8998 3.31355C15.9286 3.34153 15.9574 3.3695 15.987 3.39833C16.0474 3.45744 16.1075 3.51693 16.1672 3.57675C16.2584 3.66785 16.3511 3.7573 16.4441 3.8467C16.5028 3.90451 16.5614 3.96241 16.6199 4.02041C16.6475 4.04694 16.6752 4.07348 16.7036 4.10082C16.8811 4.28135 16.9501 4.41192 16.9512 4.67275C16.9133 4.78228 16.9133 4.78228 16.8522 4.87616C16.8195 4.92827 16.8195 4.92827 16.786 4.98144C16.7627 5.01655 16.7393 5.05166 16.7153 5.08784C16.503 5.39363 16.503 5.39363 16.3629 5.73153C16.3929 5.85779 16.3929 5.85779 16.4548 5.97818C16.559 6.201 16.559 6.201 16.559 6.35718C16.6176 6.3694 16.6762 6.38162 16.7365 6.39421C17.8279 6.62468 17.8279 6.62468 17.9416 6.76852C18.0006 6.9461 17.9958 7.12262 17.9956 7.30748C17.9958 7.3483 17.996 7.38912 17.9962 7.43117C17.9965 7.51738 17.9965 7.60358 17.9963 7.68978C17.9961 7.82139 17.9973 7.95295 17.9985 8.08456C17.9986 8.16843 17.9987 8.25231 17.9986 8.33619C17.9991 8.3754 17.9995 8.41461 18 8.455C17.9982 8.67443 17.9885 8.83235 17.8337 9.00413C17.7106 9.05795 17.7106 9.05795 17.5654 9.09079C17.5132 9.10305 17.4611 9.1153 17.4073 9.12792C17.3529 9.13968 17.2984 9.15144 17.2423 9.16355C17.1877 9.17624 17.1331 9.18892 17.0768 9.20199C16.6802 9.29289 16.6802 9.29289 16.559 9.29289C16.5514 9.35542 16.5514 9.35542 16.5437 9.41922C16.51 9.58165 16.51 9.58165 16.4303 9.72903C16.3516 9.8941 16.3616 9.94023 16.4119 10.111C16.4665 10.2142 16.4665 10.2142 16.5364 10.3122C16.5608 10.349 16.5852 10.3858 16.6103 10.4237C16.6618 10.4999 16.7138 10.5759 16.7662 10.6515C16.882 10.8277 16.9488 10.9404 16.9629 11.1525C16.8815 11.3694 16.7573 11.4902 16.5866 11.6451C16.5572 11.673 16.5279 11.7009 16.4976 11.7297C16.2276 11.9837 16.2276 11.9837 15.9952 12C15.9385 11.996 15.8819 11.9921 15.8236 11.988C15.7237 11.8409 15.7023 11.7779 15.7309 11.6054C15.8281 11.3857 16.0366 11.2303 16.2158 11.0736C16.1254 10.8196 15.9776 10.605 15.8286 10.3813C15.7052 10.1877 15.6383 10.0567 15.6765 9.82228C15.7228 9.68856 15.7807 9.56197 15.842 9.43426C15.873 9.36753 15.904 9.3008 15.935 9.23405C15.9501 9.20276 15.9651 9.17148 15.9805 9.13925C16.0249 9.0455 16.0249 9.0455 16.0618 8.91446C16.1177 8.81162 16.1177 8.81162 16.2461 8.75109C16.2988 8.73732 16.3515 8.72354 16.4058 8.70935C16.483 8.68832 16.483 8.68832 16.5617 8.66687C16.8222 8.60256 17.0828 8.53869 17.3435 8.47474C17.3435 8.04593 17.3435 7.61713 17.3435 7.17532C16.9791 7.08624 16.9791 7.08624 16.6145 6.99827C16.5691 6.98691 16.5236 6.97554 16.4768 6.96383C16.4304 6.95249 16.3839 6.94115 16.336 6.92946C16.2087 6.88404 16.1518 6.84566 16.0687 6.74219C16.0242 6.64242 15.9837 6.54087 15.9461 6.43839C15.8858 6.27501 15.8271 6.12286 15.7424 5.9701C15.6643 5.80146 15.6457 5.72236 15.6765 5.53903C15.7534 5.38382 15.8469 5.24114 15.9431 5.09686C15.9932 5.02005 16.0432 4.94316 16.093 4.8662C16.1265 4.81565 16.1265 4.81565 16.1607 4.76408C16.2233 4.6677 16.2233 4.6677 16.2648 4.52837C16.2362 4.51594 16.2075 4.50351 16.178 4.4907C16.06 4.42746 15.9828 4.35873 15.8887 4.2648C15.8561 4.23254 15.8236 4.20028 15.7901 4.16705C15.7566 4.13342 15.7232 4.0998 15.6887 4.06515C15.6375 4.01416 15.6375 4.01416 15.5851 3.96213C15.501 3.87838 15.417 3.7944 15.3333 3.71022C15.0746 3.79893 14.856 3.94403 14.628 4.09034C14.4308 4.2114 14.2974 4.27683 14.0586 4.23961C13.9233 4.19522 13.7954 4.13939 13.6663 4.08019C13.6327 4.06534 13.5991 4.05048 13.5644 4.03517C13.4981 4.00564 13.4321 3.97528 13.3665 3.94405C13.2647 3.89616 13.2647 3.89616 13.1128 3.85422C12.8912 3.69436 12.872 3.45632 12.8145 3.20189C12.8018 3.15055 12.7891 3.09921 12.776 3.04632C12.6858 2.67645 12.6858 2.67645 12.6858 2.55519C12.2327 2.55519 11.7797 2.55519 11.313 2.55519C11.2806 2.72989 11.2483 2.90458 11.2149 3.08458C11.0985 3.69048 11.0985 3.69048 10.9303 3.83373C10.8258 3.87866 10.8258 3.87866 10.7099 3.91231C10.4932 3.97543 10.2986 4.08734 10.0976 4.18791C9.89979 4.25288 9.79843 4.24532 9.59699 4.19149C9.40969 4.09764 9.2359 3.98359 9.06026 3.87049C9.02484 3.84868 8.98941 3.82687 8.95292 3.80441C8.92121 3.78405 8.8895 3.76369 8.85683 3.74271C8.76285 3.69949 8.76285 3.69949 8.66465 3.742C8.56017 3.81126 8.47823 3.88463 8.39081 3.97379C8.35871 4.00605 8.3266 4.03831 8.29352 4.07155C8.26053 4.10517 8.22754 4.13879 8.19355 4.17344C8.12777 4.24046 8.06177 4.30727 7.99552 4.37384C7.96647 4.40347 7.93743 4.4331 7.9075 4.46363C7.83197 4.52837 7.83197 4.52837 7.73391 4.52837C7.79506 4.63473 7.85637 4.74099 7.91777 4.84721C7.93483 4.87692 7.9519 4.90664 7.96948 4.93726C7.98654 4.96673 8.00361 4.99619 8.02119 5.02655C8.03835 5.05622 8.0555 5.08589 8.07318 5.11646C8.13195 5.21468 8.13195 5.21468 8.23722 5.34765C8.34403 5.52759 8.34864 5.62186 8.32225 5.82778C8.2786 5.96341 8.2214 6.09019 8.15984 6.21881C8.13714 6.2686 8.13714 6.2686 8.11398 6.31939C7.8883 6.80721 7.8883 6.80721 7.74176 6.88845C7.70782 6.89775 7.67389 6.90706 7.63892 6.91665C7.60037 6.9275 7.56181 6.93836 7.52209 6.94954C7.45706 6.96601 7.45706 6.96601 7.39071 6.98282C7.34028 6.99628 7.28985 7.00974 7.23788 7.02361C7.0201 7.0798 6.83252 7.1272 6.60626 7.1272C6.60626 7.57189 6.60626 8.01657 6.60626 8.47474C6.87896 8.53192 6.87896 8.53192 7.1518 8.58844C7.26472 8.6126 7.37668 8.63961 7.48877 8.66724C7.52473 8.67471 7.5607 8.68217 7.59775 8.68986C7.75842 8.73273 7.85186 8.76972 7.94752 8.9073C8.00564 9.02704 8.05331 9.14688 8.09856 9.27183C8.12335 9.33506 8.12335 9.33506 8.14864 9.39957C8.17905 9.47729 8.20887 9.55523 8.23788 9.63345C8.27213 9.72808 8.27213 9.72808 8.32225 9.82228C8.37856 10.1633 8.15096 10.399 7.96603 10.6666C7.94138 10.7037 7.91673 10.7409 7.89134 10.7792C7.86823 10.8126 7.84512 10.8461 7.82131 10.8805C7.77037 10.9779 7.77037 10.9779 7.81979 11.0801C7.89079 11.1842 7.97209 11.2674 8.06179 11.3563C8.22378 11.5331 8.22378 11.5331 8.22726 11.7173C8.17517 11.8436 8.17517 11.8436 8.07711 11.9398C7.94841 11.9669 7.94841 11.9669 7.78294 11.9398C7.63569 11.8434 7.51465 11.7265 7.39071 11.603C7.35728 11.5706 7.32385 11.5383 7.2894 11.505C7.05613 11.2649 7.05613 11.2649 7.02338 11.0863C7.0572 10.8661 7.16183 10.7181 7.28653 10.5352C7.30909 10.5009 7.33165 10.4667 7.3549 10.4315C7.41522 10.3403 7.47626 10.2496 7.5378 10.1592C7.65029 10.0276 7.65029 10.0276 7.62148 9.90077C7.61004 9.85898 7.59861 9.8172 7.58683 9.77415C7.57351 9.71334 7.57351 9.71334 7.55993 9.6513C7.51802 9.51376 7.4755 9.41041 7.39071 9.29289C7.20178 9.19487 7.00858 9.16063 6.79931 9.12445C6.69247 9.10309 6.58566 9.08154 6.4789 9.05978C6.43162 9.05125 6.38435 9.04272 6.33564 9.03393C6.21403 9.00413 6.21403 9.00413 6.06695 8.90788C6.00222 8.71725 6.00898 8.53387 6.00796 8.33506C6.00768 8.29299 6.0074 8.25092 6.00712 8.20758C6.00665 8.11862 6.00633 8.02966 6.00614 7.94071C6.00567 7.80466 6.00415 7.66865 6.0026 7.53261C6.00228 7.44616 6.00202 7.35972 6.00183 7.27327C6.00123 7.23261 6.00062 7.19195 6 7.15005C6.00063 6.98598 6.00277 6.86904 6.07648 6.72013C6.18811 6.62657 6.27853 6.59863 6.42087 6.56397C6.47061 6.55156 6.52035 6.53915 6.5716 6.52637C6.62348 6.51421 6.67537 6.50205 6.72883 6.48952C6.80666 6.47017 6.80666 6.47017 6.88607 6.45042C7.26749 6.35718 7.26749 6.35718 7.43974 6.35718C7.4448 6.31846 7.44985 6.27975 7.45506 6.23987C7.48877 6.06842 7.48877 6.06842 7.53232 5.97194C7.60289 5.81382 7.65381 5.69599 7.60348 5.52583C7.54395 5.41447 7.47829 5.312 7.40603 5.20816C7.38281 5.1723 7.35958 5.13644 7.33565 5.0995C7.27368 5.00436 7.21014 4.91057 7.14557 4.81713C7.04752 4.67275 7.04752 4.67275 7.04772 4.515C7.11039 4.28508 7.21532 4.18126 7.38746 4.02041C7.41654 3.99216 7.44562 3.96391 7.47558 3.9348C7.56817 3.84521 7.66175 3.75668 7.75536 3.66811C7.81815 3.60752 7.88087 3.54686 7.94353 3.48613C8.44701 3.0008 8.44701 3.0008 8.64093 2.96689C8.94573 3.00496 9.18213 3.20348 9.43305 3.36901C9.67099 3.52953 9.67099 3.52953 9.94631 3.54441C9.99283 3.51972 10.0393 3.49503 10.0873 3.46959C10.12 3.46289 10.1528 3.4562 10.1865 3.4493C10.3048 3.42284 10.3815 3.3961 10.4795 3.32521C10.568 3.14911 10.6038 2.96667 10.6419 2.77476C10.6638 2.67448 10.6861 2.57427 10.7087 2.47416C10.7178 2.42971 10.7269 2.38527 10.7362 2.33948C10.8497 1.97252 11.0492 1.99777 11.4018 2.00192Z" fill="white"/>
<path d="M13.4702 6.06853C13.8748 6.39049 14.1755 6.85989 14.2547 7.36794C14.3175 8.08755 14.2414 8.68158 13.7776 9.26687C13.3417 9.74633 12.8078 10.0231 12.1556 10.0737C11.4344 10.0949 10.8511 9.86285 10.3232 9.38437C9.85925 8.90735 9.71321 8.34976 9.721 7.70533C9.74592 7.05231 10.0133 6.5511 10.4917 6.10162C10.7266 5.90725 10.9771 5.78762 11.2639 5.68352C11.296 5.67167 11.3282 5.65982 11.3612 5.64761C12.0854 5.42738 12.8745 5.63978 13.4702 6.06853ZM10.648 6.77727C10.3744 7.12737 10.2584 7.5409 10.2939 7.97911C10.3699 8.48872 10.6083 8.87563 11.0188 9.19675C11.4558 9.46028 11.8828 9.55473 12.3899 9.45768C12.8913 9.31831 13.2701 9.0097 13.5246 8.56283C13.7349 8.13915 13.754 7.71981 13.6173 7.27169C13.43 6.78442 13.1055 6.49223 12.6367 6.26104C11.9191 5.97403 11.1516 6.2311 10.648 6.77727Z" fill="white"/>
</svg>
