<svg width="16" height="16" viewBox="0 0 16 16" fill="none" xmlns="http://www.w3.org/2000/svg">
<path fill-rule="evenodd" clip-rule="evenodd" d="M6.73406 1.59732C7.0518 1.18234 7.4446 0.833252 8 0.833252C8.5554 0.833252 8.9482 1.18234 9.266 1.59732C9.57826 2.00507 9.90933 2.59909 10.314 3.32509L10.5531 3.75396C10.8148 4.22341 10.8817 4.32313 10.9657 4.38688C11.0465 4.44823 11.1508 4.48245 11.6597 4.59761L12.1265 4.7032C12.9102 4.88051 13.5559 5.02658 14.0261 5.21189C14.5143 5.40426 14.9414 5.68778 15.1059 6.2166C15.2686 6.73998 15.0857 7.22145 14.803 7.67052C14.5283 8.10685 14.0896 8.61978 13.5537 9.24645L13.2374 9.61638C12.8927 10.0194 12.8207 10.1181 12.7869 10.2269C12.7524 10.3379 12.7556 10.4661 12.8077 11.0034L12.8554 11.4955C12.9365 12.3329 13.0027 13.0157 12.9795 13.5357C12.956 14.0651 12.8357 14.5733 12.3989 14.905C11.9539 15.2428 11.4361 15.2047 10.9363 15.0615C10.4516 14.9227 9.8474 14.6444 9.11366 14.3066L8.6766 14.1053C8.19833 13.8851 8.09593 13.8498 8 13.8498C7.90406 13.8498 7.80166 13.8851 7.32346 14.1053L6.88633 14.3066C6.15265 14.6444 5.54843 14.9227 5.06376 15.0615C4.56391 15.2047 4.04613 15.2428 3.60112 14.905C3.16426 14.5733 3.04404 14.0651 3.02047 13.5357C2.9973 13.0157 3.06348 12.3328 3.14464 11.4955L3.19233 11.0034C3.2444 10.4661 3.24764 10.3379 3.21314 10.2269C3.17929 10.1181 3.10729 10.0194 2.76262 9.61638L2.4463 9.24645C1.9104 8.61985 1.47169 8.10685 1.19702 7.67052C0.914325 7.22145 0.731425 6.73998 0.894179 6.2166C1.05863 5.68778 1.48578 5.40426 1.9739 5.21189C2.44414 5.02658 3.08982 4.88051 3.87358 4.7032L3.91602 4.6936L4.34026 4.59761C4.84921 4.48246 4.95348 4.44823 5.03432 4.38688C5.11828 4.32313 5.18523 4.22341 5.44692 3.75396L5.68599 3.32509C6.09067 2.59909 6.42178 2.00507 6.73406 1.59732Z" fill="#FFC400"/>
</svg>
