<svg width="24" height="24" viewBox="0 0 24 24" fill="none" xmlns="http://www.w3.org/2000/svg">
<path d="M16.9999 7.20385H20.7V19.6154C20.7 19.9744 20.4373 20.2577 20.125 20.2577H3.875C3.56269 20.2577 3.3 19.9744 3.3 19.6154V7.20385H16.9999ZM16.9999 6.41154H2.675V4.38462C2.675 4.02557 2.93769 3.74231 3.25 3.74231H20.75C21.0623 3.74231 21.325 4.02557 21.325 4.38462V6.41154H16.9999ZM20.75 2.95H3.25C2.52844 2.95 1.95 3.59845 1.95 4.38462V6.46154C1.95 6.84788 2.22206 7.17354 2.575 7.20185V19.6154C2.575 20.4016 3.15344 21.05 3.875 21.05H20.125C20.8466 21.05 21.425 20.4016 21.425 19.6154V7.20185C21.7779 7.17354 22.05 6.84788 22.05 6.46154V4.38462C22.05 3.59845 21.4716 2.95 20.75 2.95Z" fill="white" stroke="white" stroke-width="0.1"/>
<path d="M9 6.53711V12.5185C9 13.0344 9.45791 13.353 9.8178 13.0877L11.8457 11.5922C11.9406 11.5221 12.0594 11.5221 12.1543 11.5922L14.1822 13.0877C14.5421 13.353 15 13.0344 15 12.5185V9.5278V6.53711" stroke="white" stroke-width="0.5"/>
</svg>
