<svg width="18" height="22" viewBox="0 0 18 22" fill="none" xmlns="http://www.w3.org/2000/svg">
<path d="M7.22717 8.25391H11.1287H12.9313C13.6647 8.25391 14.5026 8.9284 14.8354 9.78913L15.9102 12.5622C15.9383 12.5588 15.9656 12.5522 15.9955 12.5522H16.821C17.2876 12.5515 17.667 12.9868 17.667 13.5253C17.667 14.0626 17.2876 14.4983 16.821 14.4983H16.6137L16.6145 14.5021C16.727 14.8382 16.7899 15.205 16.7899 15.5897V16.7298C16.7899 17.8447 16.5212 18.807 15.9137 19.2757V20.5281C15.9137 21.157 15.4695 21.6666 14.9233 21.6666H14.0153C13.4691 21.6666 13.0253 21.1562 13.0253 20.5281V19.578H4.97761V20.5281C4.97761 21.157 4.53384 21.6666 3.98731 21.6666H3.07842C2.53189 21.6666 2.08806 21.1562 2.08806 20.5281V19.2757C1.48127 18.807 1.21257 17.8454 1.21257 16.7298V15.5897C1.21257 15.2057 1.27474 14.839 1.38616 14.5037C1.38616 14.5037 1.38726 14.5006 1.38726 14.4983H1.17962C0.712298 14.4983 0.333649 14.0626 0.333649 13.526C0.333649 12.988 0.712298 12.5522 1.17962 12.5522H2.00471C2.03466 12.5522 2.06228 12.5591 2.09071 12.5622L3.16525 9.7899C3.50484 8.91422 4.32347 8.25391 5.06936 8.25391H7.22717ZM3.38401 13.2295C3.38401 14.1074 14.7764 14.1063 14.7764 13.2292C14.7764 13.116 14.755 12.9751 14.7535 12.9656C14.5518 12.1427 13.7763 10.4419 13.7763 10.4419C13.5887 9.95771 13.1179 9.58231 12.8382 9.58231H5.32468C5.04507 9.58231 4.57418 9.9577 4.3862 10.4426C4.3862 10.4426 3.7042 12.0229 3.40792 12.9663C3.40502 12.9751 3.38401 13.1171 3.38401 13.2295ZM5.59558 17.0049C5.59558 16.3145 5.04124 15.7524 4.35719 15.7524C3.67404 15.7524 3.11938 16.3133 3.11938 17.0049C3.11938 17.6956 3.67374 18.2562 4.35719 18.2562C5.04124 18.2566 5.59558 17.696 5.59558 17.0049ZM15.1908 17.0049C15.1908 16.3145 14.637 15.7524 13.953 15.7524C13.2695 15.7524 12.7146 16.3133 12.7146 17.0049C12.7146 17.6956 13.2686 18.2562 13.953 18.2562C14.6373 18.2562 15.1908 17.696 15.1908 17.0049ZM7.16457 16.691C7.05495 16.691 6.96609 16.7811 6.96609 16.8922C6.96609 17.0034 7.05495 17.0934 7.16457 17.0934H11.0124C11.1221 17.0934 11.2109 17.0034 11.2109 16.8922C11.2109 16.7811 11.1221 16.691 11.0124 16.691H7.16457ZM7.16457 17.6299C7.05495 17.6299 6.96609 17.72 6.96609 17.8311C6.96609 17.9422 7.05495 18.0323 7.16457 18.0323H11.0124C11.1221 18.0323 11.2109 17.9422 11.2109 17.8311C11.2109 17.72 11.1221 17.6299 11.0124 17.6299H7.16457Z" fill="#8CB369"/>
<path d="M7.25223 1.03791C7.7584 1.47509 7.7584 1.47509 7.85191 1.66381C7.88732 1.66387 7.92274 1.66393 7.95922 1.66399C8.82232 1.66553 9.68542 1.66799 10.5485 1.67145C10.9659 1.6731 11.3833 1.67445 11.8007 1.67507C12.1647 1.67561 12.5286 1.67673 12.8926 1.67854C13.0851 1.67948 13.2777 1.68013 13.4703 1.68009C13.6519 1.68006 13.8334 1.68081 14.015 1.68214C14.0813 1.68249 14.1477 1.68257 14.214 1.68233C14.8434 1.68041 15.3673 1.81355 15.8499 2.24393C16.3067 2.72081 16.4384 3.26283 16.4287 3.90477C16.4087 4.44458 16.1415 4.88717 15.7589 5.25429C15.2715 5.64462 14.7723 5.71275 14.1724 5.70719C14.1039 5.70702 14.0353 5.70691 13.9668 5.70685C13.8197 5.70663 13.6727 5.70606 13.5257 5.70521C13.2931 5.70393 13.0605 5.70382 12.8279 5.70394C12.1667 5.70412 11.5055 5.70314 10.8443 5.70006C10.4787 5.69837 10.113 5.69786 9.74737 5.69866C9.51624 5.6991 9.28517 5.69808 9.05405 5.69599C8.91023 5.69503 8.76644 5.69547 8.62262 5.69631C8.55607 5.69642 8.48951 5.69596 8.42297 5.69488C8.06849 5.67923 8.06849 5.67923 7.75014 5.8091C7.67749 5.89212 7.6206 5.97411 7.56365 6.06847C7.01918 6.63863 6.2737 7.00717 5.48437 7.03411C4.4244 7.05282 3.59142 6.79541 2.80604 6.05305C2.55038 5.78403 2.24688 5.40179 2.19107 5.02509C2.21654 4.8653 2.25673 4.80738 2.37493 4.69721C2.50281 4.66653 2.62829 4.66921 2.75923 4.67075C2.81544 4.67011 2.81544 4.67011 2.87278 4.66945C2.99254 4.66821 3.11224 4.66835 3.232 4.66864C3.3513 4.66827 3.47059 4.6676 3.58989 4.6665C3.66405 4.66589 3.73821 4.66572 3.81237 4.66608C4.06668 4.66492 4.29086 4.65281 4.49829 4.48944C4.71254 4.22337 4.89265 3.96862 4.88693 3.61682C4.85203 3.50497 4.81908 3.42616 4.76339 3.32595C4.74486 3.29092 4.72634 3.25588 4.70725 3.21979C4.59613 3.01987 4.52036 2.8882 4.31041 2.78575C4.11317 2.73085 3.91475 2.73859 3.71185 2.73835C3.63444 2.73759 3.55704 2.73678 3.47964 2.73592C3.35809 2.73471 3.23656 2.73381 3.115 2.73379C2.99735 2.73365 2.87977 2.73222 2.76213 2.73056C2.72579 2.73086 2.68945 2.73115 2.65202 2.73145C2.40055 2.7264 2.40055 2.7264 2.26941 2.60478C2.1971 2.47053 2.19023 2.3965 2.21021 2.24556C2.4779 1.53902 3.11421 0.976621 3.77136 0.648183C3.89475 0.593232 4.01839 0.545212 4.14569 0.500311C4.18332 0.486973 4.22096 0.473635 4.25974 0.459893C5.27023 0.166421 6.42478 0.391374 7.25223 1.03791Z" fill="#8CB369"/>
</svg>
