<svg width="16" height="16" viewBox="0 0 16 16" fill="none" xmlns="http://www.w3.org/2000/svg">
<g clip-path="url(#clip0_1957_1311)">
<path d="M8.5499 3.14392C8.6101 3.14386 8.67031 3.14377 8.73051 3.14365C8.85573 3.14351 8.98094 3.14371 9.10616 3.14415C9.26499 3.14469 9.42381 3.14438 9.58265 3.14382C9.70668 3.14348 9.83071 3.14359 9.95474 3.14383C10.0132 3.14389 10.0717 3.14382 10.1302 3.1436C10.8086 3.14159 11.469 3.21012 12.0313 3.62512C12.0557 3.64301 12.0801 3.6609 12.1052 3.67932C12.6015 4.08047 12.7763 4.70332 12.8438 5.31262C12.8589 5.52687 12.8571 5.74153 12.8563 5.95618C12.8564 6.01638 12.8564 6.07659 12.8566 6.13679C12.8567 6.26201 12.8565 6.38722 12.8561 6.51244C12.8555 6.67127 12.8558 6.83009 12.8564 6.98893C12.8567 7.11296 12.8566 7.23699 12.8564 7.36103C12.8563 7.41952 12.8564 7.47802 12.8566 7.53652C12.8586 8.21824 12.7874 8.87052 12.3751 9.43762C12.3607 9.45777 12.3463 9.47791 12.3315 9.49866C11.9669 9.96516 11.3756 10.1441 10.8152 10.2334C10.6274 10.2552 10.4389 10.2534 10.2501 10.2501C10.2512 10.2752 10.2523 10.3002 10.2534 10.3261C10.27 11.0243 10.1062 11.7106 9.61801 12.2305C9.02081 12.7886 8.23629 12.8593 7.45822 12.8563C7.39879 12.8564 7.33936 12.8565 7.27993 12.8566C7.15632 12.8567 7.03271 12.8565 6.9091 12.8561C6.75243 12.8556 6.59579 12.8559 6.43913 12.8564C6.31668 12.8568 6.19423 12.8567 6.07177 12.8564C6.01409 12.8564 5.9564 12.8564 5.89871 12.8567C5.23451 12.8586 4.50764 12.8094 3.96884 12.3751C3.93047 12.3454 3.93047 12.3454 3.89133 12.3151C3.41976 11.9241 3.22632 11.3408 3.16075 10.7483C3.14757 10.567 3.19 10.4522 3.28525 10.3009C3.4081 10.1887 3.52224 10.1298 3.69015 10.1222C3.84385 10.134 3.94607 10.1834 4.06259 10.2814C4.1895 10.4382 4.07351 10.5551 4.10371 10.7483C4.15983 11.0581 4.36752 11.3551 4.63681 11.547C5.05661 11.7905 5.50226 11.7912 5.97433 11.7908C6.03235 11.7909 6.09036 11.791 6.14838 11.7912C6.26954 11.7914 6.3907 11.7914 6.51186 11.7912C6.66599 11.7911 6.8201 11.7916 6.97422 11.7923C7.09394 11.7928 7.21365 11.7928 7.33336 11.7927C7.39013 11.7927 7.4469 11.7929 7.50366 11.7932C7.99014 11.7956 8.46872 11.7745 8.86923 11.463C9.1935 11.0461 9.2021 10.5448 9.20004 10.0405C9.20011 9.98498 9.2002 9.92942 9.20031 9.87387C9.20045 9.75807 9.20025 9.64228 9.19981 9.52648C9.19928 9.37962 9.19959 9.23278 9.20015 9.08591C9.20049 8.97134 9.20038 8.85678 9.20014 8.74221C9.20008 8.68813 9.20015 8.63406 9.20037 8.57999C9.2047 7.82076 9.2047 7.82076 8.884 7.15589C8.49169 6.774 7.87916 6.80274 7.36862 6.80323C7.31435 6.8031 7.26008 6.80297 7.20581 6.80282C7.09263 6.80259 6.97947 6.80259 6.86629 6.80276C6.72269 6.80294 6.57909 6.80241 6.43549 6.80169C6.32355 6.80122 6.21161 6.8012 6.09967 6.8013C6.04679 6.80128 5.99391 6.80112 5.94103 6.8008C5.47548 6.79834 4.65574 6.84526 4.28275 7.16198C4.05465 7.43274 4.14664 10.4222 4.10371 10.7483C4.07573 10.9389 4.11429 10.3933 3.97275 10.5277C3.81134 10.6027 3.74027 10.5513 3.56527 10.5277C3.41181 10.4565 3.23956 10.8971 3.16075 10.7483C3.12201 10.5701 3.16333 7.85865 3.19345 7.68177C3.19783 7.65554 3.20221 7.62931 3.20673 7.60228C3.3029 7.05521 3.52554 6.55912 3.97275 6.21497C4.49786 5.84883 5.11824 5.72603 5.75009 5.75012C5.749 5.72994 5.74792 5.70976 5.7468 5.68897C5.72798 5.03407 5.88885 4.34722 6.31454 3.83606C6.90606 3.21948 7.74203 3.14086 8.5499 3.14392ZM7.13095 4.50989C6.86817 4.83274 6.77903 5.18823 6.78073 5.60156C6.78082 5.62946 6.78091 5.65735 6.781 5.68609C6.78111 5.70722 6.78122 5.72835 6.78134 5.75012C6.81564 5.75074 6.84994 5.75136 6.88528 5.752C7.01506 5.75442 7.14482 5.75718 7.27458 5.76004C7.33027 5.76122 7.38597 5.76232 7.44167 5.76331C8.19739 5.77693 9.0188 5.82793 9.60104 6.37708C10.168 6.99788 10.2254 7.78978 10.2384 8.58802C10.2396 8.6494 10.2408 8.71078 10.242 8.77216C10.245 8.92106 10.2476 9.06996 10.2501 9.21887C10.2942 9.21928 10.3383 9.21957 10.3824 9.21981C10.407 9.21999 10.4316 9.22016 10.4569 9.22034C10.83 9.213 11.2095 9.12272 11.4942 8.87317C11.8522 8.48315 11.8224 7.89833 11.822 7.40467C11.8221 7.3474 11.8222 7.29013 11.8224 7.23286C11.8226 7.11335 11.8226 6.99385 11.8225 6.87435C11.8223 6.72236 11.8228 6.57038 11.8235 6.4184C11.824 6.30027 11.824 6.18214 11.8239 6.06401C11.8239 6.00803 11.8241 5.95204 11.8244 5.89606C11.8268 5.42264 11.8195 4.86994 11.4746 4.50208C11.0604 4.1674 10.5294 4.17778 10.0258 4.17823C9.96783 4.1781 9.90982 4.17797 9.85181 4.17782C9.73064 4.17759 9.60948 4.17759 9.48832 4.17776C9.33419 4.17794 9.18008 4.17741 9.02596 4.17669C8.90625 4.17622 8.78654 4.1762 8.66682 4.1763C8.61005 4.17628 8.55329 4.17612 8.49652 4.1758C8.01438 4.17344 7.52146 4.1888 7.13095 4.50989Z" fill="#535353"/>
<path d="M14.8437 9.49984C14.9837 9.56732 15.0682 9.65389 15.1562 9.78109C15.413 10.5515 14.9673 11.6949 14.6244 12.3819C14.3782 12.8596 14.0625 13.2732 13.6875 13.6561C13.6638 13.6813 13.6401 13.7066 13.6157 13.7326C12.713 14.6765 11.3752 15.1645 10.0879 15.1971C9.91013 15.1933 9.77319 15.1777 9.64084 15.0478C9.5049 14.8907 9.48153 14.782 9.48351 14.5779C9.51533 14.3666 9.63578 14.1969 9.74802 14.0194C9.77131 13.9812 9.79452 13.9429 9.81766 13.9046C9.87569 13.8091 9.93518 13.7145 9.99507 13.6201C10.0322 13.5608 10.0682 13.5009 10.104 13.4407C10.1279 13.4014 10.1519 13.3621 10.1759 13.3228C10.1969 13.2878 10.2179 13.2528 10.2395 13.2167C10.3428 13.0866 10.4552 13.0128 10.6223 12.9843C10.9146 12.9907 10.9146 12.9907 11.0312 13.0936C11.1646 13.2331 11.2326 13.3494 11.2323 13.5476C11.2035 13.7114 11.1117 13.8561 11.0312 13.9998C11.722 13.7888 12.3047 13.4843 12.8437 12.9998C12.8689 12.9774 12.894 12.9549 12.9199 12.9317C13.7 12.1934 14.0783 11.1415 14.1294 10.0882C14.1435 9.85852 14.1902 9.7136 14.3593 9.54867C14.5209 9.47653 14.6696 9.47615 14.8437 9.49984Z" fill="#535353"/>
<path d="M5.79107 0.807598C5.98919 0.802419 6.14231 0.799947 6.31256 0.906352C6.44157 1.033 6.50624 1.13929 6.51751 1.31968C6.51498 1.58123 6.38688 1.76724 6.25201 1.98057C6.22872 2.01877 6.20551 2.05702 6.18237 2.09532C6.12434 2.19087 6.06485 2.28542 6.00496 2.37981C5.96784 2.43915 5.93187 2.49909 5.89604 2.55922C5.87209 2.59852 5.84813 2.63781 5.82415 2.6771C5.80314 2.71214 5.78213 2.74717 5.76049 2.78326C5.65721 2.91332 5.54482 2.98716 5.37774 3.01561C5.08547 3.00929 5.08547 3.00929 4.96881 2.90635C4.83539 2.76683 4.76739 2.65054 4.76776 2.45237C4.79649 2.28854 4.88832 2.14383 4.96881 2.0001C4.22084 2.22865 3.58573 2.56773 3.03131 3.1251C3.00331 3.1531 2.97531 3.1811 2.94647 3.20994C2.33972 3.84661 1.95418 4.74626 1.89239 5.61998C1.89009 5.65181 1.88778 5.68365 1.8854 5.71646C1.88121 5.77901 1.8777 5.8416 1.87497 5.90423C1.86228 6.10639 1.82216 6.25135 1.68756 6.40635C1.54713 6.51982 1.42082 6.5158 1.24627 6.51109C1.08319 6.49117 1.00292 6.41291 0.896542 6.29502C0.669165 5.96659 0.840003 5.30483 0.906307 4.9376C1.11973 3.96363 1.58565 3.08795 2.28131 2.3751C2.30709 2.34703 2.33287 2.31895 2.35943 2.29002C3.23284 1.36468 4.53805 0.86818 5.79107 0.807598Z" fill="#535353"/>
</g>
<defs>
<clipPath id="clip0_1957_1311">
<rect width="16" height="16" fill="white"/>
</clipPath>
</defs>
</svg>
