<svg width="24" height="25" viewBox="0 0 24 25" fill="none" xmlns="http://www.w3.org/2000/svg">
<path fill-rule="evenodd" clip-rule="evenodd" d="M10.3094 2.75002H13.6908C13.9072 2.74988 14.0957 2.74976 14.2737 2.77819C14.977 2.89049 15.5856 3.32915 15.9146 3.96084C15.9978 4.12073 16.0573 4.29961 16.1256 4.50494L16.2373 4.83984C16.2562 4.89653 16.2616 4.91258 16.2661 4.92522C16.4413 5.40933 16.8953 5.73659 17.4099 5.74964C17.4235 5.74998 17.44 5.75004 17.5001 5.75004H20.5001C20.9143 5.75004 21.2501 6.08582 21.2501 6.50004C21.2501 6.91425 20.9143 7.25004 20.5001 7.25004H3.5C3.08579 7.25004 2.75 6.91425 2.75 6.50004C2.75 6.08582 3.08579 5.75004 3.5 5.75004H6.50008C6.56013 5.75004 6.5767 5.74998 6.59023 5.74964C7.10488 5.73659 7.55891 5.40936 7.73402 4.92524C7.73863 4.91251 7.74392 4.89681 7.76291 4.83984L7.87452 4.50496C7.94281 4.29964 8.00233 4.12073 8.08559 3.96084C8.41453 3.32915 9.02313 2.89049 9.72643 2.77819C9.90445 2.74976 10.093 2.74988 10.3094 2.75002ZM9.00815 5.75004C9.05966 5.64902 9.10531 5.54404 9.14458 5.43548C9.1565 5.40251 9.1682 5.36742 9.18322 5.32234L9.28302 5.02292C9.37419 4.74941 9.39519 4.69363 9.41601 4.65364C9.52566 4.44307 9.72853 4.29686 9.96296 4.25942C10.0075 4.25231 10.067 4.25004 10.3553 4.25004H13.6448C13.9331 4.25004 13.9927 4.25231 14.0372 4.25942C14.2716 4.29686 14.4745 4.44307 14.5842 4.65364C14.605 4.69363 14.626 4.7494 14.7171 5.02292L14.8169 5.32216L14.8556 5.4355C14.8949 5.54405 14.9405 5.64902 14.992 5.75004H9.00815Z" fill="#A80101"/>
<path d="M5.91512 8.95014C5.88757 8.53684 5.53019 8.22414 5.11689 8.25169C4.7036 8.27924 4.39089 8.63662 4.41844 9.04992L4.88189 16.0017C4.96739 17.2844 5.03645 18.3205 5.19842 19.1336C5.36682 19.9789 5.65324 20.685 6.24483 21.2385C6.83643 21.7919 7.55998 22.0308 8.41463 22.1425C9.23665 22.2501 10.275 22.2501 11.5606 22.25H12.4395C13.7251 22.2501 14.7635 22.2501 15.5856 22.1425C16.4402 22.0308 17.1638 21.7919 17.7554 21.2385C18.347 20.685 18.6334 19.9789 18.8018 19.1336C18.9638 18.3206 19.0328 17.2844 19.1183 16.0017L19.5818 9.04992C19.6093 8.63662 19.2966 8.27924 18.8833 8.25169C18.47 8.22414 18.1126 8.53684 18.0851 8.95014L17.6251 15.8493C17.5353 17.1971 17.4713 18.1349 17.3307 18.8406C17.1943 19.525 17.004 19.8873 16.7306 20.1431C16.4572 20.3989 16.083 20.5647 15.391 20.6552C14.6776 20.7485 13.7376 20.75 12.3868 20.75H11.6134C10.2626 20.75 9.32258 20.7485 8.60918 20.6552C7.91718 20.5647 7.54302 20.3989 7.26961 20.1431C6.9962 19.8873 6.80586 19.525 6.66951 18.8406C6.52895 18.1349 6.46492 17.1971 6.37506 15.8493L5.91512 8.95014Z" fill="#A80101"/>
<path d="M9.42543 10.7538C9.83759 10.7125 10.2052 11.0133 10.2464 11.4254L10.7464 16.4254C10.7876 16.8376 10.4869 17.2051 10.0747 17.2463C9.66253 17.2875 9.295 16.9868 9.25378 16.5747L8.75378 11.5747C8.71257 11.1625 9.01328 10.795 9.42543 10.7538Z" fill="#A80101"/>
<path d="M14.5747 10.7538C14.9869 10.795 15.2876 11.1625 15.2464 11.5747L14.7464 16.5747C14.7052 16.9868 14.3376 17.2875 13.9255 17.2463C13.5133 17.2051 13.2126 16.8376 13.2538 16.4254L13.7538 11.4254C13.795 11.0133 14.1626 10.7125 14.5747 10.7538Z" fill="#A80101"/>
</svg>
