<svg width="257" height="100" viewBox="0 0 257 100" fill="none" xmlns="http://www.w3.org/2000/svg">
<path d="M253.298 64.009C253.298 64.009 252.336 15.464 250.651 2.07385C250.651 2.07385 250.049 0 247.162 0C247.162 0 89.3605 0.923022 78.9718 2.0868C78.9718 2.0868 72.8746 1.44453 62.9268 9.14985L35.3298 34.9945L33.2439 35.2349L31.9604 36.5998L27.4678 37.0009C27.4678 37.0009 15.6747 42.3783 7.57209 49.281C7.57209 49.281 5.64695 50.8863 4.84468 53.2942C4.04241 55.7018 0.11141 68.9452 0.11141 68.9452C0.11141 68.9452 -0.289914 74.6441 0.432395 77.6136H1.39535L4.12276 82.9109H3.16019C3.16019 82.9109 3.96245 85.4789 5.24601 85.8C5.24601 85.8 8.45471 87.2849 18.1619 87.0845L19.2048 86.8034H22.8952L60.0787 87.6609L62.0046 87.2129L188.759 85.2865L190.965 86.187L231.157 83.4725L231.598 83.7932H248.565L255.225 82.3091C255.225 82.3091 256.789 82.1079 256.789 79.66V70.3894L256.147 70.2286V69.6671L256.989 69.4664V68.1822C256.989 68.1822 257.39 65.895 253.298 64.009ZM95.931 30.339C92.5616 30.0982 91.358 38.5258 91.358 38.5258C67.2907 47.0334 55.6584 45.4281 55.6584 45.4281L59.4287 41.0942L60.7122 34.513L58.7867 33.3892L56.9415 29.6971L53.9731 30.3394V27.8515L53.0105 26.9688C56.1393 23.8386 71.7026 9.47174 71.7026 9.47174L98.4977 9.87288L95.931 30.339Z" fill="black"/>
<path d="M63.0053 86.1862L188.146 84.2841C188.152 83.5504 188.194 82.3497 188.37 80.8701L62.4015 83.3184C62.6238 84.2342 62.8272 85.1866 63.0053 86.1862Z" fill="#333333"/>
<path d="M250.651 2.07385C250.651 2.07385 250.049 0 247.161 0C247.161 0 89.3603 0.923022 78.9715 2.0868C78.9715 2.0868 73.9234 1.55729 65.5207 7.26495L67.6602 7.06305C67.6602 7.06305 52.8188 19.905 36.4532 35.4756L34.252 35.1187L33.2441 35.2349L31.9606 36.5998L27.4679 37.0009C27.4679 37.0009 15.6749 42.3783 7.57226 49.281C7.57226 49.281 5.64712 50.8863 4.84485 53.2942L1.30679 64.9324H28.9392C31.6792 63.705 35.092 62.9282 39.3413 62.8456C39.3413 62.8456 57.0201 61.1188 62.4019 83.3186L188.37 80.8702C189.194 73.8918 192.969 60.6776 209.737 60.6776C209.737 60.6776 216.059 59.8841 222.069 64.2097H250.228C250.161 61.1477 249.982 51.6146 250.25 48.3983C250.571 44.5459 252.81 44.6259 252.81 44.6259C252.366 29.5242 251.631 9.85879 250.651 2.07385ZM95.9791 30.339C92.6097 30.0983 91.4065 38.5258 91.4065 38.5258C67.3392 47.0334 55.7069 45.4281 55.7069 45.4281L59.4772 41.0942L60.7608 34.513L58.8352 33.3892L56.9901 29.6971L54.0216 30.3394V27.8515L53.0587 26.9688C56.1878 23.8386 71.7511 9.47174 71.7511 9.47174L98.5462 9.87288L95.9791 30.339Z" fill="black"/>
<path d="M252.809 44.6256C252.809 44.6256 250.57 44.5456 250.249 48.3981C249.982 51.6144 250.161 61.1478 250.227 64.2095H253.297L253.56 64.1398C253.471 64.0963 253.391 64.0521 253.297 64.0087C253.298 64.0087 253.129 55.5 252.809 44.6256Z" fill="#B00000"/>
<path d="M252.738 44.8726C252.738 44.8726 250.751 45.6386 250.602 47.8073C250.429 50.3128 250.533 61.4352 250.585 63.8176H253.214C253.214 63.8176 252.986 53.3333 252.738 44.8726Z" fill="#E70000"/>
<path d="M250.108 51.0469L21.6916 54.8993C21.6916 54.8993 34.2066 56.3439 55.5465 56.3439C57.1506 56.3439 250.109 53.6952 250.109 53.6952L250.108 51.0469Z" fill="#B3B3B3"/>
<path d="M0.111168 68.9455C0.111168 68.9455 0.0662387 69.587 0.033493 70.5504H21.9457C23.5578 68.3291 25.807 66.3356 28.9388 64.9326H1.30639C0.619488 67.2331 0.111168 68.9455 0.111168 68.9455Z" fill="url(#paint0_linear_1467_5889)"/>
<path d="M65.173 69.9886L189.52 67.9014C189.52 67.9014 147.002 71.2723 65.173 69.9886Z" fill="#808080"/>
<path d="M4.92527 78.4963H1.84984L3.9231 82.5232C12.5855 78.0422 4.92527 78.4963 4.92527 78.4963Z" fill="black"/>
<path d="M0.432154 77.6132H1.3951L1.84936 78.4959H4.92478C4.92478 78.4959 12.5854 78.0422 3.923 82.5228L4.12252 82.9106H3.15995C3.15995 82.9106 3.96221 85.4786 5.24577 85.7997C5.24577 85.7997 8.45446 87.2846 18.1617 87.0842C18.1617 87.0842 16.7943 77.649 21.9457 70.5498H0.0334937C-0.0312361 72.4606 -0.0479894 75.6392 0.432154 77.6132Z" fill="url(#paint1_linear_1467_5889)"/>
<path d="M67.6598 7.06299L65.5203 7.26489C64.6875 7.83059 63.8232 8.45494 62.9261 9.14978L35.3291 34.9944L34.2512 35.119L36.4524 35.4759C52.818 19.9049 67.6598 7.06299 67.6598 7.06299Z" fill="#4D4D4D"/>
<path d="M256.989 68.1823C256.989 68.1823 257.36 65.9995 253.562 64.1401L253.299 64.2098H222.069C223.795 65.4525 225.495 67.118 227.013 69.3465H256.989V68.1823Z" fill="url(#paint2_linear_1467_5889)"/>
<path d="M256.989 69.4667V69.3467H227.013C229.307 72.715 231.184 77.3678 232.098 83.7935H248.564L255.224 82.3094C255.224 82.3094 256.788 82.1082 256.788 79.6603V70.3893L256.146 70.2286V69.6671L256.989 69.4667Z" fill="url(#paint3_linear_1467_5889)"/>
<path d="M67.5547 83.7561L67.5402 83.6487C65.8477 70.9263 59.9462 64.9661 55.2941 62.2062C50.2634 59.2215 45.5903 59.2314 45.5195 59.2333L45.3957 59.2348L45.3976 59.1114L45.799 30.2939L45.8279 30.2608C53.3682 21.5258 72.6021 4.8919 72.7959 4.72467L72.8267 4.69762L72.8675 4.69572C90.1652 3.74374 101.65 4.6862 101.765 4.6961L101.875 4.70562V51.1269L97.6087 82.7866L67.5547 83.7561ZM45.6398 58.9945C46.4192 59.0135 50.779 59.2478 55.4167 61.9993C60.102 64.7783 66.04 70.7652 67.7645 83.5089L97.397 82.504L101.635 51.1105L101.634 4.92657C100.416 4.83286 89.275 4.03554 72.9212 4.93381C72.0397 5.69683 53.4447 21.8191 46.0385 30.3846L45.6398 58.9945Z" fill="#4F4F4F"/>
<path d="M45.9195 30.3389L33.8055 44.9469C33.8055 44.9469 31.0777 49.0401 35.7307 49.602L45.6553 49.2808L45.9195 30.3389Z" fill="url(#paint4_linear_1467_5889)"/>
<path opacity="0.19" d="M45.8376 30.2889L45.5744 49.1847H54.6229C61.4424 48.7032 68.1812 47.4191 68.1812 47.4191C68.1812 47.4191 90.002 41.7205 92.8097 40.8375C95.6175 39.9549 95.6978 37.6269 95.6978 37.6269C95.6978 37.6269 98.1846 16.5982 98.7462 11.7827C99.3078 6.9668 95.7781 6.9668 95.7781 6.9668H70.2841C64.8327 11.7613 51.7611 23.4376 45.8376 30.2889Z" fill="url(#paint5_linear_1467_5889)"/>
<path d="M95.826 7.06299H70.3323C64.8809 11.8575 51.8093 23.5338 45.8854 30.3847L45.6223 49.2805H54.6707C61.4898 48.799 68.2286 47.5145 68.2286 47.5145C68.2286 47.5145 90.0498 41.816 92.8575 40.9333C95.6653 40.0503 95.7456 37.7227 95.7456 37.7227C95.7456 37.7227 98.2324 16.6944 98.7936 11.8785C99.356 7.06299 95.826 7.06299 95.826 7.06299ZM95.979 30.3389C92.6097 30.0982 91.4064 38.5258 91.4064 38.5258C67.3391 47.0334 55.7068 45.4281 55.7068 45.4281L59.4771 41.0941L60.7607 34.5129L58.8352 33.3891L56.9896 29.6971L54.0215 30.3393V27.8514L53.0586 26.9687C56.1877 23.8385 71.751 9.47168 71.751 9.47168L98.5461 9.87282L95.979 30.3389Z" fill="url(#paint6_linear_1467_5889)"/>
<path d="M106.248 82.4704L106.247 82.35L105.765 4.26899L105.885 4.26746L178.688 3.49072L178.69 3.61034L179.775 81.9869L179.654 81.9877L106.248 82.4704ZM106.008 4.5067L106.487 82.2273L179.531 81.7477L178.451 3.73376L106.008 4.5067Z" fill="#4F4F4F"/>
<path d="M111.542 42.2182V51.0469H114.19C114.19 51.0469 115.353 50.7657 115.353 49.8831C115.353 49.0001 115.353 43.7427 115.353 43.7427C115.353 43.7427 115.433 42.2178 114.23 42.2178H111.542V42.2182Z" fill="#4D4D4D"/>
<path d="M178.998 34.5532C178.998 34.5532 243.07 34.2515 244.995 34.2515C247.583 34.2515 247.763 37.8632 244.995 37.8632H179.043L178.998 34.5532Z" fill="#666666"/>
<path d="M250.826 3.4917H178.57V3.73246H250.826V3.4917Z" fill="black"/>
<path d="M101.875 42.4585H98.5462V51.1265H101.875V42.4585Z" fill="#4D4D4D"/>
<path d="M48.4172 67.6907L47.2492 67.0309L47.7974 66.061L48.9658 66.7212L48.4172 67.6907Z" fill="black"/>
<path d="M49.9098 68.7294L48.8195 67.9488L49.4683 67.043L50.5589 67.8239L49.9098 68.7294Z" fill="black"/>
<path d="M51.2772 69.9179L50.2776 69.0234L51.0196 68.1934L52.02 69.0874L51.2772 69.9179Z" fill="black"/>
<path d="M52.5081 71.2484L51.6106 70.2511L52.4387 69.5063L53.3362 70.5029L52.5081 71.2484Z" fill="black"/>
<path d="M53.5904 72.7087L52.8068 71.6208L53.7104 70.9697L54.4948 72.0581L53.5904 72.7087Z" fill="black"/>
<path d="M54.5108 74.2785L53.8487 73.1117L54.8178 72.562L55.4799 73.7288L54.5108 74.2785Z" fill="black"/>
<path d="M55.2529 75.9302L54.72 74.699L55.742 74.2563L56.2753 75.4876L55.2529 75.9302Z" fill="black"/>
<path d="M55.819 77.6605L55.4202 76.3794L56.4837 76.0483L56.8826 77.3295L55.819 77.6605Z" fill="black"/>
<path d="M56.1948 79.4419L55.9358 78.125L57.0287 77.9102L57.2877 79.2267L56.1948 79.4419Z" fill="black"/>
<path d="M56.3774 81.2569L56.2619 79.9202L57.3713 79.8242L57.4874 81.1613L56.3774 81.2569Z" fill="black"/>
<path d="M56.3645 83.0643L56.3927 81.7227L57.5066 81.7467L57.478 83.088L56.3645 83.0643Z" fill="black"/>
<path d="M56.1555 84.8726L56.3288 83.542L57.4339 83.6868L57.2599 85.017L56.1555 84.8726Z" fill="black"/>
<path d="M55.7502 86.6428L56.0672 85.3389L57.1498 85.6021L56.8325 86.9061L55.7502 86.6428Z" fill="black"/>
<path d="M55.1584 88.3587L55.6148 87.0967L56.6624 87.4753L56.206 88.7374L55.1584 88.3587Z" fill="black"/>
<path d="M54.3813 90.0084L54.9702 88.8027L55.9713 89.2915L55.3828 90.4972L54.3813 90.0084Z" fill="black"/>
<path d="M53.4399 91.5586L54.1534 90.4219L55.0966 91.0139L54.3842 92.1506L53.4399 91.5586Z" fill="black"/>
<path d="M52.3264 93.0115L53.1584 91.959L54.0323 92.6496L53.2007 93.7026L52.3264 93.0115Z" fill="black"/>
<path d="M51.084 94.3119L52.0238 93.355L52.8189 94.1352L51.8791 95.0928L51.084 94.3119Z" fill="black"/>
<path d="M49.6858 95.4903L50.725 94.6416L51.4298 95.5037L50.3905 96.3528L49.6858 95.4903Z" fill="black"/>
<path d="M48.1819 96.5006L49.306 95.7681L49.914 96.7018L48.7895 97.4339L48.1819 96.5006Z" fill="black"/>
<path d="M46.5746 97.3446L47.7719 96.7378L48.2759 97.7309L47.0786 98.3378L46.5746 97.3446Z" fill="black"/>
<path d="M44.8811 98.014L46.1359 97.5386L46.5298 98.5801L45.2757 99.0551L44.8811 98.014Z" fill="black"/>
<path d="M43.1399 98.4943L44.4377 98.1553L44.7193 99.233L43.4214 99.572L43.1399 98.4943Z" fill="black"/>
<path d="M41.342 98.7882L42.6692 98.5908L42.833 99.6925L41.5062 99.8898L41.342 98.7882Z" fill="black"/>
<path d="M39.518 98.8869L40.8589 98.834L40.9027 99.9467L39.5622 100L39.518 98.8869Z" fill="black"/>
<path d="M37.7094 98.7881L39.048 98.8799L38.9718 99.9911L37.6332 99.8997L37.7094 98.7881Z" fill="black"/>
<path d="M35.9181 98.4937L37.2388 98.7295L37.0426 99.8266L35.7219 99.59L35.9181 98.4937Z" fill="black"/>
<path d="M34.1737 98.0078L35.4613 98.3857L35.1474 99.4546L33.8598 99.0771L34.1737 98.0078Z" fill="black"/>
<path d="M32.4743 97.3296L33.7132 97.8446L33.2858 98.8732L32.0469 98.3581L32.4743 97.3296Z" fill="black"/>
<path d="M30.8722 96.4824L32.0493 97.1254L31.5156 98.1033L30.3381 97.4595L30.8722 96.4824Z" fill="black"/>
<path d="M29.3606 95.4629L30.4623 96.2286L29.8265 97.1432L28.7248 96.3771L29.3606 95.4629Z" fill="black"/>
<path d="M27.9734 94.2905L28.986 95.1701L28.255 96.0109L27.2424 95.1309L27.9734 94.2905Z" fill="black"/>
<path d="M26.723 92.9756L27.6342 93.9599L26.8167 94.7161L25.9055 93.7318L26.723 92.9756Z" fill="black"/>
<path d="M25.6254 91.5391L26.425 92.616L25.5309 93.2796L24.7309 92.2027L25.6254 91.5391Z" fill="black"/>
<path d="M24.6826 89.9819L25.3615 91.1392L24.4007 91.7026L23.7219 90.545L24.6826 89.9819Z" fill="black"/>
<path d="M23.9113 88.3281L24.4614 89.5517L23.4458 90.0081L22.8958 88.7845L23.9113 88.3281Z" fill="black"/>
<path d="M23.3268 86.6177L23.7432 87.8935L22.6846 88.239L22.2678 86.9636L23.3268 86.6177Z" fill="black"/>
<path d="M22.9251 84.8418L23.2028 86.1545L22.1129 86.385L21.8352 85.0726L22.9251 84.8418Z" fill="black"/>
<path d="M22.7169 83.0425L22.8526 84.3773L21.7448 84.4904L21.6088 83.1556L22.7169 83.0425Z" fill="black"/>
<path d="M22.7041 81.212L22.6938 82.5537L21.5803 82.5453L21.5902 81.2036L22.7041 81.212Z" fill="black"/>
<path d="M22.8872 79.415L22.7325 80.7479L21.6263 80.6195L21.7806 79.2866L22.8872 79.415Z" fill="black"/>
<path d="M23.2672 77.6303L22.9685 78.9385L21.8829 78.6909L22.1815 77.3823L23.2672 77.6303Z" fill="black"/>
<path d="M23.8341 75.9102L23.396 77.1783L22.3431 76.8149L22.7812 75.5464L23.8341 75.9102Z" fill="black"/>
<path d="M24.5855 74.2535L24.0141 75.4671L23.0061 74.9932L23.5775 73.7788L24.5855 74.2535Z" fill="black"/>
<path d="M25.5064 72.6886L24.81 73.8353L23.8577 73.257L24.554 72.1104L25.5064 72.6886Z" fill="black"/>
<path d="M26.5931 71.2265L25.7768 72.2913L24.8926 71.614L25.709 70.5488L26.5931 71.2265Z" fill="black"/>
<path d="M27.8278 69.8946L26.9014 70.8656L26.0957 70.0961L27.0225 69.1255L27.8278 69.8946Z" fill="black"/>
<path d="M29.1921 68.7125L28.1666 69.5773L27.4485 68.7255L28.474 67.8604L29.1921 68.7125Z" fill="black"/>
<path d="M30.6934 67.6711L29.5796 68.4193L28.9582 67.4951L30.0721 66.7466L30.6934 67.6711Z" fill="black"/>
<path d="M32.2889 66.8037L31.1011 67.4281L30.583 66.4419L31.7708 65.8179L32.2889 66.8037Z" fill="black"/>
<path d="M33.9724 66.1104L32.7248 66.6033L32.3157 65.5672L33.5636 65.0742L33.9724 66.1104Z" fill="black"/>
<path d="M35.72 65.6022L34.4267 65.9588L34.1311 64.8849L35.4244 64.5283L35.72 65.6022Z" fill="black"/>
<path d="M37.4994 65.2863L36.1752 65.5023L35.9954 64.4033L37.3196 64.1865L37.4994 65.2863Z" fill="black"/>
<path d="M39.3078 65.1617L37.9684 65.2344L37.9075 64.1225L39.2472 64.0493L39.3078 65.1617Z" fill="black"/>
<path d="M41.1295 65.2336L39.7905 65.1616L39.8499 64.0488L41.19 64.1216L41.1295 65.2336Z" fill="black"/>
<path d="M42.9218 65.5017L41.5977 65.2846L41.7782 64.1855L43.102 64.4023L42.9218 65.5017Z" fill="black"/>
<path d="M44.6835 65.9649L43.391 65.605L43.6896 64.5322L44.9822 64.8918L44.6835 65.9649Z" fill="black"/>
<path d="M46.3749 66.6116L45.1281 66.1156L45.5399 65.0806L46.7867 65.5773L46.3749 66.6116Z" fill="black"/>
<path d="M57.411 82.0128C57.411 91.8674 49.426 99.8561 39.576 99.8561C29.7261 99.8561 21.7414 91.8674 21.7414 82.0128C21.7414 72.1582 29.7261 64.1694 39.576 64.1694C49.426 64.1694 57.411 72.1582 57.411 82.0128Z" fill="url(#paint7_radial_1467_5889)"/>
<path d="M51.8028 81.8359C51.8028 88.7177 46.2269 94.2962 39.3488 94.2962C32.4707 94.2962 26.8948 88.7173 26.8948 81.8359C26.8948 74.955 32.471 69.3765 39.3488 69.3765C46.2273 69.3765 51.8028 74.955 51.8028 81.8359Z" fill="url(#paint8_radial_1467_5889)"/>
<path d="M39.9181 70.1876L41.4343 75.3368C41.5055 75.5776 41.7957 75.6725 41.9948 75.5189L46.246 72.2447C46.5282 72.028 46.9196 72.3122 46.8 72.6478L45.0017 77.7048C44.9175 77.9406 45.0969 78.1878 45.3478 78.1813L50.7109 78.0328C51.0665 78.0229 51.2161 78.483 50.9222 78.6842L46.4962 81.7184C46.2891 81.8601 46.2891 82.1652 46.4962 82.3073L50.9222 85.3411C51.2157 85.5423 51.0665 86.0025 50.7109 85.9926L45.3478 85.844C45.0969 85.8367 44.9175 86.084 45.0017 86.3209L46.8 91.3779C46.9196 91.7132 46.5282 91.9974 46.246 91.7806L41.9948 88.5064C41.796 88.3533 41.5055 88.4481 41.4343 88.6885L39.9181 93.8377C39.8176 94.1794 39.334 94.1794 39.2339 93.8377L37.7177 88.6885C37.6469 88.4481 37.3563 88.3533 37.1576 88.5064L32.906 91.7806C32.6238 91.9974 32.2324 91.7132 32.352 91.3779L34.1503 86.3209C34.2344 86.084 34.0547 85.8367 33.8042 85.844L28.4411 85.9926C28.0851 86.0025 27.9359 85.5423 28.2294 85.3411L32.6554 82.3073C32.8622 82.1652 32.8622 81.8601 32.6554 81.7184L28.2294 78.6842C27.9359 78.483 28.0851 78.0229 28.4411 78.0328L33.8042 78.1813C34.0551 78.1878 34.2344 77.9406 34.1503 77.7048L32.352 72.6478C32.2324 72.3122 32.6238 72.028 32.906 72.2447L37.1576 75.5189C37.3563 75.6725 37.6469 75.5776 37.7177 75.3368L39.2339 70.1876C39.334 69.8463 39.8172 69.8463 39.9181 70.1876Z" fill="url(#paint9_radial_1467_5889)"/>
<path d="M37.8893 83.1329C37.4605 83.5988 36.7283 83.6289 36.2627 83.1996C35.797 82.7702 35.7669 82.0384 36.196 81.5722C36.6251 81.1063 37.357 81.0762 37.8226 81.5055C38.2887 81.9341 38.3184 82.667 37.8893 83.1329Z" fill="url(#paint10_radial_1467_5889)"/>
<path d="M40.3465 80.4652C39.9177 80.9318 39.1855 80.9615 38.7195 80.5326C38.2538 80.1029 38.2241 79.3703 38.6532 78.9052C39.082 78.4386 39.8142 78.4088 40.2798 78.8378C40.7455 79.2667 40.7756 79.9997 40.3465 80.4652Z" fill="url(#paint11_radial_1467_5889)"/>
<path d="M40.5415 85.5777C40.1124 86.044 39.3805 86.0741 38.9149 85.6447C38.4496 85.2154 38.4195 84.4832 38.8482 84.0173C39.2774 83.5518 40.0096 83.5214 40.4752 83.9507C40.9405 84.3796 40.9702 85.1118 40.5415 85.5777Z" fill="url(#paint12_radial_1467_5889)"/>
<path d="M42.9978 82.9107C42.5687 83.3762 41.8365 83.4063 41.3708 82.9774C40.9051 82.548 40.8751 81.8155 41.3042 81.35C41.7329 80.8837 42.4651 80.8544 42.9312 81.2833C43.3969 81.7123 43.4266 82.4444 42.9978 82.9107Z" fill="url(#paint13_radial_1467_5889)"/>
<path d="M28.007 70.7404L29.5506 69.3374L29.9192 69.7435L29.4013 70.2139L30.5257 71.4524L30.0178 71.9137L28.8934 70.6757L28.3755 71.1461L28.007 70.7404Z" fill="#1A1A1A"/>
<path d="M30.011 69.0224L30.5736 68.6255L31.8536 70.4411L31.2913 70.8376L30.011 69.0224Z" fill="#1A1A1A"/>
<path d="M32.1999 70.1804L31.1653 68.2151L32.177 67.6821C32.3651 67.5835 32.5171 67.5237 32.6324 67.5035C32.7489 67.4837 32.8601 67.5012 32.9667 67.5561C33.0733 67.6117 33.1598 67.702 33.2253 67.8269C33.2828 67.9362 33.3094 68.0425 33.3041 68.1458C33.2995 68.2498 33.2694 68.3473 33.2138 68.4395C33.1784 68.4977 33.1209 68.561 33.0417 68.6296C33.127 68.6158 33.1921 68.612 33.2378 68.6189C33.2687 68.6235 33.3193 68.641 33.3894 68.6715C33.4594 68.7016 33.5093 68.7275 33.5386 68.748L34.1319 69.1633L33.4461 69.524L32.8057 69.0943C32.7238 69.0387 32.6606 69.0075 32.6161 69.0014C32.5563 68.9941 32.4988 69.0048 32.4432 69.0337L32.3895 69.0619L32.8095 69.86L32.1999 70.1804ZM32.1942 68.6897L32.45 68.5549C32.4778 68.5404 32.5266 68.5031 32.5966 68.444C32.6328 68.4143 32.6545 68.3762 32.6629 68.3301C32.6709 68.284 32.6636 68.2391 32.6408 68.196C32.6073 68.1324 32.5616 68.0943 32.5037 68.0814C32.4459 68.0688 32.3613 68.0917 32.2505 68.1503L31.9836 68.2905L32.1942 68.6897Z" fill="#1A1A1A"/>
<path d="M33.5803 67.0218L35.3273 66.4478L35.4754 66.8984L34.3814 67.2576L34.4915 67.5933L35.5058 67.2599L35.6475 67.6904L34.6331 68.0233L34.7694 68.4393L35.8946 68.0702L36.0522 68.5475L34.2733 69.1319L33.5803 67.0218Z" fill="#1A1A1A"/>
<path d="M27.8421 70.65L29.3861 69.2466L29.7547 69.653L29.2368 70.1235L30.3612 71.3616L29.8537 71.8229L28.7293 70.5848L28.2114 71.0553L27.8421 70.65Z" fill="#555555"/>
<path d="M29.8469 68.9313L30.4091 68.5352L31.6895 70.35L31.1272 70.7469L29.8469 68.9313Z" fill="#555555"/>
<path d="M32.0356 70.0887L31.0011 68.1234L32.0128 67.5905C32.2005 67.4918 32.3524 67.4324 32.4681 67.4122C32.5843 67.3924 32.6958 67.4099 32.8017 67.4651C32.9087 67.5204 32.9947 67.6103 33.0606 67.7352C33.1181 67.8442 33.1448 67.9508 33.1398 68.0544C33.1349 68.1581 33.1048 68.2563 33.0492 68.3478C33.0138 68.4064 32.9563 68.47 32.8771 68.5382C32.9616 68.5238 33.0275 68.5207 33.0732 68.5276C33.104 68.5318 33.1543 68.5493 33.2247 68.5798C33.2952 68.6099 33.3447 68.6361 33.3744 68.6571L33.968 69.0719L33.2822 69.4327L32.6418 69.003C32.5595 68.947 32.4967 68.9154 32.4522 68.9097C32.3924 68.902 32.3345 68.9135 32.2793 68.9428L32.2256 68.971L32.6452 69.7679L32.0356 70.0887ZM32.0299 68.5988L32.2858 68.464C32.3136 68.4495 32.3623 68.4125 32.4324 68.3527C32.4685 68.3234 32.4902 68.2853 32.4982 68.2388C32.5066 68.1927 32.4994 68.1478 32.4765 68.1043C32.443 68.0415 32.3973 68.003 32.3395 67.9901C32.2816 67.9775 32.1967 68 32.0859 68.0586L31.8189 68.1992L32.0299 68.5988Z" fill="#555555"/>
<path d="M33.4162 66.9306L35.1628 66.3569L35.3109 66.808L34.217 67.1668L34.327 67.5024L35.3414 67.1687L35.4827 67.5996L34.4679 67.9325L34.6046 68.3489L35.7298 67.979L35.887 68.4571L34.1085 69.041L33.4162 66.9306Z" fill="#555555"/>
<path d="M36.4885 66.1151L38.5666 65.9312L38.6149 66.4774L37.9174 66.5395L38.0652 68.2054L37.3814 68.2663L37.2336 66.5993L36.5361 66.6614L36.4885 66.1151Z" fill="#1A1A1A"/>
<path d="M39.1235 65.9585L39.8111 65.9825L39.7342 68.2023L39.0462 68.1782L39.1235 65.9585Z" fill="#1A1A1A"/>
<path d="M40.1672 68.203L40.5305 66.0122L41.6583 66.1989C41.8677 66.2335 42.0246 66.2785 42.1289 66.3322C42.2332 66.3867 42.3117 66.4674 42.3631 66.576C42.4149 66.685 42.429 66.8084 42.4061 66.9482C42.3859 67.0697 42.3425 67.1707 42.2763 67.2503C42.2096 67.3295 42.1266 67.3889 42.0269 67.4293C41.9633 67.4541 41.8791 67.4701 41.7744 67.4762C41.8506 67.5166 41.905 67.5535 41.9374 67.5863C41.9595 67.6087 41.9892 67.6533 42.0265 67.7196C42.0638 67.7863 42.0882 67.8369 42.0988 67.8716L42.3212 68.5607L41.5562 68.4335L41.3057 67.7044C41.2737 67.6103 41.2425 67.547 41.2109 67.5154C41.1679 67.4739 41.1153 67.4468 41.0536 67.4373L40.9939 67.427L40.8469 68.3165L40.1672 68.203ZM41.0628 67.0126L41.3483 67.0598C41.3796 67.0655 41.4409 67.0655 41.5323 67.0598C41.5791 67.0587 41.6195 67.0411 41.6533 67.0091C41.688 66.9768 41.7093 66.9375 41.7169 66.8891C41.7287 66.8183 41.7154 66.7604 41.6769 66.7154C41.6381 66.6701 41.557 66.637 41.4336 66.6168L41.1363 66.5672L41.0628 67.0126Z" fill="#1A1A1A"/>
<path d="M43.1751 66.5215L44.9133 67.1211L44.759 67.5687L43.6708 67.1942L43.5555 67.5283L44.5649 67.8757L44.4175 68.3043L43.4081 67.9565L43.2657 68.3702L44.3855 68.7565L44.2222 69.2319L42.4524 68.622L43.1751 66.5215Z" fill="#1A1A1A"/>
<path d="M36.4123 65.9432L38.4904 65.7588L38.5388 66.3051L37.8416 66.3671L37.9894 68.0334L37.306 68.094L37.1582 66.4273L36.4611 66.4894L36.4123 65.9432Z" fill="#555555"/>
<path d="M39.0465 65.7856L39.7345 65.81L39.6576 68.0298L38.97 68.0065L39.0465 65.7856Z" fill="#555555"/>
<path d="M40.091 68.0319L40.4543 65.8403L41.5821 66.0274C41.7915 66.062 41.9484 66.1062 42.0527 66.1607C42.1571 66.2152 42.2355 66.2963 42.2869 66.4049C42.3387 66.5131 42.3528 66.6373 42.3299 66.7767C42.3098 66.8982 42.2663 66.9988 42.2001 67.0788C42.1338 67.1584 42.0505 67.2182 41.9507 67.2582C41.8871 67.283 41.8033 67.2986 41.6986 67.3051C41.7748 67.3451 41.8288 67.382 41.8612 67.4151C41.8833 67.4372 41.913 67.4818 41.9503 67.5485C41.988 67.6155 42.012 67.6658 42.0227 67.7005L42.2454 68.3896L41.4805 68.2627L41.2299 67.5332C41.1983 67.4391 41.1671 67.3755 41.1355 67.3439C41.0921 67.3024 41.0399 67.2761 40.9778 67.2658L40.9181 67.2555L40.7707 68.1454L40.091 68.0319ZM40.9866 66.8411L41.2722 66.8883C41.3034 66.8936 41.3643 66.8936 41.4565 66.8883C41.5029 66.8868 41.5433 66.8696 41.5775 66.8376C41.6118 66.8053 41.6331 66.7656 41.6411 66.7176C41.6526 66.6472 41.6396 66.5893 41.6008 66.5436C41.5623 66.4982 41.4812 66.4655 41.3575 66.4449L41.0601 66.3954L40.9866 66.8411Z" fill="#555555"/>
<path d="M43.0991 66.3496L44.8376 66.9488L44.683 67.3976L43.5948 67.0224L43.4798 67.3564L44.4892 67.7039L44.3419 68.1324L43.3321 67.7842L43.1897 68.1991L44.3091 68.585L44.1458 69.06L42.376 68.4505L43.0991 66.3496Z" fill="#555555"/>
<path d="M51.6692 91.1881L50.3285 92.7854L49.9085 92.433L50.3582 91.897L49.0773 90.8216L49.5186 90.2959L50.7995 91.3713L51.2492 90.8349L51.6692 91.1881Z" fill="#1A1A1A"/>
<path d="M49.9159 93.1609L49.4119 93.6295L47.8985 92.0032L48.4024 91.5347L49.9159 93.1609Z" fill="#1A1A1A"/>
<path d="M47.5905 92.3091L48.8802 94.117L47.9496 94.781C47.7767 94.9044 47.6343 94.9837 47.522 95.0195C47.4097 95.0549 47.2969 95.0526 47.1839 95.0123C47.0708 94.9723 46.9733 94.8942 46.8911 94.7795C46.8195 94.6793 46.7791 94.5772 46.77 94.474C46.7612 94.3704 46.7776 94.2694 46.8202 94.1704C46.8476 94.1079 46.896 94.0374 46.9653 93.9589C46.8831 93.9841 46.8187 93.9967 46.7726 93.9963C46.7414 93.9963 46.6892 93.986 46.6154 93.965C46.5419 93.9445 46.4886 93.9254 46.4566 93.9087L45.8127 93.578L46.444 93.127L47.1363 93.4668C47.225 93.5106 47.292 93.5334 47.3365 93.5338C47.3971 93.533 47.4527 93.5144 47.5033 93.4778L47.5528 93.4431L47.0293 92.7091L47.5905 92.3091ZM47.7973 93.7841L47.5616 93.9525C47.5361 93.9704 47.4927 94.0142 47.431 94.0828C47.3994 94.1167 47.383 94.157 47.3815 94.2043C47.3796 94.2511 47.3925 94.2946 47.4211 94.3342C47.4626 94.3925 47.5128 94.4237 47.5719 94.429C47.6313 94.4332 47.712 94.4001 47.814 94.3265L48.0596 94.1513L47.7973 93.7841Z" fill="#1A1A1A"/>
<path d="M46.6477 95.625L44.9941 96.4288L44.7869 96.0025L45.8222 95.4993L45.668 95.1816L44.7081 95.649L44.5101 95.241L45.4704 94.7743L45.2793 94.3808L44.2143 94.8981L43.9942 94.4456L45.6776 93.627L46.6477 95.625Z" fill="#1A1A1A"/>
<path d="M51.8449 91.2559L50.5042 92.854L50.0842 92.5012L50.5339 91.9649L49.253 90.8899L49.694 90.3638L50.9749 91.4392L51.4245 90.9036L51.8449 91.2559Z" fill="#555555"/>
<path d="M50.0911 93.2289L49.5872 93.6975L48.0737 92.0716L48.5773 91.603L50.0911 93.2289Z" fill="#555555"/>
<path d="M47.7653 92.3765L49.0546 94.184L48.124 94.8492C47.9515 94.9718 47.8091 95.0518 47.6968 95.0872C47.5845 95.1227 47.4717 95.12 47.3587 95.0796C47.2456 95.0396 47.1477 94.9615 47.0659 94.8469C46.9939 94.7463 46.9535 94.645 46.9448 94.541C46.9356 94.4381 46.9524 94.3372 46.9947 94.2385C47.0221 94.1757 47.07 94.1048 47.1397 94.0267C47.0575 94.0518 46.9931 94.0644 46.9471 94.0644C46.9158 94.0644 46.8637 94.0534 46.7898 94.0328C46.7163 94.0122 46.6634 93.9932 46.6314 93.9764L45.9875 93.6454L46.6185 93.1951L47.3111 93.5345C47.3998 93.5791 47.4668 93.602 47.5113 93.602C47.5719 93.6008 47.6271 93.5821 47.6781 93.546L47.7272 93.5102L47.2041 92.7764L47.7653 92.3765ZM47.9717 93.8526L47.7364 94.0202C47.7109 94.0389 47.6675 94.0816 47.6062 94.1505C47.5742 94.184 47.5578 94.2248 47.5563 94.272C47.5544 94.3185 47.5673 94.3619 47.5959 94.4019C47.6378 94.4598 47.688 94.4918 47.747 94.4968C47.8064 94.5017 47.8875 94.4678 47.9888 94.3951L48.2344 94.2198L47.9717 93.8526Z" fill="#555555"/>
<path d="M46.8229 95.6925L45.1692 96.4959L44.9617 96.0696L45.997 95.5664L45.8428 95.2487L44.8821 95.7153L44.6841 95.3085L45.6448 94.8415L45.4537 94.4476L44.3883 94.9653L44.1682 94.5135L45.8519 93.6948L46.8229 95.6925Z" fill="#555555"/>
<path d="M43.8888 96.9145L41.8555 97.3774L41.7336 96.8425L42.416 96.6875L42.0451 95.0567L42.7141 94.9043L43.085 96.5355L43.7673 96.3804L43.8888 96.9145Z" fill="#1A1A1A"/>
<path d="M41.2997 97.4264L40.6151 97.4954L40.3919 95.2852L41.0764 95.2158L41.2997 97.4264Z" fill="#1A1A1A"/>
<path d="M39.9615 95.3418L39.8967 97.5616L38.7537 97.5284C38.542 97.522 38.3805 97.4991 38.2694 97.4595C38.1586 97.4202 38.0702 97.3498 38.0043 97.2496C37.9389 97.149 37.9076 97.0283 37.9118 96.8869C37.9152 96.7639 37.9446 96.6576 38.0002 96.5704C38.055 96.4828 38.1292 96.4123 38.2225 96.359C38.2823 96.325 38.3634 96.2988 38.4658 96.2782C38.3851 96.2485 38.3265 96.2199 38.2899 96.191C38.2655 96.1723 38.2298 96.1319 38.1837 96.0713C38.1372 96.0104 38.1068 95.9635 38.0915 95.9304L37.7785 95.2778L38.5534 95.3003L38.8999 95.9894C38.9441 96.0786 38.9837 96.1372 39.0191 96.1643C39.0678 96.2001 39.1234 96.2188 39.1859 96.2207L39.2464 96.2222L39.2727 95.3216L39.9615 95.3418ZM39.2342 96.6428L38.9448 96.6344C38.9136 96.6325 38.8527 96.6412 38.7624 96.6587C38.7168 96.6667 38.6787 96.6888 38.6494 96.7254C38.6193 96.7616 38.6037 96.8043 38.6021 96.853C38.6002 96.9246 38.6212 96.9806 38.6654 97.0203C38.7095 97.0595 38.7944 97.0812 38.9197 97.085L39.2209 97.0938L39.2342 96.6428Z" fill="#1A1A1A"/>
<path d="M37.2074 97.4139L35.4045 97.0551L35.4971 96.5896L36.626 96.8147L36.6949 96.4681L35.6482 96.2597L35.7362 95.8155L36.7837 96.0239L36.8693 95.5946L35.7076 95.3629L35.8059 94.8696L37.6415 95.2357L37.2074 97.4139Z" fill="#1A1A1A"/>
<path d="M43.988 97.0748L41.9547 97.5376L41.8332 97.0032L42.5156 96.8481L42.1447 95.2169L42.8137 95.0649L43.1846 96.6958L43.8669 96.5407L43.988 97.0748Z" fill="#555555"/>
<path d="M41.3979 97.5866L40.7133 97.6559L40.4905 95.4453L41.1754 95.376L41.3979 97.5866Z" fill="#555555"/>
<path d="M40.0604 95.502L39.9961 97.7221L38.8534 97.6886C38.6413 97.6825 38.4799 97.6593 38.3691 97.62C38.2579 97.5804 38.1699 97.5103 38.1041 97.4097C38.0382 97.3092 38.0074 97.1884 38.0112 97.0471C38.0146 96.924 38.0443 96.8181 38.0991 96.7309C38.1543 96.6433 38.2286 96.5724 38.3219 96.5199C38.3816 96.4863 38.4624 96.4589 38.5652 96.4383C38.4845 96.4094 38.4258 96.3801 38.3889 96.3515C38.3641 96.3328 38.3287 96.2928 38.2827 96.2315C38.2362 96.1709 38.2057 96.1237 38.1901 96.0913L37.8771 95.438L38.652 95.4605L38.9989 96.15C39.0427 96.2387 39.0823 96.2974 39.118 96.3244C39.1668 96.3602 39.222 96.3793 39.2848 96.3808L39.3454 96.3823L39.3713 95.4818L40.0604 95.502ZM39.3336 96.8025L39.0442 96.7941C39.013 96.7926 38.952 96.8014 38.8618 96.8185C38.8157 96.8269 38.7784 96.849 38.7483 96.8856C38.7186 96.9221 38.703 96.9644 38.7015 97.0136C38.6996 97.0852 38.7205 97.1408 38.7647 97.1804C38.8092 97.2204 38.8942 97.2417 39.019 97.2452L39.3206 97.2536L39.3336 96.8025Z" fill="#555555"/>
<path d="M37.3061 97.5738L35.5032 97.215L35.5953 96.7498L36.7243 96.9746L36.7932 96.6287L35.7457 96.42L35.834 95.9754L36.8815 96.1838L36.9672 95.7544L35.8059 95.5236L35.9037 95.0303L37.7398 95.3956L37.3061 97.5738Z" fill="#555555"/>
<path d="M218.888 67.6907L217.72 67.0309L218.268 66.061L219.436 66.7212L218.888 67.6907Z" fill="black"/>
<path d="M220.381 68.7294L219.29 67.9488L219.939 67.043L221.03 67.8239L220.381 68.7294Z" fill="black"/>
<path d="M221.747 69.9179L220.747 69.0234L221.489 68.1934L222.489 69.0874L221.747 69.9179Z" fill="black"/>
<path d="M222.978 71.2484L222.08 70.2511L222.908 69.5063L223.805 70.5029L222.978 71.2484Z" fill="black"/>
<path d="M224.062 72.7087L223.278 71.6208L224.181 70.9697L224.966 72.0581L224.062 72.7087Z" fill="black"/>
<path d="M224.981 74.2785L224.319 73.1117L225.287 72.562L225.949 73.7288L224.981 74.2785Z" fill="black"/>
<path d="M225.723 75.9302L225.19 74.699L226.212 74.2563L226.745 75.4876L225.723 75.9302Z" fill="black"/>
<path d="M226.289 77.6605L225.89 76.3794L226.953 76.0483L227.352 77.3295L226.289 77.6605Z" fill="black"/>
<path d="M226.666 79.4419L226.406 78.125L227.499 77.9102L227.758 79.2267L226.666 79.4419Z" fill="black"/>
<path d="M226.847 81.2569L226.732 79.9202L227.842 79.8242L227.958 81.1613L226.847 81.2569Z" fill="black"/>
<path d="M226.834 83.0643L226.862 81.7227L227.976 81.7467L227.948 83.088L226.834 83.0643Z" fill="black"/>
<path d="M226.625 84.8726L226.799 83.542L227.904 83.6868L227.73 85.017L226.625 84.8726Z" fill="black"/>
<path d="M226.221 86.6428L226.538 85.3389L227.621 85.6021L227.304 86.9061L226.221 86.6428Z" fill="black"/>
<path d="M225.627 88.3587L226.084 87.0967L227.131 87.4753L226.675 88.7374L225.627 88.3587Z" fill="black"/>
<path d="M224.852 90.0084L225.44 88.8027L226.442 89.2915L225.853 90.4972L224.852 90.0084Z" fill="black"/>
<path d="M223.91 91.5586L224.623 90.4219L225.567 91.0139L224.854 92.1506L223.91 91.5586Z" fill="black"/>
<path d="M222.797 93.0115L223.629 91.959L224.503 92.6496L223.671 93.7026L222.797 93.0115Z" fill="black"/>
<path d="M221.554 94.3119L222.494 93.355L223.289 94.1352L222.349 95.0928L221.554 94.3119Z" fill="black"/>
<path d="M220.156 95.4903L221.196 94.6416L221.9 95.5037L220.861 96.3528L220.156 95.4903Z" fill="black"/>
<path d="M218.652 96.5006L219.776 95.7681L220.384 96.7018L219.259 97.4339L218.652 96.5006Z" fill="black"/>
<path d="M217.044 97.3446L218.242 96.7378L218.746 97.7309L217.549 98.3378L217.044 97.3446Z" fill="black"/>
<path d="M215.352 98.014L216.606 97.5386L217.001 98.5801L215.746 99.0551L215.352 98.014Z" fill="black"/>
<path d="M213.61 98.4943L214.907 98.1553L215.189 99.233L213.891 99.572L213.61 98.4943Z" fill="black"/>
<path d="M211.812 98.7882L213.139 98.5908L213.303 99.6925L211.976 99.8898L211.812 98.7882Z" fill="black"/>
<path d="M209.989 98.8869L211.329 98.834L211.372 99.9467L210.032 100L209.989 98.8869Z" fill="black"/>
<path d="M208.179 98.7881L209.518 98.8799L209.441 99.9911L208.103 99.8997L208.179 98.7881Z" fill="black"/>
<path d="M206.388 98.4937L207.709 98.7295L207.513 99.8266L206.192 99.59L206.388 98.4937Z" fill="black"/>
<path d="M204.643 98.0078L205.93 98.3857L205.617 99.4546L204.329 99.0771L204.643 98.0078Z" fill="black"/>
<path d="M202.944 97.3296L204.183 97.8446L203.755 98.8732L202.517 98.3581L202.944 97.3296Z" fill="black"/>
<path d="M201.342 96.4824L202.52 97.1254L201.986 98.1033L200.809 97.4595L201.342 96.4824Z" fill="black"/>
<path d="M199.829 95.4629L200.931 96.2286L200.295 97.1432L199.194 96.3771L199.829 95.4629Z" fill="black"/>
<path d="M198.444 94.2905L199.456 95.1701L198.725 96.0109L197.712 95.1309L198.444 94.2905Z" fill="black"/>
<path d="M197.193 92.9756L198.104 93.9599L197.287 94.7161L196.375 93.7318L197.193 92.9756Z" fill="black"/>
<path d="M196.095 91.5391L196.895 92.616L196 93.2796L195.2 92.2027L196.095 91.5391Z" fill="black"/>
<path d="M195.152 89.9819L195.831 91.1392L194.87 91.7026L194.192 90.545L195.152 89.9819Z" fill="black"/>
<path d="M194.381 88.3281L194.931 89.5517L193.916 90.0081L193.365 88.7845L194.381 88.3281Z" fill="black"/>
<path d="M193.796 86.6177L194.213 87.8935L193.154 88.239L192.738 86.9636L193.796 86.6177Z" fill="black"/>
<path d="M193.395 84.8418L193.672 86.1545L192.582 86.385L192.305 85.0726L193.395 84.8418Z" fill="black"/>
<path d="M193.187 83.0425L193.323 84.3773L192.214 84.4904L192.078 83.1556L193.187 83.0425Z" fill="black"/>
<path d="M193.174 81.212L193.164 82.5537L192.05 82.5453L192.06 81.2036L193.174 81.212Z" fill="black"/>
<path d="M193.357 79.415L193.203 80.7479L192.096 80.6195L192.25 79.2866L193.357 79.415Z" fill="black"/>
<path d="M193.737 77.6303L193.439 78.9385L192.353 78.6909L192.651 77.3823L193.737 77.6303Z" fill="black"/>
<path d="M194.305 75.9102L193.867 77.1783L192.814 76.8149L193.252 75.5464L194.305 75.9102Z" fill="black"/>
<path d="M195.056 74.2535L194.485 75.4671L193.478 74.9932L194.049 73.7788L195.056 74.2535Z" fill="black"/>
<path d="M195.977 72.6886L195.28 73.8353L194.328 73.257L195.025 72.1104L195.977 72.6886Z" fill="black"/>
<path d="M197.063 71.2265L196.247 72.2913L195.362 71.614L196.178 70.5488L197.063 71.2265Z" fill="black"/>
<path d="M198.298 69.8946L197.371 70.8656L196.566 70.0961L197.492 69.1255L198.298 69.8946Z" fill="black"/>
<path d="M199.662 68.7125L198.636 69.5773L197.918 68.7255L198.944 67.8604L199.662 68.7125Z" fill="black"/>
<path d="M201.163 67.6711L200.05 68.4193L199.429 67.4951L200.542 66.7466L201.163 67.6711Z" fill="black"/>
<path d="M202.759 66.8037L201.571 67.4281L201.053 66.4419L202.241 65.8179L202.759 66.8037Z" fill="black"/>
<path d="M204.443 66.1104L203.195 66.6033L202.786 65.5672L204.034 65.0742L204.443 66.1104Z" fill="black"/>
<path d="M206.189 65.6022L204.895 65.9588L204.6 64.8849L205.894 64.5283L206.189 65.6022Z" fill="black"/>
<path d="M207.969 65.2863L206.645 65.5023L206.465 64.4033L207.789 64.1865L207.969 65.2863Z" fill="black"/>
<path d="M209.778 65.1617L208.439 65.2344L208.377 64.1225L209.717 64.0493L209.778 65.1617Z" fill="black"/>
<path d="M211.6 65.2336L210.26 65.1616L210.319 64.0488L211.659 64.1216L211.6 65.2336Z" fill="black"/>
<path d="M213.392 65.5017L212.067 65.2846L212.248 64.1855L213.571 64.4023L213.392 65.5017Z" fill="black"/>
<path d="M215.154 65.9649L213.861 65.605L214.16 64.5322L215.452 64.8918L215.154 65.9649Z" fill="black"/>
<path d="M216.845 66.6116L215.598 66.1156L216.01 65.0806L217.257 65.5773L216.845 66.6116Z" fill="black"/>
<path d="M227.881 82.0128C227.881 91.8674 219.896 99.8561 210.047 99.8561C200.196 99.8561 192.211 91.8674 192.211 82.0128C192.211 72.1582 200.196 64.1694 210.047 64.1694C219.896 64.1694 227.881 72.1582 227.881 82.0128Z" fill="url(#paint14_radial_1467_5889)"/>
<path d="M222.272 81.8359C222.272 88.7177 216.696 94.2962 209.818 94.2962C202.94 94.2962 197.364 88.7173 197.364 81.8359C197.364 74.955 202.94 69.3765 209.818 69.3765C216.696 69.3765 222.272 74.955 222.272 81.8359Z" fill="url(#paint15_radial_1467_5889)"/>
<path d="M210.388 70.1876L211.904 75.3368C211.976 75.5776 212.265 75.6725 212.464 75.5189L216.716 72.2447C216.998 72.028 217.389 72.3122 217.27 72.6478L215.471 77.7048C215.387 77.9406 215.567 78.1878 215.817 78.1813L221.181 78.0328C221.537 78.0229 221.686 78.483 221.392 78.6842L216.966 81.7184C216.759 81.8601 216.759 82.1652 216.966 82.3073L221.392 85.3411C221.686 85.5423 221.537 86.0025 221.181 85.9926L215.817 85.844C215.567 85.8367 215.387 86.084 215.471 86.3209L217.27 91.3779C217.389 91.7132 216.998 91.9974 216.716 91.7806L212.464 88.5064C212.266 88.3533 211.976 88.4481 211.904 88.6885L210.388 93.8377C210.287 94.1794 209.804 94.1794 209.703 93.8377L208.188 88.6885C208.116 88.4481 207.826 88.3533 207.627 88.5064L203.376 91.7806C203.094 91.9974 202.702 91.7132 202.821 91.3779L204.62 86.3209C204.704 86.084 204.525 85.8367 204.274 85.844L198.911 85.9926C198.555 86.0025 198.406 85.5423 198.699 85.3411L203.125 82.3073C203.332 82.1652 203.332 81.8601 203.125 81.7184L198.699 78.6842C198.406 78.483 198.555 78.0229 198.911 78.0328L204.274 78.1813C204.525 78.1878 204.704 77.9406 204.62 77.7048L202.821 72.6478C202.702 72.3122 203.094 72.028 203.376 72.2447L207.627 75.5189C207.826 75.6725 208.116 75.5776 208.188 75.3368L209.703 70.1876C209.804 69.8463 210.288 69.8463 210.388 70.1876Z" fill="url(#paint16_radial_1467_5889)"/>
<path d="M208.36 83.1329C207.931 83.5988 207.198 83.6289 206.733 83.1996C206.266 82.7702 206.237 82.0384 206.666 81.5722C207.095 81.1063 207.827 81.0762 208.292 81.5055C208.759 81.9341 208.788 82.667 208.36 83.1329Z" fill="url(#paint17_radial_1467_5889)"/>
<path d="M210.816 80.4652C210.387 80.9318 209.655 80.9615 209.19 80.5326C208.724 80.1029 208.694 79.3703 209.123 78.9052C209.552 78.4386 210.284 78.4088 210.749 78.8378C211.215 79.2667 211.245 79.9997 210.816 80.4652Z" fill="url(#paint18_radial_1467_5889)"/>
<path d="M211.011 85.5777C210.582 86.044 209.85 86.0741 209.385 85.6447C208.919 85.2154 208.889 84.4832 209.318 84.0173C209.747 83.5518 210.479 83.5214 210.945 83.9507C211.41 84.3796 211.44 85.1118 211.011 85.5777Z" fill="url(#paint19_radial_1467_5889)"/>
<path d="M213.468 82.9107C213.039 83.3762 212.306 83.4063 211.841 82.9774C211.375 82.548 211.345 81.8155 211.774 81.35C212.203 80.8837 212.935 80.8544 213.401 81.2833C213.867 81.7123 213.897 82.4444 213.468 82.9107Z" fill="url(#paint20_radial_1467_5889)"/>
<path d="M198.477 70.7404L200.02 69.3374L200.389 69.7435L199.872 70.2139L200.995 71.4524L200.488 71.9137L199.363 70.6757L198.846 71.1461L198.477 70.7404Z" fill="#1A1A1A"/>
<path d="M200.482 69.0224L201.044 68.6255L202.325 70.4411L201.762 70.8376L200.482 69.0224Z" fill="#1A1A1A"/>
<path d="M202.671 70.1804L201.636 68.2151L202.648 67.6821C202.835 67.5835 202.987 67.5237 203.103 67.5035C203.219 67.4837 203.33 67.5012 203.437 67.5561C203.544 67.6117 203.63 67.702 203.696 67.8269C203.753 67.9362 203.78 68.0425 203.775 68.1458C203.769 68.2498 203.739 68.3473 203.684 68.4395C203.649 68.4977 203.592 68.561 203.512 68.6296C203.597 68.6158 203.662 68.612 203.709 68.6189C203.739 68.6235 203.79 68.641 203.86 68.6715C203.93 68.7016 203.98 68.7275 204.01 68.748L204.603 69.1633L203.918 69.524L203.277 69.0943C203.195 69.0387 203.131 69.0075 203.088 69.0014C203.027 68.9941 202.969 69.0048 202.914 69.0337L202.861 69.0619L203.28 69.86L202.671 70.1804ZM202.664 68.6897L202.921 68.5549C202.948 68.5404 202.998 68.5031 203.067 68.444C203.104 68.4143 203.126 68.3762 203.134 68.3301C203.142 68.284 203.134 68.2391 203.111 68.196C203.078 68.1324 203.033 68.0943 202.975 68.0814C202.917 68.0688 202.832 68.0917 202.721 68.1503L202.455 68.2905L202.664 68.6897Z" fill="#1A1A1A"/>
<path d="M204.051 67.0218L205.798 66.4478L205.946 66.8984L204.852 67.2576L204.962 67.5933L205.977 67.2599L206.118 67.6904L205.103 68.0233L205.24 68.4393L206.365 68.0702L206.522 68.5475L204.743 69.1319L204.051 67.0218Z" fill="#1A1A1A"/>
<path d="M198.312 70.65L199.856 69.2466L200.225 69.653L199.707 70.1235L200.831 71.3616L200.323 71.8229L199.199 70.5848L198.681 71.0553L198.312 70.65Z" fill="#555555"/>
<path d="M200.317 68.9313L200.879 68.5352L202.16 70.35L201.597 70.7469L200.317 68.9313Z" fill="#555555"/>
<path d="M202.505 70.0887L201.471 68.1234L202.482 67.5905C202.67 67.4918 202.822 67.4324 202.938 67.4122C203.054 67.3924 203.166 67.4099 203.272 67.4651C203.379 67.5204 203.465 67.6103 203.531 67.7352C203.588 67.8442 203.615 67.9508 203.61 68.0544C203.604 68.1581 203.575 68.2563 203.519 68.3478C203.483 68.4064 203.427 68.47 203.347 68.5382C203.432 68.5238 203.497 68.5207 203.544 68.5276C203.574 68.5318 203.625 68.5493 203.695 68.5798C203.765 68.6099 203.815 68.6361 203.844 68.6571L204.437 69.0719L203.751 69.4327L203.111 69.003C203.029 68.947 202.966 68.9154 202.921 68.9097C202.862 68.902 202.804 68.9135 202.749 68.9428L202.695 68.971L203.115 69.7679L202.505 70.0887ZM202.499 68.5988L202.756 68.464C202.783 68.4495 202.832 68.4125 202.903 68.3527C202.939 68.3234 202.961 68.2853 202.969 68.2388C202.976 68.1927 202.969 68.1478 202.947 68.1043C202.913 68.0415 202.867 68.003 202.81 67.9901C202.752 67.9775 202.667 68 202.557 68.0586L202.29 68.1992L202.499 68.5988Z" fill="#555555"/>
<path d="M203.886 66.9306L205.633 66.3569L205.781 66.808L204.687 67.1668L204.797 67.5024L205.812 67.1687L205.953 67.5996L204.939 67.9325L205.075 68.3489L206.2 67.979L206.357 68.4571L204.579 69.041L203.886 66.9306Z" fill="#555555"/>
<path d="M206.958 66.1151L209.036 65.9312L209.085 66.4774L208.388 66.5395L208.536 68.2054L207.852 68.2663L207.704 66.5993L207.007 66.6614L206.958 66.1151Z" fill="#1A1A1A"/>
<path d="M209.594 65.9585L210.281 65.9825L210.204 68.2023L209.517 68.1782L209.594 65.9585Z" fill="#1A1A1A"/>
<path d="M210.638 68.203L211.001 66.0122L212.129 66.1989C212.338 66.2335 212.495 66.2785 212.599 66.3322C212.704 66.3867 212.782 66.4674 212.834 66.576C212.885 66.685 212.9 66.8084 212.876 66.9482C212.856 67.0697 212.813 67.1707 212.746 67.2503C212.68 67.3295 212.597 67.3889 212.497 67.4293C212.433 67.4541 212.349 67.4701 212.245 67.4762C212.321 67.5166 212.376 67.5535 212.408 67.5863C212.43 67.6087 212.459 67.6533 212.497 67.7196C212.535 67.7863 212.559 67.8369 212.569 67.8716L212.792 68.5607L212.027 68.4335L211.777 67.7044C211.745 67.6103 211.714 67.547 211.682 67.5154C211.638 67.4739 211.586 67.4468 211.524 67.4373L211.465 67.427L211.317 68.3165L210.638 68.203ZM211.533 67.0126L211.819 67.0598C211.849 67.0655 211.911 67.0655 212.002 67.0598C212.049 67.0587 212.09 67.0411 212.124 67.0091C212.158 66.9768 212.18 66.9375 212.187 66.8891C212.199 66.8183 212.186 66.7604 212.148 66.7154C212.109 66.6701 212.028 66.637 211.905 66.6168L211.607 66.5672L211.533 67.0126Z" fill="#1A1A1A"/>
<path d="M213.645 66.5215L215.384 67.1211L215.23 67.5687L214.141 67.1942L214.026 67.5283L215.035 67.8757L214.888 68.3043L213.878 67.9565L213.736 68.3702L214.855 68.7565L214.692 69.2319L212.922 68.622L213.645 66.5215Z" fill="#1A1A1A"/>
<path d="M206.882 65.9432L208.96 65.7588L209.009 66.3051L208.312 66.3671L208.459 68.0334L207.775 68.094L207.627 66.4273L206.93 66.4894L206.882 65.9432Z" fill="#555555"/>
<path d="M209.517 65.7856L210.204 65.81L210.127 68.0298L209.44 68.0065L209.517 65.7856Z" fill="#555555"/>
<path d="M210.561 68.0319L210.924 65.8403L212.052 66.0274C212.261 66.062 212.419 66.1062 212.523 66.1607C212.627 66.2152 212.706 66.2963 212.757 66.4049C212.809 66.5131 212.823 66.6373 212.799 66.7767C212.779 66.8982 212.737 66.9988 212.67 67.0788C212.603 67.1584 212.52 67.2182 212.421 67.2582C212.357 67.283 212.273 67.2986 212.169 67.3051C212.245 67.3451 212.299 67.382 212.331 67.4151C212.354 67.4372 212.383 67.4818 212.42 67.5485C212.458 67.6155 212.482 67.6658 212.493 67.7005L212.715 68.3896L211.95 68.2627L211.7 67.5332C211.668 67.4391 211.637 67.3755 211.605 67.3439C211.562 67.3024 211.509 67.2761 211.448 67.2658L211.388 67.2555L211.241 68.1454L210.561 68.0319ZM211.457 66.8411L211.742 66.8883C211.773 66.8936 211.835 66.8936 211.927 66.8883C211.973 66.8868 212.013 66.8696 212.048 66.8376C212.082 66.8053 212.103 66.7656 212.111 66.7176C212.123 66.6472 212.109 66.5893 212.071 66.5436C212.033 66.4982 211.951 66.4655 211.828 66.4449L211.53 66.3954L211.457 66.8411Z" fill="#555555"/>
<path d="M213.569 66.3496L215.308 66.9488L215.153 67.3976L214.065 67.0224L213.95 67.3564L214.959 67.7039L214.811 68.1324L213.802 67.7842L213.66 68.1991L214.779 68.585L214.616 69.06L212.846 68.4505L213.569 66.3496Z" fill="#555555"/>
<path d="M222.14 91.1881L220.799 92.7854L220.378 92.433L220.829 91.897L219.548 90.8216L219.989 90.2959L221.269 91.3713L221.72 90.8349L222.14 91.1881Z" fill="#1A1A1A"/>
<path d="M220.385 93.1609L219.882 93.6295L218.368 92.0032L218.872 91.5347L220.385 93.1609Z" fill="#1A1A1A"/>
<path d="M218.059 92.3091L219.35 94.117L218.419 94.781C218.246 94.9044 218.104 94.9837 217.992 95.0195C217.879 95.0549 217.767 95.0526 217.654 95.0123C217.541 94.9723 217.443 94.8942 217.36 94.7795C217.289 94.6793 217.249 94.5772 217.239 94.474C217.231 94.3704 217.247 94.2694 217.29 94.1704C217.317 94.1079 217.365 94.0374 217.435 93.9589C217.352 93.9841 217.288 93.9967 217.242 93.9963C217.211 93.9963 217.159 93.986 217.085 93.965C217.011 93.9445 216.959 93.9254 216.927 93.9087L216.282 93.578L216.913 93.127L217.606 93.4668C217.694 93.5106 217.762 93.5334 217.806 93.5338C217.866 93.533 217.922 93.5144 217.973 93.4778L218.023 93.4431L217.499 92.7091L218.059 92.3091ZM218.266 93.7841L218.031 93.9525C218.005 93.9704 217.962 94.0142 217.9 94.0828C217.869 94.1167 217.852 94.157 217.85 94.2043C217.848 94.2511 217.862 94.2946 217.89 94.3342C217.931 94.3925 217.982 94.4237 218.041 94.429C218.1 94.4332 218.181 94.4001 218.283 94.3265L218.529 94.1513L218.266 93.7841Z" fill="#1A1A1A"/>
<path d="M217.118 95.625L215.464 96.4288L215.257 96.0025L216.292 95.4993L216.138 95.1816L215.178 95.649L214.98 95.241L215.94 94.7743L215.749 94.3808L214.683 94.8981L214.463 94.4456L216.147 93.627L217.118 95.625Z" fill="#1A1A1A"/>
<path d="M222.314 91.2559L220.974 92.854L220.553 92.5012L221.003 91.9649L219.723 90.8899L220.164 90.3638L221.444 91.4392L221.894 90.9036L222.314 91.2559Z" fill="#555555"/>
<path d="M220.562 93.2289L220.058 93.6975L218.544 92.0716L219.048 91.603L220.562 93.2289Z" fill="#555555"/>
<path d="M218.236 92.3765L219.526 94.184L218.595 94.8492C218.423 94.9718 218.28 95.0518 218.168 95.0872C218.056 95.1227 217.943 95.12 217.83 95.0796C217.717 95.0396 217.619 94.9615 217.538 94.8469C217.466 94.7463 217.425 94.645 217.416 94.541C217.407 94.4381 217.424 94.3372 217.467 94.2385C217.494 94.1757 217.542 94.1048 217.612 94.0267C217.529 94.0518 217.465 94.0644 217.418 94.0644C217.388 94.0644 217.335 94.0534 217.261 94.0328C217.188 94.0122 217.135 93.9932 217.103 93.9764L216.459 93.6454L217.09 93.1951L217.783 93.5345C217.871 93.5791 217.938 93.602 217.983 93.602C218.043 93.6008 218.099 93.5821 218.15 93.546L218.199 93.5102L217.676 92.7764L218.236 92.3765ZM218.443 93.8526L218.207 94.0202C218.181 94.0389 218.138 94.0816 218.077 94.1505C218.045 94.184 218.028 94.2248 218.026 94.272C218.025 94.3185 218.038 94.3619 218.066 94.4019C218.108 94.4598 218.159 94.4918 218.217 94.4968C218.277 94.5017 218.357 94.4678 218.459 94.3951L218.705 94.2198L218.443 93.8526Z" fill="#555555"/>
<path d="M217.294 95.6925L215.64 96.4959L215.432 96.0696L216.468 95.5664L216.314 95.2487L215.354 95.7153L215.155 95.3085L216.116 94.8415L215.924 94.4476L214.859 94.9653L214.639 94.5135L216.323 93.6948L217.294 95.6925Z" fill="#555555"/>
<path d="M214.359 96.9145L212.325 97.3774L212.203 96.8425L212.885 96.6875L212.514 95.0567L213.183 94.9043L213.555 96.5355L214.237 96.3804L214.359 96.9145Z" fill="#1A1A1A"/>
<path d="M211.77 97.4264L211.085 97.4954L210.862 95.2852L211.546 95.2158L211.77 97.4264Z" fill="#1A1A1A"/>
<path d="M210.431 95.3418L210.367 97.5616L209.224 97.5284C209.012 97.522 208.851 97.4991 208.74 97.4595C208.629 97.4202 208.541 97.3498 208.475 97.2496C208.409 97.149 208.378 97.0283 208.382 96.8869C208.386 96.7639 208.415 96.6576 208.47 96.5704C208.526 96.4828 208.599 96.4123 208.693 96.359C208.753 96.325 208.834 96.2988 208.937 96.2782C208.856 96.2485 208.797 96.2199 208.761 96.191C208.736 96.1723 208.701 96.1319 208.654 96.0713C208.608 96.0104 208.577 95.9635 208.562 95.9304L208.249 95.2778L209.024 95.3003L209.371 95.9894C209.415 96.0786 209.454 96.1372 209.49 96.1643C209.538 96.2001 209.594 96.2188 209.657 96.2207L209.717 96.2222L209.743 95.3216L210.431 95.3418ZM209.704 96.6428L209.415 96.6344C209.383 96.6325 209.323 96.6412 209.233 96.6587C209.187 96.6667 209.149 96.6888 209.119 96.7254C209.089 96.7616 209.074 96.8043 209.072 96.853C209.07 96.9246 209.091 96.9806 209.136 97.0203C209.18 97.0595 209.265 97.0812 209.39 97.085L209.691 97.0938L209.704 96.6428Z" fill="#1A1A1A"/>
<path d="M207.677 97.4139L205.874 97.0551L205.966 96.5896L207.096 96.8147L207.165 96.4681L206.118 96.2597L206.206 95.8155L207.253 96.0239L207.339 95.5946L206.177 95.3629L206.275 94.8696L208.111 95.2357L207.677 97.4139Z" fill="#1A1A1A"/>
<path d="M214.458 97.0748L212.424 97.5376L212.303 97.0032L212.985 96.8481L212.614 95.2169L213.283 95.0649L213.654 96.6958L214.336 96.5407L214.458 97.0748Z" fill="#555555"/>
<path d="M211.869 97.5866L211.183 97.6559L210.96 95.4453L211.645 95.376L211.869 97.5866Z" fill="#555555"/>
<path d="M210.53 95.502L210.466 97.7221L209.323 97.6886C209.111 97.6825 208.949 97.6593 208.839 97.62C208.728 97.5804 208.639 97.5103 208.574 97.4097C208.508 97.3092 208.477 97.1884 208.481 97.0471C208.485 96.924 208.514 96.8181 208.569 96.7309C208.625 96.6433 208.698 96.5724 208.792 96.5199C208.852 96.4863 208.933 96.4589 209.035 96.4383C208.954 96.4094 208.896 96.3801 208.859 96.3515C208.835 96.3328 208.799 96.2928 208.753 96.2315C208.708 96.1709 208.676 96.1237 208.661 96.0913L208.348 95.438L209.123 95.4605L209.469 96.15C209.514 96.2387 209.553 96.2974 209.589 96.3244C209.638 96.3602 209.692 96.3793 209.755 96.3808L209.816 96.3823L209.843 95.4818L210.53 95.502ZM209.803 96.8025L209.514 96.7941C209.483 96.7926 209.422 96.8014 209.332 96.8185C209.286 96.8269 209.248 96.849 209.218 96.8856C209.189 96.9221 209.173 96.9644 209.171 97.0136C209.169 97.0852 209.19 97.1408 209.235 97.1804C209.279 97.2204 209.364 97.2417 209.489 97.2452L209.79 97.2536L209.803 96.8025Z" fill="#555555"/>
<path d="M207.778 97.5738L205.974 97.215L206.066 96.7498L207.196 96.9746L207.265 96.6287L206.218 96.42L206.306 95.9754L207.353 96.1838L207.439 95.7544L206.277 95.5236L206.375 95.0303L208.211 95.3956L207.778 97.5738Z" fill="#555555"/>
<path d="M21.4111 56.3454C22.3782 52.6134 4.99066 53.2625 4.99066 53.2625C4.97048 53.2712 4.93164 53.2709 4.92479 53.291C3.57308 57.217 1.55922 64.1468 1.25803 65.0355L5.32497 65.0667C5.77389 65.1806 20.4489 60.0577 21.4111 56.3454Z" fill="#B3B3B3"/>
<path d="M5.90555 53.3105C5.88537 53.3197 4.94488 53.2823 4.92508 53.2911L4.70539 53.9109C5.28186 53.9288 6.13097 53.9581 6.74552 54.0031L10.1115 54.2922L9.67816 58.91L14.1346 58.6708C13.1915 59.3926 12.0503 60.1267 10.8338 60.8364H4.6437L4.35166 64.1495C3.58137 64.4984 2.88 64.8028 2.29515 65.0439L5.32527 65.0672C5.77381 65.1811 20.4488 60.1545 21.4114 56.4423C22.3789 52.7098 5.90555 53.3105 5.90555 53.3105Z" fill="#999999"/>
<path d="M20.1443 55.1781C20.1443 55.1781 17.9697 54.2749 15.6836 54.2749L13.1565 61.7993C13.1565 61.7993 23.0198 56.9457 20.1443 55.1781Z" fill="#808080"/>
<path d="M19.7644 55.3896C19.7644 55.3896 18.0075 54.6597 16.16 54.6597L15.8893 55.4657L18.5714 55.8094L15.7359 55.9225L15.357 57.0512H17.7893L15.2039 57.508L14.8243 58.6375L16.9132 58.5784L14.632 59.2108L14.1184 60.7395C14.1184 60.7395 22.0878 56.8181 19.7644 55.3896Z" fill="#FFC400"/>
<path d="M21.4107 56.3937C22.2244 53.0334 7.80451 53.3024 7.80451 53.3024C7.78433 53.3111 4.80257 53.2738 4.7961 53.2944C3.4322 57.468 1.55884 64.1474 1.25804 65.0358L5.32498 65.067C5.77352 65.1809 20.5083 60.1212 21.4107 56.3937Z" fill="url(#paint21_linear_1467_5889)"/>
<path d="M21.2319 55.3972C19.3536 53.0544 8.27188 53.2331 7.80316 53.2422L7.78907 53.2429C7.71216 53.2449 7.22287 53.2414 6.70732 53.2372C5.58978 53.2281 5.11687 53.225 4.90974 53.2334C4.89869 53.2696 4.88689 53.3054 4.87394 53.3412C4.87661 53.3443 4.87965 53.3469 4.88194 53.3496C5.13743 53.3454 6.02804 53.3519 6.70656 53.3576C7.55642 53.3641 7.75138 53.3656 7.80506 53.3618V53.3622C7.92005 53.3599 19.2965 53.1751 21.1379 55.4726C21.3622 55.7522 21.4322 56.049 21.3523 56.3792C20.8835 58.3121 16.6643 60.5574 13.2066 62.1002C9.32926 63.8309 5.6884 65.008 5.33848 65.008C5.33277 65.008 5.32858 65.0072 5.32477 65.0068L1.34046 64.976C1.34084 64.9752 1.3416 64.9737 1.3416 64.9722C1.31076 65.0057 1.27649 65.0354 1.24222 65.0659C1.2407 65.0762 1.23651 65.0857 1.2346 65.096L5.30954 65.1249C5.31601 65.1264 5.32515 65.128 5.33619 65.128C5.96064 65.128 13.4297 62.5303 17.8561 59.8622C20.0124 58.562 21.2277 57.3998 21.468 56.4074C21.5571 56.0436 21.4779 55.7038 21.2319 55.3972Z" fill="black"/>
<path d="M8.97115 53.5585C8.97115 53.5585 6.38386 54.2685 4.87947 57.2845C3.37545 60.3008 4.87947 57.4707 4.87947 57.4707C4.87947 57.4707 8.48949 54.5215 17.9362 54.5215C17.9362 54.5215 15.1079 52.8964 8.97115 53.5585Z" fill="white"/>
<path d="M253.05 55.2203H250.491V49.4414H252.906L253.05 55.2203Z" fill="#F2F2F2"/>
<path d="M52.7661 47.6754H49.9032C48.4376 47.6754 47.2493 46.4868 47.2493 45.0206V33.6361C47.2493 32.1699 48.4376 30.981 49.9032 30.981H52.7661C54.2317 30.981 55.4201 32.1699 55.4201 33.6361V45.0206C55.4201 46.4868 54.2317 47.6754 52.7661 47.6754Z" fill="url(#paint22_linear_1467_5889)"/>
<path opacity="0.08" d="M0.572586 71.2485H20.4881C20.4881 71.2485 15.3832 76.2979 16.9127 84.4905C16.9127 84.4905 15.0728 71.2485 0.572586 71.2485Z" fill="white"/>
<path opacity="0.08" d="M255.083 70.1802H228.61C228.61 70.1802 233.243 77.4204 232.942 82.5532C232.942 82.5532 234.145 71.1542 255.083 70.1802Z" fill="white"/>
<path d="M245.521 34.8829L179.78 35.2578L179.785 36.241L245.527 35.8661L245.521 34.8829Z" fill="#999999"/>
<path d="M27.4487 37.7313C27.4487 37.7313 11.2057 46.6674 7.57249 50.3028C7.57249 50.3028 25.1961 39.4235 38.9695 37.2475C38.9695 37.2475 33.2059 36.8852 27.4487 37.7313Z" fill="#B3B3B3"/>
<path d="M122.094 26.2979V25.1356C122.094 25.0285 122.01 24.9423 121.905 24.9423H119.446C119.377 24.9423 119.321 24.8849 119.321 24.8143V24.0386C119.321 23.9681 119.377 23.9106 119.446 23.9106H124.175C124.28 23.9106 124.364 23.8244 124.364 23.7173V22.5551C124.364 22.448 124.28 22.3618 124.175 22.3618H119.446C119.377 22.3618 119.321 22.3043 119.321 22.2338V21.4581C119.321 21.3876 119.377 21.3301 119.446 21.3301H126.446C126.551 21.3301 126.635 21.2439 126.635 21.1368V19.9745C126.635 19.8674 126.551 19.7812 126.446 19.7812H117.201C117.144 19.7812 117.116 19.8518 117.157 19.8909L117.731 20.4786C117.78 20.5282 117.805 20.5935 117.805 20.6615V26.3005C117.805 26.4076 117.889 26.4938 117.994 26.4938H121.902C122.007 26.4938 122.091 26.4076 122.091 26.3005L122.094 26.2979Z" fill="white"/>
<path d="M135.462 24.0384V24.8142C135.462 24.8847 135.406 24.9421 135.337 24.9421H128.4C128.26 24.9421 128.148 25.0571 128.148 25.2007V25.6108C128.148 25.6787 128.173 25.744 128.222 25.7936L128.832 26.4179C128.88 26.4675 128.944 26.4936 129.01 26.4936H136.789C136.893 26.4936 136.977 26.4074 136.977 26.3003V22.5549C136.977 22.4478 136.893 22.3616 136.789 22.3616H129.791C129.722 22.3616 129.666 22.3042 129.666 22.2336V21.4605C129.666 21.39 129.722 21.3325 129.791 21.3325H136.791C136.896 21.3325 136.98 21.2463 136.98 21.1393V19.977C136.98 19.8699 136.896 19.7837 136.791 19.7837H129.013C128.946 19.7837 128.883 19.8098 128.834 19.8594L128.15 20.5594V23.7224C128.15 23.8295 128.235 23.9157 128.339 23.9157H135.34C135.408 23.9157 135.465 23.9731 135.465 24.0437L135.462 24.0384Z" fill="white"/>
<path d="M147.065 19.9718V26.2977C147.065 26.4048 147.149 26.491 147.253 26.491H155.285C155.351 26.491 155.415 26.4649 155.463 26.4153L156.073 25.791C156.121 25.7414 156.147 25.6761 156.147 25.6082V20.6587C156.147 20.5908 156.121 20.5255 156.073 20.4759L155.463 19.8516C155.415 19.802 155.351 19.7759 155.285 19.7759H147.253C147.149 19.7759 147.065 19.8621 147.065 19.9692V19.9718ZM154.506 24.9422H148.705C148.636 24.9422 148.58 24.8847 148.58 24.8142V24.0385C148.58 23.9679 148.636 23.9105 148.705 23.9105H154.506C154.575 23.9105 154.631 23.9679 154.631 24.0385V24.8142C154.631 24.8847 154.575 24.9422 154.506 24.9422ZM154.506 22.359H148.705C148.636 22.359 148.58 22.3016 148.58 22.231V21.4553C148.58 21.3848 148.636 21.3273 148.705 21.3273H154.506C154.575 21.3273 154.631 21.3848 154.631 21.4553V22.231C154.631 22.3016 154.575 22.359 154.506 22.359Z" fill="white"/>
<path d="M165.224 19.9716V24.417C165.224 24.5241 165.102 24.5842 165.02 24.5189L159.239 19.8332C159.196 19.7966 159.14 19.7783 159.084 19.7783H157.846C157.742 19.7783 157.657 19.8645 157.657 19.9716V26.2976C157.657 26.4047 157.742 26.4908 157.846 26.4908H158.982C159.086 26.4908 159.17 26.4047 159.17 26.2976V21.8522C159.17 21.7451 159.293 21.685 159.374 21.7503L165.188 26.4621C165.211 26.4804 165.24 26.4908 165.268 26.4908H166.548C166.653 26.4908 166.737 26.4047 166.737 26.2976V20.6585C166.737 20.5906 166.763 20.5253 166.811 20.4757L167.385 19.888C167.426 19.8462 167.398 19.7783 167.342 19.7783H165.413C165.308 19.7783 165.224 19.8645 165.224 19.9716Z" fill="white"/>
<path d="M146.559 11.3212V11.3865C146.559 11.457 146.503 11.5144 146.434 11.5144H137.607C137.538 11.5144 137.482 11.457 137.482 11.3865V11.3212C137.482 11.2846 137.454 11.2559 137.418 11.2559H137.041C137.005 11.2559 136.977 11.2846 136.977 11.3212V13.2566C136.977 13.2931 137.005 13.3219 137.041 13.3219H137.418C137.454 13.3219 137.482 13.2931 137.482 13.2566V13.1913C137.482 13.1207 137.538 13.0633 137.607 13.0633H146.434C146.503 13.0633 146.559 13.1207 146.559 13.1913V13.2566C146.559 13.2931 146.587 13.3219 146.623 13.3219H147.001C147.036 13.3219 147.064 13.2931 147.064 13.2566V11.3212C147.064 11.2846 147.036 11.2559 147.001 11.2559H146.623C146.587 11.2559 146.559 11.2846 146.559 11.3212Z" fill="white"/>
<path d="M144.794 26.2979V25.7703C144.794 25.7363 144.781 25.7024 144.758 25.6788L144.113 25.018C144.064 24.9684 144.039 24.9031 144.039 24.8352V13.0635H142.526V26.2979C142.526 26.4049 142.61 26.4911 142.715 26.4911H144.608C144.712 26.4911 144.796 26.4049 144.796 26.2979H144.794Z" fill="white"/>
<path d="M141.513 26.2979V13.0635H140V24.8352C140 24.9031 139.975 24.9684 139.927 25.018L139.281 25.6788C139.258 25.7024 139.245 25.7363 139.245 25.7703V26.2979C139.245 26.4049 139.33 26.4911 139.434 26.4911H141.327C141.432 26.4911 141.516 26.4049 141.516 26.2979H141.513Z" fill="white"/>
<path d="M168.161 20.9928C168.161 21.2122 167.995 21.382 167.78 21.382C167.566 21.382 167.402 21.2096 167.402 20.9954C167.402 20.7813 167.566 20.6089 167.783 20.6089C168 20.6089 168.161 20.776 168.161 20.9928ZM168.11 20.9928C168.11 20.8022 167.972 20.6559 167.783 20.6559C167.594 20.6559 167.454 20.8048 167.454 20.9928C167.454 21.1809 167.594 21.3298 167.78 21.3298C167.967 21.3298 168.11 21.1809 168.11 20.9902V20.9928ZM167.885 21.0607L167.982 21.2148H167.908L167.819 21.0738H167.701V21.2148H167.627V20.776H167.798C167.905 20.776 167.972 20.8335 167.972 20.9249C167.972 20.9928 167.939 21.0398 167.882 21.0607H167.885ZM167.905 20.9249C167.905 20.8701 167.865 20.8387 167.798 20.8387H167.704V21.0137H167.798C167.867 21.0137 167.905 20.9824 167.905 20.9249Z" fill="white"/>
<defs>
<linearGradient id="paint0_linear_1467_5889" x1="14.4862" y1="64.9324" x2="14.4862" y2="70.5501" gradientUnits="userSpaceOnUse">
<stop stop-color="#4D4D4D"/>
<stop offset="1" stop-color="#1A1A1A"/>
</linearGradient>
<linearGradient id="paint1_linear_1467_5889" x1="10.973" y1="70.5499" x2="10.973" y2="87.1031" gradientUnits="userSpaceOnUse">
<stop stop-color="#4D4D4D"/>
<stop offset="1" stop-color="#1A1A1A"/>
</linearGradient>
<linearGradient id="paint2_linear_1467_5889" x1="239.534" y1="64.1402" x2="239.534" y2="69.3465" gradientUnits="userSpaceOnUse">
<stop stop-color="#4D4D4D"/>
<stop offset="1" stop-color="#1A1A1A"/>
</linearGradient>
<linearGradient id="paint3_linear_1467_5889" x1="242.001" y1="69.3464" x2="242.001" y2="83.7931" gradientUnits="userSpaceOnUse">
<stop stop-color="#4D4D4D"/>
<stop offset="1" stop-color="#1A1A1A"/>
</linearGradient>
<linearGradient id="paint4_linear_1467_5889" x1="39.4653" y1="49.6018" x2="39.4653" y2="30.3389" gradientUnits="userSpaceOnUse">
<stop offset="0.1774" stop-color="#1A1A1A"/>
<stop offset="0.8172" stop-color="#4D4D4D"/>
</linearGradient>
<linearGradient id="paint5_linear_1467_5889" x1="68.6274" y1="7.22942" x2="74.8347" y2="46.4026" gradientUnits="userSpaceOnUse">
<stop offset="0.1667" stop-color="#4D4D4D"/>
<stop offset="0.2849" stop-color="#E6E6E6"/>
<stop offset="0.5538" stop-color="#E6E6E6"/>
<stop offset="0.8871" stop-color="#4D4D4D"/>
</linearGradient>
<linearGradient id="paint6_linear_1467_5889" x1="72.2388" y1="49.2808" x2="72.2388" y2="7.06303" gradientUnits="userSpaceOnUse">
<stop offset="0.1774" stop-color="#1A1A1A"/>
<stop offset="0.8172" stop-color="#4D4D4D"/>
</linearGradient>
<radialGradient id="paint7_radial_1467_5889" cx="0" cy="0" r="1" gradientUnits="userSpaceOnUse" gradientTransform="translate(39.5761 82.0128) scale(17.8348 17.8432)">
<stop offset="0.6847" stop-color="#303030"/>
<stop offset="0.7192" stop-color="#666666"/>
<stop offset="0.8128" stop-color="#303030"/>
<stop offset="0.9606" stop-color="#202020"/>
</radialGradient>
<radialGradient id="paint8_radial_1467_5889" cx="0" cy="0" r="1" gradientUnits="userSpaceOnUse" gradientTransform="translate(39.3488 81.8364) scale(12.454 12.4599)">
<stop offset="0.6995" stop-color="#202020"/>
<stop offset="0.9064" stop-color="#888888"/>
<stop offset="0.936" stop-color="white"/>
</radialGradient>
<radialGradient id="paint9_radial_1467_5889" cx="0" cy="0" r="1" gradientUnits="userSpaceOnUse" gradientTransform="translate(39.1922 81.1924) scale(11.8054 11.8109)">
<stop stop-color="white"/>
<stop offset="0.803" stop-color="#888888"/>
<stop offset="1" stop-color="white"/>
</radialGradient>
<radialGradient id="paint10_radial_1467_5889" cx="0" cy="0" r="1" gradientUnits="userSpaceOnUse" gradientTransform="translate(36.4387 82.0063) rotate(-47.3597) scale(1.15155 1.15151)">
<stop offset="0.3498" stop-color="#808080"/>
<stop offset="0.6601"/>
<stop offset="0.7833" stop-color="#4D4D4D"/>
<stop offset="1"/>
</radialGradient>
<radialGradient id="paint11_radial_1467_5889" cx="0" cy="0" r="1" gradientUnits="userSpaceOnUse" gradientTransform="translate(38.8959 79.3393) rotate(-47.3598) scale(1.15148 1.15143)">
<stop offset="0.3498" stop-color="#808080"/>
<stop offset="0.6601"/>
<stop offset="0.7833" stop-color="#4D4D4D"/>
<stop offset="1"/>
</radialGradient>
<radialGradient id="paint12_radial_1467_5889" cx="0" cy="0" r="1" gradientUnits="userSpaceOnUse" gradientTransform="translate(39.0905 84.4515) rotate(-47.3597) scale(1.15155 1.15151)">
<stop offset="0.3498" stop-color="#808080"/>
<stop offset="0.6601"/>
<stop offset="0.7833" stop-color="#4D4D4D"/>
<stop offset="1"/>
</radialGradient>
<radialGradient id="paint13_radial_1467_5889" cx="0" cy="0" r="1" gradientUnits="userSpaceOnUse" gradientTransform="translate(41.5469 81.7842) rotate(-47.3597) scale(1.15159 1.15154)">
<stop offset="0.3498" stop-color="#808080"/>
<stop offset="0.6601"/>
<stop offset="0.7833" stop-color="#4D4D4D"/>
<stop offset="1"/>
</radialGradient>
<radialGradient id="paint14_radial_1467_5889" cx="0" cy="0" r="1" gradientUnits="userSpaceOnUse" gradientTransform="translate(210.046 82.0128) scale(17.8349 17.8433)">
<stop offset="0.6847" stop-color="#303030"/>
<stop offset="0.7192" stop-color="#666666"/>
<stop offset="0.8128" stop-color="#303030"/>
<stop offset="0.9606" stop-color="#202020"/>
</radialGradient>
<radialGradient id="paint15_radial_1467_5889" cx="0" cy="0" r="1" gradientUnits="userSpaceOnUse" gradientTransform="translate(209.818 81.8364) scale(12.4542 12.46)">
<stop offset="0.6995" stop-color="#202020"/>
<stop offset="0.9064" stop-color="#888888"/>
<stop offset="0.936" stop-color="white"/>
</radialGradient>
<radialGradient id="paint16_radial_1467_5889" cx="0" cy="0" r="1" gradientUnits="userSpaceOnUse" gradientTransform="translate(209.662 81.1924) scale(11.8055 11.811)">
<stop stop-color="white"/>
<stop offset="0.803" stop-color="#888888"/>
<stop offset="1" stop-color="white"/>
</radialGradient>
<radialGradient id="paint17_radial_1467_5889" cx="0" cy="0" r="1" gradientUnits="userSpaceOnUse" gradientTransform="translate(206.909 82.0062) rotate(-47.3598) scale(1.15159 1.15154)">
<stop offset="0.3498" stop-color="#808080"/>
<stop offset="0.6601"/>
<stop offset="0.7833" stop-color="#4D4D4D"/>
<stop offset="1"/>
</radialGradient>
<radialGradient id="paint18_radial_1467_5889" cx="0" cy="0" r="1" gradientUnits="userSpaceOnUse" gradientTransform="translate(209.366 79.3393) rotate(-47.3596) scale(1.15136 1.15132)">
<stop offset="0.3498" stop-color="#808080"/>
<stop offset="0.6601"/>
<stop offset="0.7833" stop-color="#4D4D4D"/>
<stop offset="1"/>
</radialGradient>
<radialGradient id="paint19_radial_1467_5889" cx="0" cy="0" r="1" gradientUnits="userSpaceOnUse" gradientTransform="translate(209.56 84.4515) rotate(-47.3596) scale(1.15152 1.15147)">
<stop offset="0.3498" stop-color="#808080"/>
<stop offset="0.6601"/>
<stop offset="0.7833" stop-color="#4D4D4D"/>
<stop offset="1"/>
</radialGradient>
<radialGradient id="paint20_radial_1467_5889" cx="0" cy="0" r="1" gradientUnits="userSpaceOnUse" gradientTransform="translate(212.017 81.7841) rotate(-47.3597) scale(1.15166 1.15162)">
<stop offset="0.3498" stop-color="#808080"/>
<stop offset="0.6601"/>
<stop offset="0.7833" stop-color="#4D4D4D"/>
<stop offset="1"/>
</radialGradient>
<linearGradient id="paint21_linear_1467_5889" x1="8.10383" y1="52.0237" x2="12.1895" y2="62.6623" gradientUnits="userSpaceOnUse">
<stop stop-color="white"/>
<stop offset="0.3871" stop-color="white"/>
<stop offset="0.8065" stop-color="#333333"/>
</linearGradient>
<linearGradient id="paint22_linear_1467_5889" x1="47.2495" y1="39.3284" x2="55.4201" y2="39.3284" gradientUnits="userSpaceOnUse">
<stop stop-color="#4D4D4D"/>
<stop offset="0.1774" stop-color="#1A1A1A"/>
<stop offset="0.8118" stop-color="#1A1A1A"/>
<stop offset="1" stop-color="#4D4D4D"/>
</linearGradient>
</defs>
</svg>
