<svg width="24" height="24" viewBox="0 0 24 24" fill="none" xmlns="http://www.w3.org/2000/svg">
<path d="M5.74444 20.936C4.97102 20.7489 4.26232 20.0183 4.03054 19.1689C3.9393 18.8345 3.93719 18.8317 3.73536 18.7752C2.99879 18.5687 2.33872 17.8558 2.09904 17.0079L2 16.6575V10.9106V5.1636L2.11615 4.81022C2.41787 3.89228 3.11216 3.21554 3.91926 3.05267C4.0959 3.01703 5.52214 2.99944 8.1884 3.00001C12.5841 3.00096 12.5299 2.99763 13.0689 3.30046C13.241 3.39715 13.4706 3.59071 13.6497 3.79012C14.1364 4.33176 14.3579 4.95841 14.3596 5.798L14.3604 6.18362H16.4309C17.7141 6.18362 18.6022 6.20397 18.7666 6.23714C19.3673 6.35836 20.0347 6.86789 20.3354 7.43483C20.4131 7.58134 20.7925 8.58335 21.1786 9.6615C21.707 11.1373 21.8964 11.7248 21.9451 12.0385C21.9971 12.3743 22.007 12.9594 21.9959 15.0539L21.9822 17.6527L21.8659 17.9286C21.7055 18.3095 21.5069 18.5447 21.208 18.708C20.9607 18.8432 20.9296 18.8475 20.0244 18.8717L19.0947 18.8966L18.9915 19.2257C18.7448 20.012 18.2119 20.598 17.4944 20.8718C17.0808 21.0297 16.4263 21.0283 16.0144 20.8688C15.2798 20.5842 14.6655 19.8735 14.4926 19.1081L14.4392 18.8718H11.5181H8.59713L8.54656 19.0833C8.45327 19.4734 8.19443 19.9474 7.9067 20.2549C7.31901 20.883 6.54008 21.1284 5.74444 20.936ZM6.91733 19.8051C7.18346 19.6519 7.42732 19.3784 7.57183 19.0708C7.66082 18.8814 7.67702 18.774 7.67694 18.3742C7.67685 17.9581 7.66261 17.8717 7.55799 17.6527C7.29931 17.1112 6.8931 16.8267 6.32958 16.7923C6.00545 16.7724 5.93653 16.7846 5.70373 16.903C5.38603 17.0644 5.13901 17.3204 4.98028 17.6527C4.87566 17.8717 4.86141 17.9581 4.86133 18.3742C4.86123 18.9098 4.93787 19.138 5.23453 19.4855C5.53775 19.8407 5.84367 19.9693 6.33619 19.9486C6.61544 19.9369 6.7428 19.9055 6.91733 19.8051ZM17.391 19.8239C17.6833 19.6555 17.9207 19.3904 18.0582 19.0788C18.1645 18.8378 18.1825 18.7359 18.1825 18.3742C18.1825 18.0124 18.1645 17.9105 18.0582 17.6696C17.9216 17.3598 17.6863 17.0961 17.391 16.9216C17.2303 16.8266 17.1298 16.808 16.7743 16.8075C16.2804 16.8067 16.0331 16.9103 15.7339 17.2434C15.1171 17.93 15.2052 19.1338 15.912 19.675C16.2245 19.9144 16.3978 19.9669 16.819 19.9498C17.1046 19.9383 17.2467 19.907 17.391 19.8239ZM14.4926 17.6403C14.5778 17.2632 14.8069 16.8377 15.1013 16.5101C16.3249 15.1481 18.4173 15.6928 18.9915 17.5227L19.0948 17.8517L19.8233 17.8668C20.2661 17.8759 20.6183 17.8603 20.7215 17.8268C20.9644 17.7479 21.0654 17.542 21.0657 17.1252L21.0658 16.7967L20.6747 16.7671C20.1221 16.7254 19.8873 16.6219 19.5866 16.2876C19.0244 15.6624 19.0244 14.7169 19.5866 14.0918C19.8873 13.7575 20.1221 13.654 20.6747 13.6123L21.0658 13.5827V13.0428V12.5028H19.257C17.5553 12.5028 17.434 12.4969 17.2083 12.4029C16.867 12.2607 16.6253 12.0101 16.4521 11.6186L16.305 11.2858V10.413V9.54015L16.4521 9.20742C16.6253 8.81594 16.867 8.56526 17.2083 8.4231C17.425 8.33286 17.5562 8.32319 18.5641 8.32319C19.4518 8.32319 19.68 8.30992 19.68 8.25829C19.68 8.15112 19.4371 7.75862 19.2792 7.61079C19.1981 7.53476 19.0488 7.42325 18.9476 7.36298C18.7661 7.25491 18.7333 7.25321 16.562 7.23919L14.3604 7.22497V10.7587V14.2925L14.2299 14.455L14.0995 14.6175L8.50467 14.6305L2.90983 14.6435L2.9243 15.6505C2.94059 16.7846 2.97145 16.9224 3.29969 17.3268C3.44883 17.5105 3.8255 17.7771 3.93602 17.7771C3.95753 17.7771 4.0007 17.6819 4.03194 17.5656C4.20526 16.9205 4.65262 16.3409 5.21322 16.035C5.90018 15.6602 6.60667 15.6495 7.27682 16.0037C7.86841 16.3164 8.38601 16.9937 8.54657 17.6651L8.59713 17.8766H11.5182H14.4392L14.4926 17.6403ZM21.0658 15.1844V14.6318L20.7089 14.6499C20.3897 14.666 20.339 14.6824 20.2284 14.8056C19.999 15.0608 20.08 15.5566 20.3729 15.69C20.4221 15.7124 20.5981 15.7322 20.7641 15.7339L21.0658 15.7371V15.1844ZM13.4114 9.38053L13.3993 5.1636L13.2802 4.91481C13.1375 4.61663 12.891 4.34589 12.617 4.18616L12.4158 4.06893H8.16901H3.92223L3.73023 4.18304C3.4343 4.35892 3.1995 4.62238 3.06303 4.9317L2.93876 5.21335L2.9266 9.40541L2.91444 13.5975H8.169H13.4236L13.4114 9.38053ZM20.8296 11.4455C20.8173 11.4113 20.6405 10.9187 20.4367 10.3508L20.0661 9.31834H18.8658C17.5384 9.31834 17.4166 9.34093 17.2914 9.61049C17.1914 9.82565 17.1914 11.0002 17.2913 11.2153C17.4204 11.4932 17.4903 11.5036 19.2489 11.5057C20.5139 11.5072 20.8472 11.4945 20.8296 11.4455Z" fill="white"/>
</svg>
